<?xml version="1.0" encoding="utf-8" ?><svg xmlns="http://www.w3.org/2000/svg" xmlns:xlink="http://www.w3.org/1999/xlink" width="200" height="250" viewBox="0 0 200 250"><path fill="#FEFEFC" transform="scale(0.195312 0.195312)" d="M0 0L1024 0L1024 515.113L1024 526.463L1024 562.158L1024 572.933L1024 614.791L1024 624.407L1024 651.776L1024 659.327L1024 741.885L1024 751.675L1024 762.787L1024 773.835L1024 1280L668.171 1280L633.612 1280L524.955 1280L520.084 1280L488.055 1280L479.467 1280L464.342 1280L455.226 1280L395.187 1280L383.472 1280L331.364 1280L323.928 1280L0 1280L0 1063.42L0 1058L0 1049.21L0 1044.2L0 1017.91L0 1010.87L0 981.735L0 975.352L0 966.219L0 960.565L0 918.287L0 911.249L0 904.504L0 898.873L0 0Z"/><path fill="#1F507A" transform="scale(0.195312 0.195312)" d="M708.573 951.526L778.621 931.762C792.885 927.668 807.152 922.785 821.638 919.582C827.37 928.138 832.514 937.139 837.836 945.955C842.073 952.974 846.69 959.949 850.473 967.217C859.04 964.856 867.109 964.586 875.074 969.071C884.516 974.387 888.279 982.029 890.993 992.12L928.297 1126.83C931.191 1137.57 934.15 1148.29 937.172 1159C939.122 1165.85 941.692 1173.01 942.676 1180.07C943.405 1185.3 943.163 1191.74 940.471 1196.43C938.035 1200.68 933.736 1204.28 929.238 1206.18C922.019 1209.22 913.686 1210.94 906.13 1213.05C889.908 1217.63 873.645 1222.05 857.344 1226.33L734.813 1260.71L691.449 1273.13C683.726 1275.37 675.747 1277.33 668.171 1280L633.612 1280C630.316 1277.36 627.392 1274.23 625.799 1270.25C622.14 1261.1 619.774 1251.07 617.005 1241.61L600.571 1185.23C592.11 1157.25 583.809 1129.22 575.668 1101.14C572.965 1091.54 568.577 1080.08 567.582 1070.35C566.903 1063.71 569.382 1055.94 573.734 1050.89C582.259 1041.01 603.139 1037.98 615.507 1033.85C614.249 1030.26 612.861 1026.67 612.1 1022.94C617.944 1020.5 624.081 1018.78 630.127 1016.92C628.858 1013.59 627.404 1010.24 626.597 1006.76C613.319 997.845 597.606 991.694 583.127 984.913L523.441 956.668C514.409 952.438 501.997 948.081 493.952 942.511C491.422 940.759 489.31 938.427 488.622 935.343C488.041 932.737 488.741 930.207 490.192 928.015C492.239 924.924 494.134 923.95 497.61 922.949C497.897 922.866 498.183 922.775 498.47 922.691C498.642 922.64 498.816 922.594 498.989 922.545C514.374 928.917 529.208 936.617 544.348 943.551C555.835 948.812 574.593 956.323 584.857 962.83C586.229 963.7 586.941 964.338 587.616 965.818C587.605 967.527 587.765 967.835 586.686 969.235C584.486 969.984 582.649 969.54 580.491 968.797C570.635 965.403 560.811 959.714 551.326 955.261C537.925 948.971 524.254 943.248 510.97 936.712C507.255 934.884 501.694 930.92 497.33 932.219C496.58 932.443 496.551 932.513 495.994 932.895C496.361 934.734 496.36 934.756 497.875 935.803C503.849 939.929 512.067 942.896 518.676 946.025C535.146 953.849 551.67 961.559 568.247 969.155C584.307 976.705 601.026 983.68 616.711 991.938C633.077 1000.55 648.851 1010.71 664.978 1019.82C680.227 1015.6 695.524 1011.54 710.864 1007.65C710.209 989.066 708.176 970.08 708.573 951.526Z"/><path fill="#EA827F" transform="scale(0.195312 0.195312)" d="M857.851 973.855C862.926 973.241 867.778 974.134 872.092 976.952C875.21 978.988 877.911 981.968 879.453 985.368C884.252 995.949 887.042 1008.28 890.255 1019.45C896.202 1040.1 901.969 1060.73 907.513 1081.5C913.928 1105.53 921.741 1129.43 927.097 1153.7C898.732 1161.28 870.485 1171.2 841.794 1177.36C843.728 1174.58 845.418 1171.56 846.914 1168.53C858.385 1145.67 860.199 1119.16 851.951 1094.95C843.814 1071.52 826.7 1052.29 804.375 1041.47C783.386 1031.26 757.906 1028.65 735.721 1036.58C712.027 1044.78 692.714 1062.31 682.258 1085.09C671.248 1108.73 671.093 1134.23 680.048 1158.56C690.045 1183.57 706.7 1197.81 729.415 1210.8C722.024 1213.45 714.104 1215.26 706.554 1217.48C679.518 1225.43 651.819 1232.08 625.168 1241.15L592.556 1130.01C588.308 1115.83 583.898 1101.78 579.907 1087.52C578.17 1081.31 576.042 1075.08 575.211 1068.67C574.712 1064.83 575.918 1061.73 577.879 1058.48C579.878 1055.15 582.501 1052.8 586.104 1051.35C591.31 1049.26 596.939 1047.89 602.304 1046.24C613.204 1042.8 624.157 1039.53 635.157 1036.43C673.445 1025.71 711.835 1015.37 750.32 1005.39C773.869 999.037 797.297 992.245 820.589 985.011C832.971 981.249 845.294 976.966 857.851 973.855Z"/><path fill="#1F507A" transform="scale(0.195312 0.195312)" d="M589.757 1066.19C591.196 1066.08 592.194 1066.06 593.593 1066.55C596.309 1072.95 615.254 1142.3 615.308 1146.1C614.338 1147.86 612.845 1148.3 611.069 1149.07C610.622 1148.94 609.906 1148.76 609.514 1148.53C608.194 1147.78 608.047 1146.89 607.603 1145.56C602.614 1130.58 599.203 1114.6 594.982 1099.36C592.147 1089.12 588.245 1078.97 585.928 1068.62C587.009 1067.16 588.114 1066.92 589.757 1066.19Z"/><path fill="#1F507A" transform="scale(0.195312 0.195312)" d="M616.93 1159.97C617.893 1160.12 618.731 1160.36 619.667 1160.63C622.811 1164.82 624.9 1175.4 625.323 1180.62C624.324 1182.35 623.174 1182.75 621.473 1183.76C620.357 1183.32 619.514 1183.02 618.675 1182.12C615.827 1179.08 612.784 1166.84 613.675 1162.88C614.083 1161.07 615.45 1160.73 616.93 1159.97Z"/><path fill="#FEFEFC" transform="scale(0.195312 0.195312)" d="M756.31 1041.38C802.323 1036.47 843.648 1069.68 848.737 1115.66C853.826 1161.65 820.763 1203.09 774.789 1208.35C728.568 1213.64 686.848 1180.37 681.731 1134.14C676.615 1087.91 710.051 1046.33 756.31 1041.38Z"/><path fill="#1F507A" transform="scale(0.195312 0.195312)" d="M754.677 1053.9C793.857 1048.27 830.187 1075.45 835.833 1114.62C841.478 1153.79 814.301 1190.12 775.125 1195.77C735.931 1201.43 699.573 1174.25 693.925 1135.06C688.277 1095.87 715.48 1059.53 754.677 1053.9Z"/><path fill="#FEFEFC" transform="scale(0.195312 0.195312)" d="M756.881 1062.04C791.374 1057.66 822.959 1081.87 827.682 1116.31C832.405 1150.75 808.504 1182.57 774.106 1187.64C739.218 1192.77 706.841 1168.46 702.05 1133.53C697.26 1098.61 721.898 1066.48 756.881 1062.04Z"/><path fill="#1F507A" transform="scale(0.195312 0.195312)" d="M757.32 1075.61C771.068 1075.03 784.324 1079.05 794.993 1087.92C801.069 1092.96 811.668 1106.69 812.005 1114.71C812.105 1117.1 811.021 1118.07 809.544 1119.72C808.532 1119.54 806.766 1119.48 805.981 1118.82C803.223 1116.49 798.73 1102.83 792.43 1096.79C784.529 1089.21 776.698 1086.2 766.01 1084.48C763.361 1084.06 759.926 1083.84 757.53 1082.64C755.968 1081.86 755.706 1081.1 755.161 1079.52C755.593 1077.51 756.019 1077.12 757.32 1075.61Z"/><path fill="#1F507A" transform="scale(0.195312 0.195312)" d="M759.404 1095.69C761.154 1095.73 762.919 1095.77 764.658 1095.99C774.661 1097.27 783.268 1102.79 789.295 1110.75C791.267 1113.35 792.856 1116.41 792.247 1119.78C791.829 1122.09 790.693 1123 788.822 1124.28C784.208 1122.53 780.981 1113.35 777.182 1109.7C772.31 1105.02 766.683 1104.38 760.317 1104.42C758.599 1104.43 757.294 1104.42 756.136 1102.99C755.112 1101.73 755.162 1100.52 755.292 1099.01C756.352 1097.12 757.492 1096.61 759.404 1095.69Z"/><path fill="#EA827F" transform="scale(0.195312 0.195312)" d="M933.16 1180.68L934.247 1180.94C935.131 1183.7 934.703 1186.83 934.597 1189.7C931.669 1194.77 929.253 1197.42 923.574 1199.35C901.807 1206.73 878.994 1211.9 856.816 1217.96L752.667 1247.1L682.595 1267.24C672.021 1270.24 660.853 1274.25 650.029 1276.06C645.471 1276.83 641.738 1275.28 637.755 1273.32C635.71 1271.13 634.476 1269.06 633.129 1266.41C663.306 1258.52 693.393 1250.29 723.383 1241.72C736.5 1238.01 749.614 1233.71 762.838 1230.47C769.842 1228.75 775.434 1229.78 782.43 1229.81C788.207 1229.83 794.105 1228.57 799.621 1226.95C806.486 1224.85 812.998 1221.74 818.942 1217.72C823.292 1214.73 827.607 1210.97 832.594 1209.13C844.697 1204.66 858.219 1201.91 870.725 1198.51C891.623 1192.87 912.437 1186.93 933.16 1180.68Z"/><path fill="#FEFEFC" transform="scale(0.195312 0.195312)" d="M812.46 941.914C815.623 942.74 830.492 968.41 832.981 972.425C804.011 981.573 774.864 990.148 745.556 998.147C739.909 999.505 734.306 1001.04 728.755 1002.75C727.786 990.629 727.639 978.267 727.6 966.114C735.32 964.005 742.928 961.44 750.637 959.277C771.25 953.494 791.931 948.002 812.46 941.914Z"/><path fill="#FEFEFC" transform="scale(0.195312 0.195312)" d="M929.418 1162.09C931.308 1163.45 932.07 1169.8 932.597 1172.17C913.445 1178.78 893.558 1183.47 874.059 1188.98C860.66 1192.77 841.361 1199.81 828.133 1200.86C823.986 1203.62 820.392 1207.17 816.188 1209.94C804.357 1217.74 787.434 1223.58 773.182 1220.64C771.847 1220.17 770.929 1219.7 769.769 1218.89C770.41 1216.89 778.597 1216.64 780.848 1216.36C801.096 1213.84 818.091 1203.9 831.919 1189.1L890.955 1172.56C903.674 1168.93 916.444 1164.65 929.418 1162.09Z"/><path fill="#FEFEFC" transform="scale(0.195312 0.195312)" d="M745.553 1215.78C747.886 1215.33 759.463 1217.59 761.661 1218.9C762.859 1219.62 762.843 1219.98 763.171 1221.24C760.474 1224.18 655.808 1252.05 643.175 1255.4C639.071 1256.72 634.826 1257.64 630.639 1258.66C629.554 1255.36 628.596 1252.02 627.596 1248.7C650.819 1241.1 674.686 1235.19 698.217 1228.61C713.799 1224.24 729.606 1218.51 745.553 1215.78Z"/><path fill="#EA827F" transform="scale(0.195312 0.195312)" d="M818.215 928.236C818.55 928.563 818.635 928.627 818.957 929.053C823.992 935.709 827.916 943.962 832.21 951.174C835.202 956.201 838.989 961.325 841.48 966.571C842.055 967.782 842.005 968.088 841.788 969.367L840.638 969.938C836.957 968.552 820.435 939.025 816.34 933.271L727.829 958.335L720.196 960.569C720.127 969.368 720.296 978.168 720.704 986.958C720.914 991.151 721.751 995.601 721.52 999.779C721.391 1002.13 721.02 1004.71 719.179 1006.32C717.02 1004.1 716.22 964.22 715.624 957.682C736.829 952.03 757.944 946.048 778.963 939.738C792.015 935.936 805.34 932.579 818.215 928.236Z"/><path fill="#FEFEFC" transform="scale(0.195312 0.195312)" d="M648.043 1018.69C650.339 1019.08 653.088 1021.37 655.106 1022.66C646.023 1025.84 636.416 1028.03 627.21 1030.92L624.167 1031.73C622.689 1031.2 622.631 1030.74 621.811 1029.45C622.894 1024.84 643.075 1022.18 648.043 1018.69Z"/><path fill="#FEFEFC" transform="scale(0.195312 0.195312)" d="M1024 762.787C992.756 790.924 963.855 805.599 921.126 807.301C880.701 808.911 838.837 792.978 809.287 765.561C776.033 734.708 754.864 692.349 753.262 646.695C751.816 604.212 767.422 562.914 796.604 532C825.999 500.716 866.689 482.485 909.608 481.37C951.3 479.993 993.834 498.179 1024 526.463L1024 562.158L1024 572.933L1024 614.791L1024 624.407L1024 651.776L1024 659.327L1024 741.885L1024 751.675L1024 762.787Z"/><path fill="#1F507A" transform="scale(0.195312 0.195312)" d="M1024 624.407C1015.31 631.185 1004.38 634.847 993.434 635.399C978.851 636.135 962.817 630.541 952.07 620.621C942.841 612.104 937.395 600.671 937.064 588.08C936.758 576.445 941.19 566.011 949.175 557.625C957.873 548.345 969.995 543.033 982.715 542.929C999.243 542.686 1012.48 551.045 1024 562.158L1024 572.933L1024 614.791L1024 624.407Z"/><path fill="#FEFEFC" transform="scale(0.195312 0.195312)" d="M952.515 564.225C954.617 562.025 956.869 559.902 959.288 558.05C967.39 551.847 978.173 549.146 988.256 550.535C1002.92 552.554 1015.22 561.339 1024 572.933L1024 614.791C1018.57 619.283 1013.57 622.794 1007.04 625.603C1005.45 619.552 1003.7 613.62 1001.1 607.91C991.049 585.807 975.01 572.562 952.515 564.225Z"/><path fill="#315B7E" transform="scale(0.195312 0.195312)" d="M947.804 568.368C959.725 572.834 972.892 578.441 981.591 588.063C987.931 595.076 1002.61 617.082 1002.09 626.987C1000.72 628.395 998.508 628.398 996.649 628.674C985.112 629.953 973.737 627.022 963.632 621.358C954.465 616.219 946.885 606.923 944.12 596.731C941.691 587.779 943.247 576.403 947.804 568.368Z"/><path fill="#1F507A" transform="scale(0.195312 0.195312)" d="M1024 751.675C1015.13 757.878 1005.64 764.013 994.298 762.022C985.636 760.501 978.659 754.745 973.826 747.607C964.103 733.245 962.162 713.93 965.593 697.255C968.842 681.461 977.719 666.264 991.491 657.422C1001.35 651.095 1012.61 649.235 1024 651.776L1024 659.327L1024 741.885L1024 751.675Z"/><path fill="#FEFEFC" transform="scale(0.195312 0.195312)" d="M1008.87 658.294C1013.99 658.117 1018.93 658.58 1024 659.327L1024 741.885C1018.96 745.874 1013.87 750.254 1008.02 753.007C1002.88 755.428 997.339 756.167 991.93 754.006C983.518 750.645 979.062 742.684 975.853 734.719C981.33 730.95 986.368 725.764 990.547 720.624C1005.39 702.368 1011.35 681.592 1008.87 658.294Z"/><path fill="#315B7E" transform="scale(0.195312 0.195312)" d="M1003.98 659.496C1004.44 660.244 1004.63 660.775 1004.65 661.659C1005.4 684.231 998.987 704.377 983.21 720.969C981.362 722.912 975.729 729.533 973.257 729.604C968.966 714.533 969.638 699.279 976.181 684.93C981.93 672.322 991.061 664.232 1003.98 659.496Z"/><path fill="#1F507A" transform="scale(0.195312 0.195312)" d="M808.742 623.334C815.431 622.825 821.926 623.916 828.215 626.205C843.438 631.747 855.784 642.234 862.588 657.023C869.935 672.993 868.955 690.106 862.821 706.296C857.069 721.479 847.831 734.198 832.764 740.96C831.403 741.362 830.036 741.756 828.648 742.055C820.149 743.887 811.924 741.69 804.737 736.997C790.114 727.447 781.266 710.12 777.841 693.425C774.165 675.512 775.918 653.798 786.307 638.252C791.753 630.102 799.209 625.298 808.742 623.334Z"/><path fill="#FEFEFC" transform="scale(0.195312 0.195312)" d="M811.454 630.248C816.178 630.201 820.803 631.06 825.41 632.005C822.991 639.411 821.531 646.861 821.139 654.652C819.849 680.306 828.931 702.268 845.95 721.08C845.005 722.416 844.053 723.762 843 725.014C837.358 731.723 830.714 734.752 822.107 735.361C816.647 734.913 812.189 733.064 807.767 729.884C794.601 720.419 786.899 702.513 784.403 686.947C782.012 672.032 783.835 653.482 793.12 641.025C797.828 634.709 803.688 631.396 811.454 630.248Z"/><path fill="#315B7E" transform="scale(0.195312 0.195312)" d="M830.974 632.126C844.72 641.525 855.252 650.463 860.746 666.844C866.255 683.274 860.79 697.839 853.453 712.6L850.023 718.246C842.812 711.68 838.485 702.48 834.628 693.678C826.038 674.078 823.073 652.442 830.974 632.126Z"/><path fill="#1F507A" transform="scale(0.195312 0.195312)" d="M867.4 529.599C867.75 529.557 868.101 529.522 868.453 529.495C881.98 528.396 896.14 531.809 906.488 540.863C914.799 548.033 919.862 558.255 920.527 569.209C921.188 581.247 916.993 593.048 908.88 601.968C899.064 612.848 885.486 617.736 871.126 618.442C858.213 618.25 846.067 614.437 835.749 606.554C826.479 599.472 818.76 588.617 817.268 576.835C816.109 567.678 818.824 558.707 824.446 551.445C834.695 538.207 851.23 531.603 867.4 529.599Z"/><path fill="#FEFEFC" transform="scale(0.195312 0.195312)" d="M870.479 536.491C875.245 535.98 880.633 536.729 885.249 537.964C896.006 540.842 904.723 546.918 910.247 556.626C886.077 558.076 867.174 567.831 850.053 584.541C845.594 589.38 841.74 594.149 838.605 599.953C831.455 593.635 825.22 585.565 824.079 575.808C823.193 568.231 825.836 560.949 830.597 555.1C840.286 543.197 855.744 538.138 870.479 536.491Z"/><path fill="#315B7E" transform="scale(0.195312 0.195312)" d="M909.037 562.749C910.75 562.717 911.451 562.37 912.762 563.537C914.795 569.485 913.432 577.516 911.736 583.427C908.83 593.553 901.356 602.033 892.169 606.995C878.967 614.124 865.92 613.871 851.916 609.606C848.547 608.394 845.304 606.73 842.062 605.208C844.405 600.931 847.083 596.847 850.072 592.994C865.305 573.644 885.251 565.543 909.037 562.749Z"/><path fill="#1F507A" transform="scale(0.195312 0.195312)" d="M903.228 705.201C916.5 704.037 928.317 706.99 938.932 715.264C948.285 722.555 955.684 733.701 957.049 745.644C958.092 754.778 955.331 763.696 949.618 770.857C941.099 781.533 929.241 785.832 916.035 787.251C904.436 788.385 890.791 784.821 881.158 778.289C872.401 772.351 864.953 763.251 863.099 752.62C861.413 742.947 864.235 732.699 869.954 724.821C877.869 713.918 890.074 707.274 903.228 705.201Z"/><path fill="#315B7E" transform="scale(0.195312 0.195312)" d="M905.632 710.869C912.202 710.086 919.264 711.04 925.354 713.634C934.185 717.397 945.455 727.495 948.854 736.613C949.763 739.052 949.73 740.762 948.712 743.132C943.135 749.13 924.855 752.252 916.774 752.611C899.508 752.468 885.11 747.603 871.039 737.652C872.846 733.74 874.848 729.981 877.543 726.603C884.826 717.475 894.085 712.239 905.632 710.869Z"/><path fill="#FEFEFC" transform="scale(0.195312 0.195312)" d="M870.629 743.372C873.641 745.367 876.704 747.344 879.896 749.041C896.627 757.938 916.686 760.713 934.945 755.209C940.067 753.665 944.712 750.982 949.783 749.455L950.413 750.203C950.842 755.267 947.015 762.008 944.326 766.111C942.913 767.753 941.376 769.286 939.731 770.696C931.358 777.934 919.272 780.454 908.475 779.573C896.788 778.619 883.753 773.441 876.16 764.199C870.966 757.878 869.908 751.309 870.629 743.372Z"/><path fill="#1F507A" transform="scale(0.195312 0.195312)" d="M913.288 632.385C927.238 629.631 940.796 638.647 943.648 652.574C946.5 666.501 937.576 680.119 923.666 683.068C909.618 686.045 895.832 677.016 892.952 662.951C890.071 648.885 899.199 635.166 913.288 632.385Z"/><path fill="#FEFEFC" transform="scale(0.195312 0.195312)" d="M914.679 639.612C924.682 637.671 934.396 644.102 936.511 654.067C938.627 664.032 932.365 673.854 922.436 676.143C915.857 677.66 908.972 675.509 904.426 670.518C899.881 665.527 898.383 658.472 900.508 652.066C902.634 645.659 908.052 640.898 914.679 639.612Z"/><path fill="#1F507A" transform="scale(0.195312 0.195312)" d="M915.902 644.238C923.439 642.92 930.641 647.891 932.078 655.405C933.515 662.919 928.657 670.195 921.165 671.75C916.212 672.778 911.09 671.058 907.763 667.249C904.436 663.439 903.421 658.133 905.108 653.366C906.794 648.598 910.92 645.11 915.902 644.238Z"/><path fill="#FEFEFC" transform="scale(0.195312 0.195312)" d="M915.895 651.023C918.315 650.114 921.038 650.589 923.007 652.263C924.976 653.937 925.881 656.548 925.372 659.081C924.863 661.615 923.02 663.673 920.557 664.458C916.881 665.629 912.941 663.656 911.676 660.012C910.412 656.368 912.284 652.38 915.895 651.023Z"/><path fill="#FEFEFC" transform="scale(0.195312 0.195312)" d="M331.364 1280C330.45 1275.18 329.88 1270.5 329.942 1265.59C330.013 1260 333.666 1249.46 331.02 1244.86C329.429 1243.92 328.479 1243.6 326.644 1244.11C322.386 1245.29 318.586 1247.87 314.293 1249.17C297.734 1254.03 279.943 1252.38 264.565 1244.55C233.332 1228.49 215.372 1185.78 205.343 1153.79C202.457 1144.59 200.759 1136.52 205.401 1127.61C212.6 1113.79 222.629 1100.81 231.259 1087.83C236.456 1080.01 245.825 1063.69 252.098 1057.77C254.976 1055.06 258.879 1053.73 262.536 1052.43C271.394 1056.16 279.721 1063.17 287.587 1068.7L326.359 1096.04L468.526 1196C488.812 1210.28 510.059 1223.7 529.734 1238.8C531.661 1240.28 533.276 1241.62 534.212 1243.94C535.708 1247.65 535.368 1250.97 533.82 1254.61C530.415 1262.63 519.808 1270.12 518.108 1278.05C518.678 1278.95 519.212 1279.39 520.084 1280L488.055 1280L479.467 1280L464.342 1280L455.226 1280L395.187 1280L383.472 1280L331.364 1280Z"/><path fill="#86C4CF" transform="scale(0.195312 0.195312)" d="M395.187 1280C388.234 1275.35 362.782 1258.75 359.542 1252.88C359.278 1249.68 359.98 1246.88 361.371 1244C366.527 1233.33 376.905 1221.12 383.976 1211.37C389.465 1203.79 394.715 1195.35 400.78 1188.28C402.556 1186.2 404.747 1183.95 407.383 1183.09C410.229 1183.85 412.74 1185.32 415.214 1186.89C432.284 1197.68 448.622 1210.11 465.178 1221.72C474.975 1228.59 485.699 1234.91 495.102 1242.23C496.363 1243.21 497.306 1244.23 498.08 1245.62C499.238 1247.71 499.718 1249.76 498.993 1252.08C496.546 1259.92 484.33 1271.78 479.467 1280L464.342 1280L455.226 1280L395.187 1280Z"/><path fill="#1F507A" transform="scale(0.195312 0.195312)" d="M455.226 1280C458.133 1276 475.155 1251.06 478.184 1250.18C478.869 1249.99 480.401 1250.87 480.972 1251.26C481.483 1251.6 481.893 1252.13 482.289 1252.59C482.837 1258.52 468.278 1274.9 464.342 1280L455.226 1280Z"/><path fill="#1F507A" transform="scale(0.195312 0.195312)" d="M383.472 1280C375.578 1274.84 354.14 1263.22 352.014 1253.69C350.532 1247.04 353.324 1241.47 356.938 1236.17C363.785 1226.11 371.427 1216.61 378.461 1206.69C383.965 1198.93 390.776 1186.77 397.495 1180.42C399.609 1178.42 402.63 1177.07 405.473 1176.54C408.839 1175.91 412.275 1176.53 415.306 1178.1C423.018 1182.08 433.844 1190.93 441.453 1196.19C460.319 1209.21 479.669 1221.82 498.114 1235.41C502.534 1238.67 505.515 1242.63 506.434 1248.16C507.327 1253.54 504.934 1258.5 501.813 1262.69C497.409 1268.61 492.319 1273.96 488.055 1280L479.467 1280C484.33 1271.78 496.546 1259.92 498.993 1252.08C499.718 1249.76 499.238 1247.71 498.08 1245.62C497.306 1244.23 496.363 1243.21 495.102 1242.23C485.699 1234.91 474.975 1228.59 465.178 1221.72C448.622 1210.11 432.284 1197.68 415.214 1186.89C412.74 1185.32 410.229 1183.85 407.383 1183.09C404.747 1183.95 402.556 1186.2 400.78 1188.28C394.715 1195.35 389.465 1203.79 383.976 1211.37C376.905 1221.12 366.527 1233.33 361.371 1244C359.98 1246.88 359.278 1249.68 359.542 1252.88C362.782 1258.75 388.234 1275.35 395.187 1280L383.472 1280Z"/><path fill="#1F507A" transform="scale(0.195312 0.195312)" d="M271.684 1080.13C274.233 1080.19 276.53 1080.39 278.81 1081.64C283.8 1084.36 288.607 1088.34 293.251 1091.63L320.632 1110.97L351.819 1132.61C357.15 1136.31 363.007 1139.83 367.908 1144.07C370.124 1145.99 371.639 1148.31 372.346 1151.17C373.608 1156.27 371.853 1161.27 369.172 1165.58C363.432 1174.79 356.018 1183.4 349.599 1192.18C342.979 1201.24 336.937 1212.86 328.635 1220.33C325.959 1222.74 323.375 1223.54 319.979 1224.34C315.834 1224.41 312.462 1224.35 308.709 1222.29C295.249 1214.89 279.387 1202.04 266.501 1192.89C253.36 1183.56 238.243 1174.18 225.81 1164.27C223.677 1162.57 220.585 1160.24 219.883 1157.51C218.416 1151.81 219.165 1147.77 222.238 1142.82C225.556 1137.47 229.448 1132.45 232.938 1127.21C239.299 1117.57 245.755 1107.99 252.306 1098.48C255.49 1093.83 258.875 1087.69 263.042 1083.92C265.512 1081.69 268.538 1080.86 271.684 1080.13Z"/><path fill="#86C4CF" transform="scale(0.195312 0.195312)" d="M268.837 1088.19C269.797 1088.12 270.758 1088.07 271.719 1088.03C272.845 1087.99 274.109 1087.86 275.151 1088.37C280.929 1091.22 286.625 1095.96 291.932 1099.68L324.948 1122.91C334.994 1129.99 355.343 1142.73 363.178 1150.3C364.282 1151.36 366.065 1152.77 365.886 1154.42C365.416 1158.73 327.339 1212.39 322.367 1216.61C320.798 1217.08 319.103 1217.56 317.458 1217.59C315.735 1217.63 314.286 1217.18 312.811 1216.32C306.293 1212.51 300.119 1207.75 293.927 1203.42L258.006 1178.1C248.853 1171.61 236.779 1164.81 228.786 1157.15C227.524 1155.94 226.026 1154.93 226.179 1153.03C226.369 1150.66 228.044 1147.57 229.224 1145.51C234.797 1135.81 241.896 1126.54 248.182 1117.27C254.118 1108.51 261.437 1095.23 268.837 1088.19Z"/><path fill="#1F507A" transform="scale(0.195312 0.195312)" d="M0 911.249C23.832 895.884 46.7531 887.938 75.4227 894.032C99.0817 898.988 119.7 913.367 132.524 933.852C145.776 954.588 149.776 979.449 144.481 1003.49C139.195 1027.09 124.783 1047.64 104.391 1060.66C85.6668 1072.41 62.831 1077.49 41.1072 1072.45C25.2416 1068.78 11.506 1060.61 0 1049.21L0 1044.2L0 1017.91L0 1010.87L0 981.735L0 975.352L0 966.219L0 960.565L0 918.287L0 911.249Z"/><path fill="#EA827F" transform="scale(0.195312 0.195312)" d="M40.2819 898.209C37.2826 909.577 39.2857 921.024 45.1264 931.198C48.778 937.559 54.6318 943.749 61.9705 945.621C67.5646 947.048 73.0894 945.909 77.9693 942.986C87.596 937.219 94.9472 924.98 97.483 914.252C98.0062 912.039 98.4317 909.779 98.6507 907.515C108.466 913.283 116.655 919.728 123.571 928.88C109.688 933.707 97.0454 941.252 90.2886 954.916C87.3817 960.794 86.014 967.711 88.2924 974.045C90.3356 979.726 94.8738 983.796 100.31 986.141C111.795 991.094 125.74 988.458 136.89 983.871C138.377 983.256 139.856 982.622 141.327 981.97C141.084 994.082 138.933 1005.15 134.498 1016.46C123.187 1007.76 109.519 1000.34 94.7003 1002.42C88.677 1003.26 83.0547 1006.26 79.4313 1011.21C75.327 1016.81 74.5622 1023.63 75.7163 1030.33C77.8666 1042.82 84.4991 1052.56 93.3073 1061.34C81.8438 1066.05 71.0391 1068.48 58.6033 1068.81C63.0524 1056.06 64.2092 1040.01 58.0494 1027.56C55.7576 1022.92 52.3104 1019.16 47.2167 1017.64C39.414 1015.32 30.8053 1018.66 24.0906 1022.54C14.5269 1028.05 7.28779 1036.09 0 1044.2L0 1017.91L0 1010.87L0 981.735L0 975.352L0 966.219C8.75663 966.298 17.9707 966.052 24.536 959.317C28.9723 954.766 30.5235 948.473 30.2351 942.274C29.6131 928.899 22.3344 917.506 13.7308 907.78C22.2458 903.468 30.9099 900.147 40.2819 898.209Z"/><path fill="#1F507A" transform="scale(0.195312 0.195312)" d="M0 975.352C6.31241 978.847 12.9121 983.213 14.8737 990.64C16.2807 995.967 14.6816 1001.5 11.8683 1006.08C8.86103 1010.97 4.68002 1014.68 0 1017.91L0 1010.87L0 981.735L0 975.352Z"/><path fill="#FEFEFC" transform="scale(0.195312 0.195312)" d="M0 981.735C4.04818 984.427 7.87203 987.3 8.92788 992.378C9.87181 996.918 8.08448 1001.31 5.50674 1004.97C3.92983 1007.21 2.07751 1009.09 0 1010.87L0 981.735Z"/><path fill="#1F507A" transform="scale(0.195312 0.195312)" d="M49.6069 957.128C64.4066 954.593 78.4431 964.583 80.8916 979.393C83.34 994.204 73.2651 1008.18 58.4365 1010.54C43.7312 1012.88 29.8952 1002.91 27.4671 988.221C25.039 973.533 34.9303 959.642 49.6069 957.128Z"/><path fill="#FEFEFC" transform="scale(0.195312 0.195312)" d="M52.0672 963.272C63.3245 961.997 73.5134 970.012 74.9229 981.25C76.3324 992.489 68.4382 1002.77 57.2146 1004.31C49.834 1005.33 42.4775 1002.3 37.9551 996.379C33.4326 990.46 32.4427 982.567 35.3635 975.715C38.2842 968.863 44.6644 964.11 52.0672 963.272Z"/><path fill="#1F507A" transform="scale(0.195312 0.195312)" d="M52.6328 969.772C60.3684 968.896 67.349 974.457 68.223 982.19C69.097 989.924 63.5333 996.902 55.7974 997.774C48.0642 998.645 41.0881 993.085 40.2144 985.354C39.3407 977.623 44.9001 970.647 52.6328 969.772Z"/><path fill="#FEFEFC" transform="scale(0.195312 0.195312)" d="M53.0988 974.199C56.5685 973.765 60.0043 975.227 62.0967 978.028C64.1891 980.829 64.6158 984.538 63.2141 987.74C61.8125 990.943 58.7984 993.147 55.3206 993.512C50.0181 994.067 45.2569 990.25 44.6477 984.955C44.0385 979.66 47.8085 974.861 53.0988 974.199Z"/><path fill="#FEFEFC" transform="scale(0.195312 0.195312)" d="M9.5199 911.168C17.5232 919.727 24.5265 931.835 24.1681 943.933C24.036 948.391 22.7138 952.663 19.4234 955.813C14.1513 960.862 6.79028 960.826 0 960.565L0 918.287L9.5199 911.168Z"/><path fill="#FEFEFC" transform="scale(0.195312 0.195312)" d="M124.446 933.796C135.328 944.366 138.692 961.661 141.469 975.865C131.611 980.76 122.532 983.281 111.506 982.755C109.284 982.546 106.912 982.073 104.806 981.318C100.627 979.818 95.8276 977.06 93.9774 972.854C92.1881 968.787 93.0034 963.92 94.6201 959.922C99.7774 947.171 112.376 939.044 124.446 933.796Z"/><path fill="#FEFEFC" transform="scale(0.195312 0.195312)" d="M95.1003 1008.34C109.587 1007.27 120.682 1013.76 132.048 1021.93C126.351 1032.56 119.652 1041 110.91 1049.25C106.946 1052.57 102.781 1055.39 98.4053 1058.13C91.67 1051.18 86.12 1043.99 83.0223 1034.72C81.1335 1029.06 80.0842 1022.15 83.0427 1016.68C85.6744 1011.81 90.1298 1009.92 95.1003 1008.34Z"/><path fill="#FEFEFC" transform="scale(0.195312 0.195312)" d="M37.2756 1023.21C39.7831 1022.96 42.153 1022.75 44.624 1023.46C48.4185 1024.55 51.3561 1027.18 53.248 1030.59C59.1757 1041.29 56.7834 1057.25 53.3563 1068.32C45.3094 1068.08 37.3772 1066.09 29.9018 1063.19C20.7677 1058.82 12.9103 1053.55 5.2027 1047C13.5265 1036.48 24.3588 1027.28 37.2756 1023.21Z"/><path fill="#FEFEFC" transform="scale(0.195312 0.195312)" d="M49.8163 897.669C64.9092 896.83 79.7207 899.092 93.5327 905.399C91.7713 916.439 87.7395 924.307 80.5282 932.779C78.1669 934.949 75.8201 937.125 72.9403 938.596C69.5586 940.324 65.7491 940.821 62.1279 939.552C55.5718 937.253 51.0169 930.166 48.2536 924.158C45.5334 918.245 41.7613 905.686 45.2495 899.454C46.1731 897.804 48.1326 897.971 49.8163 897.669Z"/><path fill="#1F507A" transform="scale(0.195312 0.195312)" d="M1024 773.835C999.237 796.201 968.681 811.015 935.377 815.073C892.757 820.265 846.93 806.806 813.255 780.333C775.642 750.413 751.324 706.891 745.563 659.183C740.79 615.561 753.499 571.825 780.909 537.55C808.683 502.432 849.269 479.777 893.746 474.567C942.488 468.995 986.098 485.034 1024 515.113L1024 526.463C993.834 498.179 951.3 479.993 909.608 481.37C866.689 482.485 825.999 500.716 796.604 532C767.422 562.914 751.816 604.212 753.262 646.695C754.864 692.349 776.033 734.708 809.287 765.561C838.837 792.978 880.701 808.911 921.126 807.301C963.855 805.599 992.756 790.924 1024 762.787L1024 773.835Z"/><path fill="#1F507A" transform="scale(0.195312 0.195312)" d="M323.982 1253.43C302.431 1260.63 282.852 1261.56 262.006 1251.07C227.872 1233.89 210.267 1191.94 199.125 1157.5C195.657 1146.78 192.89 1135.8 198.278 1125.22C204.119 1113.75 213.923 1101.04 221.167 1090.16C228.212 1079.58 238.911 1061.17 247.22 1052.41C249.801 1049.69 253.271 1047.77 256.822 1046.63C258.37 1046.14 259.905 1045.87 261.508 1045.63C261.803 1045.59 262.096 1045.54 262.392 1045.5C266.408 1045.01 271.225 1048.54 274.46 1050.64C294.987 1063.97 314.92 1078.8 334.876 1092.99L431.149 1160.94C455.518 1177.68 479.765 1194.59 503.888 1211.67C514.161 1218.87 525.794 1225.68 535.341 1233.72C539.571 1237.28 542.1 1241.93 542.515 1247.47C543.469 1260.24 531.529 1270.32 524.955 1280L520.084 1280C519.212 1279.39 518.678 1278.95 518.108 1278.05C519.808 1270.12 530.415 1262.63 533.82 1254.61C535.368 1250.97 535.708 1247.65 534.212 1243.94C533.276 1241.62 531.661 1240.28 529.734 1238.8C510.059 1223.7 488.812 1210.28 468.526 1196L326.359 1096.04L287.587 1068.7C279.721 1063.17 271.394 1056.16 262.536 1052.43C258.879 1053.73 254.976 1055.06 252.098 1057.77C245.825 1063.69 236.456 1080.01 231.259 1087.83C222.629 1100.81 212.6 1113.79 205.401 1127.61C200.759 1136.52 202.457 1144.59 205.343 1153.79C215.372 1185.78 233.332 1228.49 264.565 1244.55C279.943 1252.38 297.734 1254.03 314.293 1249.17C318.586 1247.87 322.386 1245.29 326.644 1244.11C328.479 1243.6 329.429 1243.92 331.02 1244.86C333.666 1249.46 330.013 1260 329.942 1265.59C329.88 1270.5 330.45 1275.18 331.364 1280L323.928 1280C322.785 1271.04 322.459 1262.39 323.982 1253.43Z"/><path fill="#FEFEFC" transform="scale(0.195312 0.195312)" d="M0 904.504C21.0993 889.315 46.3808 882.982 72.1851 887.092C97.3718 891.28 119.906 905.189 134.936 925.825C150.111 947.094 156.167 973.539 151.761 999.29C147.476 1025.16 132.963 1048.21 111.49 1063.26C91.8154 1077.23 68.2726 1083.34 44.3664 1079.24C28.297 1076.48 12.0294 1069.13 0 1058L0 1049.21C11.506 1060.61 25.2416 1068.78 41.1072 1072.45C62.831 1077.49 85.6668 1072.41 104.391 1060.66C124.783 1047.64 139.195 1027.09 144.481 1003.49C149.776 979.449 145.776 954.588 132.524 933.852C119.7 913.367 99.0817 898.988 75.4227 894.032C46.7531 887.938 23.832 895.884 0 911.249L0 904.504Z"/><path fill="#1F507A" transform="scale(0.195312 0.195312)" d="M0 898.873C25.572 883.743 51.4589 877.152 80.7787 884.623C106.256 891.115 129.633 907.608 143.048 930.427C157.2 954.422 161.014 983.13 153.618 1009.99C146.464 1036.6 128.857 1059.19 104.797 1072.62C83.0117 1084.92 57.2193 1088.03 33.137 1081.25C21.3254 1077.91 9.04849 1071.8 0 1063.42L0 1058C12.0294 1069.13 28.297 1076.48 44.3664 1079.24C68.2726 1083.34 91.8154 1077.23 111.49 1063.26C132.963 1048.21 147.476 1025.16 151.761 999.29C156.167 973.539 150.111 947.094 134.936 925.825C119.906 905.189 97.3718 891.28 72.1851 887.092C46.3808 882.982 21.0993 889.315 0 904.504L0 898.873Z"/><path fill="#1F507A" transform="scale(0.195312 0.195312)" d="M480.842 187.397C487.049 195.29 492.359 204.195 497.881 212.584C506.033 224.971 515.17 237.877 521.733 251.161C514.784 258.511 504.782 264.722 496.736 270.953L437.872 316.015L210.895 492.376C205.763 496.324 167.374 524.707 166.868 525.498C166.618 525.888 166.551 526.369 166.393 526.805C166.797 527.358 167.318 528.203 167.869 528.597C169.558 529.804 171.747 529.091 173.643 528.672C201.29 522.569 228.565 513.871 255.987 506.806L456.831 454.198C503.2 441.872 549.6 428.587 596.432 418.185L653.129 648.502L666.804 705.462C668.909 714.383 671.818 723.785 672.891 732.868C673.427 737.405 672.465 742.276 670.093 746.206C662.848 758.206 641.32 760.161 628.827 763.403L309.134 846.407C273.329 855.48 237.568 865.287 201.569 873.53C194.162 875.226 187.075 876.594 180.265 872.1C176.488 869.608 173.413 866.11 172.007 861.754C167.663 848.3 165.374 833.872 161.938 820.142L134.037 706.878C121.432 658.655 109.136 610.352 97.1513 561.972C92.0249 541.533 85.4218 521.11 81.5074 500.422C96.144 487.284 115.134 474.053 130.922 461.859L217.071 394.786L480.842 187.397Z"/><path fill="#FEFEFC" transform="scale(0.195312 0.195312)" d="M605.555 496.321C606.149 496.288 606.548 496.548 607.085 496.779C610.153 503.556 611.377 512.54 613.166 519.797L625.49 569.821C634.089 604.573 642.464 639.379 650.617 674.238C654.988 692.134 660.213 709.942 664.133 727.936C664.815 731.062 665.944 736.839 664.771 739.932C663.55 743.152 659.362 746.655 656.298 747.978C650.412 750.519 643.515 751.688 637.292 753.222L607.943 760.566L517.346 784.469C445.903 803.457 374.292 821.809 302.521 839.523L238.541 855.841C224.327 859.554 210.037 863.799 195.659 866.799C191.39 867.69 188.344 867.174 184.376 865.652C182.121 863.468 180.593 861.49 179.619 858.48C176.563 849.031 174.549 839.057 172.256 829.389L160.224 778.52L120.345 620.586L605.555 496.321Z"/><path fill="#1F507A" transform="scale(0.195312 0.195312)" d="M579.931 519.523C584.108 519.163 588.794 520.276 592.343 522.499C595.238 524.312 597.33 526.805 598.546 529.995C601.622 538.063 603.259 546.894 605.265 555.279L615.58 598.649C622.497 626.286 629.251 653.964 635.842 681.681C638.566 693.027 641.837 704.386 644.124 715.816C645.271 721.554 646.023 728.056 642.264 733.074C640.354 735.623 634.724 737.227 631.736 738.139C608.098 745.357 583.673 750.657 559.789 757.101C491.6 775.188 423.293 792.833 354.874 810.033C324.169 817.683 293.505 825.496 262.882 833.47C244.869 838.095 226.654 843.511 208.337 846.705C204.269 847.291 200.744 846.722 197.167 844.631C194.066 842.818 191.407 839.92 190.062 836.57C187.219 829.485 185.818 821.245 184.056 813.812L174.123 771.369C164.607 731.818 153.816 692.468 144.735 652.826C143.323 646.665 142.199 639.467 145.95 633.854C147.996 630.793 151.232 628.949 154.659 627.833C161.889 625.48 169.507 623.862 176.878 621.993L225.368 609.975L369.848 572.986L518.13 534.985C538.644 529.818 559.227 523.718 579.931 519.523Z"/><path fill="#FEFEFC" transform="scale(0.195312 0.195312)" d="M492.775 550.073L493.69 550.075C495.055 551.771 541.768 737.534 544.569 753.107L295.874 816.738L294.161 816.763C291.853 812.774 291.17 806.142 289.991 801.544C286.143 787.073 282.523 772.543 279.131 757.958L244.265 613.55C252.937 610.546 262.161 608.55 271.058 606.264L314.964 594.985C374.153 579.717 433.712 565.806 492.775 550.073Z"/><path fill="#1F507A" transform="scale(0.195312 0.195312)" d="M332.099 636.062C348.144 643.08 365.156 648.203 381.706 653.919C401.63 660.8 421.401 668.126 441.258 675.195L400.792 718.369C387.889 731.567 374.03 744.354 361.769 758.112C360.472 747.514 356.738 736.236 354.152 725.852L340.732 671.86C337.75 660.011 334.294 648.079 332.099 636.062Z"/><path fill="#EA827F" transform="scale(0.195312 0.195312)" d="M343.75 648.559C350.138 650.494 356.407 653.276 362.722 655.486C384.263 663.026 405.775 671.173 427.534 678.016C418.549 689.502 407.225 700.022 397.157 710.585C386.945 721.359 376.679 732.081 366.358 742.752C362.11 727.261 358.497 711.536 354.668 695.932C350.817 680.235 346.659 664.455 343.75 648.559Z"/><path fill="#FEFEFC" transform="scale(0.195312 0.195312)" d="M581.759 527.667C582.378 527.649 582.676 527.622 583.253 527.659C585.572 527.808 588.758 529.417 590.171 531.265C592.399 534.178 632.022 697.181 635.761 715.868C636.464 719.386 637.12 723.169 636.742 726.764C634.977 728.603 632.573 729.573 630.206 730.416C621.343 733.571 611.691 735.411 602.566 737.73L556.553 749.779C555.325 750.149 554.227 750.356 552.963 750.509C552.655 750.232 552.245 750.037 552.039 749.678C550.643 747.25 544.343 717.902 542.755 711.557L501.724 547.302C515.355 543.495 529.217 540.285 542.944 536.834C555.803 533.603 568.706 530.022 581.759 527.667Z"/><path fill="#FEFEFC" transform="scale(0.195312 0.195312)" d="M235.041 615.747L236.524 616.059C251.536 684.022 269.609 751.392 286.001 819.032C268.015 823.867 249.975 828.495 231.883 832.914C223.089 835.076 212.127 839.102 203.073 838.836C200.062 837.145 197.877 835.212 196.851 831.875C193.594 821.285 191.532 809.97 188.964 799.17L173.893 736.058L158.699 674.718C156.321 664.9 153.544 654.946 151.874 644.984C151.543 643.006 151.497 640.804 152.632 639.042C154.076 636.8 157.475 635.604 159.927 634.749C166.898 632.315 174.543 631.102 181.717 629.251C199.462 624.632 217.237 620.131 235.041 615.747Z"/><path fill="#EA827F" transform="scale(0.195312 0.195312)" d="M107.735 505.242C115.919 504.38 124.634 507.045 131.966 510.465C144.719 516.415 167.414 535.053 172.168 549.031C173.402 552.66 173.521 556.384 171.7 559.845C167.727 567.394 157.227 569.645 149.757 571.927C136.764 575.74 123.461 578.374 110.463 582.174C108.612 575.952 107.48 569.444 105.841 563.15C100.968 544.996 96.2512 526.801 91.6899 508.567C96.8951 506.855 102.278 505.74 107.735 505.242Z"/><path fill="#1F507A" transform="scale(0.195312 0.195312)" d="M129.052 526.335C138.915 525.535 147.614 532.752 148.646 542.591C149.678 552.43 142.666 561.295 132.852 562.558C126.294 563.402 119.793 560.629 115.866 555.311C111.939 549.992 111.202 542.965 113.94 536.948C116.678 530.931 122.461 526.869 129.052 526.335Z"/><path fill="#FEFEFC" transform="scale(0.195312 0.195312)" d="M128.978 533.961C134.822 533.094 140.267 537.112 141.161 542.95C142.056 548.788 138.062 554.251 132.227 555.173C126.353 556.1 120.844 552.076 119.944 546.199C119.044 540.322 123.095 534.833 128.978 533.961Z"/><path fill="#FEFEFC" transform="scale(0.195312 0.195312)" d="M527.722 443.838C528.424 443.894 528.024 443.787 528.829 444.405C527.706 452.67 525.509 460.912 523.709 469.055C520.695 483.162 517.497 497.229 514.117 511.252C494.646 517.062 474.53 521.492 454.821 526.515C454.333 526.549 454.68 526.568 453.923 525.989C453.866 518.513 459.036 502.086 460.92 494.337C463.714 482.785 466.325 471.19 468.754 459.555C488.101 453.538 508.114 449.01 527.722 443.838Z"/><path fill="#FEFEFC" transform="scale(0.195312 0.195312)" d="M449.344 464.501L449.911 464.868C450.915 467.568 436.881 524.466 435.55 531.323C415.948 536.686 396.07 541.222 376.591 546.977L376.326 546.669C375.171 542.785 388.951 488.808 390.995 479.677C410.266 474.134 429.962 469.711 449.344 464.501Z"/><path fill="#FEFEFC" transform="scale(0.195312 0.195312)" d="M588.782 428.247L590.169 428.056C591.936 429.768 603.6 481.474 605.395 488.397C585.943 493.062 566.647 498.253 547.134 502.695C542.107 503.967 537.098 505.308 532.107 506.718C537.839 484.33 542.313 461.384 547.302 438.805C561.122 435.245 575.036 432.1 588.782 428.247Z"/><path fill="#FEFEFC" transform="scale(0.195312 0.195312)" d="M372.028 484.482L372.671 484.629C373.262 486.057 359.801 544.26 358.423 551.265L300.383 566.087L299.797 565.975C299.036 564.209 312.408 507.513 313.998 499.992C333.396 495.02 352.588 489.326 372.028 484.482Z"/><path fill="#FEFEFC" transform="scale(0.195312 0.195312)" d="M293.868 505.119C294.877 504.922 295.021 504.988 295.948 505.313C295.983 510.887 293.398 517.752 292.147 523.295C288.559 539.194 284.454 555.115 281.802 571.197C263.111 576.557 243.93 580.298 225.19 585.601L223.76 585.989L223.298 585.377C227.743 563.624 232.515 541.938 237.611 520.328C256.316 515.083 275.069 510.013 293.868 505.119Z"/><path fill="#FEFEFC" transform="scale(0.195312 0.195312)" d="M216.951 525.748C217.578 525.612 218.212 525.673 218.852 525.682C219.583 529.458 206.843 583.675 205.307 590.789C186.998 595.769 168.5 600.318 150.067 604.817C139.379 607.426 128.579 609.719 118.031 612.854L116.804 607.192L112.974 591.04C130.969 584.07 152.437 583.143 169.181 573.442C174.981 570.081 179.738 565.423 181.385 558.716C183.409 550.472 179.623 543.541 175.416 536.792L216.951 525.748Z"/><path fill="#FEFEFC" transform="scale(0.195312 0.195312)" d="M402.532 259.226C404.463 260.956 416.973 312.32 418.931 320.397C403.532 332.676 387.981 344.765 372.284 356.661L371.178 356.599C369.224 351.903 368.372 346.059 367.141 341.101C363.424 326.134 360.135 311.086 356.568 296.085C371.321 283.147 387.376 271.689 402.532 259.226Z"/><path fill="#FEFEFC" transform="scale(0.195312 0.195312)" d="M463.027 211.873C465.467 215.92 478.18 265.27 479.893 273.086C473.382 279.223 465.853 284.565 458.755 290.014C450.492 296.358 442.306 302.899 433.757 308.847L433.13 309.05C431.296 306.904 418.742 253.147 417.827 247.415C432.751 235.365 447.625 223.31 463.027 211.873Z"/><path fill="#FEFEFC" transform="scale(0.195312 0.195312)" d="M220.352 403.003C221.691 404.888 233.271 454.964 235.583 463.14C219.468 475.094 203.728 487.631 187.863 499.92C182.968 491.551 176.926 452.626 172.908 439.875C186.292 427.602 205.362 413.5 220.352 403.003Z"/><path fill="#FEFEFC" transform="scale(0.195312 0.195312)" d="M341.04 309.256C344.082 313.028 354.578 360.881 356.311 368.659C342.169 381.548 325.854 393.142 310.713 404.868C308.375 402.576 297.332 351.957 295.342 344.406C307.236 333.045 327.265 319.056 341.04 309.256Z"/><path fill="#FEFEFC" transform="scale(0.195312 0.195312)" d="M280.565 356.219C282.532 359.044 293.645 408.622 295.238 415.993C280.54 428.656 264.456 439.539 249.653 452.025C247.189 449.364 236.253 398.909 234.689 391.57C240.527 386.247 247.151 381.58 253.413 376.76C262.4 369.844 271.314 362.778 280.565 356.219Z"/><path fill="#FEFEFC" transform="scale(0.195312 0.195312)" d="M157.757 451.069C160.518 455.571 170.028 500.972 172.925 510.851C168.892 514.195 164.543 517.285 160.399 520.503C151.763 513.19 143.678 506.747 133.364 501.87C121.354 496.679 110.516 495.811 97.6495 497.824C117.793 482.377 137.829 466.792 157.757 451.069Z"/><path fill="#FEFEFC" transform="scale(0.195312 0.195312)" d="M477.801 199.562C481.698 200.786 507.522 242.484 511.829 249.591C509.341 251.187 507.057 253.122 504.735 254.949L493.959 262.911C491.943 254.636 477.55 202.004 477.801 199.562Z"/><path fill="#1F507A" transform="scale(0.195312 0.195312)" d="M748.066 176.586C816.378 171.103 876.16 222.119 881.469 290.428C886.778 358.737 835.596 418.373 767.257 423.506C699.165 428.62 639.778 377.676 634.488 309.614C629.198 241.552 680.002 182.049 748.066 176.586Z"/><path fill="#FEFEFC" transform="scale(0.195312 0.195312)" d="M747.075 182.242C812.335 176.229 870.054 224.388 875.812 289.655C881.569 354.922 833.172 412.437 767.867 417.937C702.924 423.406 645.783 375.347 640.057 310.442C634.332 245.537 682.177 188.221 747.075 182.242Z"/><path fill="#1F507A" transform="scale(0.195312 0.195312)" d="M753.77 189.851C815.015 187.532 866.466 235.448 868.49 296.688C870.515 357.928 822.339 409.136 761.075 410.865C700.227 412.582 649.43 364.816 647.419 303.992C645.409 243.168 692.941 192.153 753.77 189.851Z"/><path fill="#EA827F" transform="scale(0.195312 0.195312)" d="M755.604 194.016C757.743 193.915 759.959 194.108 762.103 194.175C760.917 198.799 759.835 203.443 759.193 208.179C757.283 222.269 761.121 239.65 769.95 250.993C773.074 255.006 777.198 257.673 782.345 258.137C801.013 259.822 820.753 239.756 833.975 228.468C840.084 234.648 845.399 243.393 849.467 251.046C834.461 254.169 820.873 258.588 809.633 269.529C804.011 275.003 798.982 282.388 799.084 290.541C799.166 297.05 802.566 302.854 807.18 307.231C820.58 319.943 839.996 322.726 857.641 322.428C855.944 333.813 851.004 344.815 845.392 354.786C835.427 344.486 823.145 338.103 809.081 335.242C801.495 333.699 793.374 333.438 786.764 338.077C781.261 341.94 778.458 348.163 777.435 354.638C774.913 371.208 779.142 388.098 789.174 401.526C779.854 404.271 770.35 405.586 760.655 405.825C759.727 405.851 759.057 405.934 758.2 405.504C757.024 404.914 757.583 402.424 757.788 401.365C759.833 390.427 759.374 379.168 756.448 368.432C754.279 360.274 750.297 350.913 742.487 346.676C736.629 343.497 729.792 343.996 723.583 345.743C707.918 350.152 695.804 361.916 688.052 375.811C680.851 368.265 675.044 359.181 669.453 350.427C685.2 344.44 703.606 337.432 712.097 321.675C715.196 315.924 716.14 309.322 714.239 303.021C711.34 293.416 702.804 286.383 694.198 281.907C682.608 275.88 670.17 273.77 657.625 277.741C659.711 265.621 665.167 255.002 671.02 244.36C678.594 253.75 689.709 260.633 701.11 264.342C709.967 267.224 720.076 269.079 728.701 264.513C734.887 261.238 738.912 255.466 740.864 248.841C745.781 232.152 740.07 212.62 731.923 197.914C739.814 195.84 747.465 194.569 755.604 194.016Z"/><path fill="#1F507A" transform="scale(0.195312 0.195312)" d="M754.248 271.965C770.361 270.276 784.802 281.946 786.527 298.051C788.252 314.157 776.61 328.619 760.504 330.379C744.349 332.143 729.829 320.461 728.099 304.306C726.369 288.151 738.085 273.66 754.248 271.965Z"/><path fill="#FEFEFC" transform="scale(0.195312 0.195312)" d="M756.32 277.615C769.246 277.118 780.163 287.117 780.798 300.034C781.432 312.95 771.548 323.971 758.636 324.743C750.16 325.25 742.065 321.165 737.438 314.047C732.811 306.928 732.367 297.874 736.273 290.337C740.18 282.799 747.835 277.941 756.32 277.615Z"/><path fill="#1F507A" transform="scale(0.195312 0.195312)" d="M752.769 285.333C761.459 283.108 770.319 288.307 772.612 296.978C774.905 305.649 769.774 314.546 761.118 316.906C752.368 319.292 743.349 314.092 741.03 305.326C738.712 296.559 743.982 287.583 752.769 285.333Z"/><path fill="#FEFEFC" transform="scale(0.195312 0.195312)" d="M755.215 290.483C761.09 289.724 766.499 293.786 767.406 299.639C768.313 305.492 764.387 311.001 758.558 312.055C754.654 312.76 750.674 311.294 748.162 308.224C745.65 305.155 745.001 300.965 746.466 297.279C747.931 293.593 751.28 290.992 755.215 290.483Z"/><path fill="#FEFEFC" transform="scale(0.195312 0.195312)" d="M725.377 200.583C726.197 200.489 726.544 200.697 727.296 200.994C730.015 204.577 731.652 209.835 733.34 214.002C737.555 224.406 739.436 239.062 734.766 249.626C732.542 254.658 728.821 258.726 723.544 260.618C713.911 264.072 702.664 259.407 693.974 255.424C686.115 251.401 679.975 246.134 673.802 239.923C688.175 221.472 703.351 208.963 725.377 200.583Z"/><path fill="#FEFEFC" transform="scale(0.195312 0.195312)" d="M664.689 281.359C668.127 280.919 671.61 280.952 675.04 281.459C686.159 283.044 698.958 288.751 705.761 298.026C708.976 302.41 710.633 307.734 709.618 313.166C707.792 322.936 699.316 329.395 691.621 334.652C683.917 339.406 675.554 342.562 666.99 345.359C657.481 327.05 653.904 303.836 659.128 283.76L664.689 281.359Z"/><path fill="#FEFEFC" transform="scale(0.195312 0.195312)" d="M767.725 194.886C791.914 196.629 811.885 207.403 829.081 223.948C824.374 229.796 818.011 234.716 812.287 239.528C811.491 240.156 810.69 240.754 809.855 241.329C802.261 246.569 791.431 253.802 781.689 251.685C776.996 250.666 773.586 247.343 771.173 243.348C762.103 228.322 763.564 211.077 767.725 194.886Z"/><path fill="#FEFEFC" transform="scale(0.195312 0.195312)" d="M846.39 257.69C846.873 257.59 847.817 257.318 848.344 257.373C848.989 257.441 849.557 257.608 849.984 258.092C859.301 268.662 859.055 303.598 858.259 317.003C846.324 318.611 834.921 315.804 823.915 311.373C821.723 310.348 819.63 309.169 817.564 307.913C812.205 304.657 806.533 300.014 805.138 293.563C804.011 288.357 805.944 283.257 808.888 279.021C817.487 266.648 832.052 260.344 846.39 257.69Z"/><path fill="#FEFEFC" transform="scale(0.195312 0.195312)" d="M795.292 340.055C796.417 339.88 797.538 339.825 798.675 339.815C814.59 339.677 830.733 347.835 841.952 358.744C835.035 369.724 826.23 378.645 816.148 386.706C809.338 392.019 801.671 395.722 793.81 399.164C791.531 396.268 789.619 393.101 788.117 389.735C783.079 378.69 779.77 362.119 784.379 350.419C786.615 344.744 789.938 342.378 795.292 340.055Z"/><path fill="#FEFEFC" transform="scale(0.195312 0.195312)" d="M732.656 349.577C733.893 349.567 735.214 349.632 736.433 349.834C740.388 350.487 743.84 353.541 746.045 356.735C755.194 369.984 754.626 389.395 751.966 404.509C741.306 403.453 731.612 400.676 721.647 396.917C710.918 392.049 701.825 386.316 692.526 379.1C694.144 375.802 695.871 372.674 698.145 369.774C706.507 359.106 719.157 351.295 732.656 349.577Z"/><path fill="#EA827F" transform="scale(0.195312 0.195312)" d="M655.921 820.346C668.168 819.096 679.147 827.914 680.565 840.139C681.983 852.364 673.314 863.46 661.106 865.045C653.059 866.09 645.073 862.723 640.204 856.234C635.335 849.744 634.336 841.137 637.591 833.706C640.845 826.275 647.849 821.171 655.921 820.346Z"/><path fill="#FEFEFC" transform="scale(0.195312 0.195312)" d="M653.37 827.286C659.026 825.577 665.164 827.048 669.43 831.134C673.696 835.22 675.429 841.288 673.964 847.01C672.499 852.732 668.063 857.222 662.358 858.756C653.722 861.079 644.82 856.043 642.364 847.445C639.909 838.848 644.81 829.872 653.37 827.286Z"/><path fill="#EA827F" transform="scale(0.195312 0.195312)" d="M381.801 952.125C393.825 950.961 404.517 959.76 405.685 971.781C406.853 983.801 398.055 994.494 386.032 995.665C374.004 996.837 363.303 988.037 362.135 976.011C360.966 963.985 369.772 953.29 381.801 952.125Z"/><path fill="#FEFEFC" transform="scale(0.195312 0.195312)" d="M383.398 957.893C392.223 957.614 399.629 964.487 400.008 973.306C400.386 982.126 393.596 989.608 384.779 990.086C378.986 990.4 373.472 987.577 370.34 982.695C367.209 977.813 366.943 971.625 369.645 966.493C372.347 961.36 377.599 958.076 383.398 957.893Z"/><path fill="#EA827F" transform="scale(0.195312 0.195312)" d="M952.503 914.609C959.58 919.481 963.109 929.45 972.189 935.098C979.225 939.474 990.622 934.763 997.996 933.06C1000.04 932.587 1001.88 932.178 1003.72 933.323C1003.23 936.952 987.592 945.616 984.662 953.186C979.628 966.191 989.092 976.444 987.333 982.567C987.073 983.473 986.101 983.619 985.323 983.999C980.288 978.305 977.237 971.482 971.017 966.731C962.882 960.515 953.875 961.871 944.837 965.005C942.569 965.791 939.973 967.098 937.562 967.258C936.082 967.356 935.25 967.271 934.186 966.291C935.1 962.985 950.081 955.439 954.092 948.833C959.387 940.112 953.105 927.897 951.357 919.054C950.922 916.853 951.344 916.368 952.503 914.609Z"/><path fill="#FEFEFC" transform="scale(0.195312 0.195312)" d="M961.225 932.671C972.512 940.345 971.279 942.079 986.048 941.888C979.855 949.103 977.767 954.982 977.397 964.445C977.465 965.015 977.462 964.645 977.176 965.532C969.878 959.327 964.776 957.267 955.065 957.036C960.921 948.912 961.66 942.531 961.225 932.671Z"/><path fill="#EA827F" transform="scale(0.195312 0.195312)" d="M152.13 258.503C163.882 257.227 174.471 265.649 175.867 277.385C177.264 289.12 168.949 299.792 157.225 301.309C149.534 302.304 141.901 299.092 137.235 292.899C132.57 286.705 131.591 278.483 134.673 271.368C137.754 264.252 144.42 259.34 152.13 258.503Z"/><path fill="#FEFEFC" transform="scale(0.195312 0.195312)" d="M153.265 263.701C162.14 263.09 169.86 269.718 170.599 278.581C171.337 287.444 164.819 295.257 155.965 296.122C150.124 296.693 144.427 294.075 141.058 289.27C137.689 284.466 137.168 278.219 139.696 272.924C142.224 267.628 147.409 264.104 153.265 263.701Z"/><path fill="#EA827F" transform="scale(0.195312 0.195312)" d="M131.922 1152.13C132.635 1152.2 134.027 1152.34 134.646 1152.63C137.595 1154.03 143.053 1164.56 146.105 1167.69C153.075 1174.84 162.136 1175.99 171.317 1172.77C174.018 1171.82 177.626 1170 180.515 1170.17C181.651 1170.24 181.469 1170.33 182.16 1171.07C181.271 1175.59 166.171 1180.4 161.183 1189.83C156.209 1199.24 161.176 1210.05 164.099 1219.26L161.814 1220.23C157.503 1219.29 154.337 1209.71 151.59 1206.32C137.967 1189.46 126.729 1201.81 114.264 1200.35L113.817 1199.66C116.826 1194.46 125.207 1192.12 129.512 1187.67C136.289 1180.67 136.462 1171.18 134.236 1162.24C133.403 1158.89 131.98 1155.61 131.922 1152.13Z"/><path fill="#FEFEFC" transform="scale(0.195312 0.195312)" d="M141.405 1170.42C147.006 1176.43 153.599 1178.76 161.587 1179.73C156.353 1186.48 154.386 1192.03 153.577 1200.48C147.505 1195.11 141.039 1192.47 132.991 1192.26C138.542 1185.68 141.128 1178.98 141.405 1170.42Z"/><path fill="#EA827F" transform="scale(0.195312 0.195312)" d="M596.462 106.566C603.714 105.211 611.135 107.853 615.897 113.486C620.659 119.119 622.028 126.874 619.482 133.797C616.937 140.719 610.869 145.741 603.591 146.949C592.497 148.79 581.99 141.357 580.035 130.285C578.081 119.213 585.409 108.633 596.462 106.566Z"/><path fill="#FEFEFC" transform="scale(0.195312 0.195312)" d="M595.371 111.768C603.562 109.086 612.384 113.511 615.13 121.68C617.877 129.848 613.52 138.702 605.372 141.512C597.132 144.353 588.155 139.938 585.378 131.678C582.601 123.419 587.088 114.479 595.371 111.768Z"/><path fill="#EA827F" transform="scale(0.195312 0.195312)" d="M361.455 94.1161C362.28 94.165 363.166 94.1642 363.875 94.6617C367.505 97.208 371.7 106.834 377.753 111.232C386.066 117.271 395.604 112.615 404.524 111.834C406.188 111.688 406.962 111.629 408.25 112.646C407.496 116.104 400.306 119.128 397.578 121.389C395.477 123.13 393.439 125.297 391.795 127.472C383.311 138.699 391.459 148.662 393.069 160.194C391.727 160.518 390.962 160.965 389.704 160.061C386.075 157.452 382.796 146.655 374.2 141.392C364.774 135.621 354.444 142.998 345.168 140.509C345.081 140.121 344.8 139.729 344.908 139.346C345.519 137.182 359.287 130.479 362.112 124.826C368.911 111.225 359.386 101.79 361.455 94.1161Z"/><path fill="#FEFEFC" transform="scale(0.195312 0.195312)" d="M369.932 110.88C377.044 117.043 382.089 119.582 391.677 119.906C385.49 126.451 383.557 132.621 382.643 141.403C380.632 141.403 372.058 133.376 362.433 133.493C368.079 126.031 370.001 120.237 369.932 110.88Z"/><path fill="#EA827F" transform="scale(0.195312 0.195312)" d="M939.432 150.947C945.174 153.845 950.587 162.13 954.365 167.26C960.286 163.487 967.442 160.809 973.939 158.152C970.93 164.584 966.85 170.431 963.727 176.818C968.151 182.209 972.573 187.578 976.704 193.199C970.487 192.392 964.264 191.627 958.036 190.906C957.364 190.748 956.727 190.871 956.044 190.927C951.002 195.624 948.975 203.869 945.31 209.7L944.904 210.337C943.389 204.286 944.144 195.566 941.162 190.254C938.296 185.149 928.257 183.536 923.044 181.935C928.47 178.371 934.365 175.434 940.332 172.897C940.04 165.633 939.092 158.2 939.432 150.947Z"/><path fill="#FEFEFC" transform="scale(0.195312 0.195312)" d="M945.589 165.171C948.574 167.203 950.699 170.237 952.662 173.2L962.281 169.534L957.237 177.269C959.469 180.446 962.037 183.16 964.732 185.947C960.825 185.609 956.92 185.246 953.018 184.857C951.491 188.296 949.318 191.504 947.351 194.713C947.449 191.973 947.958 188.424 946.528 185.97C944.609 182.677 939.018 181.795 935.568 180.771C939.31 179.457 942.532 177.8 945.891 175.706C946.131 172.216 945.787 168.66 945.589 165.171Z"/><path fill="#EA827F" transform="scale(0.195312 0.195312)" d="M52.9882 733.448C58.5516 734.68 63.7208 741.725 67.6523 745.773C73.4729 744.453 79.3208 740.477 85.0701 739.887C85.9401 742.218 79.5146 753.085 78.3372 756.123C80.6047 759.629 87.9047 766.232 88.2043 769.952C84.7922 772.065 77.7678 769.834 73.9115 769.137C67.4573 769.43 65.0373 778.72 60.7785 782.522L59.6705 782.353C57.711 778.626 58.4183 773.653 57.1009 769.607C53.9709 759.996 45.5449 764.96 38.8198 761.473C40.3252 757.95 50.9434 754.401 54.5098 750.505L55.0289 749.932C54.4891 744.426 53.6787 738.938 52.9882 733.448Z"/><path fill="#FEFEFC" transform="scale(0.195312 0.195312)" d="M59.8275 745.372C62.4016 746.959 64.5627 749.236 66.7745 751.286L76.3533 748.387C75.1189 750.846 73.2158 753.855 73.1735 756.651C73.1135 760.619 75.6177 762.741 78.2187 765.317C75.2328 764.899 72.2991 764.671 69.2876 764.536C66.7049 766.494 65.064 768.652 63.2114 771.286C62.5095 768.516 61.5715 765.857 60.6188 763.166C57.9203 761.659 55.023 760.4 52.2372 759.055C54.8712 757.388 57.0231 755.673 59.2406 753.482C59.5358 750.8 59.6414 748.066 59.8275 745.372Z"/></svg>