<?xml version="1.0" encoding="utf-8" ?><svg xmlns="http://www.w3.org/2000/svg" xmlns:xlink="http://www.w3.org/1999/xlink" width="2496" height="1405" viewBox="0 0 2496 1405"><path fill="#FFF4DD" transform="scale(1.37143 1.37207)" d="M0 0L1325.85 0L1335.59 0L1347.47 0L1357.14 0L1368.01 0L1377.37 0L1647.92 0L1656.96 0L1666.3 0L1676.17 0L1687.29 0L1697.7 0L1820 0L1820 200.76L1820 208.84L1820 237.05L1820 245.043L1820 297.227L1820 302.486L1820 335.713L1820 339.916L1820 352.536L1820 358.472L1820 398.708L1820 403.622L1820 420.819L1820 429.046L1820 1024L1695.96 1024L1686 1024L1675.33 1024L1665.07 1024L1656.22 1024L1646.44 1024L1528.8 1024L1478.21 1024L1376.4 1024L1367.2 1024L1354.98 1024L1345.19 1024L1333.56 1024L1323.73 1024L496.295 1024L486.267 1024L448.422 1024L415.142 1024L350.855 1024L339.984 1024L270.781 1024L259.412 1024L234.521 1024L224.903 1024L187.658 1024L177.948 1024L0 1024L0 0Z"/><path fill="#273649" transform="scale(1.37143 1.37207)" d="M384.211 819.932C389.252 810.173 396.932 806.502 407.061 803.257C414.366 800.918 422.422 798.498 429.963 797.137C437.335 818.977 443.122 841.582 449.574 863.717C465.138 917.106 480.018 970.835 496.295 1024L486.267 1024L448.422 1024L415.142 1024L350.855 1024L339.984 1024L270.781 1024L259.412 1024L234.521 1024L224.903 1024L187.658 1024L177.948 1024C164.015 973.949 149.804 923.976 135.317 874.083C146.111 870.785 157.697 866.252 168.936 865.058C176.436 864.26 181.277 865.722 187.081 870.473C192.457 868.117 199.01 867.076 204.704 865.431C219.753 861.084 235.285 855.694 250.713 853.019C258.856 849.927 267.612 847.636 276.147 845.897C287.863 841.819 301.29 839.95 313.441 837.05C337.05 831.414 360.517 825.209 384.211 819.932Z"/><path fill="#FBD677" transform="scale(1.37143 1.37207)" d="M448.422 1024C435.118 979.037 422.128 933.982 409.453 888.838C404.175 870.154 397.55 851.455 393.317 832.53C392.634 829.481 391.066 824.066 392.672 821.18C397.203 813.037 413.851 809.569 422.441 807.385C422.86 807.277 423.28 807.175 423.702 807.076L467.506 957.905C473.826 979.871 480.654 1001.84 486.267 1024L448.422 1024Z"/><path fill="#273649" transform="scale(1.37143 1.37207)" d="M448.034 962.351C452.091 960.553 456.837 962.375 458.651 966.425C460.465 970.476 458.663 975.231 454.621 977.062C450.556 978.903 445.769 977.088 443.944 973.014C442.12 968.941 443.954 964.16 448.034 962.351Z"/><path fill="#273649" transform="scale(1.37143 1.37207)" d="M459.838 995.258C463.937 994.069 468.25 996.288 469.667 1000.31C471.084 1004.34 469.111 1008.77 465.171 1010.41C462.418 1011.56 459.258 1011.09 456.958 1009.19C454.659 1007.29 453.598 1004.28 454.201 1001.36C454.805 998.436 456.974 996.089 459.838 995.258Z"/><path fill="#273649" transform="scale(1.37143 1.37207)" d="M433.045 894.847C437.372 894.462 441.223 897.584 441.743 901.899C442.262 906.213 439.263 910.161 434.968 910.815C432.067 911.257 429.157 910.084 427.372 907.755C425.588 905.426 425.212 902.309 426.393 899.623C427.574 896.937 430.123 895.106 433.045 894.847Z"/><path fill="#273649" transform="scale(1.37143 1.37207)" d="M440.334 929.156C443.103 928.321 446.107 929.042 448.196 931.044C450.284 933.046 451.133 936.017 450.416 938.82C449.7 941.624 447.53 943.824 444.738 944.578C440.506 945.721 436.141 943.253 434.938 939.038C433.734 934.822 436.137 930.421 440.334 929.156Z"/><path fill="#273649" transform="scale(1.37143 1.37207)" d="M419.862 862.686C423.752 860.756 428.47 862.325 430.429 866.202C432.388 870.078 430.855 874.809 426.994 876.798C423.092 878.808 418.3 877.254 416.32 873.336C414.34 869.418 415.93 864.637 419.862 862.686Z"/><path fill="#273649" transform="scale(1.37143 1.37207)" d="M410.962 830.636C415.08 829.462 419.372 831.842 420.56 835.957C421.748 840.073 419.384 844.374 415.274 845.577C411.143 846.785 406.817 844.407 405.623 840.271C404.429 836.135 406.822 831.816 410.962 830.636Z"/><path fill="#FBD677" transform="scale(1.37143 1.37207)" d="M228.152 1003.53C236.822 998.113 246.222 993.672 255.25 988.875L297.423 966.01L366.769 928.217C379.614 921.176 392.338 913.518 405.435 906.982C408.326 917.575 411.637 928.252 414.057 938.954C363.927 969.531 310.342 994.732 259.412 1024L234.521 1024L228.152 1003.53Z"/><path fill="#FBD677" transform="scale(1.37143 1.37207)" d="M145.828 879.962C154.129 877.772 169.823 870.608 177.797 874.757C181.289 876.574 183.498 882.215 184.851 885.693C190.397 899.949 193.796 915.731 198.131 930.457C207.288 961.571 216.212 992.753 224.903 1024L187.658 1024C177.62 992.843 169.113 961.176 160.207 929.682C155.544 913.19 149.778 896.592 145.828 879.962Z"/><path fill="#273649" transform="scale(1.37143 1.37207)" d="M167.112 892.129C170.971 890.477 175.441 892.249 177.12 896.097C178.799 899.946 177.06 904.428 173.224 906.136C169.35 907.86 164.813 906.098 163.117 902.211C161.421 898.324 163.214 893.798 167.112 892.129Z"/><path fill="#273649" transform="scale(1.37143 1.37207)" d="M186.346 956.081C190.301 954.621 194.688 956.666 196.115 960.634C197.542 964.602 195.463 968.973 191.485 970.369C187.551 971.749 183.241 969.698 181.83 965.775C180.419 961.851 182.435 957.524 186.346 956.081Z"/><path fill="#273649" transform="scale(1.37143 1.37207)" d="M196.258 988.921C200.359 987.976 204.443 990.56 205.346 994.672C206.25 998.783 203.626 1002.84 199.507 1003.7C195.446 1004.56 191.457 1001.98 190.566 997.922C189.675 993.868 192.214 989.853 196.258 988.921Z"/><path fill="#273649" transform="scale(1.37143 1.37207)" d="M176.823 923.95C180.81 922.635 185.105 924.821 186.387 928.82C187.669 932.818 185.447 937.095 181.439 938.344C177.478 939.579 173.263 937.388 171.996 933.437C170.728 929.485 172.883 925.251 176.823 923.95Z"/><path fill="#FBD677" transform="scale(1.37143 1.37207)" d="M276.147 845.897C287.863 841.819 301.29 839.95 313.441 837.05C337.05 831.414 360.517 825.209 384.211 819.932C381.968 827.79 379.846 827.653 372.89 831.528C339.821 849.949 306.152 867.482 272.87 885.533C250.526 897.652 228.208 911.023 205.296 921.983C202.053 911.335 198.524 900.694 195.804 889.9C208.5 882.525 270.659 851.664 276.147 845.897Z"/><path fill="#FBD677" transform="scale(1.37143 1.37207)" d="M415.858 944.835C419.23 955.327 422.248 965.93 424.906 976.625C397.743 994.183 367.369 1006.71 339.984 1024L270.781 1024C301.738 1006.4 333.303 989.773 364.623 972.822C381.653 963.606 398.523 953.418 415.858 944.835Z"/><path fill="#FBD677" transform="scale(1.37143 1.37207)" d="M350.855 1024C375.802 1009.72 402.173 997.212 426.629 982.186C429.658 992.312 432.974 1002.44 435.537 1012.69C428.569 1016.23 421.798 1019.9 415.142 1024L350.855 1024Z"/><path fill="#FBD677" transform="scale(1.37143 1.37207)" d="M187.081 870.473C192.457 868.117 199.01 867.076 204.704 865.431C219.753 861.084 235.285 855.694 250.713 853.019C232.637 864.382 213.191 874.301 194.202 884.051C192.242 879.15 190.424 874.647 187.081 870.473Z"/><path fill="#FBD677" transform="scale(1.37143 1.37207)" d="M392.319 870.189L393.443 870.35C397.572 873.914 402.182 895.099 403.938 901.259C385.124 913.269 364.289 923.32 344.674 934.031C305.951 955.326 267.054 976.301 227.985 996.955L227.381 996.981C224.025 993.651 219.297 970.715 217.964 965.355C236.349 955.893 254.297 945.511 272.473 935.648L392.319 870.189Z"/><path fill="#FBD677" transform="scale(1.37143 1.37207)" d="M383.544 831.96C387.172 835.794 391.37 857.589 393.004 863.768L216.306 959.853C212.764 949.279 210.013 938.243 206.805 927.541C226.012 918.558 244.695 907.216 263.402 897.16L383.544 831.96Z"/><path fill="#FFF4DD" transform="scale(1.37143 1.37207)" d="M1377.37 0L1647.92 0C1650.84 10.9008 1656.17 21.9679 1660.39 32.4422C1669.5 55.0659 1678.94 77.5332 1687.82 100.252C1609.85 130.932 1531.62 160.969 1453.15 190.36C1450.44 181.769 1446.44 173.303 1443.09 164.929L1426.11 121.956L1377.37 0Z"/><path fill="#273649" transform="scale(1.37143 1.37207)" d="M1490.91 20.4013C1503.74 22.7432 1571.06 33.1725 1577.13 37.5476C1580.17 39.738 1582.01 43.1961 1582.43 46.8847C1583.49 56.098 1554.31 84.3747 1547.03 92.9508C1540.6 100.554 1532.18 113.168 1522.89 117.004C1519.33 118.473 1515.65 118.385 1512.16 116.792C1503.21 112.715 1500.22 100.579 1496.94 92.098C1491.5 78.0457 1479.2 50.6154 1477.97 36.3763C1477.75 33.8525 1478.38 31.1568 1479.45 28.8683C1481.72 24.0078 1486.18 22.2016 1490.91 20.4013Z"/><path fill="#E86F61" transform="scale(1.37143 1.37207)" d="M1490.1 29.1027C1497.9 29.5602 1566.89 42.0046 1571.41 44.2345C1573.08 45.0548 1573.01 45.8681 1573.49 47.4747C1571.49 55.3374 1549.81 77.1297 1543.34 84.4475C1536.79 91.6227 1529.27 103.82 1520.57 108.159C1518.23 109.326 1517.03 109.202 1514.7 108.473C1508.62 101.685 1487.41 45.5593 1486.01 35.2914C1486.47 32.402 1488.11 31.0387 1490.1 29.1027Z"/><path fill="#273649" transform="scale(1.37143 1.37207)" d="M1312.04 995.555L1513.89 915.171C1529.57 908.882 1622.66 869.616 1629.99 869.493C1632.2 870.713 1632.83 872.434 1633.93 874.65C1641.06 888.955 1646.44 904.633 1652.56 919.412C1667 954.256 1681.01 989.379 1695.96 1024L1686 1024L1675.33 1024L1665.07 1024L1656.22 1024L1646.44 1024L1528.8 1024L1478.21 1024L1376.4 1024L1367.2 1024L1354.98 1024L1345.19 1024L1333.56 1024L1323.73 1024C1319.94 1014.5 1316.38 1004.81 1312.04 995.555Z"/><path fill="#FFF4DD" transform="scale(1.37143 1.37207)" d="M1371.31 1010.43C1404.88 995.513 1439.76 982.941 1473.91 969.374C1517.13 952.204 1560.1 934.162 1603.65 917.864C1616.43 953.729 1634.09 988.148 1646.44 1024L1528.8 1024L1478.21 1024L1376.4 1024C1374.74 1019.47 1373.19 1014.87 1371.31 1010.43Z"/><path fill="#273649" transform="scale(1.37143 1.37207)" d="M1478.21 1024C1482.59 1019.36 1485.59 1017.14 1492.15 1016.98C1503.17 1016.71 1518.21 1020.71 1528.8 1024L1478.21 1024Z"/><path fill="#FFF4DD" transform="scale(1.37143 1.37207)" d="M1612.97 898.875C1624.97 920.656 1634.03 948.084 1643.71 971.426C1649.46 985.27 1661.67 1010.47 1665.07 1024L1656.22 1024C1649.63 1008.35 1611.05 910.056 1607.74 907.046C1597.26 908.464 1580.15 917.338 1569.94 921.448L1491.48 952.828L1395.41 991.281C1387.49 994.526 1379 996.714 1371.21 1000.22C1368.49 1001.45 1366.77 1003.37 1364.88 1005.63L1363.07 1005.96C1362.02 1004.48 1360.64 1002.99 1360.7 1001.1C1368.01 994.534 1408.66 980.664 1421.45 975.584L1558.53 920.559C1576.55 913.24 1595.37 907.104 1612.97 898.875Z"/><path fill="#FFF4DD" transform="scale(1.37143 1.37207)" d="M1627.05 881.46C1646.52 928.938 1667.94 976.009 1686 1024L1675.33 1024C1668.11 1008.46 1662.18 992.292 1655.61 976.464C1643.62 948.3 1632 919.981 1620.74 891.514C1622.82 888.161 1624.81 884.702 1627.05 881.46Z"/><path fill="#FFF4DD" transform="scale(1.37143 1.37207)" d="M1354.98 1024C1353.26 1019.86 1347.69 1009.61 1349.28 1005.28C1349.73 1004.05 1350.49 1004.1 1351.61 1003.66C1354.98 1003.89 1357.78 1005.93 1360.61 1007.6C1362.7 1013.11 1364.9 1018.58 1367.2 1024L1354.98 1024Z"/><path fill="#FFF4DD" transform="scale(1.37143 1.37207)" d="M1325.85 1004.65C1330.22 1006.45 1334.6 1008.47 1339.11 1009.89C1341.56 1014.54 1343.46 1019.05 1345.19 1024L1333.56 1024C1330.92 1017.59 1328.13 1011.19 1325.85 1004.65Z"/><path fill="#FFF4DD" transform="scale(1.37143 1.37207)" d="M1617.92 882.645L1618.69 883.165L1618.94 884.771C1618.47 885.591 1617.95 886.369 1617.26 887.027C1614.84 889.343 1357.94 991.94 1337.35 999.859C1335.7 1000.49 1334.2 1000.69 1332.45 1000.73L1330.8 999.776L1330.88 998.418C1334.36 995.917 1338.56 995.424 1342.44 993.799C1362.33 985.459 1382.2 977.288 1402.25 969.334L1564.97 903.788C1582.56 896.559 1600.55 890.397 1617.92 882.645Z"/><path fill="#273649" transform="scale(1.37143 1.37207)" d="M1325.85 0L1335.59 0L1347.47 0L1357.14 0L1368.01 0L1377.37 0L1426.11 121.956L1443.09 164.929C1446.44 173.303 1450.44 181.769 1453.15 190.36C1531.62 160.969 1609.85 130.932 1687.82 100.252C1678.94 77.5332 1669.5 55.0659 1660.39 32.4422C1656.17 21.9679 1650.84 10.9008 1647.92 0L1656.96 0L1666.3 0L1676.17 0L1687.29 0L1697.7 0C1702.81 15.741 1710.43 31.2924 1716.88 46.5484L1746.28 116.857C1724.78 127.697 1696.09 136.299 1672.91 145.055L1532.9 198.52C1511.32 206.685 1489.79 214.97 1468.31 223.375C1455.38 228.512 1437.06 237.824 1423.95 239.948C1420.9 238.42 1418.65 232.57 1417.23 229.458C1406.03 204.885 1397.08 178.884 1387 153.794C1366.36 102.634 1345.97 51.3688 1325.85 0Z"/><path fill="#273649" transform="scale(1.37143 1.37207)" d="M1368.01 0L1377.37 0L1426.11 121.956L1443.09 164.929C1446.44 173.303 1450.44 181.769 1453.15 190.36C1531.62 160.969 1609.85 130.932 1687.82 100.252C1678.94 77.5332 1669.5 55.0659 1660.39 32.4422C1656.17 21.9679 1650.84 10.9008 1647.92 0L1656.96 0C1670.91 34.3786 1684.38 69.1451 1699.26 103.124L1698.61 106.13C1689.62 108.924 1680.8 112.851 1671.97 116.172C1654.32 122.815 1636.7 129.412 1619.15 136.326L1508.44 179.027C1493.69 184.681 1463.56 198.322 1449.62 200.241C1447.13 198.18 1445.65 194.941 1444.32 192.035C1434.86 171.355 1427.25 149.399 1418.79 128.255C1401.64 85.5938 1384.71 42.8416 1368.01 0Z"/><path fill="#FFF4DD" transform="scale(1.37143 1.37207)" d="M1357.14 0L1368.01 0C1384.71 42.8416 1401.64 85.5938 1418.79 128.255C1427.25 149.399 1434.86 171.355 1444.32 192.035C1445.65 194.941 1447.13 198.18 1449.62 200.241C1463.56 198.322 1493.69 184.681 1508.44 179.027L1619.15 136.326C1636.7 129.412 1654.32 122.815 1671.97 116.172C1680.8 112.851 1689.62 108.924 1698.61 106.13C1701.3 106.715 1703.99 107.199 1706.54 108.259C1618.3 143.228 1529 175.537 1440.8 210.557C1431.23 189.283 1423.47 166.788 1414.91 145.07C1395.84 96.6844 1377.01 48.0556 1357.14 0Z"/><path fill="#FFF4DD" transform="scale(1.37143 1.37207)" d="M1335.59 0L1347.47 0C1359.23 26.5672 1369.14 54.241 1379.82 81.2812L1433.06 214.542C1430.33 218.514 1427.98 222.775 1425.54 226.928L1335.59 0Z"/><path fill="#FFF4DD" transform="scale(1.37143 1.37207)" d="M1676.17 0L1687.29 0C1695.1 16.9556 1702.01 34.3709 1709.25 51.5791C1716.83 69.596 1724.79 87.5846 1731.48 105.949L1720.19 105.421C1705.17 70.4237 1690.5 35.2817 1676.17 0Z"/><path fill="#FFF4DD" transform="scale(1.37143 1.37207)" d="M1656.96 0L1666.3 0C1680.81 35.0948 1694.33 71.1344 1710.29 105.568C1709.1 106.724 1708.22 108.054 1706.54 108.259C1703.99 107.199 1701.3 106.715 1698.61 106.13L1699.26 103.124C1684.38 69.1451 1670.91 34.3786 1656.96 0Z"/><path fill="#293C4A" transform="scale(1.37143 1.37207)" d="M1699.26 103.124C1702.91 103.748 1706.86 104.151 1710.29 105.568C1709.1 106.724 1708.22 108.054 1706.54 108.259C1703.99 107.199 1701.3 106.715 1698.61 106.13L1699.26 103.124Z"/><path fill="#FFF4DD" transform="scale(1.37143 1.37207)" d="M1717.53 114.028L1728.66 114.857C1699.72 127.082 1669.37 137.164 1639.96 148.301C1574.72 172.897 1509.64 197.885 1444.71 223.265C1444.39 223.411 1444.06 223.552 1443.73 223.69C1441.33 224.699 1439.56 225.686 1437.1 224.689L1437.62 222.928C1439.82 220.652 1442.65 219.365 1445.53 218.14C1457.21 213.162 1469.44 209.029 1481.31 204.465L1567.38 171.677C1617.47 152.644 1667.21 132.391 1717.53 114.028Z"/><path fill="#FBD677" transform="scale(1.37143 1.37207)" d="M1820 420.819C1790.69 429.409 1761.86 431.542 1732.51 421.719C1706.01 412.852 1682.75 396.297 1670.15 370.825C1660.01 350.34 1659.27 327.704 1666.65 306.179C1675.39 280.702 1693.7 260.913 1717.84 249.176C1751.62 232.749 1784.92 232.97 1820 245.043L1820 297.227L1820 302.486L1820 335.713L1820 339.916L1820 352.536L1820 358.472L1820 398.708L1820 403.622L1820 420.819Z"/><path fill="#FFF4DD" transform="scale(1.37143 1.37207)" d="M1820 358.472L1820 398.708C1814.87 398.348 1810.31 397.73 1805.93 394.819C1801.67 391.987 1798.67 387.698 1797.76 382.633C1796.84 377.553 1798.02 372.318 1801.02 368.115C1805.94 361.326 1812.06 359.619 1820 358.472Z"/><path fill="#273649" transform="scale(1.37143 1.37207)" d="M1820 352.536L1820 358.472C1812.06 359.619 1805.94 361.326 1801.02 368.115C1798.02 372.318 1796.84 377.553 1797.76 382.633C1798.67 387.698 1801.67 391.987 1805.93 394.819C1810.31 397.73 1814.87 398.348 1820 398.708L1820 403.622C1813.76 403.615 1807.78 402.573 1802.37 399.309C1796.9 396.071 1793.01 390.709 1791.63 384.499C1790.23 378.272 1791.46 371.741 1795.03 366.453C1800.94 357.639 1810.14 354.553 1820 352.536Z"/><path fill="#FFF4DD" transform="scale(1.37143 1.37207)" d="M1820 335.713C1814.52 333.371 1809.27 330.221 1806.7 324.597C1805.1 321.087 1804.94 317.206 1806.43 313.609C1809.02 307.345 1814.07 304.935 1820 302.486L1820 335.713Z"/><path fill="#273649" transform="scale(1.37143 1.37207)" d="M1820 339.916C1817.37 339.209 1814.79 338.385 1812.32 337.211C1807.51 334.922 1803.22 330.375 1801.48 325.306C1799.74 320.318 1800.12 314.834 1802.53 310.134C1806.33 302.663 1812.49 299.793 1820 297.227L1820 302.486C1814.07 304.935 1809.02 307.345 1806.43 313.609C1804.94 317.206 1805.1 321.087 1806.7 324.597C1809.27 330.221 1814.52 333.371 1820 335.713L1820 339.916Z"/><path fill="#273649" transform="scale(1.37143 1.37207)" d="M1696.32 316.097C1711.31 312.542 1726.32 321.887 1729.75 336.907C1733.18 351.927 1723.72 366.866 1708.67 370.176C1693.8 373.448 1679.07 364.113 1675.68 349.265C1672.29 334.417 1681.5 319.611 1696.32 316.097Z"/><path fill="#FFF4DD" transform="scale(1.37143 1.37207)" d="M1703.28 320.99C1715.4 321.438 1724.9 331.537 1724.62 343.659C1724.34 355.78 1714.37 365.426 1702.25 365.309C1694.26 365.233 1686.93 360.86 1683.07 353.865C1679.2 346.871 1679.4 338.337 1683.59 331.529C1687.77 324.722 1695.3 320.695 1703.28 320.99Z"/><path fill="#273649" transform="scale(1.37143 1.37207)" d="M1749.01 360.754C1763.67 358.779 1777.15 369.089 1779.08 383.758C1781.01 398.427 1770.66 411.876 1755.99 413.767C1741.38 415.651 1728 405.353 1726.08 390.743C1724.15 376.133 1734.41 362.72 1749.01 360.754Z"/><path fill="#FFF4DD" transform="scale(1.37143 1.37207)" d="M1749.46 366.223C1761.09 364.822 1771.66 373.086 1773.11 384.71C1774.56 396.333 1766.35 406.944 1754.73 408.446C1743.04 409.957 1732.36 401.678 1730.9 389.982C1729.44 378.287 1737.76 367.633 1749.46 366.223Z"/><path fill="#273649" transform="scale(1.37143 1.37207)" d="M1722.02 259.518C1731.2 257.873 1740.56 261.335 1746.46 268.563C1752.37 275.791 1753.89 285.651 1750.45 294.327C1747.01 303.004 1739.14 309.134 1729.88 310.345C1716.04 312.158 1703.27 302.582 1701.13 288.776C1699 274.969 1708.27 261.98 1722.02 259.518Z"/><path fill="#FFF4DD" transform="scale(1.37143 1.37207)" d="M1724.82 264.317C1736.01 263.736 1745.56 272.302 1746.19 283.485C1746.83 294.668 1738.31 304.264 1727.14 304.956C1715.88 305.653 1706.2 297.061 1705.56 285.799C1704.92 274.537 1713.56 264.902 1724.82 264.317Z"/><path fill="#273649" transform="scale(1.37143 1.37207)" d="M1784.61 251.737C1788.92 251.252 1793.74 251 1797.82 252.647C1803.12 254.791 1807.48 258.726 1809.61 264.099C1811.44 268.694 1811.34 273.835 1809.31 278.349C1806.47 284.68 1800.86 288.287 1794.6 290.67C1789.98 291.805 1785.83 291.509 1781.35 289.903C1776.51 288.155 1772.59 284.526 1770.46 279.841C1768.29 275.063 1767.95 269.586 1769.87 264.666C1772.68 257.458 1777.83 254.699 1784.61 251.737Z"/><path fill="#FFF4DD" transform="scale(1.37143 1.37207)" d="M1785.74 256.971C1790.82 255.526 1796.28 256.971 1799.98 260.739C1803.68 264.507 1805.03 269.996 1803.49 275.048C1801.95 280.099 1797.78 283.907 1792.6 284.974C1785.01 286.542 1777.53 281.817 1775.68 274.28C1773.84 266.743 1778.28 259.096 1785.74 256.971Z"/><path fill="#273649" transform="scale(1.37143 1.37207)" d="M1797.37 333.166C1798.75 333.157 1800.07 333.226 1801.41 333.625C1804.66 334.597 1807.22 336.52 1808.75 339.628C1809.6 341.349 1809.64 343.172 1808.99 344.969C1805.91 353.393 1790.68 359.83 1783.06 363.648C1781.31 363.871 1779.58 364.064 1777.85 363.62C1775.12 362.919 1772.83 360.646 1771.56 358.185C1770.61 356.342 1770.5 354.433 1771.16 352.468C1774.03 343.931 1789.79 337.272 1797.37 333.166Z"/><path fill="#FBD677" transform="scale(1.37143 1.37207)" d="M1798.21 337.606C1799.9 337.679 1801.21 338.365 1802.72 339.05C1804.23 341.101 1804.2 341.099 1803.9 343.634C1799.6 350.928 1788.77 355.989 1781.32 359.651C1779.84 359.302 1777.85 358.836 1776.77 357.706C1775.47 356.35 1775.74 355.543 1775.75 353.771C1779.52 346.54 1791.15 341.387 1798.21 337.606Z"/><path fill="#273649" transform="scale(1.37143 1.37207)" d="M1760.72 302.366C1766.5 300.612 1772.61 303.857 1774.39 309.628C1776.18 315.399 1772.97 321.53 1767.21 323.35C1761.41 325.185 1755.22 321.944 1753.42 316.126C1751.61 310.308 1754.89 304.134 1760.72 302.366Z"/><path fill="#FBD677" transform="scale(1.37143 1.37207)" d="M1763.39 308.819C1765.57 308.591 1767.56 310.092 1767.93 312.253C1768.31 314.414 1766.95 316.498 1764.82 317.023C1763.31 317.396 1761.71 316.893 1760.68 315.72C1759.66 314.546 1759.37 312.898 1759.94 311.446C1760.51 309.994 1761.84 308.981 1763.39 308.819Z"/><path fill="#273649" transform="scale(1.37143 1.37207)" d="M1820 429.046C1798.09 433.621 1777.59 437.236 1755.12 434.441C1723.6 430.522 1692.87 416.419 1673.12 390.864C1657.93 371.224 1650.73 346.817 1654.03 322.121C1659.32 282.656 1691.71 247.797 1722.1 224.718C1755.25 199.549 1779.68 195.319 1820 200.76L1820 208.84L1820 237.05L1820 245.043C1784.92 232.97 1751.62 232.749 1717.84 249.176C1693.7 260.913 1675.39 280.702 1666.65 306.179C1659.27 327.704 1660.01 350.34 1670.15 370.825C1682.75 396.297 1706.01 412.852 1732.51 421.719C1761.86 431.542 1790.69 429.409 1820 420.819L1820 429.046Z"/><path fill="#FFF4DD" transform="scale(1.37143 1.37207)" d="M1709.68 245.04C1718.59 236.183 1728.15 228.176 1738.79 221.469C1764.77 205.094 1790.29 202.085 1820 208.84L1820 237.05C1778.18 225.123 1749.01 225.37 1709.68 245.04Z"/><path fill="#293C4A" transform="scale(1.37143 1.37207)" d="M878.012 371.479C896.525 386.368 914.599 403.389 931.864 419.732C911.82 438.63 893.29 459.25 874.003 478.915L716.755 642.275C747.815 632.168 778.554 620.998 809.406 610.28C883.968 584.589 958.138 557.777 1031.89 529.853C1042.88 561.943 1055.67 593.543 1067.22 625.456L1138.33 823.684L1065.17 849.664C1050.21 856.084 1033.68 860.635 1018.29 866.053L912.324 903.221L791.806 945.222C765.387 954.497 738.693 965.008 711.699 972.379C704.123 955.757 698.766 937.349 692.61 920.12L655.591 816.181L619.869 716.672C613.704 699.492 605.968 681.69 601.588 664.008C625.814 636.292 651.829 609.759 677.047 582.923L878.012 371.479Z"/><path fill="#E86F61" transform="scale(1.37143 1.37207)" d="M1044.74 599.053L1046.88 598.864C1047.34 599.12 1047.91 599.249 1048.28 599.63C1049.37 600.739 1118.25 795.973 1125.77 818.053C1109.96 825.106 1092.78 830.115 1076.41 835.832L985.159 867.7L860.942 910.848C813.892 927.736 766.655 944.097 719.24 959.928L718.208 959.943C717.685 959.574 717.08 959.3 716.638 958.836C714.893 957.003 645.187 758.839 638.363 739.419C666.437 730.631 694.083 720.255 721.839 710.516L828.712 673.505L1044.74 599.053Z"/><path fill="#273649" transform="scale(1.37143 1.37207)" d="M1019.01 640.094C1022.9 643.431 1025.5 654.848 1027.25 659.804C1000.61 671.229 971.556 679.45 944.103 688.807C946.404 693.714 947.973 698.886 949.648 704.029C976.533 692.632 1005.3 685.012 1032.66 674.643C1035.53 681.276 1037.66 688.207 1040.61 694.852C1014.04 706.405 985.158 715.293 957.428 723.686C959.303 729.072 961.233 734.439 963.216 739.786C990.792 730.786 1018.1 720.839 1045.47 711.247C1048.73 717.757 1051.18 724.873 1053.89 731.633C1033.22 741.684 1004.42 749.136 982.123 757.578C896.798 789.238 811.029 819.688 724.842 848.919C723.648 849.132 722.512 849.676 721.469 848.967C718.015 846.622 714.872 834.531 714.118 830.344C715.134 828.416 717.517 827.785 719.509 826.971C728.054 823.481 737.246 821.049 745.998 818.04C761.534 812.562 777.041 807.003 792.519 801.363C790.988 796.281 788.985 791.297 787.166 786.31C760.807 796.217 734.343 805.842 707.778 815.184L699.873 795.424C721.984 784.479 756.165 774.478 780.255 766.093C778.591 761 776.237 756.038 774.157 751.098C748.202 761.552 721.445 770.945 695.107 780.4L694.074 778.189C691.711 773.078 686.945 764.093 688.928 758.685C700.189 752.565 713.845 748.996 725.986 744.776C745.339 738.044 764.655 731.205 783.933 724.26L1019.01 640.094Z"/><path fill="#FFF4DD" transform="scale(1.37143 1.37207)" d="M914.626 682.705L915.101 682.891C918.426 686.427 942.804 755.13 946.454 765.393C905.64 781.402 863.593 795.074 822.25 809.694C817.253 802.936 814.579 790.554 811.586 782.533C804.814 764.064 797.791 745.689 790.516 727.412C832.001 713.331 873.904 698.857 914.626 682.705Z"/><path fill="#273649" transform="scale(1.37143 1.37207)" d="M808.967 732.008L812.584 732.692C818.299 738.374 830.857 775.908 833.577 785.281C834.627 788.896 834.49 789.918 832.702 793.177L830.039 792.824C828.956 791.901 828.333 791.132 827.717 789.849C824.747 783.66 807.296 739.262 807.856 735.098C807.98 734.175 808.641 732.914 808.967 732.008Z"/><path fill="#273649" transform="scale(1.37143 1.37207)" d="M902.551 698.092L905.936 698.811C907.931 700.829 908.946 703.258 910.09 705.803C912.891 712.036 928.197 749.764 927.493 754.667C927.366 755.553 926.679 756.797 926.347 757.666C924.532 757.628 923.186 757.413 921.494 756.749C916.608 749.086 908.358 723.049 904.742 713.096C902.913 708.063 900.116 703.308 902.551 698.092Z"/><path fill="#FFF4DD" transform="scale(1.37143 1.37207)" d="M1014.73 647.156L1016.3 647.269C1018.45 649.691 1019.24 653.661 1020.2 656.738L937.238 685.227C939.784 693.641 943.146 701.957 946.206 710.202C956.228 708.073 966.337 703.851 976.056 700.522L1029.45 682.223L1033.1 691.67C1005.75 702.725 977.091 710.35 949.613 721.157C952.958 729.993 956.38 738.8 959.879 747.576C967.562 745.305 975.129 742.309 982.68 739.617C1001.86 731.377 1022.96 725.346 1042.71 718.346L1046.82 728.955C1015.08 739.893 983.418 751.063 951.838 762.463C940.995 735.403 932.297 707.446 920.663 680.697C932.178 675.625 944.512 671.999 956.401 667.906C975.948 661.282 995.395 654.365 1014.73 647.156Z"/><path fill="#FFF4DD" transform="scale(1.37143 1.37207)" d="M785.17 728.933C788.404 733.419 812.875 801.965 815.887 811.304C784.874 821.6 753.784 832.729 723.18 844.177C721.98 840.513 721.017 836.759 719.987 833.043C746.491 823.695 774.405 815.63 800.096 804.318C797.366 795.765 793.819 787.36 790.627 778.964C776.275 784.348 761.863 789.573 747.394 794.636C734.967 799.207 722.579 803.88 710.23 808.656L707.067 797.652C723.342 792.097 739.572 786.409 755.754 780.59C766.296 776.831 777.222 773.394 787.324 768.556C783.877 760.452 781.11 752.085 777.567 744.007C751.232 753.216 724.184 762.326 698.431 772.991L693.535 761.54C724.255 751.659 755.128 740.715 785.17 728.933Z"/><path fill="#273649" transform="scale(1.37143 1.37207)" d="M973.15 791.15C976.637 790.878 979.999 791.074 983.219 792.518C988.961 795.093 992.671 799.96 994.771 805.791C996.697 811.142 997.18 817.342 994.639 822.581C993.354 825.229 991.394 827.585 988.795 829.012C974.255 836.994 955.48 841.63 939.717 847.201L834.616 884.352C830.958 884.484 826.991 883.711 823.659 882.203C818.456 879.849 814.943 875.527 812.958 870.232C810.827 864.548 810.723 857.965 813.382 852.436C814.848 849.386 817.153 846.529 820.153 844.895C834.117 837.287 855.099 832.167 870.456 826.848L973.15 791.15Z"/><path fill="#FFF4DD" transform="scale(1.37143 1.37207)" d="M974.267 796.491C976.343 796.43 978.282 796.797 980.223 797.525C984.282 799.047 987.208 802.454 988.966 806.316C990.763 810.265 991.539 814.902 989.73 818.996C988.504 821.772 986.393 823.897 983.71 825.279C970.368 832.148 954.097 836.136 939.851 841.147C904.586 853.551 868.948 865.338 834.096 878.839C830.695 878.969 826.825 878.231 823.946 876.356C820.352 874.015 817.982 870.437 817.116 866.248C815.706 859.427 817.689 855.133 821.457 849.597C838.624 842.041 857.606 836.952 875.372 830.837L974.267 796.491Z"/><path fill="#273649" transform="scale(1.37143 1.37207)" d="M948.424 818.626L950.044 818.535C951.706 819.843 951.899 819.735 952.23 821.94C950.864 824.093 948.927 824.922 946.651 825.898C937.794 829.696 928.097 832.083 918.966 835.229L859.217 856.031C857.074 855.066 856.833 854.972 855.669 852.95L856.262 851.132C861.841 847.266 871.939 845.435 878.503 843.177C901.698 835.2 925.849 828.092 948.424 818.626Z"/><path fill="#273649" transform="scale(1.37143 1.37207)" d="M1046.98 751.178C1063.56 749.556 1078.35 761.585 1080.15 778.148C1081.95 794.712 1070.08 809.636 1053.54 811.609C1042.68 812.905 1031.97 808.267 1025.48 799.464C1018.99 790.662 1017.73 779.052 1022.18 769.062C1026.63 759.072 1036.1 752.242 1046.98 751.178Z"/><path fill="#FFF4DD" transform="scale(1.37143 1.37207)" d="M1047.02 756.537C1060.59 754.945 1072.92 764.548 1074.71 778.099C1076.51 791.65 1067.09 804.129 1053.57 806.12C1044.64 807.434 1035.7 803.839 1030.17 796.71C1024.64 789.582 1023.38 780.026 1026.87 771.705C1030.36 763.384 1038.06 757.588 1047.02 756.537Z"/><path fill="#293C4A" transform="scale(1.37143 1.37207)" d="M1051.41 776.437C1055.03 775.265 1058.93 777.119 1060.31 780.662C1061.69 784.206 1060.06 788.209 1056.6 789.789C1054.18 790.895 1051.35 790.569 1049.24 788.943C1047.13 787.317 1046.1 784.658 1046.56 782.035C1047.01 779.412 1048.88 777.257 1051.41 776.437Z"/><path fill="#273649" transform="scale(1.37143 1.37207)" d="M771.281 866.792C774.681 866.483 777.541 866.281 780.772 867.683C785.02 869.527 788.458 873.421 790.094 877.719C791.697 881.933 791.684 886.634 789.739 890.73C784.754 901.225 764.271 905.168 753.797 908.756C751.008 909.462 747.832 909.075 745.202 907.964C740.796 906.101 737.431 902.194 735.708 897.786C734.139 893.768 733.951 888.983 735.804 885.022C740.627 874.715 761.254 870.299 771.281 866.792Z"/><path fill="#FFF4DD" transform="scale(1.37143 1.37207)" d="M774.193 872.085C775.896 871.993 777.572 871.925 779.19 872.557C782.268 873.76 784.115 876.569 785.211 879.553C786.264 882.423 786.406 885.555 784.972 888.327C780.54 896.897 760.862 900.727 752.037 903.695C749.953 903.554 747.566 903.502 745.661 902.578C742.888 901.233 740.216 897.65 739.373 894.69C738.714 892.375 738.81 890.047 740.014 887.93C745.338 878.564 764.39 874.703 774.193 872.085Z"/><path fill="#FFF4DD" transform="scale(1.37143 1.37207)" d="M711.526 633.3L712.4 634.294C698.28 649.217 696.819 647.262 678.888 653.57C674.941 654.958 671.05 656.246 669.159 660.18C669.925 662.498 670.019 662.732 671.984 664.161C680.078 666.028 693.466 659.39 701.37 656.888C687.374 679.057 671.294 700.005 657.602 722.301L648.45 725.86L635.143 730.416C626.859 713.2 618.676 685.591 612.352 666.872C621.017 656.143 631.009 645.27 641.381 636.218C650.081 635.196 659.155 635.464 667.928 635.169C682.464 634.631 696.997 634.008 711.526 633.3Z"/><path fill="#273649" transform="scale(1.37143 1.37207)" d="M641.398 651.559C652.358 650.647 661.982 658.792 662.897 669.755C663.812 680.717 655.671 690.346 644.712 691.264C633.748 692.182 624.117 684.035 623.202 673.069C622.286 662.102 630.434 652.471 641.398 651.559Z"/><path fill="#FBD677" transform="scale(1.37143 1.37207)" d="M639.394 661.88C642.913 660.519 646.893 661.17 649.795 663.582C652.696 665.994 654.064 669.789 653.369 673.499C652.673 677.208 650.024 680.25 646.446 681.447C641.088 683.239 635.28 680.425 633.364 675.109C631.448 669.793 634.125 663.92 639.394 661.88Z"/><path fill="#FFF4DD" transform="scale(1.37143 1.37207)" d="M1003.3 550.406L1003.88 551.478C987.823 573.102 973.432 596.444 958.362 618.806C937.54 627.506 915.507 634.216 894.184 641.623L893.403 640.544C908.156 617.855 923.591 595.618 939.687 573.862C960.158 564.88 982.251 558.024 1003.3 550.406Z"/><path fill="#FFF4DD" transform="scale(1.37143 1.37207)" d="M800.953 623.11L801.66 623.275C801.833 626.018 765.813 679.145 761.138 686.011C739.094 694.901 716.2 702.061 693.866 710.236C693.071 710.053 693.165 709.872 692.745 709.217C706.818 687.998 721.227 667.004 735.967 646.243C757.154 637.614 779.425 630.936 800.953 623.11Z"/><path fill="#FFF4DD" transform="scale(1.37143 1.37207)" d="M901.753 587.735C901.621 591.118 865.972 643.26 860.348 652.088C838.902 660.356 817.029 667.353 795.528 675.457C795.235 670.739 832.516 618.024 837.59 610.701C858.961 603.027 880.48 595.667 901.753 587.735Z"/><path fill="#FFF4DD" transform="scale(1.37143 1.37207)" d="M885.526 441.387C887.754 441.175 889.97 440.94 892.211 441.059C893.983 441.153 894.202 440.971 895.39 442.28C882.085 456.617 868.536 470.726 854.75 484.601C833.079 484.866 811.476 486.861 789.807 487.199L781.396 487.505C794.932 472.57 808.38 457.676 823.099 443.889L885.526 441.387Z"/><path fill="#FFF4DD" transform="scale(1.37143 1.37207)" d="M751.347 569.388C758.808 568.788 766.415 568.831 773.902 568.604C760.097 582.639 746.853 597.316 733.262 611.569C716.614 611.543 699.759 612.99 683.103 613.538C675.782 614.349 668.349 614.289 660.989 614.423C673.756 599.001 688.262 584.648 702.578 570.676C718.841 570.51 735.099 570.08 751.347 569.388Z"/><path fill="#FFF4DD" transform="scale(1.37143 1.37207)" d="M818.571 506.174L833.784 505.735C821.152 520.153 807.522 534.341 793.748 547.665C775.519 547.324 756.821 549.167 738.607 550.151L720.426 550.581L761.097 507.928C780.174 506.812 799.461 506.65 818.571 506.174Z"/><path fill="#FFF4DD" transform="scale(1.37143 1.37207)" d="M877.767 385.485C884.671 387.209 909.305 412.213 916.14 418.495C904.001 418.468 891.669 419.877 879.539 420.58C867.347 422.153 854.522 422.152 842.223 422.788C853.59 409.903 865.447 397.46 877.767 385.485Z"/><path fill="#FFF4DD" transform="scale(1.37143 1.37207)" d="M1030.16 553.458C1035.72 562.374 1040.36 579.452 1044.22 589.878C1031.19 594.952 1017.71 598.996 1004.41 603.291L992.211 607.86C1004.17 589.351 1017.75 571.701 1030.16 553.458Z"/><path fill="#273649" transform="scale(1.37143 1.37207)" d="M1468.02 384.101C1472.4 384.161 1476.07 384.589 1479.74 387.167C1482.99 389.449 1485.22 392.878 1485.81 396.822C1486.43 401.039 1485.21 405.225 1482.56 408.55C1479.03 412.983 1474.92 413.634 1469.58 414.216C1457.35 448.41 1442.11 481.618 1428.95 515.491C1441.68 518.81 1449.29 524.036 1457.47 534.133C1472.46 527.08 1488.26 521.25 1503.46 514.602C1523.97 505.637 1544.21 495.854 1564.83 487.191C1578.3 481.529 1591.24 478.275 1605.38 484.229C1615.31 488.408 1625.02 496.207 1631.12 505.15C1639.99 518.165 1654.63 557.56 1661.65 574.138C1674.14 603.6 1687.77 632.658 1699.84 662.274C1707.04 679.934 1709.57 695.189 1701.7 713.485C1697.08 724.231 1690.24 732.499 1680.34 738.655C1669.52 745.383 1656.63 749.72 1644.86 754.526L1581.77 779.834L1378.56 861.808C1365 866.912 1350.71 867.777 1336.95 862.855C1321.27 857.249 1309.8 846.132 1302.87 831.188C1287.7 798.459 1273.35 765.285 1258.6 732.36C1251.25 715.944 1238.07 692.296 1234.68 675.471C1232.83 666.334 1234.27 655.26 1237.49 646.662C1241.72 635.464 1248.98 625.66 1258.45 618.34C1271.3 608.507 1288.23 603.36 1303.1 597.302C1323.77 588.88 1344.7 580.767 1364.96 571.406C1365.27 559.898 1367.64 550.485 1372.31 540.051C1360.22 533.761 1346.68 529.06 1334.04 523.913L1270.03 497.547C1267.4 499.113 1264.48 500.688 1261.43 501.18C1257.81 501.766 1253.91 501.269 1250.9 499.042C1247.84 496.788 1245.95 493.219 1245.38 489.501C1244.69 485.053 1245.84 480.515 1248.58 476.941C1250.64 474.289 1253.58 472.493 1256.95 472.102C1260.9 471.642 1265.64 472.867 1268.68 475.489C1272.98 479.203 1273.68 484.521 1273.92 489.856C1308.31 504.544 1343.22 518.716 1377.97 532.545C1390.98 520.371 1402.08 515.325 1419.94 514.318C1433.45 479.681 1447.43 445.227 1461.87 410.964C1460.2 409.433 1458.5 407.737 1457.45 405.704C1455.67 402.269 1454.97 397.733 1456.36 394.051C1458.39 388.649 1463.04 386.253 1468.02 384.101Z"/><path fill="#FBD677" transform="scale(1.37143 1.37207)" d="M1583.7 489.901C1593.85 488.985 1603.77 491.828 1612.25 497.445C1619.37 502.166 1623.59 508.527 1627.58 515.915C1632.6 525.218 1636.34 535.508 1640.41 545.259L1660.49 592.781L1686.05 651.627C1690.08 661.077 1695.73 671.594 1697.64 681.711C1700 694.196 1696.29 708.458 1689.01 718.75C1684.5 725.136 1678.41 730.981 1671.4 734.562C1655.41 742.74 1637.16 748.558 1620.44 755.239L1524.51 793.883L1423.8 834.609C1403.11 842.921 1381.31 854.081 1359.33 857.764C1349.27 858.158 1338.7 855.574 1330.23 850.082C1323.1 845.46 1317.68 839.225 1313.35 831.968C1304.03 816.345 1294.89 791.384 1287.03 773.918L1259.86 713.66C1254.33 701.4 1246.23 687.394 1243.67 674.256C1241.2 661.591 1244.9 648.353 1252.05 637.78C1257.64 629.502 1264.88 623.901 1273.7 619.436C1291.49 610.438 1310.86 603.532 1329.3 595.926C1371.56 578.492 1414.18 561.889 1456.32 544.163C1479.7 534.4 1502.98 524.414 1526.17 514.207C1541.46 507.34 1568.16 492.961 1583.7 489.901Z"/><path fill="#273649" transform="scale(1.37143 1.37207)" d="M1472.71 550.541C1485.11 549.859 1496.77 553.346 1506.57 561.097C1512.5 565.786 1516.24 571.029 1519.82 577.6C1532.71 601.268 1543.82 632.836 1554.23 658.156C1561.55 675.958 1577.18 704.733 1578.99 723.179C1580.25 735.935 1575.79 750.242 1567.44 759.955C1563.24 764.828 1557.73 768.756 1552.05 771.699C1543.4 776.179 1533.82 779.481 1524.79 783.15L1474.56 803.548L1415.07 828.045C1404.63 832.349 1394.15 837.35 1383.43 840.854C1376.56 843.1 1369.94 844.015 1362.78 844.495C1352.44 843.855 1342.87 841.656 1334.08 835.941C1327.11 831.417 1322.52 826.181 1318.26 819.129C1307.78 801.773 1300.71 780.821 1292.42 762.265L1270.23 712.658C1265.51 702.057 1258.99 690.111 1256.69 678.753C1254.19 666.388 1257.58 652.6 1264.66 642.269C1268.93 636.041 1274.67 630.392 1281.31 626.74C1298.3 617.394 1325.94 608.552 1344.78 600.917L1425.48 568.232C1440.47 562.136 1456.8 553.635 1472.71 550.541Z"/><path fill="#FFF4DD" transform="scale(1.37143 1.37207)" d="M1473.43 559.296C1484.23 558.814 1493.76 561.219 1502.13 568.331C1507.3 572.728 1510.94 579.246 1514 585.245C1523.93 604.693 1531.25 625.981 1539.71 646.13C1548.87 667.961 1559.42 689.561 1567.45 711.823C1568.85 715.708 1570 719.533 1570.31 723.67C1571.1 734.187 1568.6 745.777 1561.53 753.887C1557.58 758.417 1552.56 761.972 1547.23 764.699C1539.22 768.802 1530.34 771.795 1521.97 775.162L1475.63 793.954L1417.55 817.981C1405.62 822.942 1393.69 828.448 1381.45 832.541C1375.67 834.475 1370.36 835.595 1364.27 835.96C1355.08 835.601 1346.11 833.24 1338.4 828.089C1334.08 825.199 1329.74 821.382 1326.99 816.928C1316.79 800.389 1309.8 780.383 1301.81 762.577C1293.63 744.378 1268.36 693.251 1265.46 676.551C1263.71 666.474 1266.98 654.582 1272.77 646.289C1275.86 641.862 1279.87 637.441 1284.68 634.865C1297.25 628.129 1311.3 623.495 1324.53 618.216L1388.54 592.404L1438.58 572.181C1449.64 567.664 1461.66 561.434 1473.43 559.296Z"/><path fill="#273649" transform="scale(1.37143 1.37207)" d="M1469.85 565.485C1480.9 564.717 1491.49 568.081 1499.87 575.365C1504.51 579.391 1507.33 584.302 1510.15 589.677C1517.56 603.786 1564.03 709.624 1564.7 720.814C1565.37 732.046 1560.13 744.935 1552.63 753.185C1548.28 757.975 1542.19 761.586 1536.42 764.461C1512.21 776.519 1485.7 785.281 1460.68 795.582C1434.7 806.274 1408.65 819.123 1382.08 828.057C1376.88 829.805 1372.07 830.781 1366.57 831.071C1358.51 830.267 1350.84 828.892 1343.77 824.647C1338.21 821.3 1333.87 816.949 1330.43 811.477C1324.32 801.763 1320.01 790.945 1315.36 780.483L1296.31 737.721C1289.19 721.832 1274.18 692.701 1270.55 677.847C1268.34 668.773 1270.98 658.264 1275.95 650.508C1279.52 644.924 1285.29 639.616 1291.11 636.446C1298.77 632.275 1307.56 629.428 1315.67 626.178L1365.65 606.306L1434.13 578.237C1445.59 573.668 1457.77 568.036 1469.85 565.485Z"/><path fill="#FFF4DD" transform="scale(1.37143 1.37207)" d="M1468 574.307C1477.77 573.738 1486.4 575.116 1494.12 581.611C1497.64 584.57 1499.85 588.249 1501.96 592.284C1510.08 607.806 1554.55 710.759 1555.39 720.95C1556.12 729.849 1552.97 739.382 1547.18 746.166C1543.17 750.868 1537.85 754.403 1532.36 757.152C1511.61 767.546 1486.01 776.032 1464.24 785L1408.51 808.077C1398.15 812.37 1387.71 817.173 1377.09 820.775C1373.82 821.884 1370.59 822.362 1367.16 822.613C1362.08 822.227 1357.34 821.422 1352.66 819.344C1346 816.361 1340.35 811.517 1336.38 805.395C1327.86 792.462 1322.93 775.722 1316.6 761.484C1305.34 736.164 1292.71 711.132 1282.62 685.34C1278.88 675.789 1277.55 667.885 1281.86 658.269C1284.17 653.116 1287.42 648.771 1292.25 645.778C1306.52 636.931 1330.46 629.741 1346.7 623.181C1387.01 606.583 1427.44 590.292 1468 574.307Z"/><path fill="#273649" transform="scale(1.37143 1.37207)" d="M1386.33 662.533C1404.44 665.203 1422.95 666.642 1441.17 668.45C1449.11 669.238 1457.67 669.429 1465.43 671.173C1468.21 671.797 1471.13 672.866 1473.31 674.747C1475.35 676.497 1476.47 678.867 1476.7 681.523C1477.82 694.265 1448.91 724.953 1440.21 735.617C1433.96 743.221 1425.7 757.271 1415.38 758.938C1411.29 759.599 1407.12 758.248 1403.87 755.759C1401.43 753.895 1399.6 751.671 1398.09 749.013C1392.48 739.192 1371.38 688.283 1370.32 678.796C1369.89 674.935 1370.7 671.18 1373.3 668.19C1376.74 664.229 1381.31 663.026 1386.33 662.533Z"/><path fill="#E86F61" transform="scale(1.37143 1.37207)" d="M1383.06 670.975C1394.82 671.943 1458.44 677.049 1464.59 679.721C1466.37 680.496 1467.58 681.778 1468 683.735C1469.11 688.992 1443.69 717.715 1438.76 723.799C1434.04 729.667 1420.79 749.529 1414.05 750.077C1412.06 750.238 1409.27 749.799 1407.83 748.273C1404.11 744.31 1378.42 683.748 1378.48 678.141C1378.51 675.004 1381 673.032 1383.06 670.975Z"/><path fill="#273649" transform="scale(1.37143 1.37207)" d="M1623.96 627.819C1629.57 627.153 1636.77 628.347 1642.21 629.718C1655.22 632.993 1666 641.191 1672.86 652.701C1679.86 664.228 1681.89 678.099 1678.48 691.147C1675.09 704.302 1666.56 715.544 1654.81 722.347C1641.58 729.947 1628.16 730.048 1613.84 726.221C1601.21 722.022 1590.44 712.526 1584.11 700.887C1576.33 686.597 1576.4 672.798 1580.95 657.656C1578.02 653.865 1574.28 649.3 1572.36 644.906C1571.1 642.03 1569.96 638.214 1571.11 635.203L1572.79 634.526C1579.7 636.479 1582.96 642.27 1587.07 647.707C1597.5 635.762 1608.29 629.961 1623.96 627.819Z"/><path fill="#FFF4DD" transform="scale(1.37143 1.37207)" d="M1622.86 636.584C1630.22 636.313 1637.05 636.767 1644.06 639.307C1654.27 642.904 1662.6 650.481 1667.15 660.314C1672.02 670.74 1672.5 682.685 1668.49 693.472C1664.52 703.903 1655.94 712.659 1645.71 717.076C1634.28 722.013 1623.06 720.419 1611.82 716.024C1604.56 712.335 1598.4 707.241 1593.83 700.437C1585.92 688.647 1585.31 676.676 1588.07 663.223C1592.84 666.869 1598.62 671.213 1604.33 673.209C1606.96 674.13 1608.53 674.061 1610.97 672.857C1611.92 671.298 1612.34 670.35 1612.25 668.493C1612.19 667.349 1595.29 656.557 1592.57 654.112C1601.21 643.843 1610.02 639.604 1622.86 636.584Z"/><path fill="#293C4A" transform="scale(1.37143 1.37207)" d="M1625.34 642.764C1628.22 642.207 1630.72 642.083 1633.41 643.502C1635.64 644.673 1636.96 646.609 1637.7 648.966C1639.11 653.479 1637.67 658.865 1635.38 662.835C1632.66 667.535 1629.61 668.469 1624.6 669.798C1622.99 669.483 1621.18 669.03 1619.72 668.242C1616.41 666.461 1612.86 662.427 1611.87 658.777C1610.99 655.566 1611.62 651.86 1613.33 649.007C1615.86 644.779 1620.95 643.972 1625.34 642.764Z"/><path fill="#293C4A" transform="scale(1.37143 1.37207)" d="M1655.71 659.461C1656.68 659.562 1657.4 659.654 1658.25 660.178C1661.53 662.21 1664.41 668.941 1665.09 672.607C1665.74 676.147 1665.21 680.247 1662.95 683.152C1659.94 687.022 1654.62 686.774 1650.18 687.107C1649.08 686.825 1647.97 686.526 1646.92 686.09C1644.04 684.888 1640.08 681.102 1639 678.172C1638.03 675.562 1638.49 672.901 1639.7 670.454C1643.1 663.518 1649.01 661.891 1655.71 659.461Z"/><path fill="#273649" transform="scale(1.37143 1.37207)" d="M1610.86 677.273C1612.57 677.243 1614.21 677.237 1615.8 677.919C1618.69 679.155 1621.36 681.541 1622.37 684.558C1623.69 688.518 1622.62 692.548 1620.84 696.156C1618.1 701.68 1613.71 703.436 1608.11 705.285C1606.81 705.22 1605.38 705.153 1604.26 704.427C1599.24 701.188 1597.3 690.703 1595.79 685.279C1600.63 682.011 1605.55 679.643 1610.86 677.273Z"/><path fill="#273649" transform="scale(1.37143 1.37207)" d="M1636.22 688.864C1638.88 688.869 1641.2 689.129 1643.69 690.135C1646.98 691.468 1650.55 693.864 1651.79 697.344C1652.6 699.622 1652.22 702.373 1651.21 704.527C1649.17 708.874 1644.54 710.104 1640.4 711.806C1637.82 712.714 1635.01 713.725 1632.3 712.792C1630.02 712.007 1628.41 710.319 1627.4 708.16C1625.61 704.337 1626.18 699.54 1627.77 695.746C1629.5 691.655 1632.37 690.402 1636.22 688.864Z"/><path fill="#273649" transform="scale(1.37143 1.37207)" d="M1616.41 546.633C1618.24 546.355 1620.06 546.253 1621.83 546.894C1627.54 548.954 1631.19 560.752 1633.47 566.248C1635.18 570.355 1637.17 575.694 1635.26 580.036C1633.02 585.145 1570.33 609.822 1560.73 613.72C1559.54 613.814 1558.11 613.984 1556.93 613.773C1554.95 613.421 1553.25 612.267 1552.06 610.662C1548.22 605.435 1540.71 587.627 1541.47 581.396C1545.43 573.855 1604.64 551.35 1616.41 546.633Z"/><path fill="#E86F61" transform="scale(1.37143 1.37207)" d="M1599.52 562.718C1604.14 566.74 1607.17 578.349 1609.2 584.101L1594.63 590.144L1593.46 589.912C1589.43 584.338 1587.1 575.304 1584.55 568.812L1599.52 562.718Z"/><path fill="#E86F61" transform="scale(1.37143 1.37207)" d="M1576.19 572.453C1580.15 574.356 1584.51 589.312 1586.3 594.001L1573.11 599.392C1568.68 594.713 1565.68 584.191 1563.14 578.134L1576.19 572.453Z"/><path fill="#E86F61" transform="scale(1.37143 1.37207)" d="M1618.38 554.692C1622.64 557.493 1626.75 570.972 1628.89 576.05L1617.66 580.462C1617.42 580.413 1617.17 580.404 1616.93 580.317C1614.08 579.256 1608.31 562.544 1606.87 559.114L1618.38 554.692Z"/><path fill="#E86F61" transform="scale(1.37143 1.37207)" d="M1555.11 581.134C1555.7 581.58 1555.93 581.918 1556.28 582.575C1557.98 585.763 1565.21 599.938 1564.29 602.788L1559.98 604.956C1555.57 602.41 1552.1 590.294 1550.4 585.297C1551.16 582.961 1553.07 582.399 1555.11 581.134Z"/><path fill="#273649" transform="scale(1.37143 1.37207)" d="M1599.69 498.667L1603.2 499.329C1605.19 500.54 1606.14 502.161 1607.09 504.208C1609.44 509.275 1616.89 528.807 1615.02 533.354C1612.68 539.044 1600.68 543.114 1595.17 545.083C1583.52 549.245 1583.29 520.422 1574.57 516.142C1572.03 516.241 1571.5 516.587 1569.32 517.957C1563.19 526.857 1579.31 541.314 1578.43 550.541C1578.29 552.014 1577.04 552.583 1575.96 553.508C1568.25 556.92 1550.51 566.871 1542.46 565.907C1541.33 565.147 1540.43 564.228 1539.66 563.105C1534.86 556.09 1527.12 539.066 1528.58 530.526C1533.21 523.542 1588.53 502.972 1599.69 498.667Z"/><path fill="#E86F61" transform="scale(1.37143 1.37207)" d="M1557.04 524.349L1558.25 524.558C1562.89 530.194 1565.63 541.13 1568.57 548.07C1561.7 551.349 1554.45 554.092 1547.44 557.067L1545.93 556.855C1541.89 549.841 1539.3 541.413 1536.34 533.86C1543.41 531.012 1550.21 527.729 1557.04 524.349Z"/><path fill="#E86F61" transform="scale(1.37143 1.37207)" d="M1598.09 508.485C1602.31 511.313 1606.13 526.185 1608.03 531.433C1603.59 532.735 1599.29 534.302 1594.96 535.923C1591.2 534.016 1586.61 518.004 1584.89 513.465L1598.09 508.485Z"/><path fill="#E86F61" transform="scale(1.37143 1.37207)" d="M1410.45 523.713C1413.22 523.524 1416.03 523.31 1418.8 523.337C1431.46 523.463 1439.88 528.426 1448.42 537.213C1433.96 544.026 1418.65 549.649 1403.87 555.784C1394 559.694 1384.15 563.673 1374.33 567.721C1374.63 559.177 1375.71 551.743 1380.1 544.225C1386.98 532.457 1397.75 527.031 1410.45 523.713Z"/><path fill="#FFF4DD" transform="scale(1.37143 1.37207)" d="M1468.64 393.392C1471.76 392.301 1475.18 393.919 1476.32 397.025C1477.45 400.132 1475.89 403.576 1472.8 404.759C1470.76 405.54 1468.46 405.161 1466.77 403.769C1465.09 402.377 1464.29 400.186 1464.68 398.037C1465.06 395.888 1466.58 394.113 1468.64 393.392Z"/><path fill="#FFF4DD" transform="scale(1.37143 1.37207)" d="M1257.81 481.509C1260.76 480.517 1263.94 482.094 1264.94 485.033C1265.94 487.972 1264.37 491.164 1261.43 492.168C1258.49 493.174 1255.28 491.599 1254.28 488.651C1253.28 485.703 1254.87 482.503 1257.81 481.509Z"/><path fill="#273649" transform="scale(1.37143 1.37207)" d="M169.38 171.949L169.816 171.927C188.781 171.068 206.014 178.364 219.882 191.046C223.041 190.072 226.223 189.085 229.442 188.333C246.652 184.313 264.397 185.955 279.605 195.542C294.836 205.144 304.311 219.824 308.137 237.252C314.604 234.341 321.204 232.148 327.948 229.978C330.645 240.314 333.485 250.611 336.467 260.868L320.162 265.768C334.484 324.193 345.077 383.885 356.782 442.884L371.107 514.878C373.664 527.781 376.856 540.877 378.535 553.91C379.003 557.544 379.957 564.175 377.9 567.396C371.981 576.662 362.314 583.026 353.203 588.829C321.834 608.809 286.655 621.184 250.375 628.741C231.265 632.687 201.966 638.015 183.566 629.667C181.024 628.514 179.983 626.256 178.705 623.889C164.886 598.299 153.528 570.438 141.542 543.906C121.791 500.955 101.658 458.181 81.1457 415.59C71.9094 396.314 63.7368 376.159 53.6027 357.392C48.724 359.145 43.7277 360.545 38.7554 362.005L32.473 347.027C31.0518 343.667 28.2701 338.265 30.1155 334.635C32.6346 329.68 43.8793 327.349 48.8445 325.69C44.9429 316.521 41.5911 307.33 40.6225 297.339C38.9571 280.162 44.6802 263.28 55.6099 250.073C69.4918 233.299 88.9492 224.977 110.275 223.036C112.569 213.966 116.251 205.35 121.95 197.876C133.742 182.413 150.515 174.497 169.38 171.949Z"/><path fill="#FFF4DD" transform="scale(1.37143 1.37207)" d="M169.906 180.704C170.849 180.625 171.794 180.568 172.74 180.533C190.51 179.907 205.279 189.17 217.738 200.799C220.02 200.032 222.309 199.281 224.603 198.548C240.789 193.398 256.699 192.841 272.1 200.982C287.762 209.26 295.52 223.295 300.455 239.609L153.067 290.111C121.228 300.125 90.0698 312.559 58.3475 323.024C52.6431 312.697 49.0958 302.448 49.3427 290.475C49.6686 274.669 56.8239 260.119 68.3344 249.412C82.1316 236.579 98.8389 231.371 117.528 232.09C119.599 221.468 122.181 212.214 128.732 203.314C138.728 189.734 153.684 183.12 169.906 180.704Z"/><path fill="#273649" transform="scale(1.37143 1.37207)" d="M159.739 227.034C165.551 225.885 171.196 229.657 172.36 235.467C173.524 241.278 169.767 246.934 163.961 248.113C158.134 249.296 152.454 245.522 151.286 239.69C150.118 233.859 153.906 228.187 159.739 227.034Z"/><path fill="#FFF4DD" transform="scale(1.37143 1.37207)" d="M159.621 232.452C162.437 231.233 165.707 232.541 166.906 235.366C168.105 238.191 166.775 241.453 163.942 242.632C161.137 243.8 157.916 242.485 156.729 239.688C155.542 236.891 156.833 233.66 159.621 232.452Z"/><path fill="#273649" transform="scale(1.37143 1.37207)" d="M230.501 225.182C235.683 223.691 241.11 226.598 242.742 231.739C244.373 236.88 241.615 242.386 236.522 244.157C233.101 245.347 229.305 244.584 226.608 242.167C223.911 239.749 222.74 236.057 223.549 232.526C224.358 228.996 227.021 226.183 230.501 225.182Z"/><path fill="#FFF4DD" transform="scale(1.37143 1.37207)" d="M230.862 230.534C233.225 229.17 236.245 229.962 237.634 232.31C239.023 234.659 238.263 237.688 235.93 239.102C234.399 240.031 232.487 240.065 230.923 239.192C229.359 238.318 228.386 236.672 228.373 234.88C228.36 233.089 229.311 231.429 230.862 230.534Z"/><path fill="#273649" transform="scale(1.37143 1.37207)" d="M98.4507 262.507C98.589 262.549 98.7313 262.581 98.8658 262.634C102.076 263.915 103.106 267.529 104.237 270.535C105.897 274.949 107.121 278.9 105.138 283.254C104.518 283.12 103.705 282.99 103.13 282.677C100.652 281.329 99.1135 276.303 98.3638 273.73C97.0767 269.313 96.1924 266.633 98.4507 262.507Z"/><path fill="#FFF4DD" transform="scale(1.37143 1.37207)" d="M214.494 302.292L215.303 302.329C215.789 302.718 216.358 303.021 216.762 303.495C218.855 305.947 230.111 346.111 231.819 351.62C247.018 399.383 261.855 447.261 276.327 495.249C287.041 530.424 297.051 566.12 309.171 600.826C294.647 607.524 278.832 612.107 263.342 615.939L260.857 608.303C227.045 512.55 190.107 417.906 155.563 322.424C174.591 314.528 194.9 308.689 214.494 302.292Z"/><path fill="#E86F61" transform="scale(1.37143 1.37207)" d="M144.011 326.255L145.02 326.01C146.924 326.877 147.104 327.488 147.962 329.413C151.471 337.275 154.108 345.844 157.077 353.936L173.871 399.224C186.216 432.313 198.847 465.435 210.736 498.679C224.981 538.507 238.655 578.752 254.348 618.032C244.513 620.44 225.495 625.25 215.611 623.653C213.243 623.27 213.183 622.566 211.843 620.664C172.5 528.457 133.903 435.934 96.0563 343.103L144.011 326.255Z"/><path fill="#E86F61" transform="scale(1.37143 1.37207)" d="M274.022 281.745L275.237 281.633C278.328 284.654 346.61 549.444 354.017 576.74C343.842 585.479 330.07 591.799 317.971 597.401L315.414 589.468L253.208 387.701C243.888 358.081 235.67 327.473 224.664 298.461C241.249 294.014 257.79 287.436 274.022 281.745Z"/><path fill="#FFF4DD" transform="scale(1.37143 1.37207)" d="M310.247 269.474L310.705 269.689C315.498 275.26 366.047 537.695 370.818 562.319C367.926 565.13 365.12 567.532 361.74 569.739L358.784 559.32C354.514 537.135 347.706 515.155 342.063 493.261L302.178 342.319C296.577 320.949 289.632 299.208 285.72 277.478L310.247 269.474Z"/><path fill="#FFF4DD" transform="scale(1.37143 1.37207)" d="M86.3858 345.9C89.4252 348.822 188.432 593.813 202.607 623.702C199.256 623.45 195.721 623.317 192.434 622.598C189.208 621.892 187.81 620.371 186.126 617.704C161.849 562.965 136.108 508.55 110.228 454.556C94.2315 421.182 77.0005 387.879 62.9617 353.639C70.9092 351.424 78.6262 348.691 86.3858 345.9Z"/><path fill="#FFF4DD" transform="scale(1.37143 1.37207)" d="M320.66 241.902L321.464 242.133C324.007 244.935 324.822 251.065 325.813 254.748L155.155 313.058C118.684 325.58 82.3419 338.697 45.5003 350.092L44.6871 349.858C42.2598 347.201 41.2987 342.034 40.194 338.597C71.0846 328.378 101.603 316.952 132.318 306.219L320.66 241.902Z"/><path fill="#273649" transform="scale(1.37143 1.37207)" d="M1102.64 69.3999C1194.39 62.0634 1274.75 130.401 1282.28 222.154C1289.81 313.907 1221.66 394.439 1129.95 402.164C1037.96 409.913 957.15 341.496 949.598 249.468C942.046 157.439 1010.62 76.7585 1102.64 69.3999Z"/><path fill="#FBD677" transform="scale(1.37143 1.37207)" d="M1105.49 78.5762C1192.28 72.7409 1267.41 138.281 1273.42 225.077C1279.44 311.874 1214.08 387.162 1127.32 393.368C1040.29 399.593 964.746 333.973 958.709 246.914C952.671 159.855 1018.44 84.4291 1105.49 78.5762Z"/><path fill="#273649" transform="scale(1.37143 1.37207)" d="M1127.34 99.7899C1139.78 99.1968 1151.18 101.067 1163.04 104.917C1184.15 111.774 1211.08 127.783 1221.28 148.336C1225.03 155.895 1226.11 164.41 1223.36 172.479C1217.96 188.28 1201.45 197.885 1187.26 204.728C1183.99 206.024 1180.65 207.12 1177.25 208.012C1160.09 212.563 1142.1 211.034 1126.67 201.884C1111.56 192.919 1101.31 178.557 1097.1 161.584C1093.47 146.937 1094.64 130.149 1102.69 117.105C1108.47 107.726 1116.79 102.367 1127.34 99.7899Z"/><path fill="#FFF4DD" transform="scale(1.37143 1.37207)" d="M1128.3 108.586C1137.65 108.039 1146.35 108.836 1155.32 111.467C1175.48 117.379 1202.95 132.28 1213.12 151.542C1216.13 157.239 1217.04 163.346 1215.07 169.534C1211.21 181.633 1198.41 189.235 1187.76 194.741C1185.2 195.906 1182.58 196.837 1179.92 197.719C1164.49 202.826 1148.83 203.677 1134.02 196.04C1120.96 189.304 1111.16 177.592 1106.84 163.547C1102.85 150.837 1102.58 135.73 1108.93 123.72C1113.3 115.46 1119.54 111.212 1128.3 108.586Z"/><path fill="#273649" transform="scale(1.37143 1.37207)" d="M1209.18 214.546C1210.09 214.466 1211.01 214.41 1211.93 214.38C1222.95 214.03 1235.43 216.899 1243.49 224.766C1250.86 231.958 1253.9 242.015 1253.96 252.115C1254.11 278.386 1239.05 307.38 1221 325.808C1211.44 335.569 1201.64 341.131 1187.81 341.259C1179.27 339.607 1171.94 336.791 1164.93 331.505C1152.15 321.852 1143.98 306.429 1141.78 290.684C1139.43 274.001 1143.9 257.074 1154.18 243.727C1167.55 226.28 1187.81 217.246 1209.18 214.546Z"/><path fill="#FFF4DD" transform="scale(1.37143 1.37207)" d="M1212.84 223.43C1214.05 223.296 1215.23 223.271 1216.44 223.346C1224.74 223.86 1232.73 225.641 1238.41 232.172C1244.21 238.845 1245.45 247.941 1244.77 256.473C1242.85 280.501 1228.28 308.939 1209.69 324.325C1201.66 330.973 1195.15 333.098 1184.88 332.214C1179.2 330.15 1173.88 327.469 1169.16 323.65C1158.29 314.856 1152.32 302.222 1150.84 288.455C1149.28 274.061 1152.55 259.736 1161.79 248.388C1174.45 232.846 1193.42 225.472 1212.84 223.43Z"/><path fill="#273649" transform="scale(1.37143 1.37207)" d="M1061.69 262.428C1066.66 262.062 1071.65 261.73 1076.63 262.295C1093.36 264.196 1109.21 273.643 1119.62 286.722C1130.77 300.736 1137.1 319.384 1134.88 337.33C1133.59 347.771 1128.78 357.707 1120.36 364.221C1109.34 372.744 1096.08 372.891 1082.89 371.315C1068.06 369.074 1052.98 362.483 1040.42 354.416C1026.5 345.473 1011.12 331.208 1007.69 314.437C1005.86 305.292 1007.76 295.793 1012.98 288.062C1023.63 272.354 1043.93 265.794 1061.69 262.428Z"/><path fill="#FFF4DD" transform="scale(1.37143 1.37207)" d="M1069.08 270.563C1073.32 270.557 1077.37 271.001 1081.51 271.984C1096.44 275.532 1108.99 285.092 1116.92 298.156C1124.46 310.554 1128.29 326.848 1124.77 341.147C1122.9 348.722 1118.65 355.482 1111.84 359.507C1100.62 366.146 1087.55 363.655 1075.71 360.449C1061.77 356.536 1048.73 349.927 1037.33 340.995C1027.95 333.636 1017.39 323.136 1016.04 310.738C1015.23 303.327 1017.63 296.114 1022.38 290.424C1032.92 277.811 1053.24 271.992 1069.08 270.563Z"/><path fill="#273649" transform="scale(1.37143 1.37207)" d="M1038.29 132.729C1045.63 132.606 1052.69 134.665 1059.11 138.165C1073.7 146.123 1083.96 161.511 1088.5 177.262C1092.75 191.983 1092.06 207.129 1084.41 220.612C1074.1 238.779 1053.39 249.571 1033.89 254.873C1032.06 255.271 1030.22 255.632 1028.37 255.956C1017.43 257.841 1005.2 256.388 996.014 249.764C987.39 243.545 982.695 233.481 981.119 223.17C977.714 200.891 988.601 174.741 1001.79 157.211C1011.07 144.872 1022.55 134.991 1038.29 132.729Z"/><path fill="#FFF4DD" transform="scale(1.37143 1.37207)" d="M1036.48 141.48C1042.98 140.795 1047.79 141.446 1053.65 144.497C1066.04 150.948 1075.71 164.638 1079.61 177.858C1083.27 190.281 1083.09 204.773 1076.67 216.277C1068.23 231.41 1049.58 241.316 1033.41 245.946C1024.63 247.98 1014.99 249.046 1006.37 245.735C1000.02 243.294 995.398 238.506 992.77 232.271C986.575 217.573 990.79 198.457 996.696 184.231C1004.49 165.463 1017.4 149.315 1036.48 141.48Z"/><path fill="#273649" transform="scale(1.37143 1.37207)" d="M1115.45 208.924C1131.14 207.682 1144.89 219.362 1146.2 235.056C1147.52 250.749 1135.9 264.554 1120.22 265.942C1104.43 267.338 1090.52 255.629 1089.2 239.832C1087.88 224.035 1099.65 210.173 1115.45 208.924Z"/><path fill="#FBD677" transform="scale(1.37143 1.37207)" d="M1114.75 217.902C1118.95 217.701 1123.14 218.072 1126.99 219.857C1131.52 221.958 1135.11 225.709 1136.8 230.427C1138.49 235.269 1138.14 240.589 1135.84 245.171C1132.55 251.736 1127.37 254.188 1120.71 256.409C1116.47 256.597 1112.69 256.522 1108.73 254.859C1104.26 252.988 1100.66 249.654 1098.85 245.113C1096.98 240.398 1097.33 235.034 1099.44 230.462C1102.64 223.555 1107.91 220.512 1114.75 217.902Z"/><path fill="#273649" transform="scale(1.37143 1.37207)" d="M1116.27 224.888C1118.18 224.798 1120.51 224.724 1122.38 225.182C1125.41 225.923 1128.35 228.059 1129.8 230.847C1131.41 233.933 1131.12 237.575 1129.95 240.745C1128.02 245.956 1124.34 248.049 1119.52 250.298C1117.48 250.397 1114.94 250.364 1112.95 249.809C1110.03 248.994 1107.25 246.701 1105.91 243.971C1104.36 240.799 1104.6 237.132 1105.89 233.925C1107.89 228.947 1111.61 226.936 1116.27 224.888Z"/><path fill="#273649" transform="scale(1.37143 1.37207)" d="M768.281 28.5252C771.653 28.4269 775.123 28.7967 778.092 30.504C781.813 32.6434 784.48 36.8325 786.258 40.6257C791.536 51.8839 794.323 64.8734 798.555 76.6243L821 140.092C825.388 152.538 830.499 165.092 833.91 177.84C835.499 183.782 835.974 188.218 832.677 193.673C830.956 196.52 828.537 198.523 825.531 199.907C812.642 205.837 798.115 209.729 784.657 214.305L717.655 237.591C681.059 250.345 644.372 262.832 607.595 275.052C583.768 283.131 559.432 292.395 535.044 298.492C532.568 298.453 529.888 298.323 527.587 297.336C521.856 294.877 518.451 288.999 516.343 283.406C513.09 274.774 510.593 265.835 507.56 257.12L486.959 198.185C481.263 181.624 473.666 164.315 469.762 147.289C468.809 143.132 467.702 137.487 469.755 133.5C471.139 130.813 473.425 128.555 476.172 127.304C485.138 123.22 495.027 120.516 504.4 117.476C519.122 112.792 533.788 107.934 548.395 102.902L702.722 50.9556C724.578 43.5404 746.649 36.5681 768.281 28.5252Z"/><path fill="#FFF4DD" transform="scale(1.37143 1.37207)" d="M767.704 33.8175C770.081 33.5202 772.602 33.2444 774.896 34.1388C783.511 37.4988 788.02 61.4243 791.193 69.9469C798.278 88.9742 804.487 108.409 811.291 127.55C817.003 143.615 823.786 159.997 828.066 176.481C828.902 179.703 830.836 186.808 829.215 189.891C827.609 192.944 824.836 195.093 821.74 196.494C812.634 200.614 802.154 203.275 792.636 206.45C775.778 212.094 758.955 217.84 742.166 223.688C673.499 247.55 604.631 270.827 535.568 293.516C533.958 293.538 532.288 293.55 530.718 293.143C526.703 292.102 524.21 288.405 522.379 284.954C516.426 273.735 511.027 252.286 506.565 239.465L485.755 179.822C482.065 169.232 477.826 158.552 474.814 147.766C473.929 144.599 472.547 139.629 473.798 136.413C474.935 133.492 477.679 131.748 480.427 130.592C501.365 121.784 524.396 116.193 545.958 108.775L709.044 53.6864C728.589 47.03 748.326 40.9615 767.704 33.8175Z"/><path fill="#273649" transform="scale(1.37143 1.37207)" d="M751.722 49.9279C754.258 49.8495 756.924 49.9981 759.261 51.0452C764.598 53.4366 767.927 59.6986 769.852 64.903C775.356 79.7865 779.645 95.3242 784.994 110.336C791.959 129.885 803.694 158.606 807.93 177.996C808.572 180.935 808.659 183.209 807.338 185.998C806.117 188.578 804.549 190.526 801.921 191.758C792.327 196.255 781.49 199.299 771.454 202.706L715.586 221.511C660.949 239.847 606.2 258.52 551.959 277.974C549.124 278.403 545.809 278.643 543.158 277.342C540.595 276.085 539 273.907 537.777 271.418C532.102 259.864 528.57 246.131 524.288 233.906L497.505 156.886C495.747 151.721 493.651 143.9 496.453 138.76C498.296 135.379 504.514 133.395 508.075 132.02C523.607 126.023 539.806 121.208 555.597 115.908L643.877 86.1805L718.36 60.6185C729.372 56.9511 740.482 52.8094 751.722 49.9279Z"/><path fill="#FFF4DD" transform="scale(1.37143 1.37207)" d="M707.905 69.3684L709.988 69.4092C711.458 70.7363 712.187 72.2382 712.899 74.0446C718.954 89.4035 723.58 105.715 728.965 121.362L757.295 201.884C738.399 209.743 718.02 215.315 698.594 221.891C664.163 233.61 629.831 245.619 595.602 257.916L592.295 258.714C589.861 256.845 550.418 136.84 546.159 124.209C568.972 116.226 592.1 109.148 614.935 101.218C645.753 90.5166 676.731 78.8778 707.905 69.3684Z"/><path fill="#273649" transform="scale(1.37143 1.37207)" d="M681.597 94.3395C685.8 93.9143 690.319 94.4536 693.881 96.8704C695.964 98.2838 697.57 100.097 698.733 102.325C704.081 112.579 724.496 171.425 726.428 182.192C727.307 187.089 724.838 192.792 721.864 196.619C719.464 199.707 713.894 202.203 710.376 203.745C696.568 209.797 681.374 214.087 667.108 219.046C652.956 223.965 637.027 231.285 622.326 233.612C618.956 233.234 615.506 232.563 612.447 231.042C604.822 227.251 602.211 219.766 599.569 212.215C594.811 198.613 578.253 154.718 576.964 143.261C576.661 140.567 577.305 137.705 578.512 135.29C580.209 131.896 582.448 130.036 585.758 128.278C596.076 122.8 608.717 119.744 619.78 115.91C640.336 108.578 660.942 101.387 681.597 94.3395Z"/><path fill="#FBD677" transform="scale(1.37143 1.37207)" d="M680.724 99.6319C684.088 99.2826 687.87 99.0293 690.946 100.701C692.034 101.293 693.066 102.031 693.7 103.117C699.397 112.877 717.735 167.591 721.202 180.798C722.4 185.363 721.954 188.327 719.441 192.314C717.466 195.445 713.374 197.387 710.108 198.864C699.511 203.657 687.453 206.749 676.436 210.564C658.845 216.655 641.128 223.749 623.171 228.529C620.563 228.407 618.204 228.178 615.775 227.147C610.499 224.905 607.524 219.802 605.559 214.652C602.812 207.454 601.083 199.811 598.488 192.535C593.433 178.367 584.904 158.925 582.192 144.585C581.724 142.11 581.973 140.283 583.046 138.014C584.207 135.558 585.808 133.766 588.194 132.445C596.186 128.017 606.721 125.65 615.379 122.585L680.724 99.6319Z"/><path fill="#293C4A" transform="scale(1.37143 1.37207)" d="M674.964 117.28C675.95 117.384 676.708 117.738 677.351 118.565C680.764 122.958 688.956 173.355 693.66 181.325C695.114 183.788 697.962 182.126 700.206 183.734L700.615 186.718C699.284 188.574 697.036 189.111 694.937 189.943C691.709 191.224 687.638 192.678 684.271 191.121C683.584 190.804 683.562 189.935 683.335 189.249C684.909 186.986 686.056 186.839 688.561 185.895L672.71 123.691C666.094 125.592 665.57 128.455 662.073 133.759L660.85 133.947C658.446 131.09 657.694 126.945 656.698 123.406C662.86 121.548 668.907 119.456 674.964 117.28Z"/><path fill="#293C4A" transform="scale(1.37143 1.37207)" d="M624.975 134.285C625.455 134.352 626.114 134.847 626.541 135.092C627.881 142.501 631.832 203.735 630.2 209.015C629.75 210.473 628.345 210.793 627.088 211.456L625.765 210.48C623.45 204.2 624.212 195.39 623.937 188.665C622.964 172.98 622.177 157.283 621.576 141.579C617.457 142.787 612.069 143.72 608.501 146.102C607.91 146.496 607.7 150.132 607.499 151.1L605.654 151.872L603.946 151.018C602.39 148.457 601.947 146.393 601.497 143.482C604.358 138.844 619.494 135.922 624.975 134.285Z"/><path fill="#293C4A" transform="scale(1.37143 1.37207)" d="M643.609 126.529C647.993 129.606 662.422 184.531 664.781 193.384C667.488 192.413 670.898 190.837 673.775 190.643C675.947 190.497 677.713 191.052 679.281 192.514L678.903 194.042C676.815 196.762 673.166 197.257 670.02 198.129C666.076 199.597 661.054 202.207 656.825 202.032C654.049 198.149 656.044 198.388 657.911 195.205C659.128 193.131 657.358 187.359 656.733 185.201C654.19 176.417 639.81 135.118 640.109 129.175L643.609 126.529Z"/><path fill="#E86F61" transform="scale(1.37143 1.37207)" d="M750.873 55.1883C753.292 55.0969 755.655 55.3159 757.905 56.2721C761.326 57.7263 762.57 61.1961 763.867 64.3841C770.468 80.6108 775.168 97.8721 780.953 114.444C787.823 134.128 796.434 154.446 801.48 174.61C802.31 177.923 803.324 181.819 801.987 185.008C793.859 192.154 777.211 195.084 766.918 198.746C765.423 199.229 763.969 199.504 762.42 199.757C759.433 196.593 721.1 81.5438 715.353 66.73C727.256 63.0799 738.924 58.6943 750.873 55.1883Z"/><path fill="#E86F61" transform="scale(1.37143 1.37207)" d="M540.365 126.307L541.261 126.752C546.128 134.531 550.832 154.403 554.151 164.335L586.464 260.47C573.857 264.926 559.843 271.351 546.72 273.546C544.893 272.439 543.446 271.346 542.44 269.414C535.832 256.732 532.245 240.83 527.48 227.236C518.955 202.915 508.69 178.171 501.918 153.345C500.991 149.943 499.551 145.355 500.645 141.895C507.282 134.891 530.55 129.584 540.365 126.307Z"/><path fill="#293C4A" transform="scale(1.37143 1.37207)" d="M758.929 245.356C761.985 247.607 765.141 258.739 766.834 262.762C758.159 265.718 703.515 284.043 700.37 287.75C699.714 288.524 699.798 288.268 699.92 289.368C700.123 291.209 701.532 292.757 702.823 293.986C712.17 302.886 724.382 310.557 734.736 318.427C754.417 333.386 773.792 348.786 793.932 363.127C787.694 364.908 781.957 367.212 776.045 369.869C753.451 353.374 730.758 337.058 708.979 319.485L729.689 376.695C724.894 378.033 720.171 379.705 715.441 381.255C708.24 363.759 701.312 346.153 694.66 328.441C693.85 325.644 692.538 322.97 691.382 320.3C685.598 347.029 679.933 373.953 673.034 400.418C667.114 402.402 660.793 403.683 654.73 405.21C662.662 367.891 672.439 331.028 679.965 293.59C656.43 301.835 633.195 311.046 609.501 318.81C607.798 312.623 605.079 306.48 602.809 300.467C620.645 295.702 638.379 287.989 655.804 281.78L758.929 245.356Z"/><path fill="#273649" transform="scale(1.37143 1.37207)" d="M1104.05 925.281C1105.55 925.528 1107.2 925.741 1108.64 926.245C1114.46 928.282 1117.45 936.807 1120.01 941.913L1125.7 941.313C1130.9 940.795 1137.86 939.9 1142.09 943.802C1143.43 945.037 1144.17 946.794 1144.11 948.617C1143.89 955.222 1137.34 961.286 1133.03 965.71C1135.36 971.141 1139.91 979.222 1138.44 985.298C1137.9 987.512 1136.88 989.153 1134.77 990.15C1129.01 992.866 1120.04 988.349 1114.6 986.347C1109.27 987.16 1103.41 996.32 1095.85 996.872C1094.21 996.991 1093.03 996.635 1091.95 995.404C1087.89 990.76 1089.62 978.253 1089.91 972.48C1086.96 970.91 1083.99 969.348 1081.1 967.671C1077.7 965.699 1074.1 962.844 1073.23 958.772C1072.84 956.941 1073.25 955.216 1074.34 953.702C1078.51 947.9 1087.75 947.543 1094.18 946.684C1094.73 942.312 1094.93 937.095 1096.37 932.943C1097.84 928.696 1100.27 927.205 1104.05 925.281Z"/><path fill="#E86F61" transform="scale(1.37143 1.37207)" d="M1104.62 933.699C1109.49 936.443 1113.01 946.284 1116.68 950.981C1123.42 950.072 1130.18 949.243 1136.94 948.493C1132.71 954.015 1127.66 959.164 1123.13 964.465L1131.61 983.959C1126.56 981.984 1121.56 979.833 1116.54 977.754C1115.99 977.516 1115.39 977.211 1114.78 977.135C1109.48 976.473 1101.04 986.009 1097.03 989.496C1098.1 982.487 1098.49 975.414 1098.97 968.346C1093.32 964.4 1087 961.163 1081.01 957.751C1087.92 956.062 1094.83 954.963 1101.64 952.829C1103.19 946.633 1103.36 940.006 1104.62 933.699Z"/><path fill="#273649" transform="scale(1.37143 1.37207)" d="M573.306 474.425C574.412 474.551 575.518 474.69 576.603 474.939C583.028 476.414 587.043 486.373 590.273 491.538C592.704 491.052 595.144 490.613 597.592 490.221C601.709 489.579 607.328 489.141 610.745 492.153C612.498 493.698 613.121 495.565 613.122 497.853C613.123 504.41 606.107 510.047 601.899 514.293C603.714 517.332 605.571 520.376 607.233 523.502C608.913 526.661 610.722 532.327 609.273 535.814C608.52 537.627 607.424 538.608 605.618 539.277C599.466 541.556 591.052 536.672 585.613 534.152C578.593 537.189 575.431 546.511 565.194 547.701C564.2 547.328 563.375 547.212 562.699 546.347C558.602 541.105 561.058 529.368 561.961 523.313C556.495 520.255 546.243 516.147 544.36 509.636C543.877 507.963 544.15 506.589 545.044 505.146C548.456 499.637 558.727 498.232 564.499 496.872C564.937 492.536 565.142 487.86 566.147 483.624C567.244 479.001 569.386 476.816 573.306 474.425Z"/><path fill="#E86F61" transform="scale(1.37143 1.37207)" d="M574.431 484.021C579.769 486.425 581.35 495.601 586.269 498.682C590.689 501.451 601.748 498.077 606.598 497.16C601.811 502.106 596.484 507.002 592.841 512.865C595.518 519.304 598.87 525.544 601.972 531.792L584.531 525.316C578.838 527.033 572.829 534.871 568.615 539.171C568.929 533.986 570.51 526.595 569.072 521.75C566.937 514.556 558.121 511.576 552.04 508.411C558.72 506.839 565.344 505.327 571.807 502.987C573.337 496.921 573.707 490.248 574.431 484.021Z"/><path fill="#273649" transform="scale(1.37143 1.37207)" d="M1546.02 268.956C1546.38 268.963 1546.75 268.973 1547.12 269.003L1547.7 269.055C1547.95 269.075 1548.19 269.086 1548.44 269.11C1555.36 269.791 1562.17 280.56 1566.28 285.651C1571.65 285.205 1577.79 283.68 1583.1 284.427C1585.99 284.833 1587.54 285.535 1589.28 287.859C1590.19 294.697 1583.03 302.927 1579.43 308.51C1581.94 313.31 1586.62 320.286 1586 325.868C1585.76 328.059 1584.95 329.833 1582.98 330.948C1577.52 334.032 1567.25 329.861 1561.73 328.316C1557.92 332.253 1549.25 340.05 1543.58 340.197C1541.53 340.25 1539.81 339.415 1538.61 337.748C1534.75 332.404 1536.89 323.196 1537.59 317.187C1532.56 314.622 1523.58 311.254 1520.72 306.18C1519.5 304.011 1519.71 303.092 1520.17 300.795C1524.61 294.781 1531.98 293.563 1538.78 291.413C1540.41 284.592 1541.61 274.457 1546.02 268.956Z"/><path fill="#E86F61" transform="scale(1.37143 1.37207)" d="M1550.49 279.562C1554.89 284.034 1558.75 289.516 1562.91 294.281C1568.75 293.51 1574.58 292.703 1580.41 291.86C1576.8 297.067 1573.31 302.293 1570.01 307.708C1573.27 313.146 1575.86 319.203 1578.65 324.903C1572.68 322.763 1566.67 320.725 1560.63 318.791C1555.38 323.384 1549.97 327.784 1544.4 331.982C1544.89 325.378 1545.53 318.863 1546.48 312.308C1540.77 309.566 1535.15 306.605 1529.49 303.748C1534.8 301.287 1540.8 299.601 1546.34 297.684C1547.56 291.586 1548.85 285.563 1550.49 279.562Z"/><path fill="#273649" transform="scale(1.37143 1.37207)" d="M484.5 650.531C485.856 650.603 487.43 650.63 488.734 651.025C494.638 652.817 498.602 662.062 501.434 667.052L503.768 666.567C509.104 665.476 517.318 663.204 522.028 667.059C523.453 668.225 524.218 669.736 524.413 671.535C525.179 678.597 518.057 685.141 513.856 689.973C516.327 695.147 522.132 704.692 519.995 710.585C519.401 712.225 518.471 713.309 516.793 713.94C510.565 716.283 502.757 712.329 496.994 710.183C491.059 710.704 485.483 721.623 477.992 722.011C476.602 722.083 475.733 721.991 474.764 720.891C470.676 716.247 472.615 704.228 473.035 698.593C467.557 695.704 458.982 692.438 456.866 686.01C456.169 683.893 456.5 681.77 457.792 679.956C461.531 674.707 470.094 674.205 475.894 673.218C477.187 664.472 477.075 656.378 484.5 650.531Z"/><path fill="#E86F61" transform="scale(1.37143 1.37207)" d="M486.803 660.083C491.463 664.497 493.973 671.326 498.512 676.194C504.881 674.623 511.424 673.548 517.868 672.316C513.599 678.196 508.478 683.136 504.658 689.403L512.109 706.739C506.585 704.733 500.83 703.184 495.201 701.482C495.039 701.478 494.877 701.454 494.716 701.47C490.371 701.913 483.474 710.534 480.159 713.817L481.011 694.118C475.675 690.413 469.281 687.702 463.66 684.328C468.865 682.659 475.699 682.675 480.21 679.469C485.341 675.821 485.722 665.916 486.803 660.083Z"/><path fill="#273649" transform="scale(1.37143 1.37207)" d="M91.2328 677.096C92.35 677.178 93.4676 677.277 94.5658 677.507C101.044 678.865 105.809 688.61 109.072 693.716C114.993 692.816 124.591 689.913 129.809 693.897C131.35 695.074 131.909 696.492 132.084 698.358C132.677 704.667 125.481 711.284 121.657 715.618C124.322 721.066 129.504 729.154 128.086 735.499C127.613 737.617 126.308 739.236 124.284 740.044C118.302 742.432 109.941 738.198 104.361 736.143C100.066 740.037 95.1758 746.438 88.7594 746.608C86.4953 746.667 84.657 746.091 83.1433 744.33C79.0117 739.524 79.9488 730.731 79.9238 724.845C74.5687 721.987 65.4776 718.596 62.9862 712.617C62.1958 710.72 62.3655 708.804 63.4798 707.079C67.0457 701.558 78.5577 699.862 84.4302 698.285C85.0824 690.159 85.0148 683.085 91.2328 677.096Z"/><path fill="#E86F61" transform="scale(1.37143 1.37207)" d="M94.1058 686.829C98.6326 689.971 101.93 696.987 104.798 701.62C111.749 700.815 118.667 699.745 125.537 698.412C121.642 704.034 117.131 709.368 112.922 714.766C116.154 721.152 118.973 727.755 121.878 734.296L104.519 728.069C98.8958 728.403 92.2533 737.741 87.9201 741.689C87.6348 734.648 87.9 727.51 87.9409 720.459C81.6639 717.496 76.0181 714.246 70.2732 710.357C76.8512 707.953 83.7169 706.44 90.5087 704.774C91.9262 698.859 92.673 692.776 94.1058 686.829Z"/><path fill="#273649" transform="scale(1.37143 1.37207)" d="M1746.98 859.217C1748.5 859.196 1750.18 859.144 1751.66 859.591C1757.89 861.481 1761.73 870.035 1764.69 875.252C1770.82 874.57 1779.9 872.479 1785.15 876.563C1786.56 877.653 1787.39 879.424 1787.47 881.162C1787.78 887.408 1781.7 893.184 1777.77 897.399C1780.35 902.819 1784.94 911.513 1782.78 917.569C1782.05 919.6 1780.48 920.963 1778.45 921.656C1772.37 923.741 1763.94 919.222 1758.39 917.009C1754.31 921.242 1747.6 929.341 1741.05 929.065C1738.96 928.977 1737.37 927.891 1736.27 926.153C1732.98 920.979 1735.47 912.019 1736.37 906.394C1731.19 903.342 1721.03 898.962 1719.16 892.6C1718.64 890.846 1718.93 889.425 1719.93 887.951C1723.63 882.48 1734.67 881.251 1740.59 879.983C1741.39 872.464 1741.48 864.914 1746.98 859.217Z"/><path fill="#E86F61" transform="scale(1.37143 1.37207)" d="M1750.15 868.084C1754.69 871.832 1757.9 878.594 1761.08 883.622C1767.52 882.567 1774.29 882.424 1780.81 881.98L1768.52 896.437C1771.34 902.588 1773.78 908.86 1776.23 915.166C1769.92 913.213 1763.71 910.643 1757.52 908.318C1751.64 911.768 1747.83 918.265 1742.13 922.333L1744.71 901.956C1738.44 898.668 1732.24 895.346 1726.19 891.657C1732.63 889.224 1739.9 887.862 1746.58 886.178C1748.52 880.559 1748.88 873.939 1750.15 868.084Z"/><path fill="#273649" transform="scale(1.37143 1.37207)" d="M152.819 28.1574C153.475 28.1858 154.122 28.2251 154.772 28.3245C161.363 29.3329 166.476 40.3438 170.322 45.3864C176.166 44.3737 186.588 41.4301 192.079 44.552C193.745 45.4991 193.763 46.3951 194.307 48.1152C193.175 55.4478 187.634 60.6242 182.998 66.0461C185.119 71.547 190.375 79.7361 188.648 85.7771C188.178 87.4238 187.323 88.5802 185.73 89.3218C180.255 91.8715 171.569 87.9993 166.218 86.3285C161.748 86.8228 153.505 97.6799 146.527 99.3216C145.218 99.0874 144.31 99.2058 143.438 98.1196C139.6 93.3393 141.617 80.9087 142.42 75.0762C137.415 72.5234 128.293 69.1577 125.485 64.1037C124.202 61.7957 124.57 60.8831 125.23 58.5097C130.246 52.7886 137.623 51.4908 144.626 49.3014C146.207 41.614 146.358 33.3765 152.819 28.1574Z"/><path fill="#E86F61" transform="scale(1.37143 1.37207)" d="M154.613 37.0698C159.214 40.7544 163.53 48.9398 166.999 53.8881C173.471 52.4026 180.075 51.3009 186.599 50.0516C182.325 54.8567 177.98 59.5775 174.27 64.8422C176.565 71.3764 179.808 77.6056 182.804 83.8446C176.656 82.0002 170.708 79.7466 164.719 77.4505C159.066 80.4636 153.32 86.9492 148.454 91.2525C148.634 84.3032 149.267 77.3259 149.582 70.3736C143.443 67.0525 136.925 64.2299 130.604 61.2691C137.491 59.0904 144.56 57.3385 151.515 55.3711C152.391 49.226 153.338 43.1461 154.613 37.0698Z"/><path fill="#273649" transform="scale(1.37143 1.37207)" d="M19.152 555.779C20.7675 555.574 22.828 555.125 24.4224 555.512C25.91 555.874 25.9988 556.323 26.6628 557.564C26.3586 558.323 26.101 558.974 25.6105 559.631C23.8805 561.948 19.7791 562.044 17.1224 562.396C15.8891 562.574 14.6656 562.772 13.4216 562.586C11.5766 562.31 11.5023 562.139 10.3326 560.652C10.6093 559.877 10.845 559.191 11.315 558.511C12.9247 556.182 16.583 556.102 19.152 555.779Z"/><path fill="#273649" transform="scale(1.37143 1.37207)" d="M54.5316 549.562C56.4169 549.306 57.1296 549.416 58.8689 550.187C59.0622 551.146 58.7928 551.798 58.5632 552.732C54.7098 556.335 51.4934 556.485 46.4364 556.975L43.701 557.185L42.4219 555.454L43.0209 553.712C46.6157 550.854 50.1465 550.32 54.5316 549.562Z"/><path fill="#273649" transform="scale(1.37143 1.37207)" d="M29.764 531.924L33.2523 532.616C34.1813 533.393 34.9243 534.23 35.4576 535.333C37.4097 539.368 37.1433 544.79 35.7912 548.96C34.4696 548.573 33.1143 548.184 32.1906 547.087C29.1149 543.436 29.2664 536.388 29.764 531.924Z"/><path fill="#273649" transform="scale(1.37143 1.37207)" d="M34.9069 562.932C37.1391 563.086 37.6999 563.062 39.5051 564.327C41.9657 568.6 42.8197 574.155 42.0527 579.019C40.108 578.827 38.5601 578.997 37.2407 577.291C34.4423 573.67 34.5776 567.273 34.9069 562.932Z"/><path fill="#273649" transform="scale(1.37143 1.37207)" d="M920.36 58.1207C920.981 58.2419 921.405 58.3006 922.016 58.5377C923.494 59.1109 923.88 60.1795 924.407 61.5375C925.928 65.4566 926.688 70.6811 924.922 74.6151C924.147 74.4225 923.375 74.2024 922.665 73.8262C920.882 72.8819 920.04 70.8402 919.555 68.9818C918.658 65.546 918.537 61.2489 920.36 58.1207Z"/><path fill="#273649" transform="scale(1.37143 1.37207)" d="M907.778 50.9034C908.935 50.7647 910.254 50.9928 911.422 51.0747L912.475 52.3134L912.024 53.9312C909.138 57.0043 906.285 57.4502 902.249 58.1946C900.636 58.5467 899.662 58.1294 898.176 57.5841L897.868 55.8227C898.164 55.3032 898.465 54.8089 898.83 54.3323C901.109 51.3511 904.329 51.3145 907.778 50.9034Z"/><path fill="#273649" transform="scale(1.37143 1.37207)" d="M1349.65 294.594C1351.39 294.985 1352.79 295.067 1353.9 296.67C1356.54 300.487 1356.53 307.404 1355.56 311.758C1354.34 311.484 1353.03 311.216 1352.18 310.217C1349.08 306.582 1349.28 299.077 1349.65 294.594Z"/><path fill="#273649" transform="scale(1.37143 1.37207)" d="M458.322 351.387C458.693 351.493 458.933 351.555 459.311 351.696C461.104 352.362 461.843 353.333 462.58 355.071C464.173 358.831 464.437 364.476 462.779 368.216C462.031 367.956 461.183 367.688 460.507 367.27C458.656 366.127 457.785 363.041 457.416 361.009C456.847 357.882 456.463 354.133 458.322 351.387Z"/><path fill="#273649" transform="scale(1.37143 1.37207)" d="M348.563 94.4494C349.349 94.5551 350.305 94.631 351.035 94.9454C351.896 95.3159 352.519 96.0765 352.901 96.8927C354.797 100.946 356.163 107.109 354.634 111.425C353.382 111.25 352.258 111.002 351.351 110.042C348.046 106.542 348.231 98.898 348.563 94.4494Z"/><path fill="#273649" transform="scale(1.37143 1.37207)" d="M938.17 45.5563C940.472 45.1662 942.246 45.1411 944.219 46.3739L944.247 47.8936C942.31 50.4716 941.238 50.4423 938.235 51.2704C936.891 51.6335 935.316 52.1825 933.928 52.2715C931.623 52.4192 931.121 51.9524 929.572 50.4684L930.222 48.3234C932.19 46.0187 935.351 45.967 938.17 45.5563Z"/><path fill="#273649" transform="scale(1.37143 1.37207)" d="M1750.34 586.792C1752.14 587.278 1752.71 587.168 1753.84 588.713L1752.9 590.764C1749.77 593.291 1746.78 594.09 1742.92 595.04C1740.96 594.116 1740.29 593.912 1738.99 592.113L1739.64 590.532C1742.83 588.104 1746.51 587.575 1750.34 586.792Z"/><path fill="#273649" transform="scale(1.37143 1.37207)" d="M1372.13 315.024C1374.17 314.527 1375.31 314.56 1377.29 315.237L1377.75 316.334C1377.49 316.986 1377.3 317.431 1376.86 317.977C1374.71 320.65 1370.89 320.693 1367.74 321.083C1365.73 321.505 1364.81 321.565 1362.91 320.742L1362.5 319.045C1362.94 318.334 1363.4 317.657 1363.96 317.033C1365.77 315.018 1369.61 315.213 1372.13 315.024Z"/><path fill="#273649" transform="scale(1.37143 1.37207)" d="M1176.6 522.011C1178.75 521.955 1179.32 521.698 1181.13 522.965L1180.68 524.941C1177.53 527.796 1174.7 528.168 1170.58 528.72C1168.85 529.067 1167.87 528.945 1166.18 528.463L1165.76 527.278C1165.95 526.746 1165.99 526.525 1166.3 526.085C1168.45 522.98 1173.21 522.542 1176.6 522.011Z"/><path fill="#273649" transform="scale(1.37143 1.37207)" d="M608.483 930.951C608.701 930.896 608.915 930.817 609.137 930.786C611.169 930.498 612.141 930.482 613.675 931.778L613.305 933.766C610.688 936.29 609.32 936.343 605.85 937.178C604.624 937.419 603.406 937.681 602.151 937.568C600.268 937.399 600.218 937.233 598.974 935.768L599.825 933.863C602.185 931.264 605.195 931.306 608.483 930.951Z"/><path fill="#273649" transform="scale(1.37143 1.37207)" d="M1776.19 582.471C1777.06 582.372 1778.26 582.687 1779.15 582.799C1780.24 584.398 1780.02 584.476 1779.71 586.296C1776.74 589.039 1775.35 589.133 1771.5 590.036C1769.03 589.363 1767.97 589.304 1766.24 587.32L1766.92 585.629C1769.75 583.26 1772.66 583.001 1776.19 582.471Z"/><path fill="#273649" transform="scale(1.37143 1.37207)" d="M590.21 944.449C590.995 944.535 591.951 944.598 592.679 944.913C594.716 945.794 595.418 948.157 595.925 950.145C596.761 953.422 596.87 957.974 595.123 960.958C593.87 960.416 592.592 959.811 591.863 958.591C589.598 954.8 589.24 948.666 590.21 944.449Z"/><path fill="#273649" transform="scale(1.37143 1.37207)" d="M1220.93 846.579C1221.52 846.728 1222.21 846.861 1222.75 847.181C1224.79 848.4 1225.42 850.28 1225.96 852.478C1226.75 855.682 1226.77 859.785 1225.12 862.7C1224.49 862.555 1223.65 862.421 1223.06 862.104C1221.74 861.386 1221.33 860.149 1220.86 858.827C1219.47 854.892 1219.13 850.428 1220.93 846.579Z"/><path fill="#273649" transform="scale(1.37143 1.37207)" d="M1761.26 594.024C1761.78 594.275 1762.29 594.534 1762.76 594.865C1764.54 596.104 1765.36 598.602 1765.75 600.654C1766.41 604.141 1765.78 606.99 1763.75 609.857C1761.08 608.057 1759.82 606.18 1759.14 603.042C1758.34 599.338 1759.26 597 1761.26 594.024Z"/><path fill="#273649" transform="scale(1.37143 1.37207)" d="M914.996 27.8919C916.712 28.3121 917.445 28.7447 918.798 29.8825C920.906 34.5659 921.146 39.1898 920.479 44.236C918.841 43.9246 917.307 43.5747 916.345 42.0871C913.773 38.1128 913.904 32.316 914.996 27.8919Z"/><path fill="#273649" transform="scale(1.37143 1.37207)" d="M1755.52 566.505C1757.24 566.737 1758.14 567.019 1759.56 568.052C1762.02 572.174 1762.07 576.452 1761.34 581.089C1758.96 580.954 1758.56 580.879 1756.62 579.516C1754.28 575.271 1754.78 571.122 1755.52 566.505Z"/><path fill="#273649" transform="scale(1.37143 1.37207)" d="M578.952 936.218C580.6 935.898 581.7 936.113 583.32 936.507L583.872 937.69C583.597 938.427 583.385 938.991 582.864 939.592C580.588 942.221 576.846 942.379 573.634 942.767C571.297 942.607 570.63 942.779 568.735 941.304L569.312 939.574C572.363 936.977 575.073 936.687 578.952 936.218Z"/><path fill="#273649" transform="scale(1.37143 1.37207)" d="M462.453 382.482C464.199 382.747 465.057 383.007 466.424 384.144C468.835 388.762 469.78 393.643 468.501 398.755C467.327 398.533 465.992 398.316 465.136 397.39C462.027 394.03 462.105 386.757 462.453 382.482Z"/><path fill="#273649" transform="scale(1.37143 1.37207)" d="M1213.89 868.781C1215.57 868.483 1216.38 868.701 1217.95 869.335L1218.23 870.532C1217.97 871.267 1217.75 871.851 1217.28 872.475C1215.26 875.104 1211.82 875.138 1208.8 875.454C1207.54 875.579 1206.36 875.409 1205.11 875.286L1204.06 873.905L1204.93 871.951C1207.7 869.245 1210.16 869.112 1213.89 868.781Z"/><path fill="#273649" transform="scale(1.37143 1.37207)" d="M1345.01 318.546L1347.97 319.352C1348.15 320.514 1348.09 321.033 1347.64 322.12C1344.12 324.491 1340.7 325.012 1336.57 325.68C1336.48 325.663 1336.39 325.655 1336.31 325.628C1334.49 325.038 1333.8 324.928 1332.88 323.242L1334.1 321.561C1337.75 319.525 1340.89 318.998 1345.01 318.546Z"/><path fill="#273649" transform="scale(1.37143 1.37207)" d="M1148.02 528.309C1149.63 529.022 1149.94 529.05 1150.9 530.606L1149.45 532.431C1145.55 534.396 1141.9 534.72 1137.62 535.098C1136.09 534.542 1135.7 534.029 1134.77 532.768L1135.76 531.237C1139.58 529.336 1143.84 528.936 1148.02 528.309Z"/><path fill="#273649" transform="scale(1.37143 1.37207)" d="M480.496 370.768C482.107 370.52 483.346 370.866 484.89 371.253L485.514 372.726C485.275 373.29 485.261 373.418 484.939 373.878C482.821 376.909 479.017 377.095 475.675 377.543C473.47 377.531 472.783 377.889 471.089 376.387L471.635 374.58C474.367 371.863 476.797 371.426 480.496 370.768Z"/><path fill="#273649" transform="scale(1.37143 1.37207)" d="M452.285 374.482C454.105 374.726 454.731 374.553 456.051 375.89L455.424 377.918C452.292 380.638 449.073 381.19 445.09 381.999C443.484 381.331 442.861 380.574 441.831 379.195L442.606 377.417C445.706 375.496 448.733 375.054 452.285 374.482Z"/><path fill="#273649" transform="scale(1.37143 1.37207)" d="M1224.83 876.677C1226.62 877.068 1227.6 877.566 1228.97 878.764C1231.1 882.744 1231.74 887.511 1231.05 891.962C1228.94 891.717 1228.44 891.613 1226.73 890.388C1224.26 886.036 1224.32 881.531 1224.83 876.677Z"/><path fill="#273649" transform="scale(1.37143 1.37207)" d="M1354.99 327.738C1355.66 327.883 1356.48 328.008 1357.09 328.34C1358.54 329.128 1359.16 330.174 1359.74 331.638C1361.25 335.405 1361.31 339.785 1359.74 343.528C1358.25 343.179 1357.04 342.644 1356.2 341.285C1353.99 337.705 1354.08 331.703 1354.99 327.738Z"/><path fill="#273649" transform="scale(1.37143 1.37207)" d="M344.337 65.9713C345.908 66.3238 346.711 66.878 347.949 67.8901C350.142 72.1109 351.383 76.9289 350.03 81.6256C348.166 81.54 347.841 81.2877 346.324 80.3205C343.943 75.9301 343.501 70.8476 344.337 65.9713Z"/><path fill="#273649" transform="scale(1.37143 1.37207)" d="M585.291 914.206C587.119 914.562 587.912 915.082 589.293 916.314C591.443 920.883 591.558 925.629 590.562 930.52C589.328 930.202 588.394 929.651 587.314 929.008C585.329 924.583 584.035 918.991 585.291 914.206Z"/><path fill="#273649" transform="scale(1.37143 1.37207)" d="M1236.17 865.435C1237.89 865.19 1239.8 864.823 1241.54 864.917C1243.54 865.027 1244.63 865.809 1245.84 867.279C1244.61 869.457 1243.34 869.705 1241.18 870.734C1239.18 870.965 1237.16 871.009 1235.15 871.105C1233.11 870.068 1232.47 870.135 1231.62 867.935C1233.18 866.195 1233.98 866.123 1236.17 865.435Z"/><path fill="#273649" transform="scale(1.37143 1.37207)" d="M1153.4 504.398C1155.12 504.745 1155.71 505.124 1157.02 506.306C1159.11 510.841 1159.51 515.504 1158.12 520.32C1156.63 519.826 1155.8 519.102 1154.67 518.078C1152.61 513.721 1152.35 509.069 1153.4 504.398Z"/><path fill="#273649" transform="scale(1.37143 1.37207)" d="M367.649 81.947L370.079 81.7582L371.664 83.9306L371.055 85.067C367.611 87.5102 364.406 88.0241 360.289 88.6611L357.578 88.5622L356.758 87.5156L357.037 86.055C360.297 83.2742 363.52 82.7289 367.649 81.947Z"/><path fill="#273649" transform="scale(1.37143 1.37207)" d="M338.283 88.132C339.364 88.0485 340.703 88.4636 341.783 88.6566C341.999 89.6374 341.899 90.1171 341.591 91.0668C338.612 93.5582 335.764 94.1169 332.031 94.8829C330.127 94.9126 329.409 94.6829 327.87 93.5508L328.367 91.8156C331.577 89.3246 334.317 88.7554 338.283 88.132Z"/><path fill="#273649" transform="scale(1.37143 1.37207)" d="M1160.71 534.919C1162.22 536.077 1162.57 537.469 1163.1 539.237C1164.29 543.242 1163.88 545.884 1161.94 549.48C1161.17 548.911 1160.36 548.272 1159.81 547.473C1158.31 545.264 1157.35 541.553 1157.76 538.966C1158.17 536.424 1158.7 536.356 1160.71 534.919Z"/></svg>