<?xml version="1.0" encoding="utf-8" ?><svg xmlns="http://www.w3.org/2000/svg" xmlns:xlink="http://www.w3.org/1999/xlink" width="2496" height="1405" viewBox="0 0 2496 1405"><path fill="white" transform="scale(1.37143 1.37207)" d="M0 0L1820 0L1820 1024L0 1024L0 0Z"/><path fill="#273E56" transform="scale(1.37143 1.37207)" d="M444.643 390.9C444.783 390.922 444.927 390.925 445.062 390.967C448.371 391.987 478.391 437.906 482.876 444.281C460.48 458.937 437.125 472.313 414.351 486.383L225.441 602.346C192.9 622.462 159.729 641.805 128.39 663.793C196.724 639.504 263.818 611.013 330.827 583.33C388.726 559.412 447.154 536.233 504.524 511.094C511.122 528.965 520.39 546.25 527.783 563.884L592.403 718.416C597.83 731.539 612.75 762.189 614.204 774.61C609.828 780.359 578.243 790.855 569.419 794.306C525.597 810.544 482.291 828.993 438.808 846.177L183.212 947.718C175.807 933.968 170.883 917.759 165.098 903.212L132.915 824.055C115.733 781.767 98.7722 738.74 79.185 697.507C69.131 676.342 57.2824 656.163 46.7896 635.248C55.4867 628.25 66.9573 622.439 76.4577 616.417C106.371 597.843 136.389 579.437 166.51 561.203C259.274 504.587 352.601 448.671 444.643 390.9Z"/><path fill="white" transform="scale(1.37143 1.37207)" d="M498.205 583.986C504.306 592.922 517.069 627.201 522.301 639.919C538.345 678.923 555.417 717.802 570.035 757.354C508.508 782.601 446.731 807.23 384.711 831.238C371.71 800.182 358.462 769.23 344.968 738.385C337.878 721.938 331.519 704.333 323.331 688.449C321.566 685.024 319.983 682.249 316.193 681.073L313.95 682.597C312.938 684.915 312.909 686.054 313.651 688.515C316.832 699.081 323.822 711.446 328.283 721.81C338.863 746.046 349.304 770.344 359.605 794.7C365.195 807.845 371.347 820.976 375.987 834.49L357.879 841.704C306.109 862.442 253.134 881.459 202.088 903.845C188.61 873.915 177.042 843.007 164.507 812.664C153.659 786.406 141.318 760.146 132.356 733.185C213.724 701.542 294.792 669.133 375.549 635.96C416.268 619.178 458.956 603.92 498.205 583.986Z"/><path fill="#273E56" transform="scale(1.37143 1.37207)" d="M196.547 741.647L199.045 742.312C204.227 746.599 236.032 826.672 241.085 839.173C259.707 832.792 277.425 822.755 296.205 817.168C299.411 816.215 301.61 815.679 304.61 817.275C304.858 818.097 305.209 819.08 305.214 819.941C305.225 822.114 303.809 822.796 302.301 823.969C281.065 833.595 258.767 842.378 236.839 850.316C232.527 841.724 229.196 832.428 225.456 823.548L207.344 781.012C203.446 771.616 196.226 757.675 194.023 748.047C193.398 745.316 195.116 743.746 196.547 741.647Z"/><path fill="#273E56" transform="scale(1.37143 1.37207)" d="M383.531 667.317C384.374 667.476 385.298 667.624 386.092 667.953C386.708 668.209 387.973 668.862 388.433 669.35C391.995 673.121 423.38 752.618 427.769 764.111C435.657 761.035 479.735 741.754 485.029 741.755C487.201 742.915 487.601 743.27 488.921 745.346C488.586 748.227 488.269 748.254 486.098 750.239C477.104 753.971 429.97 775.431 424.177 773.06C421.724 769.881 419.857 766.462 418.191 762.822C414.181 754.062 381.938 678.396 381.201 672.97C380.836 670.279 382.003 669.365 383.531 667.317Z"/><path fill="#273E56" transform="scale(1.37143 1.37207)" d="M486.161 704.813C487.493 704.638 488.644 705.057 489.91 705.414C491.539 707.233 491.708 707.314 491.821 709.731C488.027 717.172 452.089 728.77 442.8 732.495C440.892 732.644 439.735 732.441 437.98 731.68C436.655 729.854 436.545 729.905 436.89 727.694C441.396 721.979 477.126 708.792 486.161 704.813Z"/><path fill="#273E56" transform="scale(1.37143 1.37207)" d="M474.829 674.615L477.349 676.128C478.364 678.432 478.457 678.558 477.802 680.973C471.465 688.269 439.776 698.524 429.44 702.595C427.715 702.349 426.66 701.604 425.229 700.647C424.834 699.428 424.294 698.641 424.81 697.401C427.385 691.215 466.217 678.177 474.829 674.615Z"/><path fill="#273E56" transform="scale(1.37143 1.37207)" d="M462.235 644.354C463.633 644.645 464.611 645.445 465.792 646.215C466.132 647.479 466.51 648.114 466.012 649.381C463.609 655.502 426.168 668.533 417.972 672.227C416.45 672.052 415.149 671.096 413.846 670.341C412.944 668.532 412.995 668.403 413.309 666.523C417.929 659.322 452.584 648.122 462.235 644.354Z"/><path fill="#273E56" transform="scale(1.37143 1.37207)" d="M297.931 780.31L300.761 781.842C301.831 783.891 302.001 784.08 301.623 786.336C296.733 793.173 263.43 804.563 253.567 808.547L250.715 806.928C249.486 804.851 249.381 804.731 249.717 802.355C254.179 796.29 288.79 784.592 297.931 780.31Z"/><path fill="#273E56" transform="scale(1.37143 1.37207)" d="M286.072 750.202C286.886 750.932 287.758 751.65 288.177 752.688C288.883 754.437 288.356 755.007 287.73 756.631C279.877 764.742 251.921 773.54 240.297 778.018C239.537 777.267 238.657 776.464 238.072 775.567C236.792 773.603 237.001 772.635 237.473 770.523C242.695 765.128 276.983 753.708 286.072 750.202Z"/><path fill="#273E56" transform="scale(1.37143 1.37207)" d="M272.137 719.876C273.945 719.979 274.246 720.307 275.689 721.312C276.515 723.531 276.638 723.787 276.025 726.052C269.925 733.176 240.212 742.473 230.365 746.071C228.988 745.962 227.761 745.432 226.462 744.982C225.211 743.249 225.543 743.036 225.856 741.004C231.132 734.614 262.759 723.71 272.137 719.876Z"/><path fill="#DB6B60" transform="scale(1.37143 1.37207)" d="M521.442 575.179C522.758 575.898 523.173 576.533 523.826 577.849C532.928 596.203 540.042 616.416 548.016 635.351L604.078 770.851L338.436 876.615C288.543 896.623 238.553 917.975 187.879 935.858L117.064 762.415C114.399 755.808 111.825 749.164 109.343 742.485L124.617 736.965C146.227 797.229 173.476 855.677 196.804 915.323C215.476 908.121 233.85 900.13 252.483 892.817C330.03 862.677 407.378 832.025 484.52 800.861C501.745 793.836 519.028 786.953 536.366 780.211C550.758 774.664 568.618 769.864 581.335 761.337C572.402 734.057 557.953 702.556 546.673 675.859C533.245 644.076 520.598 612.024 506.572 580.487L521.442 575.179Z"/><path fill="white" transform="scale(1.37143 1.37207)" d="M154.155 579.521C154.705 579.577 155.004 580.027 155.411 580.386C153.958 599.058 153.422 617.937 152.652 636.653C141.549 646.218 108.503 667.156 94.8263 673.359L94.3266 673.246C91.9133 669.79 96.6078 621.749 96.9339 614.097C115.937 602.455 135.011 590.93 154.155 579.521Z"/><path fill="white" transform="scale(1.37143 1.37207)" d="M478.09 532.459L478.552 532.827C480.133 536.316 473.176 578.423 472.343 586.397C451.009 595.565 429.352 603.928 408.076 613.257C405.78 609.993 413.877 565.562 414.905 558.194C422.748 555.548 430.458 551.811 438.129 548.628C451.417 543.158 464.737 537.768 478.09 532.459Z"/><path fill="white" transform="scale(1.37143 1.37207)" d="M201.701 645.364L203.109 645.851C199.61 663.574 197.246 681.612 194.218 699.432C173.735 707.866 153.324 716.223 132.4 723.517C131.888 723.422 131.296 722.992 130.836 722.739C133.721 704.895 135.731 686.828 139.687 669.181C160.054 660.683 180.961 652.915 201.701 645.364Z"/><path fill="white" transform="scale(1.37143 1.37207)" d="M238.865 527.871C240.946 534.883 238.838 573.844 238.735 583.47C219.379 596.387 198.89 607.963 179.016 620.088C176.904 610.446 180.915 574.939 181.525 562.411C200.258 550.325 219.774 539.389 238.865 527.871Z"/><path fill="white" transform="scale(1.37143 1.37207)" d="M385.196 570.608C385.992 570.666 386.116 570.981 386.702 571.491C384.828 589.602 381.527 607.342 378.183 625.227C357.333 633.314 336.678 642.027 315.953 650.437C315.599 650.396 315.08 649.95 314.777 649.751C316.943 631.911 320.474 614.255 322.881 596.437C343.287 587.058 364.543 579.438 385.196 570.608Z"/><path fill="white" transform="scale(1.37143 1.37207)" d="M322.744 476.35L323.605 476.976C325.391 485.802 322.361 522.052 321.658 532.855C302.943 544.081 284.015 555.179 265.607 566.892C265.574 566.86 265.532 566.835 265.508 566.796C263.201 563.041 264.154 520.358 264.065 512.538C270.627 507.3 278.477 503.106 285.642 498.717C297.921 491.116 310.289 483.66 322.744 476.35Z"/><path fill="white" transform="scale(1.37143 1.37207)" d="M405.174 425.594L406.031 425.883C408.309 429.233 406.109 473.801 406.027 481.137C387.277 493.345 367.945 504.63 348.925 516.411L348.329 516.184C346.097 510.629 349.54 468.156 350.005 459.143L405.174 425.594Z"/><path fill="white" transform="scale(1.37143 1.37207)" d="M294.049 608.019C295.801 611.601 287.517 654.562 286.291 662.4L222.913 687.958L222.2 687.226C223.178 671.264 228.397 649.954 231.465 633.791C252.059 625.335 274.233 618.01 294.049 608.019Z"/><path fill="white" transform="scale(1.37143 1.37207)" d="M442.731 402.559C446.635 404.511 466.073 435.875 470.278 442.062C464.027 445.327 457.987 449.096 451.91 452.679L432.437 464.952C432.604 446.365 432.953 427.78 433.485 409.2L442.731 402.559Z"/><path fill="white" transform="scale(1.37143 1.37207)" d="M109.879 680.774C110.682 680.675 111.295 680.895 112.072 681.082C113.184 688.305 106.018 722.229 105.217 733.263L100.421 723.246L85.4941 689.897C93.7943 687.399 101.83 683.976 109.879 680.774Z"/><path fill="#DB6B60" transform="scale(1.37143 1.37207)" d="M497.682 523.451L498.345 524.012C499.594 528.957 492.263 568.632 491.321 577.652L481.91 582.17L481.552 581.816C480.303 575.268 487.169 538.342 488.275 528.318L497.682 523.451Z"/><path fill="#DB6B60" transform="scale(1.37143 1.37207)" d="M311.942 600.806L313.282 601.039C314.774 603.931 306.289 648.223 305.036 654.679L297.2 658.483C296.792 658.464 296.147 658.01 295.779 657.813C296.291 642.633 301.514 619.901 304.043 604.287L311.942 600.806Z"/><path fill="#DB6B60" transform="scale(1.37143 1.37207)" d="M404.356 562.596C407.049 566.305 398.585 610.635 397.59 617.042L389.555 620.594L388.536 619.844C387.286 613.334 394.692 575.331 396.209 566.559L404.356 562.596Z"/><path fill="#DB6B60" transform="scale(1.37143 1.37207)" d="M340.985 464.824C341.951 471.118 340.926 478.726 340.665 485.159C340.075 497.623 339.629 510.094 339.328 522.569L330.957 527.464C328.528 516.535 332.393 483.598 332.302 469.848L340.985 464.824Z"/><path fill="#DB6B60" transform="scale(1.37143 1.37207)" d="M220.621 637.255L221.966 638.166C219.752 656.22 215.333 673.938 213.266 692.061L204.891 695.608L204.327 695.612L203.676 694.689C206.476 677.311 208.333 658.619 213.241 641.707C215.071 639.314 217.932 638.429 220.621 637.255Z"/><path fill="#DB6B60" transform="scale(1.37143 1.37207)" d="M171.185 568.796L172.436 570.214C173.277 588.825 170.827 608.337 169.544 626.905C167.059 628.658 164.389 630.228 161.827 631.871C159.838 628.117 164.174 581.175 164.562 572.646L171.185 568.796Z"/><path fill="#DB6B60" transform="scale(1.37143 1.37207)" d="M423.677 415.081C425.864 418.468 423.626 462.423 423.438 470.004L416.164 474.812C412.798 470.368 415.711 427.983 415.931 419.609L423.677 415.081Z"/><path fill="#DB6B60" transform="scale(1.37143 1.37207)" d="M254.868 518.26C257.318 521.856 255.9 565.268 255.879 572.93L247.445 578.063C245.421 565.966 247.86 537.828 247.22 523.062L254.868 518.26Z"/><path fill="#DB6B60" transform="scale(1.37143 1.37207)" d="M87.1856 620.341L88.2847 621.674C88.329 630.352 85.5001 676.323 83.0124 680.421L80.955 680.682L75.9855 670.888C78.2292 657.792 77.7714 635.722 80.7454 625.077C81.3842 622.79 85.2061 621.368 87.1856 620.341Z"/><path fill="#DB6B60" transform="scale(1.37143 1.37207)" d="M129.725 673.043C131.172 676.831 122.766 720.508 121.505 727.768L114.485 731.118L114.273 730.991C112.55 726.561 120.509 684.791 121.353 676.611L129.725 673.043Z"/><path fill="white" transform="scale(1.37143 1.37207)" d="M504.889 535.006C510.653 542.472 515.615 557.246 518.941 566.333L512.501 569.085L499.832 574.071C501.057 560.994 502.744 547.964 504.889 535.006Z"/><path fill="white" transform="scale(1.37143 1.37207)" d="M71.3875 630.288L72.3957 630.639C71.7417 638.943 72.1844 649.375 69.7105 657.307L68.7754 657.756L67.0654 654.809L58.2107 638.012C62.3385 635.049 66.9405 632.732 71.3875 630.288Z"/><path fill="#273E56" transform="scale(1.37143 1.37207)" d="M810.615 572.31C823.411 582.91 834.964 596.079 846.626 607.96C864.846 626.522 883.22 644.767 900.963 663.806C918.054 661.423 935.278 655.232 952.062 650.945C990.763 641.061 1029.78 631.523 1067.96 619.816L1072.12 628.096C1059.66 632.36 1046.51 635.336 1033.78 638.759C994.464 649.337 954.375 658.119 915.471 670.072C964.902 684.487 1014.53 698.228 1064.33 711.289L1112.15 723.801C1121.18 726.105 1131.15 727.798 1139.8 731.198C1145.16 733.304 1146.7 737.251 1148.92 742.186C1137.13 779.196 1126.71 816.792 1115.76 854.071C1102.34 898.237 1089.81 942.672 1078.19 987.348C1077.5 989.312 1076.57 991.29 1075.19 992.869C1072.79 995.601 1069.55 996.412 1066.07 996.441C1053.98 996.54 1036.25 989.405 1024.13 986.084L985.436 975.886C920.419 958.878 855.611 941.083 791.026 922.503C753.99 912.018 716.069 902.09 679.681 889.653C676.034 888.406 672.007 886.911 669.194 884.207C668.68 873.412 678.71 847.031 682.168 835.413C698.423 781.009 715.365 726.812 732.99 672.837C736.954 660.476 739.755 647.362 744.354 635.261C745.354 632.627 746.525 630.364 748.403 628.251C751.173 627.022 754.937 627.909 757.814 628.427C770.835 630.775 783.905 635.006 796.701 638.416C826.863 646.454 857.362 655.35 887.843 661.933C879.383 654.363 871.605 645.931 863.581 637.899L804.468 577.89L810.615 572.31Z"/><path fill="#A6D0BD" transform="scale(1.37143 1.37207)" d="M753.096 636.303C773.933 640.058 794.734 646.864 815.222 652.213C842.248 659.129 869.225 666.234 896.151 673.528C925.292 681.729 954.21 690.744 983.42 698.699C1016.09 707.606 1048.84 716.226 1081.66 724.557C1100.72 729.466 1122.01 733.547 1140.25 740.902C1122.98 795.356 1107.23 850.636 1091.55 905.586C1088.18 917.391 1072.57 981.396 1068.07 987.983L1065.67 988.435C1023.99 974.767 980.253 965.477 937.904 953.979C850.868 930.674 764.196 906.031 677.919 880.059C681.906 864.461 687.073 849.146 691.677 833.719C703.019 795.156 714.928 756.763 727.401 718.551C732.314 702.992 737.533 687.516 742.173 671.875C745.642 660.182 748.411 647.53 753.096 636.303Z"/><path fill="#273E56" transform="scale(1.37143 1.37207)" d="M775.135 664.131C844.132 665.415 912.052 681.483 974.313 711.253C984.163 715.962 997.183 720.765 1005.32 728.143C1009.97 732.369 1010.75 738.564 1010.99 744.541C1013.18 799.155 997.033 860.956 970.256 908.364C965.729 916.379 961.118 925.522 954.755 932.192C952.295 934.771 950.385 934.57 947.102 934.695C945.797 934.656 944.492 934.607 943.188 934.547C879.162 931.622 797.749 912.938 740.379 884.023C731.523 879.559 719.619 874.249 712.931 866.736C708.222 861.447 708.454 855.156 708.807 848.485C711.59 794.707 726.694 742.288 752.951 695.277C759.08 684.426 765.789 672.562 775.135 664.131Z"/><path fill="white" transform="scale(1.37143 1.37207)" d="M778.479 672.009C845.162 673.292 912.383 690.901 972.364 719.695C980.776 723.734 993.843 728.553 1000.02 735.252C1003.38 738.891 1002.99 746.268 1002.89 750.861C1001.83 803.347 989.938 855.68 964.676 901.94C960.492 909.602 955.671 919.544 949.103 925.505C947.101 927.322 945.441 926.664 942.957 926.465C929.894 926.048 916.423 923.867 903.475 922.12C849.017 914.776 791.616 900.819 742.659 875.432C733.353 870.607 722.957 865.689 716.486 857.199C720.337 803.546 731.327 752.513 757.316 704.948C763.483 693.662 770.258 681.937 778.479 672.009Z"/><path fill="#273E56" transform="scale(1.37143 1.37207)" d="M799.105 707.111C831.101 703.548 865.143 709.733 896.092 717.458C900.601 718.583 908.137 719.485 911.922 722.158C914.064 723.671 915.672 725.36 916.086 728.02C912.444 732.388 903.228 728.068 898.553 726.593C864.774 716.069 829.246 712.333 794.017 715.602C790.358 720.899 787.097 726.437 783.786 731.955C774.299 749.57 767.015 768.287 762.099 787.682C760.038 795.812 757.278 823.956 751.479 828.208L749.705 827.806C748.732 826.656 747.758 825.476 747.566 823.931C746.935 818.834 749.323 811.26 750.316 806.008C756.831 771.551 767.941 736.121 789.759 708.105L799.105 707.111Z"/><path fill="#273E56" transform="scale(1.37143 1.37207)" d="M800.39 721.317C837.107 719.135 880.301 727.033 914.567 740.167C922.663 743.271 944.343 749.795 948.065 758.143C947.723 758.924 947.907 758.964 947.195 759.238C941.008 761.615 909.189 746.852 900.446 743.725C869.776 733.783 835.473 728.498 803.339 729.051C795.235 739.2 792.044 751.399 785.12 762.082C783.648 764.352 782.267 766.258 779.498 766.871L777.533 765.346C777.044 763.943 777.035 763.152 777.476 761.718C780.237 752.73 792.095 725.687 800.39 721.317Z"/><path fill="#273E56" transform="scale(1.37143 1.37207)" d="M755.695 843.09C764.683 843.385 784.408 856.352 793.772 860.212C820.697 871.27 848.884 878.963 877.693 883.116C887.227 884.436 896.811 885.373 906.42 885.926C911.191 886.178 916.368 885.644 921.06 886.44C923.069 886.781 923.53 887.161 925.078 888.393C925.422 890.842 925.031 891.561 924.11 893.901C913.873 894.511 902.981 893.509 892.781 892.533C850.475 888.485 809.587 877.609 771.509 858.618C766.989 856.363 758.647 853.486 755.798 849.341C754.213 847.034 755.05 845.497 755.695 843.09Z"/><path fill="#24435B" transform="scale(1.37143 1.37207)" d="M1021.34 896.247C1040.66 893.661 1058.45 907.13 1061.21 926.427C1063.96 945.723 1050.66 963.636 1031.39 966.564C1011.88 969.529 993.695 956.014 990.904 936.474C988.113 916.934 1001.79 898.866 1021.34 896.247Z"/><path fill="white" transform="scale(1.37143 1.37207)" d="M1020.1 905.211C1034.57 901.926 1048.98 910.959 1052.34 925.423C1055.7 939.886 1046.74 954.344 1032.29 957.774C1017.75 961.228 1003.17 952.19 999.789 937.624C996.408 923.057 1005.52 908.52 1020.1 905.211Z"/><path fill="#273E56" transform="scale(1.37143 1.37207)" d="M1010.58 924.044C1011.3 923.996 1012.01 923.982 1012.73 924.002C1019.87 924.17 1036.49 927.423 1041.42 932.583C1042.25 935.409 1041.74 936.085 1040.72 938.737C1040.13 938.783 1039.56 938.82 1038.98 938.827C1032.28 938.91 1014.79 934.423 1010.11 929.892C1009.33 927.304 1009.78 926.533 1010.58 924.044Z"/><path fill="#24435B" transform="scale(1.37143 1.37207)" d="M1043.33 822.601C1061.14 818.555 1078.89 829.573 1083.17 847.328C1087.45 865.082 1076.67 882.983 1058.98 887.501C1047.32 890.477 1034.97 886.95 1026.64 878.267C1018.31 869.585 1015.3 857.091 1018.75 845.566C1022.21 834.041 1031.6 825.267 1043.33 822.601Z"/><path fill="white" transform="scale(1.37143 1.37207)" d="M1046.47 831.267C1051.98 830.984 1057.43 831.541 1062.46 833.986C1068.32 836.831 1072.91 841.835 1074.91 848.068C1076.84 854.047 1076.23 860.554 1073.23 866.072C1069.21 873.38 1062.7 876.548 1054.98 878.7C1049.2 878.932 1044.06 878.565 1038.81 875.908C1032.78 872.905 1028.23 867.585 1026.18 861.162C1024.44 855.62 1024.9 849.712 1027.65 844.585C1031.65 837.141 1038.67 833.573 1046.47 831.267Z"/><path fill="#24435B" transform="scale(1.37143 1.37207)" d="M1063.92 754.856C1076.42 751.185 1089.55 758.297 1093.3 770.779C1097.06 783.262 1090.04 796.437 1077.59 800.28C1065.01 804.161 1051.68 797.057 1047.89 784.452C1044.1 771.847 1051.29 758.563 1063.92 754.856Z"/><path fill="white" transform="scale(1.37143 1.37207)" d="M1068.62 762.713C1070.99 762.653 1073.69 762.688 1075.94 763.524C1079.97 765.008 1083.22 768.084 1084.91 772.032C1086.46 775.823 1086.38 780.09 1084.67 783.815C1082.51 788.571 1078.73 790.573 1074.06 792.35C1070.92 792.372 1067.42 792.522 1064.49 791.279C1060.56 789.614 1057.16 786.254 1055.69 782.216C1054.46 778.774 1054.69 774.979 1056.33 771.712C1058.9 766.457 1063.35 764.506 1068.62 762.713Z"/><path fill="#273E56" transform="scale(1.37143 1.37207)" d="M1597.52 589.341C1598.86 589.255 1600.51 588.823 1601.69 589.537C1606.72 592.581 1612.21 616.515 1613.98 622.812C1626.04 618.275 1639.61 615.05 1651.88 620.725C1657.3 623.203 1661.78 627.361 1664.66 632.582C1668.57 639.54 1671.1 647.626 1673.95 655.092C1680.29 671.696 1686.15 688.435 1692.15 705.163L1734 819.212C1738.23 830.952 1739.93 840.762 1734.25 852.469C1731.24 858.676 1725.15 863.811 1719.09 866.908C1711.2 870.944 1702.26 873.269 1693.92 876.3C1673.09 883.852 1652.19 891.211 1631.22 898.379L1398.54 977.349C1383.24 982.606 1366.84 989.987 1350.91 982.698C1340.79 978.067 1335.24 970.588 1331.5 960.416C1326.34 946.414 1322.07 932.101 1317.34 917.953L1292.02 843.4C1285.89 825.254 1272.54 791.528 1269.69 774.216C1268.59 767.569 1269.86 760.32 1272.73 754.261C1275.62 748.14 1281.13 742.004 1287.16 738.838C1305.86 729.024 1340.63 719.68 1361.93 712.012L1557.6 642.671C1554.64 630.56 1549.84 618.894 1545.98 607.043C1560.17 600.304 1582.04 594.551 1597.52 589.341Z"/><path fill="white" transform="scale(1.37143 1.37207)" d="M1631.38 625.966C1637.03 625.566 1642.33 625.796 1647.49 628.385C1652.03 630.661 1655.97 634.646 1658.34 639.121C1663.29 648.497 1666.39 659.295 1670 669.285L1687.99 719.058C1695.73 741.096 1703.79 763.027 1712.14 784.843C1716.98 797.694 1722.36 810.464 1726.7 823.487C1729.46 831.747 1730.58 840.551 1726.41 848.559C1723.83 853.51 1719.17 857.593 1714.19 860.02C1703.83 865.071 1691.75 868.166 1680.84 871.913L1618.1 893.774C1537.56 922.058 1456.71 950.713 1374.97 975.353C1367.68 977.171 1360.5 978.388 1353.49 974.897C1348.15 972.239 1344.3 967.325 1341.69 962.072C1337.72 954.083 1335.34 945.05 1332.55 936.598L1318.81 894.715C1307.35 859.807 1294.86 825.167 1283.64 790.213C1279.9 778.539 1275.87 767.46 1282.14 755.74C1285.04 750.323 1290.31 746.182 1295.84 743.704C1308.45 738.051 1322.27 734.152 1335.38 729.801C1357.15 722.661 1378.83 715.264 1400.43 707.61C1452.24 688.844 1504.14 670.341 1556.14 652.104C1581.16 643.316 1606.11 633.998 1631.38 625.966Z"/><path fill="#273E56" transform="scale(1.37143 1.37207)" d="M1411.22 727.424C1468.31 723.83 1517.49 767.216 1521.06 824.315C1524.63 881.415 1481.24 930.593 1424.15 934.142C1367.1 937.689 1317.96 894.313 1314.39 837.245C1310.83 780.177 1354.17 731.015 1411.22 727.424Z"/><path fill="white" transform="scale(1.37143 1.37207)" d="M1409.5 735.882C1462.1 731.324 1508.37 770.412 1512.68 823.041C1516.99 875.669 1477.7 921.771 1425.06 925.837C1372.77 929.877 1327.05 890.888 1322.77 838.605C1318.49 786.323 1357.25 740.409 1409.5 735.882Z"/><path fill="#273E56" transform="scale(1.37143 1.37207)" d="M1414.43 751.022C1458.38 749.06 1495.53 783.221 1497.27 827.182C1499.01 871.144 1464.67 908.135 1420.71 909.653C1377.06 911.161 1340.4 877.11 1338.68 833.461C1336.95 789.812 1370.8 752.97 1414.43 751.022Z"/><path fill="white" transform="scale(1.37143 1.37207)" d="M1417.06 758.521C1456.76 758.011 1489.28 789.94 1489.5 829.653C1489.73 869.366 1457.58 901.665 1417.88 901.609C1378.57 901.553 1346.67 869.786 1346.45 830.471C1346.22 791.157 1377.76 759.026 1417.06 758.521Z"/><path fill="#273E56" transform="scale(1.37143 1.37207)" d="M1398.67 821.436C1398.77 825.538 1398.88 829.691 1398.31 833.766C1397.77 837.671 1396.53 840.783 1393.28 843.194C1386.78 848.002 1374.27 852.77 1366.14 851.312C1364.33 850.988 1362.62 849.045 1361.65 847.593C1357.04 840.691 1357.82 829.078 1359.36 821.374C1362.37 806.288 1370.74 793.262 1383.66 784.75C1397.62 775.554 1415.32 771.94 1431.68 775.536C1446.75 778.724 1459.87 787.932 1468 801.028C1475.8 813.616 1478.02 829.642 1474.27 843.966C1473.61 846.477 1472.92 847.328 1470.82 848.62C1463.58 847.88 1456.94 838.571 1451.01 834.683C1445.01 830.752 1438.25 828.832 1432.73 823.977C1429.15 820.823 1426.14 816.845 1425.95 811.898C1425.7 805.704 1430.01 798.232 1434.15 793.878C1438.52 789.293 1444.2 789.808 1450.01 789.679C1437.05 782.739 1424.6 779.564 1409.81 781.585C1402.78 782.537 1394.5 785.101 1388.94 789.662C1381.03 795.088 1374.63 801.28 1370.53 810.087C1373.9 808.668 1377.14 806.621 1380.35 804.844C1381.65 804.606 1383.12 804.307 1384.42 804.61C1390.32 805.976 1395.66 816.587 1398.67 821.436Z"/><path fill="#DB6B60" transform="scale(1.37143 1.37207)" d="M1370.53 810.087C1373.9 808.668 1377.14 806.621 1380.35 804.844C1384.54 809.922 1388.23 815.174 1391.64 820.803C1391.85 828.444 1391.97 835.159 1386.33 841.118C1381.29 846.437 1373.69 848.168 1366.65 848.73C1364.66 834.593 1365.51 823.572 1370.53 810.087Z"/><path fill="#DB6B60" transform="scale(1.37143 1.37207)" d="M1445.32 795.721C1446.71 795.747 1448.1 795.812 1449.46 796.07C1455.09 797.134 1459.51 800.459 1462.68 805.169C1470.63 816.947 1470.65 832.429 1467.92 845.811L1461.56 840.583C1457.8 836.19 1455.31 830.753 1450.88 826.883C1445.51 822.184 1434.9 821.525 1432.37 814.027C1431.23 810.664 1432.01 806.176 1433.76 803.131C1436.25 798.807 1440.81 797.071 1445.32 795.721Z"/><path fill="#DB6B60" transform="scale(1.37143 1.37207)" d="M1424.67 851.061C1426.21 847.604 1428.11 843.928 1430.98 841.391C1434.01 838.676 1438.02 837.303 1442.08 837.582C1449.84 838.113 1457.56 844.594 1462.32 850.316C1464.9 853.413 1467.24 856.861 1466.9 861.056C1461.25 870.586 1448.62 879.293 1438.7 883.332C1423.98 889.325 1408.96 888.953 1394.4 882.634C1385.57 878.802 1373.84 871.679 1370.29 862.153C1369.2 859.221 1369.31 857.015 1370.64 854.173C1376.95 854.095 1384.65 852.034 1390.66 850.135C1398.59 849.375 1412.25 851.869 1418.42 857.283C1420.45 859.066 1421.75 861.217 1421.89 863.968C1422.01 866.517 1421.59 868.901 1420.87 871.337C1420.65 873.252 1420.53 873.431 1421.55 875.174L1423.26 874.71C1425.78 866.283 1425.46 859.656 1424.67 851.061Z"/><path fill="#273E56" transform="scale(1.37143 1.37207)" d="M1424.67 851.061C1426.21 847.604 1428.11 843.928 1430.98 841.391C1434.01 838.676 1438.02 837.303 1442.08 837.582C1449.84 838.113 1457.56 844.594 1462.32 850.316C1464.9 853.413 1467.24 856.861 1466.9 861.056C1461.25 870.586 1448.62 879.293 1438.7 883.332C1423.98 889.325 1408.96 888.953 1394.4 882.634C1385.57 878.802 1373.84 871.679 1370.29 862.153C1369.2 859.221 1369.31 857.015 1370.64 854.173C1373.05 855.164 1374.35 855.248 1375.45 857.793C1375.68 858.338 1375.72 858.497 1375.88 859.005C1381.91 869.389 1392.34 876.011 1403.81 879.109C1417.28 882.748 1431.48 880.494 1443.46 873.428C1450.9 869.039 1455.91 863.555 1460.67 856.494C1456.86 851.678 1449.49 844.325 1443.02 843.639C1440.63 843.386 1438.52 844.371 1436.73 845.898C1428.02 853.309 1432.92 869.418 1423.26 874.71C1425.78 866.283 1425.46 859.656 1424.67 851.061Z"/><path fill="#273E56" transform="scale(1.37143 1.37207)" d="M1390.66 850.135C1398.59 849.375 1412.25 851.869 1418.42 857.283C1420.45 859.066 1421.75 861.217 1421.89 863.968C1422.01 866.517 1421.59 868.901 1420.87 871.337C1417.78 869.172 1417.47 867.701 1416.4 864.119C1412.91 861.596 1407.06 863.125 1402.97 861.775C1398.02 860.145 1394.31 855.879 1389.07 854.32L1390.66 850.135Z"/><path fill="#24435B" transform="scale(1.37143 1.37207)" d="M1370.64 854.173C1376.95 854.095 1384.65 852.034 1390.66 850.135L1389.07 854.32C1384.76 855.742 1379.92 856.964 1375.88 859.005C1375.72 858.497 1375.68 858.338 1375.45 857.793C1374.35 855.248 1373.05 855.164 1370.64 854.173Z"/><path fill="#24435B" transform="scale(1.37143 1.37207)" d="M1388.94 789.662C1394.5 785.101 1402.78 782.537 1409.81 781.585L1410.39 782.888L1411.84 783.354C1417.85 783.377 1422.25 783.35 1427.14 787.11L1429.86 791.073C1429.53 792.446 1429.11 793.754 1428.54 795.043C1425.25 802.464 1420.83 811.342 1412.71 814.375C1408.82 815.829 1404.64 815.394 1400.92 813.662C1395.07 810.869 1390.61 805.801 1388.59 799.635C1387.51 796.431 1388.03 794.97 1389.44 792.032L1388.94 789.662Z"/><path fill="#273E56" transform="scale(1.37143 1.37207)" d="M1388.94 789.662C1394.5 785.101 1402.78 782.537 1409.81 781.585L1410.39 782.888L1411.84 783.354C1417.85 783.377 1422.25 783.35 1427.14 787.11C1412.35 788.644 1405.74 787.859 1391.75 794.723C1395.69 803.999 1400.33 807.856 1408.55 813.204C1415.33 806.663 1420.64 794.787 1429.37 791.284C1429.54 791.218 1429.7 791.143 1429.86 791.073C1429.53 792.446 1429.11 793.754 1428.54 795.043C1425.25 802.464 1420.83 811.342 1412.71 814.375C1408.82 815.829 1404.64 815.394 1400.92 813.662C1395.07 810.869 1390.61 805.801 1388.59 799.635C1387.51 796.431 1388.03 794.97 1389.44 792.032L1388.94 789.662Z"/><path fill="#D9D6CA" transform="scale(1.37143 1.37207)" d="M1388.94 789.662C1394.5 785.101 1402.78 782.537 1409.81 781.585L1410.39 782.888L1411.84 783.354C1403.28 784.762 1396.67 787.185 1389.44 792.032L1388.94 789.662Z"/><path fill="#273E56" transform="scale(1.37143 1.37207)" d="M1411.9 829.662C1414.9 828.468 1418.31 829.005 1420.8 831.062C1423.29 833.12 1424.46 836.371 1423.85 839.544C1423.25 842.716 1420.96 845.306 1417.89 846.299C1413.35 847.766 1408.46 845.367 1406.85 840.878C1405.23 836.389 1407.47 831.426 1411.9 829.662Z"/><path fill="#273E56" transform="scale(1.37143 1.37207)" d="M1629.63 642.82C1632.46 642.429 1635.66 642.322 1638.49 642.792C1642.43 643.449 1646.96 645.441 1649.31 648.815C1656.56 659.239 1671 707.54 1676.29 722.732C1682.46 740.499 1689.89 758.438 1694.98 776.503C1696.06 780.334 1697.33 784.834 1696.65 788.806C1689.02 796.605 1613.57 822.412 1597.72 828.245C1592.74 829.75 1587.98 829.894 1583.03 828.063C1577.93 826.175 1573.5 822.369 1571.27 817.4C1563.91 801.031 1559.11 782.299 1553.27 765.229C1548.16 750.329 1543.15 735.397 1538.22 720.434C1535.73 712.878 1532.48 704.944 1531.01 697.142C1530.29 693.328 1530.9 687.58 1532.44 684.021C1534.31 679.673 1539.26 676.104 1543.26 673.894C1552.52 668.782 1563.83 665.825 1573.83 662.322L1629.63 642.82Z"/><path fill="#DB6B60" transform="scale(1.37143 1.37207)" d="M1678.75 757.382C1682.16 759.386 1686.96 780.319 1688.31 785.322C1672.53 792.022 1656 797.364 1639.94 803.439C1624.63 809.232 1608.63 816.577 1592.72 820.48C1590.53 821.019 1588.46 821.02 1586.23 820.759C1585.17 820.266 1584.11 819.762 1583.1 819.171C1576.2 815.141 1574.92 804.222 1573.16 797.106C1608.48 784.285 1643.55 770.584 1678.75 757.382Z"/><path fill="#DB6B60" transform="scale(1.37143 1.37207)" d="M1647.28 672.804L1649.25 673.049C1653.45 679.073 1655.68 689.529 1658.15 696.596C1623.93 708.809 1589.81 721.311 1555.79 734.104L1552.59 734.289C1548.45 730.873 1545.66 715.033 1543.66 709.311C1578.28 697.698 1613.4 686.386 1647.28 672.804Z"/><path fill="#DB6B60" transform="scale(1.37143 1.37207)" d="M1659.24 703.155C1662.6 705.095 1666.27 720.428 1667.64 724.665C1632.6 736.255 1597.65 749.306 1563.26 762.69L1562.21 762.395C1558.48 758.102 1556.55 747.151 1554.79 741.482C1589.83 729.282 1624.39 715.891 1659.24 703.155Z"/><path fill="#DB6B60" transform="scale(1.37143 1.37207)" d="M1669.13 730.627C1672.85 733.082 1675.38 746.439 1676.77 751.221C1641.3 763.238 1606.59 777.622 1571.36 790.373C1567.61 787.357 1565.41 774.125 1564.06 769.15C1599.24 756.744 1634.27 743.902 1669.13 730.627Z"/><path fill="#DB6B60" transform="scale(1.37143 1.37207)" d="M1631.6 650.729C1634.97 650.478 1638.62 650.969 1641.39 653.053C1645.39 656.066 1645.99 660.82 1646.82 665.403L1552.43 699.111C1550.13 699.996 1547.77 700.982 1545.41 701.678C1543.32 702.294 1542.44 702.215 1540.53 701.222C1539.09 697.317 1538.29 691.822 1540.02 687.921C1541.16 685.35 1542.98 683.338 1545.46 681.999C1554.5 677.104 1566.08 674.26 1575.82 670.862C1594.5 664.407 1613.1 657.695 1631.6 650.729Z"/><path fill="#273E56" transform="scale(1.37143 1.37207)" d="M1577.32 858.766C1578.37 858.686 1579.29 858.618 1580.31 858.934C1582.25 859.531 1583.59 860.829 1584.48 862.625C1587.07 867.853 1591.65 880.462 1590.11 886.031C1583.17 892.357 1554.42 900.311 1544.12 903.911C1543.89 903.864 1543.65 903.831 1543.42 903.771C1541.02 903.147 1538.68 902.296 1537.52 899.957C1534.76 894.362 1529.96 881.762 1531.93 875.97C1537.97 869.762 1567.52 861.754 1577.32 858.766Z"/><path fill="#273E56" transform="scale(1.37143 1.37207)" d="M1643.44 835.484C1644.71 835.383 1645.94 835.366 1647.17 835.778C1648.97 836.379 1650.31 837.655 1651.06 839.394C1652.82 843.49 1659.04 856.947 1657.34 860.685C1654.25 867.473 1621.85 876.482 1613.64 879.746C1613.05 879.82 1612.45 879.899 1611.86 879.898C1610.8 879.896 1609.02 879.367 1608.28 878.572C1604.34 874.338 1599.86 860.683 1600.13 854.962C1603.8 847.824 1634.88 838.825 1643.44 835.484Z"/><path fill="#A6D0BD" transform="scale(1.37143 1.37207)" d="M1601.39 608.964L1603.1 609.218C1605.9 613.511 1607.05 619.825 1608.54 624.737C1594.46 630.474 1579.8 635.009 1565.39 639.868L1563.72 639.125C1561.16 634.477 1559.93 628.991 1558.42 623.922C1572.64 618.641 1586.97 613.654 1601.39 608.964Z"/><path fill="white" transform="scale(1.37143 1.37207)" d="M1597.83 596.565C1598.58 596.946 1599.01 597.564 1599.57 598.182C1600.17 598.843 1599.86 599.598 1599.81 600.456C1594.67 605.798 1565.78 613.448 1557.14 616.164C1556.36 616.012 1555.53 615.509 1554.8 615.181L1554.4 613.06C1558.16 608.406 1590.16 599.057 1597.83 596.565Z"/><path fill="#273E56" transform="scale(1.37143 1.37207)" d="M1160.77 340.164C1234.72 331.501 1301.68 384.444 1310.34 458.411C1318.99 532.378 1266.05 599.353 1192.1 607.997C1118.16 616.639 1051.22 563.699 1042.57 489.746C1033.92 415.793 1086.84 348.826 1160.77 340.164Z"/><path fill="white" transform="scale(1.37143 1.37207)" d="M1160.65 349.854C1229.25 341.168 1291.91 389.75 1300.6 458.37C1309.3 526.99 1260.74 589.67 1192.13 598.376C1123.52 607.084 1060.84 558.499 1052.14 489.864C1043.45 421.229 1092.03 358.541 1160.65 349.854Z"/><path fill="#273E56" transform="scale(1.37143 1.37207)" d="M1164.07 355.379C1229.7 348.655 1288.37 396.405 1295.13 462.053C1301.88 527.701 1254.18 586.408 1188.55 593.204C1122.87 600.005 1064.12 552.242 1057.36 486.543C1050.59 420.843 1098.38 362.107 1164.07 355.379Z"/><path fill="white" transform="scale(1.37143 1.37207)" d="M1214.27 499.603C1234.85 496.262 1254.25 510.227 1257.62 530.811C1260.99 551.396 1247.06 570.821 1226.48 574.22C1205.87 577.626 1186.4 563.655 1183.03 543.03C1179.65 522.404 1193.64 502.952 1214.27 499.603Z"/><path fill="white" transform="scale(1.37143 1.37207)" d="M1171.89 361.041C1192.55 358.403 1211.45 373.004 1214.1 393.666C1216.76 414.328 1202.19 433.239 1181.53 435.922C1160.85 438.609 1141.91 424.002 1139.24 403.308C1136.58 382.614 1151.2 363.683 1171.89 361.041Z"/><path fill="white" transform="scale(1.37143 1.37207)" d="M1126.6 498.88C1147.05 496.673 1165.47 511.364 1167.87 531.805C1170.26 552.245 1155.75 570.801 1135.34 573.389C1114.65 576.011 1095.8 561.258 1093.37 540.546C1090.94 519.835 1105.87 501.118 1126.6 498.88Z"/><path fill="white" transform="scale(1.37143 1.37207)" d="M1242.69 415.953C1263 412.572 1282.23 426.229 1285.74 446.526C1289.25 466.823 1275.72 486.145 1255.45 489.782C1234.99 493.451 1215.47 479.768 1211.93 459.29C1208.39 438.811 1222.19 419.364 1242.69 415.953Z"/><path fill="white" transform="scale(1.37143 1.37207)" d="M1100.79 414.495C1121.46 412.943 1139.44 428.509 1140.88 449.191C1142.31 469.874 1126.65 487.775 1105.96 489.095C1085.44 490.403 1067.72 474.888 1066.3 454.369C1064.87 433.851 1080.28 416.035 1100.79 414.495Z"/><path fill="#D9D6CA" transform="scale(1.37143 1.37207)" d="M1172.31 452.101C1180.62 450.35 1189.22 453.198 1194.84 459.557C1200.46 465.917 1202.23 474.807 1199.48 482.835C1196.72 490.863 1189.86 496.791 1181.52 498.355C1168.83 500.738 1156.58 492.456 1154.05 479.783C1151.53 467.111 1159.67 454.767 1172.31 452.101Z"/><path fill="#273E56" transform="scale(1.37143 1.37207)" d="M1171.93 454.754C1183.25 451.86 1194.77 458.696 1197.66 470.021C1200.55 481.346 1193.71 492.868 1182.38 495.751C1171.07 498.632 1159.56 491.796 1156.67 480.479C1153.79 469.162 1160.62 457.647 1171.93 454.754Z"/><path fill="white" transform="scale(1.37143 1.37207)" d="M1173.1 463.652C1179.16 461.599 1185.76 464.73 1188.01 470.728C1190.26 476.725 1187.35 483.426 1181.43 485.872C1177.43 487.527 1172.84 486.867 1169.46 484.151C1166.08 481.434 1164.46 477.093 1165.21 472.825C1165.97 468.557 1168.99 465.041 1173.1 463.652Z"/><path fill="#273E56" transform="scale(1.37143 1.37207)" d="M797.732 244.083L800.977 244.856C803.385 246.996 804.679 250.015 806.003 252.893C819.723 282.703 831.219 314.176 843.052 344.8C845.399 350.874 850.722 360.736 851.776 366.803C852.036 368.304 851.89 368.547 850.986 369.708C841.318 371.667 788.73 360.242 775.703 357.473C782.354 373.669 790.335 390.332 794.942 407.235C785.842 413.053 584.011 484.804 577.612 484.195C574.051 481.077 572.503 473.898 570.993 469.438C567.853 458.143 562.201 446.552 557.994 435.553L531.414 365.67C528.062 357.037 520.33 341.917 519.724 332.868C519.675 332.143 519.528 331.867 520.023 331.33C522.262 328.9 525.608 327.527 528.621 326.326C549.049 318.184 570.411 311.848 591.078 304.238L683.273 270.053C695.801 265.382 720.503 253.767 732.912 252.877C739.589 258.685 747.893 289.627 753.14 299.617L753.584 300.449C768.621 281.998 783.857 263.425 797.732 244.083Z"/><path fill="white" transform="scale(1.37143 1.37207)" d="M727.929 263.23C732.072 266.839 777.557 385.793 783.708 402.649C761.069 412.772 736.473 420.257 713.008 428.376C670.277 443.161 627.329 457.616 585.013 473.544C583.695 473.856 583.496 473.733 582.203 473.268C576.191 460.627 571.809 446.909 566.714 433.855C554.19 401.279 541.902 368.612 529.849 335.858C559.321 324.556 589.199 314.183 618.796 303.196C655.036 289.745 691.337 275.661 727.929 263.23Z"/><path fill="#273E56" transform="scale(1.37143 1.37207)" d="M601.6 329.594C614.776 331.68 710.626 345.107 714.009 348.283C714.967 349.182 714.755 350.341 714.872 351.599C708.761 363.273 686.488 386.592 676.92 397.84C667.214 409.138 657.749 421.526 647.092 431.896C645.032 433.9 642.822 436.128 639.785 436.114C639.082 435.584 638.611 435.233 638.105 434.501C633.036 427.161 605.253 348.53 602.056 336.633C601.396 334.175 600.973 332.119 601.6 329.594Z"/><path fill="#DB6B60" transform="scale(1.37143 1.37207)" d="M613.124 340.315C642.632 345.819 672.488 349.32 702.117 354.069C692.346 366.997 681.022 379.028 670.723 391.59C661.96 402.523 652.198 412.865 642.924 423.381C632.237 396.295 620.834 368.361 613.124 340.315Z"/><path fill="white" transform="scale(1.37143 1.37207)" d="M798.451 258.43C803.322 265.024 806.315 276.41 809.402 284.116C819.476 309.265 829.034 334.622 839.266 359.705C827.366 358.227 815.429 355.803 803.594 353.817C793.296 351.401 782.664 349.907 772.243 348.07C766.963 335.686 762.262 323.063 757.457 310.49C770.794 292.873 784.985 275.949 798.451 258.43Z"/><path fill="#DB6B60" transform="scale(1.37143 1.37207)" d="M150.788 343.35C159.567 342.49 168.033 343.083 176.042 347.065C186.328 352.178 194.207 361.886 197.731 372.76C201.219 383.336 200.364 394.865 195.353 404.81C189.842 415.574 181.188 421.037 170.085 424.687C164.545 425.217 157.812 425.47 152.835 422.591C146.97 419.197 144.627 413.344 142.878 407.164C141.38 406.401 139.893 405.616 138.418 404.807C130.709 400.557 124.5 394.463 122.12 385.755C119.829 377.37 121.466 368.19 125.859 360.766C131.649 350.979 140.106 346.158 150.788 343.35Z"/><path fill="white" transform="scale(1.37143 1.37207)" d="M154.669 348.643C160.326 348.274 165.596 348.968 170.842 351.162C180.387 355.154 187.558 363.262 191.357 372.785C194.908 381.687 195.124 391.744 191.135 400.541C187.091 409.458 179.309 415.681 170.195 418.943C165.572 420.597 160.569 419.414 156.262 417.326C152.892 415.693 150.271 413.895 149.06 410.295C151.001 406.939 158.102 407.614 161.858 406.458C168.48 404.421 174.738 399.626 177.85 393.357C180.617 387.785 180.47 381.269 178.439 375.484C176.501 369.964 172.597 365.203 167.268 362.68C162.229 360.277 156.426 360.046 151.212 362.04C144.244 364.723 141.221 369.321 138.351 375.922C138.199 377.356 138.057 378.792 138.022 380.234C137.936 384.522 139.569 388.666 142.557 391.742C145.807 395.128 149.341 396.772 154.058 396.778C157.559 396.783 160.024 395.337 162.357 392.805C164.118 390.894 164.632 389.335 164.505 386.811C162.932 385.567 162.766 385.493 160.765 385.415C159.252 387.144 157.704 388.841 156.121 390.506C154.039 391.35 152.596 391.522 150.47 390.653C147.708 389.524 145.671 387.594 144.682 384.747C143.514 381.388 143.86 376.819 145.561 373.709C147.076 370.94 150.001 368.667 153.016 367.747C157.042 366.518 161.7 366.63 165.447 368.657C169.719 370.968 172.825 375.851 174.081 380.452C175.145 384.347 174.886 388.4 172.817 391.942C169.997 396.769 164.965 400.006 159.636 401.406C152.717 403.223 143.715 401.792 137.62 398.072C132.511 394.954 128.336 389.512 127.005 383.655C125.412 376.646 127.55 369.072 131.417 363.16C137.102 354.467 144.789 350.686 154.669 348.643Z"/><path fill="#273E56" transform="scale(1.37143 1.37207)" d="M1742.75 492.18C1744.63 492.654 1745.27 493.158 1746.5 494.631C1748.52 502.346 1742.48 519.41 1741.12 528.074C1747.11 532.412 1762.67 540.803 1766.03 546.857C1766.92 548.453 1766.64 548.79 1766.07 550.489C1759.57 555.531 1741.75 554.404 1733.58 554.816C1731.94 560.845 1727.84 582.775 1722.58 585.905C1721.44 586.587 1720.81 586.171 1719.59 585.919C1712.57 580.148 1708.2 566.281 1704.43 558.012C1701 553.847 1675.75 558.314 1668.8 553.859C1667.63 553.114 1667.8 552.565 1667.54 551.239C1670.46 545.361 1687.27 533.926 1692.84 529.878C1690.18 521.491 1683.83 507.611 1685.29 498.988C1685.76 498.393 1686.37 497.263 1687.11 497.12C1693.45 495.895 1709.3 507.997 1715.3 511.735C1724.29 504.992 1733.44 498.472 1742.75 492.18Z"/><path fill="#FBD38A" transform="scale(1.37143 1.37207)" d="M1740.92 499.486C1741.57 507.247 1737 521.956 1735.27 530.255C1743.28 535.979 1751.35 541.633 1759.46 547.216C1749.62 548.857 1739.41 549.8 1729.46 550.379C1726.83 560.321 1723.9 570.182 1720.68 579.947C1717.37 573.858 1710.58 554.882 1706.15 551.668C1695.67 551.348 1685.19 551.112 1674.7 550.961C1682.23 544.062 1690.46 538.047 1698.61 531.913C1695.07 521.99 1692.65 511.689 1689.07 501.743C1697.92 507.031 1706.85 512.212 1715.32 518.108C1723.51 511.467 1732.23 505.466 1740.92 499.486Z"/><path fill="#273E56" transform="scale(1.37143 1.37207)" d="M573.989 888.369C575.065 888.641 575.882 889.121 576.851 889.642C581.018 896.243 581.207 915.192 581.905 923.307C590.531 927.071 600.289 929.303 608.506 933.87C610.665 935.07 611.609 935.705 612.309 938.137C608.812 943.643 588.576 949.905 581.851 952.744C581.877 959.878 582.88 981.629 578.888 986.452C569.36 986.319 562.028 967.859 554.759 962.393C554.014 961.833 551.763 962.449 550.785 962.574C543.001 964.746 530.278 970.026 522.244 969.164C520.11 968.935 519.739 968.67 518.445 967.015C518.076 959.989 532.48 944.366 537.077 938.252C532.567 931.711 521.462 919.761 519.434 912.73C518.915 910.933 519.012 910.768 519.868 909.111C526.593 906.169 544.913 912.66 552.58 914.421C559.829 905.825 566.41 896.69 573.989 888.369Z"/><path fill="#FBD38A" transform="scale(1.37143 1.37207)" d="M573.725 895.747C576.273 900.703 576.606 920.274 576.873 926.804C586.781 930.315 596.654 933.921 606.492 937.623C596.938 941.672 587.077 945.224 577.402 948.989C576.926 959.666 576.867 970.384 576.645 981.071C569.198 973.127 562.659 964.783 556.637 955.711L550.525 957.399C541.543 959.952 532.493 962.302 523.48 964.746C529.41 955.647 536.424 947.096 542.529 938.061C536.703 929.346 530.579 920.835 524.168 912.542L554.151 920.003C560.997 912.172 566.801 903.508 573.725 895.747Z"/><path fill="#273E56" transform="scale(1.37143 1.37207)" d="M1000.31 199.391C1000.79 199.616 1001.09 199.744 1001.57 200.022C1007.86 203.63 1010.8 225.308 1012.85 232.573C1020.84 233.276 1030.7 234.823 1038.34 237.238C1040.66 237.973 1041.96 238.583 1043.08 240.805C1040.96 246.774 1022.32 255.346 1016.59 259.265C1018.22 267.34 1022.27 281.597 1019.51 289.282C1018.92 289.806 1018.08 290.837 1017.31 290.921C1010.18 291.701 997.719 279.216 992.222 274.608C982.344 274.196 970.959 289.267 960.904 286.139C958.085 279.203 968.003 261.409 970.986 254.329C966.571 249.841 953.086 238.832 951.94 232.761C951.689 231.436 952.304 231.01 953.019 229.955C960.28 226.227 974.778 228.391 982.973 228.622C987.397 219.088 992.945 206.998 1000.31 199.391Z"/><path fill="#FBD38A" transform="scale(1.37143 1.37207)" d="M1000.22 206.013C1003.58 209.783 1006.94 230.189 1008.32 236.111C1017.88 237.777 1027.41 239.585 1036.9 241.535C1028.63 246.596 1020.06 251.008 1011.88 256.271C1012.38 266.571 1014.52 276.929 1016.4 287.056C1007.5 281.727 1000.27 274.176 991.707 268.348L964.725 282.057C968.506 272.524 972.343 263.012 976.235 253.524C969.767 246.303 962.974 239.38 955.876 232.777C965.858 232.649 975.84 232.899 985.803 233.526C991.127 224.744 995.54 215.162 1000.22 206.013Z"/><path fill="#273E56" transform="scale(1.37143 1.37207)" d="M1118.62 866.891C1119.09 866.861 1119.56 866.836 1120.03 866.817C1130.7 866.397 1175.04 887.112 1183.49 894.537C1192.59 902.54 1198.09 914.331 1205.98 923.58C1214.44 933.5 1223.03 939.481 1232.12 948.138C1234.08 950.007 1234.9 951.334 1234.95 954.014C1231.85 960.217 1222.7 964.058 1216.95 967.37C1211.34 970.426 1197.47 979.743 1191.6 979.415C1189.79 979.314 1188.6 977.423 1187.95 975.863C1186.15 971.525 1185.84 966.287 1184.8 961.702C1181.83 948.564 1178.97 933.619 1173.4 921.334C1165.36 903.61 1145.59 890.848 1128.82 882.214C1124.41 879.945 1117.38 877.774 1114.07 874.132C1112.64 872.553 1112.75 872.258 1112.84 870.244C1114.46 868.068 1116.15 867.635 1118.62 866.891Z"/><path fill="#A6D0BD" transform="scale(1.37143 1.37207)" d="M1177.44 903.786C1184.43 910.428 1189.73 918.719 1196.11 925.933C1204.78 935.73 1214.66 944.466 1224.41 953.165C1215.05 958.937 1205.3 963.982 1195.58 969.11C1190.8 947.837 1188.09 924.654 1174.89 906.653L1177.44 903.786Z"/><path fill="#A6D0BD" transform="scale(1.37143 1.37207)" d="M1164.63 895.683C1169.13 898.131 1173.26 900.854 1177.44 903.786L1174.89 906.653L1164.63 895.683Z"/><path fill="#273E56" transform="scale(1.37143 1.37207)" d="M347.133 265.491C348.781 265.571 350.177 265.821 351.768 266.249C357.56 271.808 360.678 287.142 363.582 294.871C372.496 295.991 384.785 295.216 393.071 298.275C395.085 299.018 395.382 299.279 396.261 301.2C394.322 306.892 377.053 317.502 371.671 321.726C374.341 328.252 380.549 341.536 379.669 348.418C379.422 350.348 378.937 350.48 377.461 351.526C369.941 351.714 357.862 341.763 351.476 337.743C348.11 335.301 328.631 353.495 321.367 352.65C320.608 352.562 320.287 351.801 319.821 351.235C319.607 345.621 326.845 327.048 329.069 320.979C322.387 316.231 310.548 309.762 306.092 303.08C305.28 301.862 305.484 301.666 305.727 300.237C311.032 296.026 329.285 296.047 336.77 295.015C340.134 285.192 343.16 275.079 347.133 265.491Z"/><path fill="#FBD38A" transform="scale(1.37143 1.37207)" d="M349.725 271.774C353.441 275.493 357.939 293.339 360.645 299.237C370.348 299.79 380.068 300.992 389.742 301.943C382.394 308.279 373.999 313.811 366.195 319.593C369.439 328.902 372.343 338.354 375.39 347.73C367.278 342.518 359.292 337.11 351.441 331.511C351.317 331.48 351.196 331.43 351.069 331.417C346.735 330.975 329.375 344.884 325.01 348.052C327.957 338.47 331.019 328.924 334.194 319.415C326.952 313.274 319.099 307.705 311.542 301.951C320.887 301.128 330.236 300.362 339.59 299.65C343.883 290.853 346.787 281.091 349.725 271.774Z"/><path fill="#273E56" transform="scale(1.37143 1.37207)" d="M1329.92 678.974C1331.67 678.889 1332.89 679.059 1334.57 679.566C1339.41 684.265 1342.73 697.841 1343.92 704.472C1344.55 707.932 1344.9 711.429 1342.81 714.465C1334.97 719.736 1300.45 723.723 1289.33 725.642C1286.12 726.228 1281.26 727.634 1278.31 725.684C1274.85 723.386 1274.35 716.422 1273.57 712.605C1291.28 700.138 1311.35 690.211 1329.92 678.974Z"/><path fill="#A6D0BD" transform="scale(1.37143 1.37207)" d="M1333.71 702.503L1335.95 702.575C1337.36 704.631 1337.78 705.97 1337.92 708.455C1334.88 712.34 1293.99 717.05 1285.8 718.434L1282.66 718.528L1281.73 717.391C1287.07 710.729 1323.9 704.451 1333.71 702.503Z"/><path fill="#A6D0BD" transform="scale(1.37143 1.37207)" d="M1329.99 687.937L1330.88 687.901C1332.92 689.476 1333.31 692.699 1333.98 695.099C1326.02 697.264 1318.08 699.509 1310.17 701.831L1307.45 701.911C1309.22 697.71 1325.39 690.485 1329.99 687.937Z"/><path fill="#DB6B60" transform="scale(1.37143 1.37207)" d="M933.936 426.988C944.143 426.601 954.3 431.193 961.663 438.075C970.55 446.383 975.36 458.238 975.574 470.333C975.757 480.726 971.88 492.614 964.426 500.098C960.276 504.265 950.867 510.309 944.833 510.267L944.086 509.242C945.888 502.883 956.936 500.342 961.531 495.047C967.853 487.761 970.862 476.743 970.099 467.221C969.279 456.98 964.7 447.38 956.755 440.77C950.147 435.273 940.702 431.247 931.971 432.238C923.3 433.222 914.12 439.426 908.911 446.273C904.388 452.218 902.324 459.387 903.381 466.808C904.489 474.484 908.646 481.388 914.91 485.958C919.789 489.455 925.929 491.183 931.894 490.094C939.559 488.694 944.312 483.884 948.606 477.736C949.535 475.491 950.348 472.734 950.371 470.283C950.418 465.07 948.196 459.843 944.543 456.143C941.422 452.982 937.19 450.908 932.688 451.042C928.432 451.169 924.696 453.365 921.837 456.41C919.063 459.367 917.315 463.271 917.664 467.393C917.907 470.255 920.186 474.533 922.471 476.394C928.855 481.594 932.914 471.444 938.589 470.637L939.769 471.916C939.627 473.751 939.166 475.116 938.233 476.68C936.505 479.577 934.547 481.322 931.181 482.141C927.582 483.017 923.781 482.519 920.652 480.51C916.663 477.949 913.569 473.438 912.701 468.785C911.792 463.911 913.099 458.961 915.887 454.92C919.187 450.185 924.252 446.978 929.943 446.02C935.536 445.094 941.428 446.743 946.004 450.024C951.16 453.722 954.237 459.492 955.128 465.712C956.117 472.645 954.264 479.683 949.989 485.23C945.78 490.86 939.493 494.572 932.53 495.536C924.598 496.573 915.849 493.729 909.595 488.857C902.899 483.64 898.959 475.86 897.95 467.492C896.864 458.485 899.523 449.726 905.124 442.631C912.37 433.453 922.446 428.305 933.936 426.988Z"/><path fill="#DB6B60" transform="scale(1.37143 1.37207)" d="M1393.82 314.814C1403.29 314.129 1411.97 314.554 1419.83 320.622C1427.01 326.168 1431.84 335.289 1432.99 344.231C1434.27 354.217 1430.76 364.507 1424.62 372.358C1418.71 380.023 1409.91 384.915 1400.28 385.885C1389.12 387.071 1377.71 383.077 1369.08 376.029C1359.01 367.803 1352.97 355.517 1351.73 342.647C1351.16 336.809 1351.14 325.844 1355.07 321.141L1356.25 321.116C1359.64 325.516 1356.12 340.769 1357.73 348.352C1360.02 359.161 1366.31 368.346 1375.69 374.229C1384.05 379.479 1393.77 381.77 1403.49 379.465C1411.62 377.537 1418.99 372.744 1423.29 365.478C1427.92 357.659 1428.77 348.761 1426.61 340.073C1425.77 337.861 1424.79 335.707 1423.66 333.625C1420.24 327.389 1414.09 322.489 1407.24 320.614C1401.22 318.969 1394.97 319.64 1389.56 322.796C1382.04 327.185 1379.19 334.362 1377.04 342.326C1379.12 349.912 1381.65 355.707 1388.65 359.91C1392.71 362.351 1397.99 363.341 1402.6 362.044C1406.57 360.926 1409.54 358.041 1411.44 354.447C1412.81 351.867 1415.03 346.685 1414.04 343.831C1413.95 343.586 1413.84 343.352 1413.75 343.109C1413.63 342.793 1413.53 342.472 1413.42 342.155C1412.22 338.802 1410.1 336.028 1406.72 334.621C1404.06 333.516 1400.88 333.467 1398.23 334.612C1389.22 338.505 1394.54 343.871 1392.43 348.86L1390.72 349.508C1389.13 348.796 1388.53 348.56 1387.6 346.973C1386.2 344.604 1386.72 341.388 1387.46 338.865C1388.6 334.991 1391.19 332.52 1394.66 330.69C1398.91 328.449 1402.94 328.036 1407.52 329.503C1411.91 330.909 1415.43 333.759 1417.46 337.927C1419.79 342.68 1419.87 348.365 1418.05 353.293C1415.97 358.966 1411.7 363.568 1406.2 366.069C1400.6 368.569 1393.49 368.244 1387.86 366.002C1381.6 363.511 1377.19 358.7 1374.67 352.508C1371.88 345.861 1371.88 338.369 1374.69 331.726C1378.51 322.722 1385.08 318.301 1393.82 314.814Z"/><path fill="#DB6B60" transform="scale(1.37143 1.37207)" d="M1587.96 376.209C1596.94 375.802 1605.07 377.495 1612.66 382.437C1623.67 389.604 1630.77 401.358 1633.43 414.09C1634.79 420.598 1636.47 432.053 1632.06 437.793C1630.68 439.577 1629.82 440.2 1627.66 440.587L1627.05 439.874C1626.35 436.366 1627.69 432.887 1628.26 429.43C1630.13 418.152 1627.57 406.612 1620.66 397.446C1614.57 389.361 1605.58 383.499 1595.47 382.102C1586.78 380.9 1577.59 383.059 1570.65 388.515C1563.7 393.972 1559.65 402.056 1558.68 410.773C1557.9 417.765 1559.13 425.209 1563.66 430.787C1568.09 436.238 1574.9 439.582 1581.84 440.243C1588.44 440.86 1595.01 438.75 1600.02 434.402C1603.92 431.038 1606.63 426.574 1606.92 421.352C1607.23 415.862 1604.78 409.437 1601 405.45C1597.29 401.524 1592.23 401.25 1587.18 401.119C1585.03 402.031 1582.86 402.944 1581.1 404.515C1577.39 407.837 1574.94 413.012 1574.8 418.007C1574.72 420.737 1575.51 423.688 1577.58 425.583C1579.7 427.517 1583.63 428.882 1586.55 428.47C1591.56 427.762 1593.77 420.834 1596.24 417.091L1597.58 417.1L1599.33 420.037C1599.67 421.895 1599.25 423.236 1598.5 424.91C1596.83 428.672 1594.34 431.796 1590.29 433.155C1586.61 434.392 1582.21 433.805 1578.78 432.075C1574.64 429.989 1571.73 426.339 1570.32 421.954C1568.81 417.263 1569.4 412.159 1571.67 407.812C1574.47 402.448 1579.31 398.435 1585.09 396.677C1590.09 395.15 1595.48 395.705 1600.06 398.216C1605.47 401.143 1609.46 406.14 1611.12 412.064C1612.96 418.932 1611.93 426.255 1608.26 432.344C1604.5 438.709 1598.07 443.855 1590.82 445.555C1582.69 447.461 1573.23 444.738 1566.38 440.252C1559.7 435.882 1555.57 429.199 1553.99 421.438C1552.03 411.834 1553.71 401.808 1559.2 393.642C1566.12 383.34 1576.09 378.48 1587.96 376.209Z"/><path fill="#DB6B60" transform="scale(1.37143 1.37207)" d="M1485.61 507.64C1488.91 507.362 1492.32 507.214 1495.61 507.67C1505.42 509.031 1515.22 514.143 1521.25 522.088C1527.02 529.842 1529.43 539.592 1527.94 549.145C1526.04 561.443 1518.24 571.816 1508.33 578.986C1499.63 585.281 1480.75 593.733 1469.61 591.8C1468.65 591.634 1468.17 590.508 1467.61 589.738L1468.02 587.906C1471.96 585.218 1478.9 585.769 1483.65 584.464C1497.24 580.729 1512.02 572.514 1519.1 559.97C1523.22 552.69 1524.29 543.032 1521.97 535.016C1519.74 527.333 1514.52 521.179 1507.55 517.337C1500.04 513.196 1491.03 511.602 1482.73 514.145C1475.66 516.308 1469.45 520.974 1466.07 527.621C1462.62 534.41 1462.76 541.806 1465.01 548.9C1466.37 551.559 1468.1 554.114 1470.18 556.258C1473.57 559.734 1478.45 561.657 1483.26 561.742C1488.63 561.836 1493.95 559.488 1497.73 555.708C1500.88 552.56 1503.13 548.356 1503.05 543.815C1502.97 539.504 1500.77 535.983 1497.71 533.103C1494.88 530.445 1491.44 528.672 1487.45 528.96C1483.95 529.216 1480.72 530.912 1478.52 533.642C1476.48 536.132 1475.87 538.94 1476.24 542.093C1477.41 552.045 1486.54 544.398 1491.12 548.044L1490.9 550.153C1490.05 551.206 1489.16 552.284 1487.93 552.908C1485.67 554.051 1482.75 554.207 1480.35 553.442C1477.2 552.437 1474.05 550.187 1472.6 547.16C1470.76 543.307 1470.6 539.11 1472.04 535.108C1473.76 530.462 1477.3 526.724 1481.85 524.767C1485.92 523.012 1490.31 523 1494.41 524.666C1499.68 526.807 1504.16 530.753 1506.27 536.104C1508.39 541.491 1507.91 547.706 1505.52 552.922C1502.76 558.964 1497.56 563.907 1491.25 566.069C1484.62 568.337 1477.78 567.083 1471.67 563.94C1465.51 560.774 1461.13 555.822 1459.13 549.15C1456.69 541.019 1457.85 531.619 1461.99 524.238C1467.27 514.814 1475.64 510.571 1485.61 507.64Z"/><path fill="#273E56" transform="scale(1.37143 1.37207)" d="M121.593 908.077L123.543 909.299C125.804 914.798 121.849 925.571 120.473 931.194C124.672 934.681 134.226 938.677 136.047 943.786C132.204 947.759 121.31 947.289 115.935 947.76C114.137 952.961 112.052 962.527 107.483 965.864C102.96 964.63 98.6749 952.814 96.0639 948.654C90.8549 948.91 79.5807 950.803 75.4206 947.303C76.2827 942.072 85.9832 936.109 90.2181 932.745C88.228 927.262 83.1251 917.289 85.4202 911.848C85.7061 911.777 85.9879 911.686 86.278 911.634C90.4476 910.894 101.384 919.211 105.213 921.647C110.176 916.551 115.953 912.383 121.593 908.077Z"/><path fill="#FBD38A" transform="scale(1.37143 1.37207)" d="M118.929 914.464C119.708 920.796 117.42 926.557 115.335 932.409L130.435 942.941C124.717 943.12 118.999 943.679 113.296 944.129L106.936 960.824C104.856 956.421 101.422 946.474 97.0714 944.67C91.4179 945.434 85.6968 945.629 80.0043 945.943C85.1106 941.882 90.0991 937.675 94.9637 933.327L87.9495 915.221L105.365 926.334C110.03 922.603 114.441 918.415 118.929 914.464Z"/><path fill="#DB6B60" transform="scale(1.37143 1.37207)" d="M648.627 557.548C659.689 557.066 669.807 558.312 678.32 566.182C685.492 572.813 689.145 582.69 689.427 592.331C689.768 603.953 685.011 614.787 677.012 623.101C670.585 629.781 655.848 639.33 645.934 639.173C644.166 639.145 644.019 639.039 642.772 637.805C642.884 636.282 642.579 635.376 644.006 634.447C645.872 633.234 649.018 632.706 651.171 632.11C659.052 629.93 665.46 626.83 671.536 621.223C679.17 614.178 684.109 604.275 684.341 593.809C684.524 585.497 681.502 576.697 675.665 570.688C670.199 565.061 662.281 562.321 654.533 562.284C645.972 562.244 637.504 566.031 631.566 572.147C626.722 577.136 623.501 583.757 623.789 590.813C624.106 598.593 628.432 604.456 633.945 609.515C635.113 610.236 636.317 610.897 637.551 611.496C642.001 613.656 648.792 614.547 653.538 612.837C657.76 611.317 660.893 607.775 662.727 603.769C664.982 598.841 665.338 593.39 663.309 588.328C661.759 584.464 658.62 580.623 654.616 579.155C651.608 578.052 648.213 578.537 645.412 579.996C641.592 581.986 637.535 584.986 636.189 589.232C636.547 597.679 646.776 596.139 650.532 601.204L649.922 602.673C647.096 604.047 644.119 603.834 641.209 602.853C637.958 601.756 635.248 599.648 633.828 596.457C631.967 592.278 632.576 586.831 634.414 582.748C636.082 579.041 639.09 576.358 642.882 574.954C647.872 573.107 653.477 573.678 658.254 575.88C663.436 578.269 667.757 582.676 669.602 588.123C671.496 593.718 670.79 600.251 668.043 605.437C664.834 611.493 658.318 616.288 651.78 618.155C645.818 619.858 639.691 618.952 634.32 615.903C627.325 611.932 622.125 604.795 620.144 597.031C618.163 589.218 619.357 580.938 623.465 574.002C629.056 564.592 638.444 560.165 648.627 557.548Z"/><path fill="#DB6B60" transform="scale(1.37143 1.37207)" d="M62.4969 510.069C72.7013 508.642 82.1451 515.718 83.6448 525.914C85.1444 536.111 78.1381 545.607 67.9552 547.18C57.6685 548.77 48.0562 541.674 46.5413 531.374C45.0263 521.074 52.1885 511.51 62.4969 510.069Z"/><path fill="white" transform="scale(1.37143 1.37207)" d="M61.4047 517.005C67.9517 514.895 74.9655 518.513 77.0426 525.072C79.1197 531.631 75.4678 538.629 68.9003 540.674C62.3784 542.705 55.4415 539.083 53.3788 532.57C51.3161 526.056 54.903 519.1 61.4047 517.005Z"/><path fill="#DB6B60" transform="scale(1.37143 1.37207)" d="M1216.78 215.567C1222.6 213.859 1228.88 215.115 1233.59 218.925C1238.3 222.736 1240.84 228.617 1240.38 234.659C1239.8 242.442 1234.38 249.014 1226.86 251.076C1221.32 252.594 1215.39 251.444 1210.81 247.966C1206.24 244.488 1203.55 239.078 1203.53 233.333C1203.51 225.121 1208.91 217.88 1216.78 215.567Z"/><path fill="white" transform="scale(1.37143 1.37207)" d="M1220.55 220.861C1227.29 220.21 1233.35 224.977 1234.3 231.68C1235.25 238.383 1230.76 244.649 1224.11 245.899C1219.53 246.759 1214.85 245.036 1211.93 241.413C1209 237.791 1208.3 232.854 1210.1 228.56C1211.9 224.266 1215.92 221.309 1220.55 220.861Z"/><path fill="#DB6B60" transform="scale(1.37143 1.37207)" d="M1379.18 546.929L1380.97 544.775C1382.3 544.694 1382.76 544.406 1383.77 545.313C1387.3 548.465 1388.89 556.424 1390.31 560.902C1395.13 560.185 1401.46 558.905 1406.03 561.155L1406.88 562.652L1405.8 564.754C1402.76 567.951 1398.85 570.625 1395.4 573.378C1396.6 576.68 1398.09 580.153 1398.9 583.562C1399.44 585.824 1398.97 586.894 1397.89 588.785L1395.47 589.325C1390.73 588.487 1386.41 584.978 1382.43 582.391C1379.26 585.801 1376.02 589.93 1371.2 590.778C1370.01 590.289 1369.49 590.323 1368.95 589.134C1367.13 585.174 1370.38 578.823 1371.81 574.975C1369.37 573.546 1366.92 572.121 1364.55 570.585C1362.14 569.028 1360.95 567.761 1360.36 564.972L1361.86 563.274C1366.11 561.345 1371.55 561.831 1376.16 561.755C1376.78 556.717 1377.99 551.853 1379.18 546.929Z"/><path fill="white" transform="scale(1.37143 1.37207)" d="M1381.98 554.465C1384.1 557.782 1385.34 560.985 1386.54 564.724C1390.28 564.857 1394.28 564.739 1397.93 565.519C1394.52 567.573 1391.95 569.879 1389.18 572.736L1394.35 583.406L1383 576.414C1381 578.393 1378.11 581.863 1375.19 582.069C1374.47 579.293 1376.44 576.091 1377.52 573.539C1374.27 570.974 1370.74 568.675 1367.36 566.28L1379.76 565.339L1381.98 554.465Z"/><path fill="#DB6B60" transform="scale(1.37143 1.37207)" d="M1379.18 546.929L1380.97 544.775C1382.3 544.694 1382.76 544.406 1383.77 545.313C1387.3 548.465 1388.89 556.424 1390.31 560.902C1395.13 560.185 1401.46 558.905 1406.03 561.155L1406.88 562.652L1405.8 564.754C1403.04 564.58 1400.43 564.105 1397.93 565.519C1394.28 564.739 1390.28 564.857 1386.54 564.724C1385.34 560.985 1384.1 557.782 1381.98 554.465C1381.57 552.184 1383.22 550.91 1382.83 548.825L1379.18 546.929Z"/><path fill="#DB6B60" transform="scale(1.37143 1.37207)" d="M350.256 925.754C360.044 923.241 370.021 929.122 372.564 938.906C375.107 948.69 369.257 958.687 359.483 961.26C349.668 963.844 339.621 957.961 337.067 948.136C334.513 938.31 340.425 928.278 350.256 925.754Z"/><path fill="white" transform="scale(1.37143 1.37207)" d="M349.584 932.229C355.979 929.44 363.421 932.403 366.15 938.825C368.879 945.247 365.848 952.663 359.402 955.333C353.04 957.968 345.744 954.984 343.05 948.646C340.357 942.307 343.272 934.982 349.584 932.229Z"/><path fill="#DB6B60" transform="scale(1.37143 1.37207)" d="M687.766 942.833C694.108 941.213 700.83 943.13 705.364 947.851C709.899 952.571 711.544 959.367 709.672 965.64C707.799 971.913 702.698 976.693 696.318 978.155C686.624 980.375 676.946 974.387 674.605 964.718C672.264 955.05 678.13 945.296 687.766 942.833Z"/><path fill="white" transform="scale(1.37143 1.37207)" d="M688.352 949.004C692.656 947.531 697.42 948.513 700.793 951.567C704.165 954.621 705.613 959.266 704.575 963.696C703.536 968.126 700.175 971.643 695.797 972.88C689.277 974.721 682.476 971.035 680.459 964.566C678.441 958.096 681.941 951.196 688.352 949.004Z"/><path fill="#DB6B60" transform="scale(1.37143 1.37207)" d="M1722.59 933.757C1732.31 932.887 1740.98 939.866 1742.2 949.551C1743.42 959.235 1736.77 968.152 1727.14 969.727C1720.59 970.799 1713.97 968.206 1709.9 962.968C1705.82 957.729 1704.93 950.681 1707.58 944.593C1710.22 938.505 1715.98 934.349 1722.59 933.757Z"/><path fill="white" transform="scale(1.37143 1.37207)" d="M1722.46 940.13C1728.91 939.26 1734.88 943.705 1735.9 950.14C1736.92 956.575 1732.61 962.645 1726.2 963.81C1721.93 964.588 1717.56 962.987 1714.8 959.627C1712.04 956.268 1711.31 951.676 1712.9 947.628C1714.49 943.58 1718.15 940.71 1722.46 940.13Z"/><path fill="#DB6B60" transform="scale(1.37143 1.37207)" d="M1755.13 664.369C1761.39 662.537 1768.15 664.22 1772.82 668.773C1777.49 673.326 1779.34 680.042 1777.67 686.346C1776 692.65 1771.06 697.563 1764.75 699.202C1755.2 701.682 1745.42 696.036 1742.8 686.521C1740.17 677.005 1745.66 667.143 1755.13 664.369Z"/><path fill="white" transform="scale(1.37143 1.37207)" d="M1756.23 670.594C1762.4 668.415 1769.17 671.671 1771.32 677.855C1773.47 684.039 1770.18 690.791 1763.99 692.912C1757.84 695.018 1751.14 691.756 1749.01 685.614C1746.87 679.472 1750.1 672.759 1756.23 670.594Z"/><path fill="#DB6B60" transform="scale(1.37143 1.37207)" d="M865.863 137.388C873.257 135.148 881.255 137.876 885.74 144.167C890.226 150.458 890.199 158.91 885.675 165.173C883.327 168.422 879.962 170.795 876.113 171.916C866.602 174.685 856.641 169.248 853.821 159.75C851.002 150.252 856.382 140.259 865.863 137.388Z"/><path fill="white" transform="scale(1.37143 1.37207)" d="M866.713 142.802C873.244 140.421 880.472 143.766 882.886 150.287C885.299 156.808 881.991 164.054 875.484 166.5C868.931 168.964 861.624 165.627 859.193 159.06C856.763 152.493 860.135 145.201 866.713 142.802Z"/><path fill="#DB6B60" transform="scale(1.37143 1.37207)" d="M1184.95 671.539C1191.13 669.597 1197.88 671.159 1202.59 675.621C1207.29 680.082 1209.21 686.742 1207.6 693.024C1205.99 699.305 1201.11 704.222 1194.84 705.871C1185.45 708.339 1175.82 702.863 1173.13 693.537C1170.44 684.211 1175.69 674.445 1184.95 671.539Z"/><path fill="white" transform="scale(1.37143 1.37207)" d="M1187.74 676.655C1194.49 675.177 1201.15 679.456 1202.62 686.208C1204.09 692.959 1199.79 699.619 1193.04 701.073C1186.31 702.523 1179.67 698.245 1178.21 691.511C1176.75 684.777 1181.01 678.13 1187.74 676.655Z"/><path fill="#DB6B60" transform="scale(1.37143 1.37207)" d="M50.2637 773.825C56.4878 772.193 63.1072 774.064 67.5566 778.713C72.0059 783.362 73.5859 790.059 71.6841 796.207C69.7823 802.356 64.6977 806.99 58.4009 808.313C48.9905 810.291 39.7204 804.401 37.5118 795.04C35.3031 785.679 40.9621 776.264 50.2637 773.825Z"/><path fill="white" transform="scale(1.37143 1.37207)" d="M53.2737 779.232C59.6938 778.492 65.5241 783.03 66.3845 789.436C67.2448 795.843 62.8184 801.759 56.4307 802.74C52.1905 803.391 47.9294 801.701 45.2877 798.32C42.646 794.939 42.0357 790.395 43.6918 786.437C45.3479 782.478 49.0121 779.723 53.2737 779.232Z"/><path fill="#DB6B60" transform="scale(1.37143 1.37207)" d="M985.663 552.215C995.064 550.484 1004.14 556.534 1006.16 565.879C1008.18 575.224 1002.41 584.484 993.137 586.792C986.877 588.349 980.266 586.375 975.884 581.64C971.502 576.904 970.044 570.159 972.079 564.036C974.114 557.914 979.319 553.384 985.663 552.215Z"/><path fill="white" transform="scale(1.37143 1.37207)" d="M984.741 557.707C991.114 555.543 998.043 558.908 1000.28 565.256C1002.52 571.604 999.245 578.575 992.926 580.893C988.77 582.419 984.114 581.59 980.739 578.725C977.363 575.86 975.789 571.4 976.617 567.05C977.445 562.699 980.548 559.131 984.741 557.707Z"/><path fill="#DB6B60" transform="scale(1.37143 1.37207)" d="M753.817 492.204C759.845 490.223 766.473 491.654 771.148 495.946C775.823 500.238 777.815 506.721 776.358 512.898C774.901 519.075 770.221 523.983 764.121 525.732C754.936 528.365 745.334 523.159 742.526 514.024C739.719 504.888 744.739 495.186 753.817 492.204Z"/><path fill="white" transform="scale(1.37143 1.37207)" d="M755.003 497.339C759.142 495.821 763.778 496.651 767.135 499.51C770.492 502.369 772.051 506.814 771.214 511.144C770.377 515.474 767.274 519.018 763.093 520.419C756.753 522.544 749.883 519.18 747.67 512.869C745.458 506.558 748.724 499.639 755.003 497.339Z"/><path fill="#273E56" transform="scale(1.37143 1.37207)" d="M1403.16 665.799C1403.3 665.922 1403.45 666.038 1403.59 666.169C1406.28 668.802 1410.93 684.511 1411.01 688.612C1408.76 692.496 1384.09 699.848 1378.59 701.8C1374.35 698.406 1371.33 683.401 1369.63 677.763C1380.79 673.717 1391.96 669.729 1403.16 665.799Z"/><path fill="#A6D0BD" transform="scale(1.37143 1.37207)" d="M1398.9 674.65L1399.77 674.964C1402.04 677.696 1402.97 682.121 1404.05 685.503C1396.86 688.468 1389.49 691.004 1382.17 693.617C1379.93 691.023 1378.76 685.47 1377.6 682.17L1398.9 674.65Z"/><path fill="#273E56" transform="scale(1.37143 1.37207)" d="M1460.57 645.271C1461.79 645.147 1462.76 645.615 1463.87 646.041C1466.79 651.628 1470.64 660.647 1469.59 666.946C1468.85 668.396 1468.08 669.586 1466.65 670.439C1462.52 672.907 1447.85 676.742 1441.65 679.363L1439.69 679.711C1435.66 677.466 1431.92 661.469 1429.89 656.488C1439.82 652.255 1450.45 649.096 1460.57 645.271Z"/><path fill="#A6D0BD" transform="scale(1.37143 1.37207)" d="M1458.37 653.45L1459.12 653.62C1461.71 655.805 1463.02 660.785 1464.28 663.956L1443.07 671.916C1440.41 669.859 1438.84 663.786 1437.56 660.619C1444.45 657.929 1451.24 655.414 1458.37 653.45Z"/><path fill="#273E56" transform="scale(1.37143 1.37207)" d="M1519.7 625.761C1521.93 625.883 1521.98 626.037 1523.63 627.573C1525.52 633.837 1529.94 641.157 1527.59 647.7C1523.55 653.19 1507.17 656.336 1500.42 658.625L1498.92 658.242C1494.49 653.939 1492.46 641.729 1490.84 635.792C1500.23 632.065 1510.15 629.068 1519.7 625.761Z"/><path fill="#A6D0BD" transform="scale(1.37143 1.37207)" d="M1517.25 633.791C1517.36 633.823 1517.49 633.822 1517.58 633.886C1519.82 635.435 1521.14 641.616 1522.07 644.316L1502.98 650.221C1500.81 647.95 1499.57 643.584 1498.34 640.649L1517.25 633.791Z"/></svg>