<?xml version="1.0" encoding="utf-8" ?><svg xmlns="http://www.w3.org/2000/svg" xmlns:xlink="http://www.w3.org/1999/xlink" width="200" height="250" viewBox="0 0 200 250"><path fill="#FDF4E4" transform="scale(0.195312 0.195312)" d="M0 0L1024 0L1024 1280L0 1280L0 0Z"/><path fill="#23212B" transform="scale(0.195312 0.195312)" d="M352.135 369.093C353.932 369.24 355.126 369.295 356.616 370.363C356.815 370.901 357.134 371.409 357.213 371.977C357.638 375.029 339.003 431.539 335.998 440.87C351.058 440.252 364.1 443.829 377.744 449.857C400.219 442.245 423.746 436.633 446.624 430.282C463.029 425.727 479.564 420.015 496.18 416.448C499.207 415.798 502.067 415.337 505.166 415.705C513.306 416.671 520.708 422.161 525.516 428.568C531.975 437.177 535.582 448.828 539.397 458.839C549.211 484.586 558.156 510.739 564.514 537.576C568.339 553.722 570.97 570.218 573.689 586.581C575.783 599.183 579.051 614.454 577.129 627.161C575.765 636.177 569.97 641.853 562.937 647.067C564.981 653.137 567.589 659.514 568.676 665.818C529.664 674.741 491.218 686.182 452.692 696.977L318.945 733.828C298.975 739.31 279.089 745.405 258.961 750.27L190.789 769.36C187.639 764.584 186.142 758.062 184.151 752.688C177.95 752.094 172.09 751.058 166.6 747.961C161.954 745.34 158.226 741.603 155.269 737.191C143.386 719.459 128.823 671.752 122.68 649.908C115.136 623.083 109.062 596.579 105.326 568.93C104.311 561.423 102.752 553.43 103.327 545.863C103.694 541.509 105.001 537.287 107.158 533.487C109.636 529.186 113.705 525.593 118.191 523.486C131.834 517.077 150.289 513.636 165.001 509.361C204.732 497.924 244.523 486.695 284.371 475.675C292.94 462.213 301.086 452.961 315.589 445.809C300.472 433.792 286.334 420.426 272.585 406.89C268.959 403.32 264.688 400.107 261.409 396.23C260.025 394.593 259.084 393.319 259.224 391.128C260.191 389.829 260.45 389.71 261.957 389.084C264.977 390.042 268.619 394.84 270.904 397.099C287.159 413.167 304.194 429.305 322.213 443.371L329.098 441.662L352.135 369.093Z"/><path fill="#D15246" transform="scale(0.195312 0.195312)" d="M503.649 421.479C510.254 422.383 516.056 426.447 520.239 431.512C526.718 439.357 529.895 450.427 533.493 459.827C545.216 490.458 555.365 522.079 562.097 554.203C564.584 566.068 566.272 578.21 568.151 590.19C569.861 601.094 572.549 613.562 571.344 624.569C570.657 630.845 568.25 635.543 563.227 639.461C558.621 643.054 553.069 645.6 547.553 647.44C539.658 650.074 531.383 651.933 523.344 654.098L490.393 663.317L383.005 693.263L264.422 725.885C239.537 732.776 214.569 740.697 189.338 746.171C185.421 747.02 181.784 746.768 177.839 746.288C173.89 744.839 170.368 743.421 166.979 740.844C163.123 737.912 160.334 734.174 157.944 729.997C153.073 721.485 149.86 711.774 146.409 702.609C134.461 670.699 124.784 637.985 117.453 604.71C114.329 590.305 112.206 575.594 110.249 560.989C109.058 552.098 108.295 541.16 114.333 533.692C116.878 530.545 120.336 528.488 124.121 527.193C133.822 523.873 143.988 521.432 153.87 518.654L199.935 505.477L368.549 458.214L455.969 433.868C470.034 429.91 489.695 422.668 503.649 421.479Z"/><path fill="#23212B" transform="scale(0.195312 0.195312)" d="M295.841 491.389C302.305 490.818 308.555 491.81 314.056 495.463C317.885 498.006 319.863 501.119 321.589 505.252C327.773 520.059 332.365 541.81 336.911 557.818L352.621 614.651C355.975 626.75 359.906 638.856 362.372 651.168C363.988 659.241 363.869 668.561 359.015 675.607C356.384 679.425 352.21 682.862 347.989 684.766C337.169 689.646 324.918 692.569 313.558 695.955C292.176 702.39 270.72 708.577 249.194 714.513C229.919 719.895 210.61 726.871 190.955 730.635C184.854 730.758 178.763 730.337 173.531 726.843C170.077 724.536 167.681 721.454 165.711 717.844C160.775 708.798 157.96 698.141 154.712 688.392C144.089 656.968 135.328 624.946 128.475 592.492C125.593 579.012 118.003 555.923 125.94 543.931C128.41 540.2 132.067 536.192 136.205 534.317C143.256 531.123 151.86 529.431 159.343 527.41C177.392 522.537 195.558 518.166 213.645 513.446C241.01 506.305 268.211 497.257 295.841 491.389Z"/><path fill="#FDF4E4" transform="scale(0.195312 0.195312)" d="M298.548 496.98C303.191 496.537 307.644 497.979 311.223 500.972C313.858 503.177 315.178 505.526 316.389 508.669C319.829 517.6 322.092 527.066 324.669 536.278L336.341 577.784L349.492 624.671C352.464 635.294 356.679 646.929 357.449 657.955C357.837 663.519 355.802 669.931 352.148 674.131C349.614 677.042 346.512 679.188 342.933 680.626C332.697 684.738 321.55 687.41 310.961 690.512C291.52 696.229 272.046 701.836 252.542 707.333L213.745 718.438C205.551 720.774 196.767 724.009 188.265 724.684C184.559 724.537 180.898 723.952 177.624 722.117C175.046 720.672 173.135 718.578 171.666 716.044C167.604 709.04 165.298 700.51 162.673 692.851C157.864 679.139 153.428 665.299 149.368 651.347C143.058 628.928 137.532 606.297 132.8 583.493C130.971 574.841 127.978 564.62 128.26 555.82C128.347 553.098 129.353 550.347 130.721 548.019C132.688 544.674 136.151 540.987 139.73 539.445C146.63 536.475 154.496 534.873 161.73 532.902C177.984 528.473 194.309 524.468 210.633 520.317C240.001 512.849 269.107 504.061 298.548 496.98Z"/><path fill="#23212B" transform="scale(0.195312 0.195312)" d="M233.924 531.463C279.281 527.595 319.189 561.216 323.065 606.561C326.941 651.907 293.319 691.81 247.962 695.692C202.596 699.576 162.673 665.952 158.796 620.596C154.919 575.241 188.557 535.332 233.924 531.463Z"/><path fill="#FDF4E4" transform="scale(0.195312 0.195312)" d="M234.198 537.57C276.227 533.8 313.359 564.799 317.143 606.817C320.928 648.834 289.933 685.967 247.906 689.764C205.861 693.563 168.698 662.559 164.912 620.522C161.126 578.485 192.149 541.342 234.198 537.57Z"/><path fill="#23212B" transform="scale(0.195312 0.195312)" d="M234.918 542.654C274.431 539.246 309.188 568.596 312.438 608.112C315.687 647.629 286.191 682.26 246.652 685.35C207.337 688.422 172.937 659.137 169.706 619.844C166.475 580.551 195.629 546.042 234.918 542.654Z"/><path fill="#547B7C" transform="scale(0.195312 0.195312)" d="M284.731 566.207C295.632 574.63 302.897 589.357 305.493 602.653C309.179 621.527 304.753 638.458 294.149 654.191L284.227 645.984C275.731 639.216 267.959 631.597 259.355 624.963C260.055 622.849 260.676 620.756 261.04 618.554C262.273 611.096 259.988 605.88 255.757 599.962C264.844 588.304 275.525 577.82 284.731 566.207Z"/><path fill="#547B7C" transform="scale(0.195312 0.195312)" d="M234.645 548.979C251.648 546.775 267.133 553.042 280.71 562.69C270.239 573.313 260.507 584.857 250.577 595.991C245.217 593.247 241.081 592.965 235.203 593.648C230.957 594.831 228.298 596.551 225.079 599.434C214.139 589.602 203.038 579.95 191.78 570.483C202.84 558.277 218.41 550.882 234.645 548.979Z"/><path fill="#547B7C" transform="scale(0.195312 0.195312)" d="M255.288 629.914C258.041 630.448 285.321 654.78 290.206 658.735C289.542 659.353 288.873 659.967 288.201 660.575C272.399 674.862 255.884 679.764 234.91 678.674C222.276 677.056 211.32 672.486 200.859 665.318C209.188 653.836 220.539 644.612 228.935 633.138C231.457 634.198 233.954 635.244 236.654 635.757C244.101 637.173 249.399 633.858 255.288 629.914Z"/><path fill="#547B7C" transform="scale(0.195312 0.195312)" d="M187.563 575.311C192.346 577.468 214.91 598.329 220.818 603.477C219.914 606.159 218.947 608.89 218.576 611.706C217.624 618.931 220.11 624.163 224.336 629.763C217.597 636.621 211.322 644.003 204.911 651.169C201.908 654.604 199.106 658.219 196.259 661.783C187.187 651.791 179.431 640.845 176.415 627.449C172.084 608.209 177.336 591.547 187.563 575.311Z"/><path fill="#FDF4E4" transform="scale(0.195312 0.195312)" d="M235.845 599.585C244.018 597.4 252.42 602.234 254.635 610.398C256.85 618.561 252.044 626.978 243.887 629.222C235.688 631.477 227.217 626.643 224.99 618.438C222.764 610.233 227.63 601.781 235.845 599.585Z"/><path fill="#23212B" transform="scale(0.195312 0.195312)" d="M494.182 435.814C494.928 435.798 495.626 435.794 496.368 435.895C503.932 436.926 509.217 441.444 513.65 447.353C530.029 469.182 561.265 589.089 557.195 614.664C556.27 620.472 553.627 624.863 548.799 628.261C546.23 630.069 543.377 631.388 540.422 632.432C531.542 635.57 522.01 637.327 512.942 639.922C502.464 642.921 491.934 647.277 481.162 648.981C476.823 649.667 472.967 649.552 468.658 648.788C464.504 647.538 460.571 645.648 457 643.186C453.88 640.997 450.642 637.705 449.046 634.219C444.449 624.181 442.031 612.403 438.839 601.778C431.573 578.271 424.686 554.648 418.18 530.92L409.2 499.761C407.516 493.931 405.38 487.862 404.44 481.867C403.43 475.43 404.707 468.569 408.667 463.315C410.796 460.492 413.6 458.092 416.801 456.575C426.948 451.762 443.08 449.005 454.489 445.987C467.547 442.532 480.807 437.715 494.182 435.814Z"/><path fill="#FDF4E4" transform="scale(0.195312 0.195312)" d="M492.032 442.02C493.055 441.941 494.1 441.866 495.126 441.94C500.28 442.311 504.34 445.555 507.544 449.336C519.977 464.007 536.464 525.843 541.165 546.274C544.351 560.343 547.025 574.522 549.182 588.784C550.357 596.229 552.274 604.741 551.551 612.29C551.138 616.604 548.747 620.119 545.419 622.784C538.744 628.128 489.489 641.526 479.011 643.311C476.374 643.76 473.954 643.615 471.31 643.301C468.505 642.51 465.637 641.464 463.058 640.095C459.827 638.38 456.531 635.958 454.723 632.715C451.559 627.04 450.243 618.948 448.332 612.624C443.275 596.154 438.334 579.649 433.51 563.109C428.023 544.382 422.686 525.612 417.498 506.8C415.041 498.166 410.962 488.155 410.1 479.239C409.709 475.195 410.59 470.929 412.679 467.42C414.541 464.292 419.261 462.033 422.544 460.725C430.638 457.5 440.005 455.886 448.439 453.624C462.93 449.738 477.398 445.31 492.032 442.02Z"/><path fill="#23212B" transform="scale(0.195312 0.195312)" d="M489.107 545.755C510.304 543.589 529.266 558.958 531.531 580.14C533.796 601.321 518.511 620.35 497.335 622.713C476.02 625.091 456.834 609.688 454.554 588.366C452.274 567.045 467.77 547.936 489.107 545.755Z"/><path fill="#547B7C" transform="scale(0.195312 0.195312)" d="M487.323 552.089C505.214 548.842 522.329 560.783 525.451 578.693C528.573 596.603 516.508 613.628 498.572 616.622C480.814 619.587 463.992 607.671 460.901 589.939C457.81 572.208 469.609 555.305 487.323 552.089Z"/><path fill="#23212B" transform="scale(0.195312 0.195312)" d="M491.728 566.296C501.715 565.452 510.536 572.764 511.557 582.732C512.578 592.7 505.422 601.647 495.471 602.845C488.876 603.639 482.365 600.812 478.442 595.451C474.52 590.09 473.797 583.031 476.551 576.986C479.305 570.942 485.108 566.855 491.728 566.296Z"/><path fill="#FDF4E4" transform="scale(0.195312 0.195312)" d="M490.912 572.054C497.63 570.709 504.204 574.934 505.772 581.602C507.339 588.27 503.335 594.98 496.721 596.768C492.242 597.979 487.459 596.652 484.245 593.308C481.03 589.963 479.895 585.133 481.283 580.707C482.671 576.281 486.362 572.964 490.912 572.054Z"/><path fill="#23212B" transform="scale(0.195312 0.195312)" d="M462.707 467.221C480.92 464.021 498.274 476.205 501.444 494.42C504.614 512.634 492.396 529.963 474.172 533.1C455.992 536.231 438.71 524.052 435.548 505.882C432.386 487.712 444.538 470.413 462.707 467.221Z"/><path fill="#547B7C" transform="scale(0.195312 0.195312)" d="M464.042 472.845C479.031 470.393 493.2 480.463 495.81 495.422C498.419 510.381 488.496 524.652 473.561 527.418C463.76 529.233 453.739 525.644 447.32 518.021C440.9 510.397 439.071 499.914 442.531 490.568C445.99 481.222 454.205 474.454 464.042 472.845Z"/><path fill="#23212B" transform="scale(0.195312 0.195312)" d="M465.325 484.763C473.613 483.197 481.596 488.66 483.135 496.95C484.674 505.24 479.184 513.203 470.887 514.715C462.628 516.22 454.707 510.762 453.175 502.51C451.643 494.258 457.076 486.322 465.325 484.763Z"/><path fill="#FDF4E4" transform="scale(0.195312 0.195312)" d="M465.296 490.151C470.512 488.487 476.099 491.314 477.846 496.502C479.594 501.689 476.856 507.319 471.695 509.149C468.283 510.358 464.484 509.635 461.755 507.257C459.026 504.878 457.792 501.214 458.525 497.67C459.259 494.125 461.847 491.252 465.296 490.151Z"/><path fill="#23212B" transform="scale(0.195312 0.195312)" d="M415.684 585.179C418.168 585.198 420.593 585.59 422.785 586.836C424.758 587.973 426.398 589.607 427.544 591.574C432.784 600.493 438.909 626.845 441.842 637.976C443.285 643.451 444.619 648.244 441.504 653.452C440.158 655.701 438.737 657.235 436.462 658.565C428.566 663.177 399.837 669.43 389.212 672.023C385.62 672.089 381.797 671.849 378.703 669.826C376.569 668.43 375.137 666.589 374.032 664.317C369.756 655.52 362.763 627.502 360.681 617.09C359.556 611.465 359.633 606.535 363.093 601.622C364.271 599.95 365.689 598.702 367.528 597.804C374.93 594.189 406.756 586.783 415.684 585.179Z"/><path fill="#FDF4E4" transform="scale(0.195312 0.195312)" d="M416.965 590.845C417.102 590.875 417.241 590.899 417.377 590.934C420.02 591.608 421.409 592.935 422.744 595.274C427.034 602.788 435.375 633.594 436.732 642.598C437.148 645.356 437.221 647.84 436.492 650.568C435.143 652.482 433.266 653.509 431.16 654.434C425.962 656.718 419.881 657.779 414.394 659.267C405.048 661.802 395.712 664.577 386.257 666.672C384.933 666.156 383.595 665.632 382.39 664.869C381.192 664.11 379.888 663.113 379.18 661.856C376.032 656.269 367.63 622.269 365.928 614.3C364.897 609.471 366.226 607.328 368.77 603.374C375.194 600.702 382.362 599.427 389.094 597.686C398.321 595.3 407.588 592.564 416.965 590.845Z"/><path fill="#23212B" transform="scale(0.195312 0.195312)" d="M422.945 618.204C423.527 618.158 423.878 618.106 424.486 618.177C426.066 618.362 426.565 619.18 427.434 620.375C427.638 622.06 427.783 622.311 426.939 623.86C419.971 627.983 389.493 634.606 379.699 637.152L377.33 637.343C376.793 636.975 376.615 636.905 376.176 636.321C375.427 635.326 374.996 633.622 375.195 632.417C379.586 628.241 414.454 620.442 422.945 618.204Z"/><path fill="#23212B" transform="scale(0.195312 0.195312)" d="M417.269 600.045C419.14 599.867 419.845 599.779 421.361 600.894C422.055 602.498 422.402 603.38 422.104 605.125C419.176 608.525 382.179 616.745 375.421 618.406C373.479 618.667 372.12 619.01 370.426 617.975C369.893 616.284 369.747 615.398 370.172 613.664C374.587 609.962 409.341 602.133 417.269 600.045Z"/><path fill="#23212B" transform="scale(0.195312 0.195312)" d="M429.102 638.197C429.86 638.107 430.322 638.154 431.095 638.301C432.307 638.531 432.492 639.333 433.157 640.306C433.187 641.146 433.366 641.563 432.883 642.299C429.647 647.235 392.171 654.887 385.013 656.661C383.049 656.107 381.832 655.757 380.394 654.272C380.278 653.46 380.002 652.96 380.482 652.22C383.307 647.863 422.281 639.911 429.102 638.197Z"/><path fill="#23212B" transform="scale(0.195312 0.195312)" d="M395.395 494.421C395.857 494.35 396.175 494.283 396.662 494.303C398.101 494.362 398.723 494.963 399.71 495.875C399.787 496.753 399.959 496.975 399.472 497.775C396.653 502.412 346.652 514.179 338.974 516.208C337.224 516.494 336.263 516.659 334.641 515.871C333.754 514.444 333.656 514.533 334.025 512.913C337.329 509.232 386.609 496.991 395.395 494.421Z"/><path fill="#23212B" transform="scale(0.195312 0.195312)" d="M390.401 476.967C390.732 476.906 391.059 476.807 391.395 476.786C393.028 476.685 393.288 477.045 394.362 478.117C394.784 479.667 394.81 479.693 394.168 481.16C388.788 484.937 345.157 495.608 335.841 498.235C335.064 498.397 334.287 498.325 333.496 498.314C333.001 497.971 332.747 497.844 332.361 497.309C331.509 496.128 331.511 494.797 331.708 493.461C336.212 490.851 343.005 489.756 348.081 488.33C362.137 484.356 376.245 480.568 390.401 476.967Z"/><path fill="#23212B" transform="scale(0.195312 0.195312)" d="M398.342 511.983C399.937 511.712 400.787 511.721 402.354 512.122C403.261 513.24 403.397 513.765 403.47 515.197C400.904 518.541 352.804 530.272 344.008 532.83C343.816 532.877 343.627 532.94 343.431 532.971C341.596 533.262 341.034 533.152 339.51 532.126C338.949 530.464 338.926 530.447 339.541 528.809C343.462 524.852 389.32 514.31 398.342 511.983Z"/><path fill="#D4D5BF" transform="scale(0.195312 0.195312)" d="M555.689 650.632L557.046 650.974C558.861 653.93 559.632 657.492 560.595 660.802L321.214 726.999C279.231 738.535 236.811 749.237 195.181 761.958C194.469 762.183 194.923 762.11 193.805 761.876C192.287 759.262 191.663 755.872 190.849 752.955C236.583 739.086 283.174 727.477 329.298 714.962C372.193 703.323 414.841 690.715 457.609 678.621L516.375 662.271C529.411 658.705 543.151 655.681 555.689 650.632Z"/><path fill="#FDF4E4" transform="scale(0.195312 0.195312)" d="M340.483 446.542C350.184 446.282 358.686 449.113 367.69 452.313C350.147 457.003 332.781 462.325 315.208 466.916C308.027 468.884 300.879 470.975 293.769 473.187C295.404 470.247 297.217 467.373 299.442 464.841C309.822 453.025 325.086 447.468 340.483 446.542Z"/><path fill="#23212B" transform="scale(0.195312 0.195312)" d="M895.972 54.4366C896.431 54.5374 897.272 55.0838 897.701 55.3119C900.232 58.9213 964.136 252.516 964.314 258.892C955.455 264.389 944.064 266.958 934.145 270.152C917.22 275.544 900.268 280.85 883.289 286.071L737.657 331.924L658.465 357.267C642.925 362.269 627.307 367.821 611.449 371.689C611.307 371.618 611.153 371.566 611.022 371.476C610.1 370.839 609.57 369.748 609.169 368.735C604.678 357.382 601.375 345.222 597.538 333.599L575.644 268.19L551.849 198.292C548.505 188.216 544.849 178.141 542.047 167.907C553.954 161.879 568.681 158.919 581.438 154.883L655.058 131.191C704.644 115.09 754.335 99.3154 804.129 83.8686C834.659 74.0691 865.178 63.3229 895.972 54.4366Z"/><path fill="#D15246" transform="scale(0.195312 0.195312)" d="M893.223 61.4332C894.352 62.2457 894.804 63.7821 895.281 65.0404C903.433 86.5512 909.725 108.983 916.853 130.852L958.201 255.911C943.324 261.739 927.589 266.172 912.353 271.011L833.668 295.808L614.166 365.556C612.032 361.99 610.92 355.963 609.577 351.907L596.463 312.341L549.091 171.593C559.338 166.644 571.506 164.308 582.336 160.755C610.653 151.202 639.08 141.978 667.612 133.084L821.474 84.171C845.375 76.5884 869.162 68.4863 893.223 61.4332Z"/><path fill="#23212B" transform="scale(0.195312 0.195312)" d="M864.764 101.246L865.886 101.582C870.046 107.194 892.103 178.8 895.51 189.329C899.476 201.588 903.994 213.716 907.618 226.074C908.85 230.273 910.973 235.865 910.562 240.175C902.553 245.026 892.81 246.747 883.937 249.548L826.202 267.492C765.033 286.808 704.234 307.362 642.867 326.074C638.624 318.602 635.404 304.365 632.38 295.603C624.204 272.097 616.225 248.524 608.444 224.884C604.272 212.254 599.257 199.259 596.425 186.263C613.076 180.91 629.902 176.117 646.59 170.883C719.457 148.119 792.183 124.906 864.764 101.246Z"/><path fill="#F8E0A9" transform="scale(0.195312 0.195312)" d="M862.004 108.219C864.759 110.545 901.246 225.271 904.643 237.131C870.175 246.324 836.051 258.168 802.104 269.164L646.754 318.715C642.002 310.068 637.629 293.037 634.291 283.184L603.516 190.58C619.472 184.979 635.801 180.391 651.936 175.336L730.685 150.386C774.529 136.609 818.077 121.69 862.004 108.219Z"/><path fill="#23212B" transform="scale(0.195312 0.195312)" d="M592.84 208.326C593.866 208.444 594.767 208.551 595.732 208.954C597.625 209.745 598.711 212.121 599.527 213.864C601.154 217.338 604.92 226.444 602.873 230.116C600.381 234.586 588.689 236.231 584.043 237.364C582.848 237.522 581.88 237.304 580.707 237.089C576.895 234.323 573.913 227.557 573.231 222.917C572.831 220.201 573.234 217.368 574.966 215.164C578.794 210.292 587.097 209.217 592.84 208.326Z"/><path fill="#FDF4E4" transform="scale(0.195312 0.195312)" d="M591.536 214.467L592.211 214.551C595.341 216.776 596.17 223.855 597.045 227.546C593.223 229.102 589.236 230.21 585.286 231.392C584.721 231.365 584.067 231.117 583.516 230.972C582.121 229.084 580.662 226.835 579.809 224.633C579.205 223.074 579.237 221.396 580.061 219.914C582.252 215.971 587.541 215.44 591.536 214.467Z"/><path fill="#23212B" transform="scale(0.195312 0.195312)" d="M616.625 286.92C617.893 286.862 619.414 286.703 620.579 287.299C623.95 289.021 626.063 294.852 627.14 298.268C628.008 301.022 629.583 306.381 627.951 308.979C625.293 313.209 616.06 314.745 611.496 315.994C609.83 316.247 607.593 316.311 606.021 315.629C603.244 314.423 601.668 310.57 600.748 307.857C599.31 303.624 597.905 297.844 599.945 293.682C604.232 289.674 611.116 288.513 616.625 286.92Z"/><path fill="#FDF4E4" transform="scale(0.195312 0.195312)" d="M616.094 293.109C617.268 293.092 617.518 293.274 618.518 293.817C621.252 297.351 621.802 301.614 622.574 305.888C618.554 307.704 614.519 308.921 610.286 310.105L609.383 310.296C606.245 308.169 605.159 301.244 604.157 297.6C608.077 295.855 612.014 294.434 616.094 293.109Z"/><path fill="#23212B" transform="scale(0.195312 0.195312)" d="M910.877 149.461C912.228 149.261 913.226 149.374 914.56 149.567C918.289 151.808 920.155 156.551 921.368 160.562C922.296 163.632 923.765 169.053 921.926 171.947C919.215 176.212 909.79 177.755 905.129 179C903.927 179.145 902.739 179.276 901.588 178.807C898.527 177.56 896.759 173.094 895.661 170.198C894.127 166.151 892.085 160.221 893.972 156.085C898.02 152.256 905.61 150.982 910.877 149.461Z"/><path fill="#FDF4E4" transform="scale(0.195312 0.195312)" d="M911.162 155.617L911.829 155.673C914.875 157.954 916.072 165.203 917.115 168.892C913.249 170.435 909.385 171.575 905.363 172.638L903.7 172.588C900.479 170.208 899.639 163.822 898.696 160.056C902.804 158.391 906.949 156.981 911.162 155.617Z"/><path fill="#23212B" transform="scale(0.195312 0.195312)" d="M898.074 110.111L900.833 110.224C904.834 112.331 906.939 117.961 908.211 122.092C909.157 125.164 910.402 129.993 908.632 132.919C906.291 136.789 895.237 138.345 890.972 139.396C889.959 139.656 889.356 139.752 888.308 139.503C886.562 139.088 885.385 137.378 884.551 135.924C881.825 131.171 878.893 122.619 880.466 117.221C884.197 112.287 892.335 111.393 898.074 110.111Z"/><path fill="#FDF4E4" transform="scale(0.195312 0.195312)" d="M897.469 116.292C897.889 116.35 898.043 116.341 898.465 116.567C901.701 118.303 902.811 125.188 903.735 128.564C900.073 130.728 896.343 131.685 892.24 132.643L890.257 132.822C887.365 130.806 886.694 123.504 885.997 120.094C889.713 118.582 893.642 117.497 897.469 116.292Z"/><path fill="#23212B" transform="scale(0.195312 0.195312)" d="M603.211 246.998C604.925 246.806 606.549 246.538 608.177 247.255C611.141 248.561 613.559 254.553 614.533 257.532C615.592 260.77 617.05 265.915 615.21 269.039C612.632 273.416 603.016 274.819 598.356 276.003C597.169 275.963 595.833 275.961 594.7 275.569C591.703 274.531 589.554 269.703 588.414 266.95C587.001 263.534 585.016 257.957 586.722 254.439C588.776 250.202 598.94 248.287 603.211 246.998Z"/><path fill="#FDF4E4" transform="scale(0.195312 0.195312)" d="M604.57 252.489L605.522 252.659C608.621 255.026 609.587 262.158 610.534 265.877C606.284 267.634 602.038 268.864 597.569 269.923C596.914 269.675 596.807 269.683 596.187 269.186C593.478 267.018 592.617 260.255 591.976 257.003L604.57 252.489Z"/><path fill="#23212B" transform="scale(0.195312 0.195312)" d="M885.508 70.0368C886.439 69.991 887.401 69.906 888.283 70.2953C891.867 71.8772 894.422 80.0761 895.29 83.6527C895.9 86.1694 896.751 90.2038 895.15 92.4532C892.154 96.6615 882.599 98.1787 877.859 99.2749C876.534 99.325 875.053 99.3473 873.882 98.6446C870.818 96.8049 868.875 91.7037 867.874 88.4041C866.912 85.2334 865.67 80.0385 867.499 77.0543C869.961 73.0385 881.097 71.2407 885.508 70.0368Z"/><path fill="#FDF4E4" transform="scale(0.195312 0.195312)" d="M884.844 76.3532L885.3 76.4144C888.372 78.4707 889.709 85.52 890.793 89.061C886.607 90.7772 882.303 91.8142 877.926 92.9031C877.308 92.8908 876.811 92.5983 876.247 92.3624C873.589 88.8363 873.341 84.277 872.73 80.0394C876.712 78.5037 880.709 77.402 884.844 76.3532Z"/><path fill="#23212B" transform="scale(0.195312 0.195312)" d="M925.171 188.855L926.691 189.048C930.519 191.671 932.325 196.463 933.654 200.754C934.5 203.486 936.24 209.257 934.689 211.842C932.4 215.657 920.253 217.654 915.99 218.735C915.139 218.764 914.229 218.617 913.377 218.546C912.331 217.885 911.73 217.267 911.093 216.191C908.208 211.315 905.112 202.13 906.52 196.511C910.005 191.736 919.68 190.297 925.171 188.855Z"/><path fill="#FDF4E4" transform="scale(0.195312 0.195312)" d="M924.21 195.723L924.875 195.759C927.672 197.927 928.538 205.071 929.332 208.535C925.261 210.169 920.926 211.224 916.708 212.419L915.823 212.335C912.996 209.611 912.512 203.309 911.825 199.513C915.854 197.898 920.024 196.84 924.21 195.723Z"/><path fill="#23212B" transform="scale(0.195312 0.195312)" d="M577.308 169.436C578.616 169.359 580.602 169.212 581.771 169.873C585.143 171.777 587.512 177.951 588.574 181.507C589.371 184.174 590.355 188.311 588.751 190.816C586.097 194.961 576.399 196.68 571.839 198.007C570.306 198.17 568.734 198.361 567.348 197.502C563.99 195.422 561.841 189.543 560.832 185.847C560.066 183.044 559.211 179.041 560.904 176.443C563.695 172.162 572.59 170.719 577.308 169.436Z"/><path fill="#FDF4E4" transform="scale(0.195312 0.195312)" d="M577.433 175.723L578.872 175.656C581.75 177.403 582.881 184.475 583.758 187.692C579.951 189.487 575.887 190.536 571.854 191.687L570.176 191.696C568.217 190.397 566.817 186.072 566.185 183.817C565.911 182.836 565.377 180.679 566.073 179.764C567.948 177.301 574.433 176.439 577.433 175.723Z"/><path fill="#23212B" transform="scale(0.195312 0.195312)" d="M935.638 228.844C936.508 228.732 937.681 228.503 938.547 228.771C941.071 229.553 942.806 233.448 943.8 235.717C945.601 239.825 947.797 245.773 946.085 250.142C942.32 254.292 934.801 255.602 929.575 257.205C927.871 257.436 926.307 257.582 924.785 256.603C921.7 254.617 918.719 248.16 917.92 244.625C917.276 241.773 917.407 238.651 919.076 236.157C922.446 231.123 930.149 230.131 935.638 228.844Z"/><path fill="#FDF4E4" transform="scale(0.195312 0.195312)" d="M936.955 234.58C939.178 236.971 940.308 243.642 941.235 246.87C936.933 248.772 932.336 250.137 927.885 251.655C925.877 247.492 924.336 243.405 923.018 238.972C927.518 236.951 932.191 235.77 936.955 234.58Z"/><path fill="#23212B" transform="scale(0.195312 0.195312)" d="M632.104 327.065L634.543 326.995C637.792 328.439 639.095 331.362 640.271 334.549C641.533 337.97 642.928 343.944 641.099 347.291C638.716 351.654 627.55 353.465 623.028 354.674C621.935 354.592 621.048 354.3 620.012 353.966C617.123 351.306 614.342 346.321 613.395 342.493C612.7 339.679 612.607 336.743 614.244 334.226C617.711 328.896 626.315 328.13 632.104 327.065Z"/><path fill="#FDF4E4" transform="scale(0.195312 0.195312)" d="M629.886 333.151C630.64 333.128 631.309 332.927 631.964 333.393C634.548 335.227 635.547 341.575 636.349 344.621C632.687 346.483 628.694 347.537 624.772 348.713L623.051 348.685C620.193 346.367 619.5 340.314 618.711 336.832C622.33 335.259 626.101 334.235 629.886 333.151Z"/><path fill="#23212B" transform="scale(0.195312 0.195312)" d="M742.995 113.859C744.221 113.808 745.432 113.772 746.578 114.28C749.28 115.475 752.047 119.076 752.944 121.883C753.759 124.431 753.515 127.335 752.152 129.653C749.031 134.958 741.958 136.249 736.486 137.811C735.149 137.918 733.733 137.901 732.539 137.209C729.672 135.545 726.718 131.016 725.964 127.904C725.375 125.47 725.606 122.975 726.966 120.833C730.1 115.895 737.758 114.999 742.995 113.859Z"/><path fill="#FDF4E4" transform="scale(0.195312 0.195312)" d="M743.065 119.396L744.185 119.526C744.678 119.917 745.11 120.241 745.405 120.816C746.344 122.643 746.925 125.616 745.846 127.512C744.362 130.121 738.74 130.991 735.969 131.761C733.44 129.417 732.844 126.326 732.011 123.125C735.615 121.595 739.316 120.509 743.065 119.396Z"/><path fill="#23212B" transform="scale(0.195312 0.195312)" d="M617.922 153.784C619.136 153.727 620.257 153.676 621.421 154.103C623.792 154.971 626.68 158.897 627.668 161.168C628.746 163.647 628.714 166.71 627.515 169.137C624.704 174.823 616.739 176.393 611.186 178.103C610.048 178.238 609.184 178.124 608.061 177.909C605.061 175.927 602.976 172.558 601.832 169.169C601.016 166.752 600.181 163.149 601.528 160.756C603.784 156.749 613.665 155.001 617.922 153.784Z"/><path fill="#FDF4E4" transform="scale(0.195312 0.195312)" d="M617.835 160.065L618.604 160.102C620.05 161.018 620.275 161.424 620.956 163.008C621.81 164.994 621.638 166.106 620.865 168.034C618.629 170.183 614.675 170.95 611.719 171.878C611.037 171.917 610.402 171.747 609.733 171.624C607.97 169.413 607.575 166.505 606.918 163.807C610.481 162.111 614.022 161.062 617.835 160.065Z"/><path fill="#23212B" transform="scale(0.195312 0.195312)" d="M825.472 87.5439C826.769 87.5494 828.158 87.5437 829.332 88.1776C832.183 89.7171 834.53 93.7734 835.483 96.7654C836.227 99.1033 836.589 101.861 835.323 104.093C832.972 108.235 823.797 109.819 819.447 111.087C817.863 111.26 816.314 111.506 814.811 110.821C812.409 109.727 810.266 105.483 809.328 103.087C808.389 100.69 807.573 97.1032 808.852 94.672C811.102 90.3928 821.072 88.7233 825.472 87.5439Z"/><path fill="#FDF4E4" transform="scale(0.195312 0.195312)" d="M824.55 93.8367C824.671 93.8133 824.79 93.7702 824.914 93.7663C826.803 93.7056 827.553 94.3305 828.742 95.7814C829.837 97.1176 829.855 97.9808 829.785 99.6402C827.466 103.503 823.79 103.901 819.711 105.043C818.494 105.427 818.471 105.355 817.276 104.874C815.601 102.636 815.235 99.8266 814.619 97.1487C817.832 95.7832 821.215 94.8537 824.55 93.8367Z"/><path fill="#23212B" transform="scale(0.195312 0.195312)" d="M660.923 140.1C661.598 140.059 662.469 140.236 663.127 140.307C665.947 142.169 668.697 146.23 669.664 149.528C670.337 151.826 670.234 154.595 668.973 156.68C665.814 161.902 657.204 163.062 651.764 164.256C650.849 164.22 650.171 164.157 649.348 163.715C646.569 162.221 643.918 158.016 642.977 154.986C642.296 152.792 642.469 150.166 643.605 148.152C646.609 142.826 655.563 141.426 660.923 140.1Z"/><path fill="#FDF4E4" transform="scale(0.195312 0.195312)" d="M659.078 146.243L660.626 146.669C662.428 149.036 663.173 152.012 664.121 154.801C660.697 156.265 656.998 157.213 653.432 158.288L652.27 158.442C651.736 157.957 651.723 157.996 651.26 157.281C650.135 155.541 649.487 152.714 649.826 150.711C651.967 147.705 655.66 147.249 659.078 146.243Z"/><path fill="#23212B" transform="scale(0.195312 0.195312)" d="M886.062 253.196C887.083 253.187 888.037 253.356 889.043 253.508C891.92 255.374 893.905 259.135 894.967 262.361C895.721 264.65 896.549 268.138 895.236 270.39C892.957 274.3 883.613 276.138 879.456 277.436C877.948 277.453 876.318 277.591 875.074 276.596C870.333 272.801 869.702 264.609 869.2 259.022C874.36 256.13 880.363 254.657 886.062 253.196Z"/><path fill="#FDF4E4" transform="scale(0.195312 0.195312)" d="M884.922 258.729L886.405 258.945C887.454 260.253 888.474 261.555 888.993 263.175C889.468 264.654 889.296 265.946 888.552 267.303C886.921 270.279 883.596 270.807 880.589 271.767C879.649 271.669 879.247 271.366 878.449 270.89C876.632 268.393 876.138 265.108 875.417 262.155C878.459 260.766 881.753 259.802 884.922 258.729Z"/><path fill="#23212B" transform="scale(0.195312 0.195312)" d="M700.833 127.545C702.545 127.401 704.425 127.296 705.921 128.276C708.665 130.073 711.462 134.366 712.012 137.56C712.437 139.897 711.907 142.306 710.54 144.248C707.297 148.76 700.333 149.512 695.313 150.544C694.003 150.606 692.543 150.608 691.323 150.065C688.656 148.881 686.689 145.577 685.682 142.972C684.718 140.481 684.332 137.357 685.529 134.875C687.663 130.451 696.467 128.898 700.833 127.545Z"/><path fill="#FDF4E4" transform="scale(0.195312 0.195312)" d="M700.118 133.782L702.021 133.71C703.473 134.581 704.436 136.205 705.022 137.775C705.556 139.206 705.447 140.047 704.881 141.408C702.407 143.161 698.946 143.88 696.052 144.783L694.331 144.716C693.205 143.88 691.938 142.906 691.535 141.479C691.229 140.398 691.358 139.452 691.854 138.473C693.484 135.258 696.929 134.775 700.118 133.782Z"/><path fill="#23212B" transform="scale(0.195312 0.195312)" d="M783.447 100.686C784.563 100.634 785.343 100.594 786.412 101.002C788.911 101.955 791.879 106.269 792.765 108.729C793.666 111.232 793.615 114.088 792.288 116.429C789.254 121.779 781.826 122.845 776.373 124.243C775.305 124.355 774.014 124.54 772.985 124.16C770.602 123.282 767.5 118.388 766.752 116.002C766.037 113.724 766.138 111.034 767.258 108.904C770.083 103.533 778.062 102.192 783.447 100.686Z"/><path fill="#FDF4E4" transform="scale(0.195312 0.195312)" d="M783.727 106.366C784.355 106.963 784.826 107.665 785.292 108.394C786.429 110.176 787.072 111.575 786.613 113.675C784.28 117.308 779.75 117.878 775.862 118.941C774.757 117.487 773.575 115.703 773.066 113.938C772.778 112.939 772.856 111.955 773.341 111.044C774.891 108.131 780.695 107.221 783.727 106.366Z"/><path fill="#23212B" transform="scale(0.195312 0.195312)" d="M760.295 293.205C760.624 293.234 760.954 293.245 761.281 293.292C762.958 293.531 764.285 294.577 765.216 295.934C767.858 299.787 770.051 305.234 769.056 309.889C766.433 314.361 757.416 316.023 752.589 317.406C752.377 317.36 752.161 317.327 751.952 317.267C748.643 316.33 746.999 313.476 745.55 310.607C743.959 307.46 742.826 304.101 743.973 300.631C747.452 295.992 755.007 294.647 760.295 293.205Z"/><path fill="#FDF4E4" transform="scale(0.195312 0.195312)" d="M757.271 298.733C758.376 298.562 758.861 298.611 759.89 299.05C761.872 301.517 762.481 304.729 763.351 307.722C760.573 309.007 757.642 310.062 754.796 311.197L753.113 311.112C751.958 309.921 750.844 308.749 750.176 307.206C749.523 305.697 749.623 304.263 750.336 302.792C751.592 300.202 754.746 299.606 757.271 298.733Z"/><path fill="#23212B" transform="scale(0.195312 0.195312)" d="M718.478 305.677C719.562 305.678 720.392 305.691 721.433 306.056C723.91 306.923 726.686 311.289 727.557 313.709C728.466 316.232 728.474 319.265 727.238 321.679C724.616 326.801 717.862 327.905 712.824 329.288C711.611 329.406 710.3 329.585 709.171 329.021C706.642 327.76 704.105 323.955 703.257 321.295C702.415 318.655 702.493 315.511 703.905 313.079C706.786 308.113 713.404 307.024 718.478 305.677Z"/><path fill="#FDF4E4" transform="scale(0.195312 0.195312)" d="M716.874 311.249C717.855 311.029 718.309 311.201 719.234 311.558C721.123 314.122 721.704 317.284 722.532 320.315C719.591 321.922 716.657 322.975 713.477 324.011L712.392 323.996C711.397 322.951 710.57 321.94 709.949 320.625C709.154 318.945 708.931 317.642 709.654 315.89C710.902 312.87 714.057 312.263 716.874 311.249Z"/><path fill="#23212B" transform="scale(0.195312 0.195312)" d="M675.76 320.141C677.18 320.063 678.169 320.037 679.445 320.822C681.746 322.238 684.464 327.372 685.037 329.958C685.596 332.479 685.367 335.121 683.906 337.307C680.903 341.8 674.442 342.434 669.566 343.504C668.379 343.479 667.249 343.464 666.134 342.998C663.784 342.016 660.914 336.894 660.243 334.489C659.533 331.946 659.653 329.024 661.06 326.734C663.973 321.992 670.818 321.224 675.76 320.141Z"/><path fill="#FDF4E4" transform="scale(0.195312 0.195312)" d="M674.481 325.724L675.817 325.67C678.935 327.716 679.141 331.869 679.856 335.291C676.93 336.44 673.981 337.229 670.942 338.01C669.842 338.234 669.303 338.074 668.255 337.701C667.334 336.64 666.408 335.59 665.943 334.241C665.389 332.634 665.553 331.169 666.388 329.692C668.038 326.774 671.489 326.47 674.481 325.724Z"/><path fill="#23212B" transform="scale(0.195312 0.195312)" d="M843.407 265.661C844.824 265.595 846.063 265.665 847.342 266.356C849.959 267.771 852.155 272.395 853.029 275.143C853.698 277.248 854.22 280.158 852.96 282.157C850.379 286.255 842.302 287.602 837.838 288.784C837.171 288.797 836.494 288.834 835.839 288.664C832.867 287.892 830.506 283.754 829.33 281.1C827.994 278.083 827.308 275.39 828.567 272.261C832.063 268.418 838.576 267.183 843.407 265.661Z"/><path fill="#FDF4E4" transform="scale(0.195312 0.195312)" d="M844.392 270.789C846.628 273.006 846.809 277.193 847.312 280.177C843.969 281.608 840.307 282.538 836.829 283.615C835.121 280.794 834.343 277.498 833.389 274.366C836.989 273.007 840.719 271.939 844.392 270.789Z"/><path fill="#23212B" transform="scale(0.195312 0.195312)" d="M801.593 280.12C802.901 280.049 804.522 280.066 805.692 280.746C807.743 281.937 810.376 286.423 811.018 288.661C811.748 291.208 811.595 294.048 810.082 296.291C807.034 300.814 800.906 301.519 796.025 302.61C794.536 302.828 793.585 302.976 792.181 302.231C790.04 301.095 787.328 296.412 786.631 294.173C785.829 291.595 785.874 288.782 787.324 286.445C790.274 281.693 796.606 281.147 801.593 280.12Z"/><path fill="#FDF4E4" transform="scale(0.195312 0.195312)" d="M800.917 285.098C801.643 285.042 801.689 284.893 802.237 285.282C804.43 286.842 805.184 291.532 805.813 294.007C802.902 295.174 799.862 295.955 796.848 296.81C796.263 296.929 795.638 296.788 795.046 296.728C793.991 295.329 792.973 293.953 792.448 292.258C792.052 290.978 792.242 289.883 792.898 288.744C794.513 285.939 798.031 285.729 800.917 285.098Z"/><path fill="#23212B" transform="scale(0.195312 0.195312)" d="M874.002 515.987C877.942 516.593 902.366 543.052 906.856 547.859C900.868 554.81 893.529 560.708 886.677 566.784L862.219 588.872L765.698 676.356C757.121 684.241 747.958 691.451 739.591 699.566C750.336 696.554 762.029 695.065 772.99 692.664L849.145 675.731L909.615 662.295C920.663 659.827 932.155 656.446 943.396 655.201C946.28 662.712 985.287 845.763 984.73 850.57C979.196 854.656 960.396 857.035 952.964 858.6C935.857 861.403 918.595 866.014 901.59 869.606L790.054 893.007C780.198 895.049 749.251 903.268 741.304 901.706C737.383 894.896 732.79 868.156 730.675 858.948L713.497 784.194C708.668 762.376 704.307 740.383 698.577 718.775C691.273 711.272 683.323 704.42 675.444 697.533C683.312 689.242 691.99 681.549 700.318 673.719C717.392 657.682 734.605 641.794 751.955 626.057C792.272 589.128 832.577 551.648 874.002 515.987Z"/><path fill="#FDF4E4" transform="scale(0.195312 0.195312)" d="M947.116 702.68L947.733 702.949C950.615 708.905 955.16 735.925 956.806 743.787L978.675 847.281C971.691 847.916 964.547 849.937 957.686 851.416L919.36 859.651L817.33 881.15C793.601 886.248 769.63 892.119 745.656 895.866L728.05 818.792C723.01 797.061 717.534 775.46 713.421 753.525C739.079 749.459 764.235 742.37 789.566 736.769C841.95 724.802 894.47 713.439 947.116 702.68Z"/><path fill="#23212B" transform="scale(0.195312 0.195312)" d="M810.714 757.831C828.604 763.151 846.414 769.275 864.229 774.906C874.756 778.234 887.2 780.429 896.768 785.814C906.745 784.015 929.683 777.987 938.338 778.081C940.331 778.102 941.609 778.178 943.005 779.592C942.569 780.633 942.166 781.435 941.145 782.022C936.285 784.813 924.859 785.94 919.101 787.061C910.967 788.643 900.194 789.35 892.611 792.172C886.696 794.374 846.337 831.161 837.799 838.478C869.88 831.439 902.024 824.692 934.228 818.237C939.185 816.97 946.058 814.374 950.886 816.992L950.93 818.205C950.436 818.661 950.274 818.844 949.765 819.209C947.751 820.653 944.942 821.367 942.557 821.951C929.7 825.099 916.573 827.511 903.623 830.286L831.135 845.733C810.052 850.122 788.946 855.693 767.775 859.484C765.479 859.895 763.341 860.186 761.021 859.751C758.243 855.812 742.895 786.27 741.805 778.387C742.568 776.686 743.716 776.2 745.459 775.532C751.296 773.296 758.385 772.594 764.572 771.371C775.826 769.154 787.058 766.824 798.265 764.38C801.658 763.643 807.263 763.087 810.102 761.215L810.714 757.831Z"/><path fill="#D15246" transform="scale(0.195312 0.195312)" d="M816.602 765.787C839.575 774.703 864.037 780.32 887.374 788.241C878.551 795.299 870.027 802.805 861.449 810.159C851.549 818.422 842.169 827.42 832.735 836.204C827.329 812.845 820.912 789.36 816.602 765.787Z"/><path fill="#FDF4E4" transform="scale(0.195312 0.195312)" d="M808.706 767.632C809.73 767.535 809.922 767.571 810.862 767.991C814.612 778.365 816.511 790.479 818.774 801.285C798.45 805.518 778.235 810.263 757.843 814.173L756.847 814.219C754.645 812.084 749.133 785.304 748.007 780.732C768.146 776.085 788.513 772.106 808.706 767.632Z"/><path fill="#FDF4E4" transform="scale(0.195312 0.195312)" d="M819.136 807.015L819.575 807.105C822.567 811.225 826.638 834.122 828.057 840.356C807.54 845.467 786.431 849.759 765.632 853.562L764.851 853.444C762.099 848.938 758.608 826.741 757.232 820.136C777.938 816.103 798.575 811.729 819.136 807.015Z"/><path fill="#23212B" transform="scale(0.195312 0.195312)" d="M928.671 739.512C929.778 739.387 930.354 739.268 931.422 739.701C932.403 740.099 932.429 740.783 932.856 741.686L932.306 743.21C930.812 744.438 929.269 745.044 927.433 745.566C920.407 747.566 912.896 748.32 905.748 749.916C889.641 753.512 873.505 757.666 857.231 760.428C857.035 760.461 856.839 760.504 856.641 760.527C854.658 760.761 853.842 760.36 852.318 759.104C852.287 758.284 852.145 758.169 852.662 757.445C853.927 755.676 857.288 754.745 859.32 754.137C868.293 751.455 877.878 750.158 887.066 748.334C900.965 745.576 914.812 742.468 928.671 739.512Z"/><path fill="#FDF4E4" transform="scale(0.195312 0.195312)" d="M927.076 664.602L927.624 664.959C927.818 669.255 910.314 699.415 907.019 705.12L887.848 709.375L887.324 709.02C886.983 706.857 906.266 672.76 909.054 668.596C914.725 666.53 921.131 665.595 927.076 664.602Z"/><path fill="#FDF4E4" transform="scale(0.195312 0.195312)" d="M887.058 673.356C887.222 673.568 887.306 674.226 887.369 674.497C880.034 687.507 873.539 701.226 865.637 713.868L846.594 718.238L845.869 717.243C853.165 703.981 860.166 690.55 867.628 677.381C873.981 675.668 880.597 674.61 887.058 673.356Z"/><path fill="#FDF4E4" transform="scale(0.195312 0.195312)" d="M844.528 682.671C845.556 682.635 845.077 682.501 845.954 683.11C843.212 690.99 829.062 715.321 823.812 722.908C818.146 724.55 812.353 725.823 806.62 727.213L805.462 727.081C805.509 722.175 822.645 693.079 826.197 686.878C832.273 685.303 838.391 683.984 844.528 682.671Z"/><path fill="#FDF4E4" transform="scale(0.195312 0.195312)" d="M760.969 701.437C761.889 701.207 762.11 701.287 762.998 701.517C757.076 714.629 750.816 727.591 744.799 740.661C738.913 741.908 733.046 743.237 727.197 744.647L725.787 744.746C725.073 741.194 741.374 709.463 743.735 704.544C749.319 703.132 755.283 702.418 760.969 701.437Z"/><path fill="#FDF4E4" transform="scale(0.195312 0.195312)" d="M780.07 608.691C782.451 613.922 784.701 641.26 785.975 649.298C780.886 653.954 775.829 658.644 770.806 663.371C768.657 661.233 765.612 627.91 765.212 622.206C770.065 617.593 775.019 613.086 780.07 608.691Z"/><path fill="#FDF4E4" transform="scale(0.195312 0.195312)" d="M803.004 691.979C803.822 691.853 803.386 691.8 804.265 692.365C803.973 697.454 787.411 724.863 783.939 732.013C778.379 733.438 772.803 734.799 767.212 736.096L766.201 736.308L765.51 735.841C766.02 729.004 781.428 703.427 785.4 696.148L803.004 691.979Z"/><path fill="#FDF4E4" transform="scale(0.195312 0.195312)" d="M749.041 636.732L749.758 637.199C752.967 648.782 753.911 664.88 755.31 677.111C751.149 681.286 746.222 685.03 741.735 688.88L741.247 689.098L740.51 688.727C738.619 675.681 736.26 662.405 735.621 649.242L749.041 636.732Z"/><path fill="#FDF4E4" transform="scale(0.195312 0.195312)" d="M865.937 530.426L866.826 531C869.795 543.846 871.788 557.515 873.254 570.623C869.247 574.644 864.906 578.307 860.625 582.029L859.433 581.441C855.692 569.07 855.421 555.105 853.145 542.343C857.184 538.201 861.685 534.36 865.937 530.426Z"/><path fill="#FDF4E4" transform="scale(0.195312 0.195312)" d="M808.778 582.36C810.315 583.865 814.799 617.949 815.619 622.912C811.458 626.96 806.944 630.743 802.613 634.615L801.803 634.225C798.345 621.747 797.61 607.225 795.969 594.351C799.781 590.005 804.485 586.233 808.778 582.36Z"/><path fill="#FDF4E4" transform="scale(0.195312 0.195312)" d="M837.575 556.224C839.601 558.586 843.253 592.017 843.97 597.191L831.536 608.767C828.825 603.656 826.192 575.616 825.135 567.828C829.328 564.01 833.475 560.142 837.575 556.224Z"/><path fill="#D15246" transform="scale(0.195312 0.195312)" d="M701.943 679.885C706.747 685.359 711.773 690.656 716.747 695.976C713.575 699.809 704.722 711.976 700.319 713.621L683.533 697.503L701.943 679.885Z"/><path fill="#351F27" transform="scale(0.195312 0.195312)" d="M696.496 689.801C697.387 689.968 698.461 690.11 699.28 690.501C700.762 691.209 701.016 692.306 701.423 693.753C700.743 697.141 698.975 698.576 696.209 700.488C695.756 700.514 695.215 700.558 694.77 700.513C693.006 700.338 692.776 699.945 691.589 698.713C691.32 697.804 691.149 697.161 691.356 696.212C692.044 693.055 693.877 691.464 696.496 689.801Z"/><path fill="#D15246" transform="scale(0.195312 0.195312)" d="M819.952 572.392C822.655 575.934 825.497 606.149 826.606 612.771L820.971 618.175C817.817 614.09 814.772 584.202 814.285 577.593C816.103 575.79 818.051 574.107 819.952 572.392Z"/><path fill="#FDF4E4" transform="scale(0.195312 0.195312)" d="M719.699 663.539L720.223 663.66C721.508 665.761 726.691 697.468 728.136 703.073C726.446 699.859 724.717 696.794 722.659 693.801C717.402 687.973 711.424 682.66 705.752 677.231L719.699 663.539Z"/><path fill="#D15246" transform="scale(0.195312 0.195312)" d="M791.15 598.646C792.817 600.427 796.022 634.399 796.722 640.083L790.405 644.958C787.893 631.714 787.828 617.92 784.316 604.859L791.15 598.646Z"/><path fill="#D15246" transform="scale(0.195312 0.195312)" d="M777.035 697.665C777.705 697.63 778.13 697.763 778.769 697.938C778.162 700.858 764.089 726.834 761.339 731.679C758.901 735.975 757.904 738.052 752.953 739.385C752.284 739.312 751.887 739.082 751.29 738.789C752.056 734.354 766.685 704.86 769.887 700.581C771.718 698.135 774.192 698.144 777.035 697.665Z"/><path fill="#D15246" transform="scale(0.195312 0.195312)" d="M732.977 706.177C733.99 706.221 735.009 706.346 736.019 706.436C736.058 707.533 736.143 707.107 735.79 708.127C733.528 714.66 721.684 741.414 717.983 746.149C717.212 747.135 716.042 747.753 714.946 748.313C712.976 747.68 711.93 747.512 710.901 745.68C711.04 745.064 711.163 744.486 711.419 743.905C713.077 740.151 729.2 707.838 730.101 707.22C730.769 706.762 732.176 706.467 732.977 706.177Z"/><path fill="#D15246" transform="scale(0.195312 0.195312)" d="M873.517 523.281C875.899 524.278 877.649 527.082 879.273 529.04C880.609 539.553 882.003 550.105 884.494 560.417L880.215 564.552C879.276 565.416 879.117 565.806 877.829 566.058C877.55 565.293 877.303 564.595 877.122 563.799C875.991 558.813 870.622 529.224 871.939 525.62C872.2 524.906 873.072 523.941 873.517 523.281Z"/><path fill="#D15246" transform="scale(0.195312 0.195312)" d="M848.02 546.671C849.671 548.158 853.92 582.482 854.902 587.677C852.792 589.28 850.768 591.015 848.718 592.695C847.049 588.126 846.832 582.182 846.165 577.329C845.004 568.88 843.871 560.461 842.206 552.092L848.02 546.671Z"/><path fill="#D15246" transform="scale(0.195312 0.195312)" d="M819.009 688.351C818.801 692.24 800.801 723.607 797.533 728.966C795.263 729.558 792.934 729.931 790.628 730.356C790.405 728.094 809.187 694.816 811.791 689.628L819.009 688.351Z"/><path fill="#D15246" transform="scale(0.195312 0.195312)" d="M902.044 670.197L902.522 670.699C894.746 684.043 887.165 697.499 879.782 711.064L872.996 712.388L872.812 712.31L872.548 711.577C880.302 698.532 886.861 684.729 894.969 671.894L902.044 670.197Z"/><path fill="#D15246" transform="scale(0.195312 0.195312)" d="M859.12 679.589L860.209 679.513C860.755 681.319 840.955 715.339 838.486 720.109L832.364 721.819L831.7 721.78L831.125 721.116C834.809 713.928 839.111 707.02 842.958 699.911C846.125 694.06 849.052 686.614 853.139 681.486C854.382 679.926 857.242 679.858 859.12 679.589Z"/><path fill="#D15246" transform="scale(0.195312 0.195312)" d="M935.965 662.291C936.975 662.386 937.984 662.551 938.989 662.687L939.596 663.777C939.449 666.279 938.647 668.379 937.674 670.663C934.454 678.223 926.267 695.945 920.921 701.543C920.007 702.5 918.63 703.03 917.423 703.514C916.364 703.591 915.449 703.515 914.399 703.368C914.684 699.683 932.795 666.459 935.965 662.291Z"/><path fill="#D15246" transform="scale(0.195312 0.195312)" d="M759.694 627.34L759.941 627.441C761.423 629.442 764.878 663.111 765.507 668.032L760.617 672.707C758.011 669.3 755.232 638.435 754.224 632.074L759.694 627.34Z"/><path fill="#D15246" transform="scale(0.195312 0.195312)" d="M730.373 654.192C733.023 661.718 735.116 685.176 736.152 694.284C734.617 695.839 732.869 697.092 731.126 698.401L724.962 659.389L730.373 654.192Z"/><path fill="#FDF4E4" transform="scale(0.195312 0.195312)" d="M941.106 674.848C943.289 677.704 945.589 692.41 946.647 696.966C942.117 698.23 937.474 699.124 932.876 700.109C931.27 700.43 930.115 700.647 928.505 700.275C928.971 696.833 938.872 679.344 941.106 674.848Z"/><path fill="#FDF4E4" transform="scale(0.195312 0.195312)" d="M720.679 713.202C719.591 717.701 712.073 733.022 709.091 736.432L708.44 735.487C707.117 731.094 706.066 726.75 705.202 722.245C710.814 719.85 715.725 716.728 720.679 713.202Z"/><path fill="#FDF4E4" transform="scale(0.195312 0.195312)" d="M885.218 534.156C889.244 536.562 895.174 544.09 898.756 547.691C897.172 549.286 895.442 550.774 893.79 552.302L888.599 556.717C887.238 549.234 886.111 541.71 885.218 534.156Z"/><defs><linearGradient id="gradient_0" gradientUnits="userSpaceOnUse" x1="710.33551" y1="706.66833" x2="718.1969" y2="709.41376"><stop offset="0" stop-color="#BB4E4E"/><stop offset="1" stop-color="#E4635F"/></linearGradient></defs><path fill="url(#gradient_0)" transform="scale(0.195312 0.195312)" d="M719.27 700.342C719.428 700.447 719.6 700.533 719.743 700.657C720.918 701.678 721.34 702.386 721.577 703.936C719.613 708.582 711.726 712.417 707.563 715.118L706.52 715.325C707.419 712.653 716.716 703.568 719.27 700.342Z"/><path fill="#23212B" transform="scale(0.195312 0.195312)" d="M181.908 62.3357C258.802 61.6653 321.664 123.474 322.274 200.351C322.883 277.227 261.009 340.024 184.114 340.573C107.305 341.12 44.5776 279.346 43.9688 202.556C43.36 125.766 105.1 63.0054 181.908 62.3357Z"/><path fill="#D4D5BF" transform="scale(0.195312 0.195312)" d="M176.52 68.892C249.904 65.2817 312.291 121.895 315.783 195.267C319.274 268.639 262.546 330.918 189.15 334.29C115.924 337.653 53.8036 281.097 50.3199 207.894C46.8361 134.691 103.305 72.494 176.52 68.892Z"/><path fill="#23212B" transform="scale(0.195312 0.195312)" d="M242.581 100.758C252.925 99.8346 262.547 103.346 271.079 109.027C284.618 118.042 295.724 132.347 298.924 148.519C300.592 156.947 299.816 166.178 294.838 173.406C286.535 185.462 270.069 186.739 256.833 189.273C243.643 191.636 221.699 195.496 209.842 188.48C205.529 185.928 203.106 181.84 202.039 177.028C198.993 163.297 215.6 124.559 223.527 112.758C228.463 105.41 234.074 102.488 242.581 100.758Z"/><path fill="#D4D5BF" transform="scale(0.195312 0.195312)" d="M224.786 122.085C228.353 123.588 231.784 125.398 235.039 127.494C254.579 140.18 262.62 159.366 267.19 181.297C260.939 182.715 254.646 183.802 248.33 184.889C238.162 186.203 225.544 188.02 215.791 184.258C212.469 182.977 209.571 180.853 208.206 177.468C203.819 166.59 219.968 132.623 224.786 122.085Z"/><path fill="#FDF4E4" transform="scale(0.195312 0.195312)" d="M241.578 107.048C247.764 106.373 253.216 107.092 258.993 109.428C272.733 114.985 284.683 127.072 290.356 140.719C293.627 148.587 295.422 158.184 292.019 166.312C289.357 172.671 284.88 175.868 278.634 178.379L272.735 180.02C271.909 175.255 271.043 170.528 269.73 165.867C262.891 141.592 248.675 128.368 227.311 116.519C231.455 111.442 235.35 109.007 241.578 107.048Z"/><path fill="#23212B" transform="scale(0.195312 0.195312)" d="M97.2238 120.138C102.782 119.573 108.633 119.512 113.57 122.535C122.889 128.24 155.83 173.054 158.172 183.428C159.003 187.107 158.681 191.089 156.534 194.274C151.021 202.451 127.629 204.83 118.055 206.69C105.81 209.096 84.8382 213.634 73.1489 208.245C67.0798 205.448 62.9719 200.394 60.8035 194.133C56.0641 180.449 60.6294 163.096 66.8191 150.6C73.3518 137.41 82.8612 124.899 97.2238 120.138Z"/><path fill="#FDF4E4" transform="scale(0.195312 0.195312)" d="M98.3503 125.734C100.568 125.478 102.836 125.339 105.057 125.655C114.271 126.966 119.904 136.581 124.791 143.486C110.322 160.249 104.03 181.539 103.471 203.299L92.6796 204.375C87.1876 204.773 81.7652 205.037 76.5817 202.854C72.1275 200.978 68.8056 197.585 66.9468 193.133C62.3582 182.145 66.2341 167.294 70.6454 156.869C76.2212 143.692 84.7253 131.241 98.3503 125.734Z"/><path fill="#D4D5BF" transform="scale(0.195312 0.195312)" d="M128.247 147.928C133.976 154.174 150.006 176.898 152.068 184.621C152.57 186.502 152.98 188.881 151.87 190.63C148.61 195.769 136.522 197.044 130.987 198.231L108.994 202.22C109.696 181.426 116.493 164.745 128.247 147.928Z"/><path fill="#23212B" transform="scale(0.195312 0.195312)" d="M113.021 215.36C118.093 214.904 123.325 214.833 128.418 214.794C136.731 214.729 151.291 213.883 157.459 220.465C160.634 223.854 161.598 229.01 161.455 233.515C161.077 245.452 145.776 287.52 136.83 295.804C130.567 301.603 123.393 302.145 115.248 301.881C106.541 299.829 99.3509 296.236 92.4488 290.493C79.994 280.129 67.6287 262.176 66.1942 245.647C65.5988 238.786 67.0586 231.926 71.6311 226.596C81.2648 215.366 99.4803 216.257 113.021 215.36Z"/><path fill="#FDF4E4" transform="scale(0.195312 0.195312)" d="M103.775 222.153C104.524 222.126 104.984 222.203 105.431 222.901C107.727 226.488 109.807 235.431 111.981 239.989C118.442 253.534 128.975 266.087 141.982 273.673C139.684 280.735 137.145 288.39 130.835 292.931C125.106 297.054 119.072 296.587 112.531 295.369C106.856 293.21 101.861 290.467 97.1198 286.642C85.1717 277.003 73.7755 260.704 72.2693 245.066C71.764 239.82 72.606 234.558 76.2126 230.481C83.0752 222.724 94.262 222.751 103.775 222.153Z"/><path fill="#D4D5BF" transform="scale(0.195312 0.195312)" d="M122.055 220.899C130.065 220.711 139.939 219.841 147.626 222.28C150.673 223.246 153.526 224.992 154.879 228.007C158.59 236.279 147.831 259.675 144.389 268.009L143.894 268.393C143.302 268.338 143.175 268.366 142.553 268.079C140.638 267.194 138.334 264.798 136.713 263.399C123.995 252.43 115.792 237.345 111.251 221.336L122.055 220.899Z"/><path fill="#23212B" transform="scale(0.195312 0.195312)" d="M275.421 194.55C282.227 193.868 288.079 194.231 293.564 198.765C300.795 204.743 304.04 214.744 304.855 223.795C306.255 239.344 299.609 256.504 289.662 268.314C283.03 276.189 273.582 283.168 262.996 283.913C255.539 284.438 250.049 281.709 244.6 276.88C236.282 268.916 209.195 233.383 207.163 223.52C206.526 220.43 206.84 217.749 208.637 215.122C210.808 211.947 214.3 209.797 217.765 208.275C229.773 202.999 261.45 197.136 275.421 194.55Z"/><path fill="#FDF4E4" transform="scale(0.195312 0.195312)" d="M278.314 200.163C282.383 199.823 285.776 200.476 289.199 202.824C294.885 206.723 297.447 214.433 298.446 220.949C300.667 235.425 295.058 251.003 286.434 262.523C279.801 271.382 271.764 276.915 260.746 278.441C250.455 276.956 245.397 269.379 239.305 261.822C254.328 244.227 264.983 225.113 269.306 202.179C272.27 201.339 275.297 200.773 278.314 200.163Z"/><path fill="#D4D5BF" transform="scale(0.195312 0.195312)" d="M260.97 203.914L262.297 204.039L262.587 205.26C257.406 225.403 248.637 240.928 235.544 256.877L227.646 245.751C222.843 239.174 215.19 230.849 213.299 222.922C212.876 221.149 212.978 219.744 214.028 218.232C219.434 210.445 250.597 205.965 260.97 203.914Z"/><path fill="#23212B" transform="scale(0.195312 0.195312)" d="M166.116 75.8259C169.162 75.3696 172.573 75.4225 175.67 75.4653C186.498 75.615 199.292 79.3588 206.948 87.3869C211.161 91.8047 213.895 98.1274 213.579 104.299C212.984 115.951 194.613 164.359 185.906 171.937C182.596 174.818 179.291 174.613 175.211 174.332C173.086 173.639 171.142 172.706 169.298 171.44C158.827 164.253 127.817 127.525 125.864 115.622C124.634 108.123 127.223 100.741 131.651 94.7341C139.961 83.458 152.606 77.8932 166.116 75.8259Z"/><path fill="#FDF4E4" transform="scale(0.195312 0.195312)" d="M167.628 81.4516C172.591 81.1076 177.331 81.0156 182.252 81.8688C190.49 83.2972 199.813 86.9393 204.631 94.1745C208.407 99.8442 207.847 104.873 206.474 111.126C190.612 108.554 177.208 111.12 162.35 116.708C154.396 120.211 147.305 124.401 140.33 129.57C136.138 125.411 132.496 120.163 131.769 114.171C131.031 108.091 133.401 102.207 137.043 97.4454C144.557 87.6204 155.716 83.1528 167.628 81.4516Z"/><path fill="#D4D5BF" transform="scale(0.195312 0.195312)" d="M192.72 115.881C196.525 115.624 200.567 116.175 204.379 116.437C200.061 128.748 191.456 156.678 183.557 165.62C182.048 167.328 180.218 168.195 177.92 168.23C172.457 168.312 168.274 163.287 164.833 159.688C157.27 151.778 150.622 142.87 143.816 134.303C158.577 123.649 174.446 117.142 192.72 115.881Z"/><path fill="#23212B" transform="scale(0.195312 0.195312)" d="M184.572 230.045C187.88 229.768 190.949 229.774 193.949 231.393C202.572 236.046 227.059 266.393 233.004 275.58C235.417 279.308 237.58 283.283 238.77 287.585C240.466 293.716 239.85 300.034 236.683 305.589C230.037 317.243 216.701 321.946 204.485 325.186C193.432 327.268 181.83 327.494 171.015 324.072C163.571 321.716 156.692 317.421 153.09 310.266C148.602 301.351 150.721 291.639 153.729 282.625C158.915 267.08 169.303 237.705 184.572 230.045Z"/><path fill="#FDF4E4" transform="scale(0.195312 0.195312)" d="M220.943 272.515L222.836 272.469C224.549 273.565 225.503 274.916 226.594 276.606C230.655 282.899 234.95 290.265 233.066 298.063C231.393 304.984 225.569 309.989 219.611 313.347C205.15 321.496 188.324 322.608 172.525 318.296C166.571 316.048 160.751 312.931 158 306.812C154.139 298.224 158.172 288.168 161.123 279.928C181.855 281.692 201.179 278.977 220.943 272.515Z"/><path fill="#D4D5BF" transform="scale(0.195312 0.195312)" d="M185.846 236.115C186.886 236.092 187.9 236.088 188.933 236.231C196.641 237.291 213.724 260.449 218.974 266.981C211.263 269.39 203.406 271.094 195.524 272.838C184.681 274.653 174.16 275.215 163.196 274.49C166.756 263.357 175.757 242.289 185.846 236.115Z"/><path fill="#23212B" transform="scale(0.195312 0.195312)" d="M180.286 189.107C187.955 187.907 195.182 193.039 196.574 200.674C197.966 208.308 193.016 215.66 185.416 217.243C180.328 218.303 175.065 216.521 171.669 212.588C168.272 208.655 167.275 203.19 169.065 198.312C170.856 193.434 175.151 189.91 180.286 189.107Z"/><path fill="#E49C5C" transform="scale(0.195312 0.195312)" d="M179.412 195.932C182.097 194.758 185.208 195.134 187.536 196.914C189.864 198.694 191.042 201.597 190.613 204.495C190.183 207.393 188.214 209.83 185.469 210.858C181.381 212.39 176.815 210.388 175.174 206.343C173.532 202.298 175.412 197.681 179.412 195.932Z"/><path fill="#23212B" transform="scale(0.195312 0.195312)" d="M264.352 820.729C265.814 820.546 267.193 820.366 268.567 821.023C270.769 822.076 272.188 824.39 272.847 826.668C273.405 828.596 273.348 830.874 272.321 832.642C271.445 834.148 270.273 834.902 268.724 835.629C261.42 839.053 252.434 840.923 244.691 843.241C227.205 848.509 209.68 853.648 192.118 858.657C189.398 878.643 188.623 899.055 186.741 919.151C197.197 920.462 238.454 925.486 245.313 929.011C253.729 933.335 257.242 941.379 259.98 949.944C263.651 950.562 270.492 950.408 272.93 953.444C276.764 958.217 290.616 978.686 289.724 983.907C289.551 984.914 289.094 984.963 288.325 985.55C284.488 986.447 279.883 985.269 276.001 984.745C266.161 1028.23 253.748 1071.4 242.537 1114.57L227.777 1172.97C225.637 1181.31 223.792 1189.87 221.227 1198.08C220.325 1200.97 219.422 1203.15 217.36 1205.42C212.013 1211.31 204.667 1212.4 197.135 1212.67C184.542 1211.94 171.365 1208.98 158.832 1207.12C146.398 1205.27 132.668 1204.33 120.578 1201.12C116.947 1200.15 112.604 1198.65 109.974 1195.89C107.369 1193.14 105.909 1189.55 105.53 1185.82C104.773 1178.36 105.405 1170.35 105.462 1162.84L105.658 1119.55L105.699 962.079C101.065 961.058 93.6576 961.416 89.6464 959.186C88.3765 958.48 87.6312 957.256 87.4366 955.831C87.1011 953.374 89.1896 950.28 90.5655 948.365C95.0457 942.13 99.8446 939.393 107.393 938.13C110.676 933.797 112.826 929.704 118.687 929.417C119.819 929.362 120.947 929.352 121.933 928.717C125.19 926.618 127.179 922.258 130.227 919.755C141.682 910.35 157.226 915.739 170.448 917.027C170.91 907.435 174.171 854.565 176.558 849.547C177.496 847.576 181.219 846.203 183.234 845.414C193.387 841.441 204.477 838.8 214.937 835.674L264.352 820.729Z"/><path fill="#FDF4E4" transform="scale(0.195312 0.195312)" d="M169.915 971.072C178.797 971.964 187.7 973.459 196.551 974.666C195.528 986.768 193.175 998.927 191.328 1010.93L184.146 1059.58C177.283 1104.06 170.882 1148.59 163.402 1192.98C162.787 1195.71 162.527 1198.55 162.162 1201.34C156.868 1200.42 151.452 1199.85 146.123 1199.13C154.719 1123.18 162.65 1047.16 169.915 971.072Z"/><path fill="#D15246" transform="scale(0.195312 0.195312)" d="M138.619 966.553C147.262 967.281 156.071 968.576 164.581 970.26C162.714 981.808 161.844 993.647 160.654 1005.29L154.4 1068.04C150.437 1107.31 145.199 1146.45 141.756 1185.78L140.472 1197.91L129.297 1196.55C129.869 1166.42 132.103 1136.26 133.297 1106.14C135.142 1059.63 136.271 1013.04 138.619 966.553Z"/><path fill="#D15246" transform="scale(0.195312 0.195312)" d="M202.079 975.398L228.829 978.985C211.776 1049.91 196.341 1121.22 182.537 1192.85L180.105 1204.47C176.132 1203.58 171.963 1203.16 167.934 1202.56C176.105 1159.33 181.584 1115.4 188.31 1071.91L196.53 1015.51C198.547 1002.21 201.398 988.838 202.079 975.398Z"/><path fill="#FDF4E4" transform="scale(0.195312 0.195312)" d="M234.431 979.823L255.918 982.718C247.055 1011.47 240.267 1041.39 232.962 1070.61C221.941 1113.79 211.344 1157.09 201.173 1200.48L199.604 1206.48C195.076 1206.38 190.545 1205.77 186.043 1205.3C202.455 1130.22 216.02 1054.47 234.431 979.823Z"/><path fill="#FDF4E4" transform="scale(0.195312 0.195312)" d="M112.015 962.84C118.754 964.205 125.673 964.932 132.49 965.838C132.234 993.057 130.718 1020.36 129.695 1047.56L123.657 1188.86C123.576 1190.43 123.385 1191.99 123.216 1193.55C122.106 1194.88 122.01 1194.87 120.309 1195.26C118.093 1194.64 116.592 1193.53 114.942 1191.97C112.922 1190.06 111.713 1187.75 111.446 1184.97C110.707 1177.26 111.298 1169.06 111.411 1161.31C111.658 1147.56 111.796 1133.82 111.824 1120.07C112.245 1067.66 112.308 1015.25 112.015 962.84Z"/><path fill="#FDF4E4" transform="scale(0.195312 0.195312)" d="M103.219 944.387C129.998 947.098 156.699 951.389 183.316 955.334C202.718 958.21 222.172 960.536 241.568 963.554C249.552 964.796 268.856 966.53 275.569 969.181C278.891 970.493 280.691 976.392 281.965 979.391L273.786 978.57C235.008 973.778 196.282 968.568 157.617 962.941C136.834 960.026 115.87 957.933 95.1999 954.262L95.5258 953.543C97.4295 949.262 99.4025 947.07 103.219 944.387Z"/><path fill="#D15246" transform="scale(0.195312 0.195312)" d="M262.154 983.074L269.963 983.936L234.758 1119.48C230.007 1138.78 225.115 1158.05 220.083 1177.28C218.277 1184.03 216.798 1191.06 214.6 1197.67C213.885 1199.83 212.888 1201.4 211.373 1203.08C209.602 1204.02 207.734 1204.81 205.909 1205.64C214.183 1170.45 222.82 1135.34 231.818 1100.33C241.511 1061.18 251.126 1021.87 262.154 983.074Z"/><path fill="#FDF4E4" transform="scale(0.195312 0.195312)" d="M142.468 920.101C150.027 919.763 235.528 931.26 241.319 933.746C247.876 936.561 250.776 943.119 253.494 949.193C249.577 948.872 245.672 948.417 241.786 947.829C204.101 942.765 166.49 937.159 128.965 931.013C132.388 925.689 136.82 922.75 142.468 920.101Z"/><path fill="#D15246" transform="scale(0.195312 0.195312)" d="M263.725 826.997L265.678 826.82C266.775 827.577 266.859 827.516 267.165 828.796C262.236 834.198 199.535 848.472 186.518 855.138C184.427 876.209 182.493 897.296 180.716 918.396C179.006 918.218 178.131 918.416 176.85 917.222C176.239 915.159 176.128 913.104 176.271 910.967C176.667 905.04 177.871 899.12 178.356 893.168C179.19 882.943 179.3 861.771 181.837 853.109C185.751 849.758 254.005 829.383 263.725 826.997Z"/><path fill="#FDF4E4" transform="scale(0.195312 0.195312)" d="M116.93 935.392C127.024 938.074 140.119 938.948 150.611 940.578L234.752 952.927C245.292 954.397 257.132 954.808 267.37 957.519C268.386 957.788 269 958.17 269.799 958.825C270.054 960.263 270.135 960.218 269.33 961.421C227.99 954.629 186.178 949.531 144.689 943.671C138.869 942.849 119.179 941.394 115.581 939.54C115.257 937.722 116.06 936.981 116.93 935.392Z"/><path fill="#23212B" transform="scale(0.195312 0.195312)" d="M672.6 1071.43C671.871 1069.89 671.253 1067.56 669.538 1066.97C668.708 1066.69 667.417 1066.76 666.529 1066.72C665.161 1065.8 664.87 1065.37 664.332 1063.88C664.661 1062.4 665.206 1061.29 665.931 1059.96C665.754 1058.09 665.444 1057.71 664.42 1056.21C662.707 1055.28 661.275 1055.08 659.354 1054.85C658.214 1053.82 657.709 1053.18 657.697 1051.55C657.692 1050.89 657.78 1050.58 657.902 1049.97C664.502 1044.77 691.643 1034.46 700.683 1030.43C748.353 1009.07 796.161 988.024 844.104 967.282L897.549 943.672C908.435 938.793 919.387 932.699 930.891 929.458C932.466 930.206 933.082 930.618 934.08 932.046L933.916 933.02L931.26 934.875C931.13 936.47 931.286 937.059 931.976 938.434C933.58 939.636 935.234 939.738 937.176 940.025C938.449 941.242 938.392 941.355 938.646 943.116C938.063 944.379 937.325 944.701 936.178 945.394C936.162 946.877 936.184 947.44 937.045 948.727C938.552 949.368 939.825 949.491 941.451 949.6C942.785 950.793 942.72 951.067 943.08 952.75C942.414 954.008 941.861 954.247 940.645 954.87C940.63 956.638 940.762 957.407 941.778 958.87C944.007 960.045 945.993 960.19 947.516 962.242C947.636 965.83 944.719 966.294 946.992 970.135C948.877 969.991 950.185 969.244 951.811 970.293C952.398 971.765 952.608 972.106 952.355 973.721C950.812 975.154 950.226 975.227 950.097 977.394C950.845 978.932 950.751 979.295 952.403 979.933C954.102 979.626 954.257 979.396 955.788 980.337C956.601 981.782 956.746 981.844 956.492 983.46C955.281 984.918 954.64 985.224 954.636 987.164C955.414 988.467 955.681 989.469 957.286 989.891C958 990.079 959.013 989.977 959.758 989.966C960.96 991.045 961.059 991.677 961.385 993.189C960.759 994.364 960.03 994.803 958.968 995.55C958.883 997.14 959.018 997.379 959.778 998.795C961.249 999.672 962.586 999.43 964.218 999.321C965.232 1000.37 965.236 1000.55 965.495 1002C964.777 1003.06 964.065 1003.86 963.159 1004.76C963.217 1006.32 963.504 1006.68 964.285 1007.99C965.704 1008.57 966.722 1008.48 968.202 1008.37C969.217 1009.44 969.333 1009.6 969.618 1011.05C968.152 1012.91 967.459 1013.15 967.599 1015.59L968.589 1017.15C969.99 1017.34 970.779 1017.12 972.104 1016.73C973.351 1017.72 973.354 1018.1 973.833 1019.57C973.326 1021.06 972.709 1021.81 971.653 1022.91C971.819 1024.34 971.843 1024.35 972.879 1025.36C974.877 1025.79 975.469 1025.67 976.856 1027.24C977.082 1030.86 973.369 1030.15 976.598 1034.18L977.224 1034.14C978.057 1034.09 978.885 1034.08 979.72 1034.07C980.796 1035.28 981.016 1035.52 981.333 1037.1C980.356 1038.67 979.236 1039.71 979.656 1041.66C979.777 1042.23 980.366 1043.08 980.639 1043.55C981.779 1043.86 982.649 1043.54 983.768 1043.27C985.058 1044.07 985.14 1044.3 985.813 1045.68C985.425 1047.03 984.673 1047.77 983.752 1048.77C983.422 1050.47 983.539 1051.02 984.266 1052.59C985.652 1053 986.821 1052.77 988.215 1052.56C989.547 1053.4 989.614 1053.63 990.281 1055.08C989.674 1057.24 987.24 1057.44 987.248 1059.52C989.755 1061.28 993.17 1061.43 995.206 1063.69C995.316 1064.43 995.595 1064.82 995.062 1065.46C993.889 1066.86 725.612 1180.26 720.718 1180.24C719.606 1180.24 719.071 1179.67 718.217 1179.06C717.206 1175.12 720.312 1171.36 717.966 1167.42C715.733 1166.81 714.292 1167.32 712.25 1166.09C711.909 1165.42 711.372 1164.89 711.642 1164.12C712.095 1162.83 713.357 1161.81 714.304 1160.85C714.127 1159.22 713.701 1158.64 712.741 1157.38C710.782 1156.51 709.41 1156.39 708.498 1154.35C708.664 1152.63 709.04 1151.34 709.679 1149.75L709.222 1147.7C706.902 1147.29 704.64 1147.15 702.885 1145.52C702.135 1142.33 706.361 1139.27 702.066 1136.55C701.467 1136.17 700.803 1135.87 700.168 1135.55C698.484 1134.72 697.837 1134.67 696.962 1132.98C697.381 1131.04 697.599 1130.95 698.994 1129.68C699.216 1128.95 698.906 1127.96 698.786 1127.21C697.165 1125.51 694.768 1125.69 692.599 1124.7C691.669 1123.4 691.615 1122.72 691.507 1121.18C692.164 1119.7 692.621 1118.42 692.902 1116.83C692.416 1115.21 692.529 1114.75 691.068 1113.8C689.596 1114.09 688.632 1114.34 687.179 1113.75C686.283 1112.4 686.137 1111.88 686.157 1110.26C687.034 1108.93 687.721 1107.8 688.212 1106.29C687.839 1104.78 687.678 1103.88 686.388 1102.86C685.461 1102.86 684.381 1102.93 683.478 1102.72C681.883 1102.35 681.367 1100.95 680.625 1099.68C680.796 1097.48 681.585 1097.29 683.173 1095.83L683.058 1094.21C681.517 1091.95 679.477 1091.61 676.972 1090.66C675.829 1089.25 675.694 1089.03 675.475 1087.23C676.274 1085.36 676.871 1083.86 677.035 1081.83C676.477 1080.11 675.867 1079.32 674.57 1078.08C673.319 1078.15 672.412 1078.14 671.173 1077.85C669.999 1076.59 669.598 1076.35 669.29 1074.61C670.236 1072.83 670.95 1072.52 672.6 1071.43Z"/><path fill="#D4D5BF" transform="scale(0.195312 0.195312)" d="M668.12 1051.37C674.553 1048.54 681.037 1045.83 687.57 1043.24C699.857 1073.14 715.005 1102.16 728.768 1131.42C733.807 1142.13 739.396 1152.91 743.602 1163.97C737.552 1166.76 731.526 1169.37 725.282 1171.7C719.15 1157.26 712.135 1143.27 705.18 1129.22C703.943 1129.95 701.999 1131.09 700.527 1130.65C699.789 1130.43 699.524 1130.21 698.994 1129.68C699.216 1128.95 698.906 1127.96 698.786 1127.21C697.165 1125.51 694.768 1125.69 692.599 1124.7C691.669 1123.4 691.615 1122.72 691.507 1121.18C692.164 1119.7 692.621 1118.42 692.902 1116.83C692.416 1115.21 692.529 1114.75 691.068 1113.8C689.596 1114.09 688.632 1114.34 687.179 1113.75C686.283 1112.4 686.137 1111.88 686.157 1110.26C687.034 1108.93 687.721 1107.8 688.212 1106.29C687.839 1104.78 687.678 1103.88 686.388 1102.86C685.461 1102.86 684.381 1102.93 683.478 1102.72C681.883 1102.35 681.367 1100.95 680.625 1099.68C680.796 1097.48 681.585 1097.29 683.173 1095.83L683.058 1094.21C681.517 1091.95 679.477 1091.61 676.972 1090.66C675.829 1089.25 675.694 1089.03 675.475 1087.23C676.274 1085.36 676.871 1083.86 677.035 1081.83C676.477 1080.11 675.867 1079.32 674.57 1078.08C673.319 1078.15 672.412 1078.14 671.173 1077.85C669.999 1076.59 669.598 1076.35 669.29 1074.61C670.236 1072.83 670.95 1072.52 672.6 1071.43C673.858 1072.4 674.995 1073.24 676.686 1072.99C677.265 1072.9 677.713 1072.65 678.225 1072.41C676.568 1068.32 674.411 1065.17 672.409 1061.37C670.737 1058.19 669.936 1054.64 668.12 1051.37Z"/><path fill="#23212B" transform="scale(0.195312 0.195312)" d="M672.6 1071.43C673.858 1072.4 674.995 1073.24 676.686 1072.99C677.265 1072.9 677.713 1072.65 678.225 1072.41C688.378 1090.65 695.164 1110.88 705.18 1129.22C703.943 1129.95 701.999 1131.09 700.527 1130.65C699.789 1130.43 699.524 1130.21 698.994 1129.68C699.216 1128.95 698.906 1127.96 698.786 1127.21C697.165 1125.51 694.768 1125.69 692.599 1124.7C691.669 1123.4 691.615 1122.72 691.507 1121.18C692.164 1119.7 692.621 1118.42 692.902 1116.83C692.416 1115.21 692.529 1114.75 691.068 1113.8C689.596 1114.09 688.632 1114.34 687.179 1113.75C686.283 1112.4 686.137 1111.88 686.157 1110.26C687.034 1108.93 687.721 1107.8 688.212 1106.29C687.839 1104.78 687.678 1103.88 686.388 1102.86C685.461 1102.86 684.381 1102.93 683.478 1102.72C681.883 1102.35 681.367 1100.95 680.625 1099.68C680.796 1097.48 681.585 1097.29 683.173 1095.83L683.058 1094.21C681.517 1091.95 679.477 1091.61 676.972 1090.66C675.829 1089.25 675.694 1089.03 675.475 1087.23C676.274 1085.36 676.871 1083.86 677.035 1081.83C676.477 1080.11 675.867 1079.32 674.57 1078.08C673.319 1078.15 672.412 1078.14 671.173 1077.85C669.999 1076.59 669.598 1076.35 669.29 1074.61C670.236 1072.83 670.95 1072.52 672.6 1071.43Z"/><path fill="#D4D5BF" transform="scale(0.195312 0.195312)" d="M901.268 948.088L901.982 948.222C905.481 950.883 954.401 1061.7 959.25 1074.5C945.28 1080.76 930.889 1086.26 916.735 1092.1L855.993 1117.51C820.826 1132.09 785.979 1147.49 750.342 1160.93C749.724 1160.58 749.165 1160.07 748.794 1159.46C746.792 1156.14 745.327 1152.16 743.672 1148.65L732.769 1125.58C719.448 1097.42 706.52 1068.87 692.559 1041.03C701.124 1036.57 710.16 1032.88 718.966 1028.92C734.633 1021.75 750.371 1014.73 766.177 1007.87C811.282 988.217 856.673 968.867 901.268 948.088Z"/><path fill="#23212B" transform="scale(0.195312 0.195312)" d="M899.479 958.69L900.317 958.879C901.837 960.207 902.609 961.904 903.499 963.686C907.297 971.287 910.51 979.265 914.002 987.015L932.893 1028.61C938.259 1040.56 946.084 1054.57 949.637 1066.96C939.824 1072.87 927.423 1076.68 916.805 1081.12L854.254 1107.59C830.801 1117.61 807.293 1127.5 783.731 1137.27C773.327 1141.65 762.9 1147.2 752.151 1150.59C751.929 1150.45 751.687 1150.33 751.485 1150.16C750.108 1149.01 703.772 1053.08 702.639 1046.51C711.908 1041.38 722.068 1037.53 731.761 1033.24L783.967 1010.22C822.591 993.33 860.764 975.344 899.479 958.69Z"/><path fill="#F8E0A9" transform="scale(0.195312 0.195312)" d="M896.287 966.235L897.836 966.502C902.647 973.154 907.629 986.791 911.227 994.671C921.72 1017.65 932.546 1040.67 942.398 1063.92C898.269 1083.65 853.147 1101.58 808.639 1120.47C791.105 1127.92 772.885 1134.72 755.855 1143.2L754.535 1142.79C749.307 1134.53 745.656 1124.45 741.367 1115.63C730.726 1093.76 719.849 1071.95 709.914 1049.75C732.157 1038.68 755.526 1029.22 778.339 1019.37C799.029 1010.31 819.652 1001.11 840.207 991.756C858.946 983.372 877.842 975.246 896.287 966.235Z"/><path fill="#23212B" transform="scale(0.195312 0.195312)" d="M818.334 1010.8C843.2 1007.51 866.014 1025.03 869.232 1049.9C872.449 1074.77 854.845 1097.52 829.958 1100.66C805.187 1103.78 782.557 1086.28 779.355 1061.52C776.153 1036.77 793.583 1014.09 818.334 1010.8Z"/><path fill="#D15246" transform="scale(0.195312 0.195312)" d="M819.246 1016.71C833.283 1014.87 847.228 1020.7 855.766 1031.99C864.303 1043.28 866.117 1058.29 860.515 1071.29C854.913 1084.29 842.76 1093.27 828.688 1094.83C807.242 1097.19 787.89 1081.85 785.301 1060.44C782.713 1039.02 797.854 1019.52 819.246 1016.71Z"/><path fill="#23212B" transform="scale(0.195312 0.195312)" d="M832.311 1037.2C839.224 1035.26 846.393 1039.3 848.32 1046.22C850.248 1053.13 846.202 1060.29 839.287 1062.22C832.377 1064.14 825.219 1060.1 823.293 1053.19C821.368 1046.28 825.404 1039.12 832.311 1037.2Z"/><path fill="#F8E0A9" transform="scale(0.195312 0.195312)" d="M835.504 1042.93C839.215 1042.71 842.431 1045.47 842.771 1049.17C843.112 1052.87 840.454 1056.18 836.765 1056.64C834.27 1056.95 831.804 1055.87 830.33 1053.84C828.857 1051.8 828.61 1049.12 829.688 1046.85C830.765 1044.58 832.994 1043.08 835.504 1042.93Z"/><path fill="#23212B" transform="scale(0.195312 0.195312)" d="M803.9 1048.21C805.827 1048.05 808.212 1047.85 810.118 1048.24C813.087 1048.85 816.082 1051.5 817.562 1054.06C818.991 1056.53 819.545 1059.35 818.773 1062.13C817.784 1065.7 815.495 1067.56 812.4 1069.32C810.544 1069.73 808.675 1069.99 806.776 1069.72C803.725 1069.28 800.928 1067.38 799.241 1064.82C797.45 1062.11 796.908 1058.75 797.751 1055.61C798.743 1051.91 800.684 1050.09 803.9 1048.21Z"/><path fill="#FDDB91" transform="scale(0.195312 0.195312)" d="M806.929 1053.91C808.785 1053.13 810.918 1053.44 812.474 1054.72C814.03 1056 814.754 1058.03 814.356 1060C813.958 1061.97 812.503 1063.56 810.575 1064.13C807.806 1064.95 804.878 1063.47 803.909 1060.75C802.939 1058.03 804.265 1055.02 806.929 1053.91Z"/><path fill="#D4D5BF" transform="scale(0.195312 0.195312)" d="M925.47 936.884C931.784 945.899 935.897 959.038 940.634 969.224L984.014 1064.1C978.251 1067 972.078 1069.37 966.149 1071.93C964.851 1071.42 964.469 1070.68 963.843 1069.44C957.745 1057.41 952.738 1044.5 947.2 1032.16C934.279 1003.08 921.189 974.067 907.932 945.133L925.47 936.884Z"/><path fill="#23212B" transform="scale(0.195312 0.195312)" d="M616.023 854.553C622.394 854.051 629.663 855.686 634.931 859.38C657.75 875.384 637.964 904.426 627.507 921.171C623.422 927.712 619.433 934.314 616.068 941.261C609.698 954.407 605.173 969.727 607.822 984.415C609.657 994.589 616.626 1007.08 627.162 1010.29C631.141 1011.49 635.347 1011.23 638.893 1013.69C639.569 1015.39 639.579 1015.62 639.239 1017.42C637.683 1018.66 636.945 1018.54 634.941 1018.47C626.795 1018.18 616.97 1012.8 611.638 1006.77C605.662 1000.02 602.225 990.73 601.127 981.88C595.674 937.972 637.34 910.449 638.841 881.789C639.145 875.979 637.281 870.259 633.259 865.985C629.985 862.505 625.277 860.978 620.599 860.802C597.09 859.919 574.939 885.462 559.208 900.15C561.073 902.988 562.614 905.694 563.596 908.965C564.617 912.364 564.721 915.47 563.635 918.858C559.853 930.662 551.057 943.814 545.01 954.783L511.143 1016.63C505.527 1027.97 498.877 1039.06 492.805 1050.18C487.927 1059.12 483.308 1069.66 477.081 1077.66C474.601 1080.85 471.893 1083.37 468.118 1084.93C459.784 1088.36 452.097 1087.95 443.883 1084.43C431.78 1079.25 420.039 1072.64 408.253 1066.72C397.365 1061.24 380.929 1054.48 371.7 1047.28C367.406 1043.87 364.079 1039.4 362.051 1034.3C359.069 1026.65 360.004 1018.15 363.319 1010.76C367.476 1001.5 372.987 992.534 377.792 983.583L410.41 923.372L430.167 886.435C433.663 879.794 436.864 871.883 441.371 865.941C444.572 861.721 449.903 858.403 454.816 856.587C459.654 854.799 464.494 855.155 469.379 856.495C480.7 859.6 492.231 866.753 502.751 871.959C519.735 880.451 536.868 888.641 554.142 896.525C571.279 879.429 590.995 858.49 616.023 854.553Z"/><path fill="#547B7C" transform="scale(0.195312 0.195312)" d="M457.797 861.957C461.248 861.558 465.38 861.452 468.699 862.574C475.234 864.782 481.532 868.536 487.686 871.638L517.994 886.636C527.704 891.369 544.484 897.927 552.655 903.368C556.473 905.91 557.364 910.363 558.333 914.538C558.25 914.945 558.158 915.349 558.058 915.752C556.033 923.744 550.09 932.352 546.173 939.616L513.19 999.344L486.165 1048.7C482.107 1056.13 478.591 1064.11 474.032 1071.24C471.676 1074.93 469.085 1077.27 465.31 1079.46C458.485 1081.55 453.455 1081.54 446.793 1078.98C436.383 1074.96 426.362 1068.65 416.351 1063.68C405.316 1058.2 386.071 1050.4 376.634 1043.37C373.003 1040.67 369.975 1037.15 368.175 1032.97C365.619 1027.05 366.375 1020.42 368.811 1014.58C372.895 1004.8 378.589 995.451 383.663 986.149L409.841 938.099L434.62 891.521C438.722 883.923 442.657 875.234 447.902 868.387C450.475 865.028 454.01 863.497 457.797 861.957Z"/><path fill="#23212B" transform="scale(0.195312 0.195312)" d="M447.165 1021.71C453.172 1020.09 459.585 1021.84 463.931 1026.29C468.277 1030.74 469.876 1037.19 468.112 1043.16C466.347 1049.12 461.494 1053.67 455.426 1055.04C446.307 1057.1 437.215 1051.49 434.966 1042.42C432.718 1033.35 438.139 1024.14 447.165 1021.71Z"/><path fill="#23212B" transform="scale(0.195312 0.195312)" d="M403.359 1000.48C412.478 998.118 421.799 1003.55 424.241 1012.64C426.682 1021.74 421.332 1031.1 412.255 1033.62C403.067 1036.17 393.564 1030.74 391.092 1021.54C388.621 1012.33 394.13 1002.87 403.359 1000.48Z"/><path fill="#23212B" transform="scale(0.195312 0.195312)" d="M439.802 916.423C441.891 916.286 444.234 916.17 446.302 916.596C452.962 917.97 463.608 923.309 467.28 929.269C469.008 932.052 469.521 935.422 468.698 938.592C467.41 943.373 463.431 946.768 459.283 949.071C457.568 949.319 455.951 949.373 454.236 949.056C447.223 947.762 436.187 942.602 432.362 936.357C430.453 933.253 429.949 929.486 430.975 925.989C432.244 921.772 436.015 918.381 439.802 916.423Z"/><path fill="#D15246" transform="scale(0.195312 0.195312)" d="M441.007 922.457C441.756 922.364 442.471 922.276 443.226 922.29C448.047 922.377 456.75 926.911 460.117 930.563C461.504 932.066 462.64 934.056 462.501 936.166C462.304 939.174 460.09 941.339 457.932 943.163C457.273 943.274 457.212 943.301 456.621 943.353C451.927 943.764 443.557 939.364 439.903 936.169C438.197 934.677 436.622 932.443 436.66 930.079C436.708 927.032 439.06 924.546 441.007 922.457Z"/><path fill="#23212B" transform="scale(0.195312 0.195312)" d="M471.944 980.038C481.142 978.301 490.02 984.307 491.827 993.49C493.635 1002.67 487.696 1011.59 478.526 1013.47C469.255 1015.37 460.212 1009.35 458.384 1000.07C456.557 990.787 462.645 981.793 471.944 980.038Z"/><path fill="#23212B" transform="scale(0.195312 0.195312)" d="M426.613 958.037C435.804 956.537 444.495 962.697 446.12 971.864C447.746 981.031 441.703 989.803 432.557 991.553C426.529 992.706 420.346 990.526 416.375 985.848C412.404 981.169 411.26 974.715 413.38 968.957C415.5 963.198 420.556 959.026 426.613 958.037Z"/><path fill="#23212B" transform="scale(0.195312 0.195312)" d="M485.224 937.511C486.686 937.444 488.201 937.363 489.657 937.553C496.374 938.43 506.908 943.886 510.826 949.595C512.673 952.286 513.435 955.517 512.638 958.715C511.468 963.404 507.411 966.789 503.415 969.102C502.107 969.248 500.825 969.309 499.516 969.119C492.453 968.09 481.909 963.402 477.785 957.29C475.944 954.615 475.329 951.284 476.093 948.129C477.283 943.122 481.03 940.016 485.224 937.511Z"/><path fill="#D15246" transform="scale(0.195312 0.195312)" d="M487.423 943.069C493.229 943.96 502.052 947.933 505.537 952.922C506.628 954.484 507.021 956.146 506.538 958.006C505.981 960.15 503.237 962.68 501.448 963.775C495.724 962.515 485.992 959.106 482.588 954.078C481.654 952.698 481.207 951.265 481.637 949.623C482.384 946.773 485.067 944.599 487.423 943.069Z"/><path fill="#23212B" transform="scale(0.195312 0.195312)" d="M467.078 883.511C477.305 890.098 533.475 914.288 536.887 919.04C536.863 921.189 535.471 922.795 534.33 924.531C511.008 911.94 486.609 901.378 463.234 888.884C464.49 887.075 465.772 885.284 467.078 883.511Z"/><path fill="#23212B" transform="scale(0.195312 0.195312)" d="M462.961 253.126C463.476 253.113 463.992 253.111 464.507 253.12C466.882 253.173 468.785 253.772 470.393 255.599C474.992 260.822 473.23 271.799 472.91 278.27C478.336 281.649 488.816 286.676 490.539 293.326C490.935 294.854 490.709 296.42 489.881 297.766C486.271 303.633 474.762 305.264 468.603 306.814C467.099 312.782 465.529 321.875 460.376 325.914C458.79 327.158 456.776 327.779 454.772 327.383C449.882 326.417 446.882 321.215 444.249 317.471L439.55 310.726C433.502 310.832 422.94 312.18 417.79 308.623C416.434 307.686 415.467 306.311 415.294 304.651C414.635 298.298 422.098 290.455 425.85 285.8C423.728 279.794 419.07 270.979 421.183 264.584C421.699 263.023 422.725 261.77 424.238 261.093C430.338 258.362 439.825 262.851 445.696 264.956C451.699 261.324 456.575 256.149 462.961 253.126Z"/><path fill="#FDDB91" transform="scale(0.195312 0.195312)" d="M463.623 259.173C464.778 259.221 465.224 259.442 466.162 260.107C468.681 265.405 466.891 275.526 466.637 281.466C471.444 285.198 478.8 287.975 482.647 292.587C483.566 293.688 483.457 293.926 483.304 295.269C479.299 299.156 469.068 300.675 463.667 302.368C462.268 307.185 461.181 314.926 458.399 318.973C457.483 320.304 456.93 320.454 455.385 320.684C450.789 318.719 447.953 312.923 445.3 308.882C444.227 307.466 443.006 306.135 441.855 304.78C436.797 304.996 430.121 306.045 425.22 304.824C423.513 304.399 423.043 304.034 422.222 302.519C422.892 297.325 429.446 291.052 432.545 286.786C431.179 281.17 427.285 274.868 427.026 269.171C426.967 267.868 427.174 267.699 427.994 266.789C433.251 265.708 441.807 269.829 447.028 271.235C453.022 267.886 457.991 263.079 463.623 259.173Z"/><path fill="#23212B" transform="scale(0.195312 0.195312)" d="M78.417 801.9C80.4113 801.728 82.244 801.566 84.0961 802.468C90.4503 805.562 92.6684 815.675 94.8168 821.825C101.193 822.706 111.57 823.046 116.286 827.836C117.603 829.174 118.362 830.893 118.181 832.788C117.558 839.282 108.01 845.398 103.19 849.075C104.326 855.351 107.257 865.159 103.396 870.853C102.264 872.522 100.596 873.609 98.602 873.946C92.72 874.941 86.9506 870.392 82.2965 867.341C81.9233 867.121 81.5509 866.898 81.1672 866.697C76.5297 864.264 66.5036 871.044 61.5639 872.573L60.6107 872.864L59.8103 872.617C56.5862 871.594 54.067 870.804 52.5204 867.55C49.6261 861.462 53.3385 852.778 55.3855 846.815C51.2423 841.555 43.784 836.693 43.1057 829.449C42.9548 827.838 43.2875 826.246 44.4325 825.054C49.0276 820.268 59.9989 820.827 66.1777 820.545C69.3537 813.82 72.1668 806.35 78.417 801.9Z"/><path fill="#FDDB91" transform="scale(0.195312 0.195312)" d="M80.5489 807.057C87.2704 810.042 85.8769 821.711 91.1392 826.323C95.6967 830.317 105.769 827.08 110.909 830.609C111.814 831.23 111.644 831.652 111.86 832.666C109.884 838.198 102.267 840.552 98.6362 844.94C95.885 848.265 99.0837 858.188 99.3963 862.531C99.5563 864.755 99.6196 866.693 98.095 868.429C93.5221 869.223 84.2793 861.895 80.2217 859.33C73.3843 859.854 67.4983 865.29 60.7233 866.227C59.4508 865.846 58.9531 865.918 58.3242 864.648C56.2845 860.528 60.7611 849.163 61.9952 844.87C58.6118 841.549 54.901 838.341 52.0695 834.53C50.6977 832.684 49.4508 830.957 49.8211 828.574C52.8616 825.829 60.5031 827.027 64.6432 826.566C73.6836 825.56 75.5045 813.435 80.5489 807.057Z"/><path fill="#23212B" transform="scale(0.195312 0.195312)" d="M931.533 411.765C933.133 411.583 935.036 411.503 936.589 411.972C943.259 413.987 946.935 424.526 949.841 430.17C956.513 430.955 966.414 430 971.809 434.79C973.038 435.881 973.668 437.105 973.644 438.763C973.558 444.672 962.706 453.215 958.416 456.748C960.319 462.588 964.662 472.247 962.214 478.262C961.585 479.809 960.386 480.94 958.804 481.486C952.822 483.548 944.516 478.799 939.253 476.247C931.764 473.879 923.564 484.099 915.31 483.428C913.728 483.299 912.452 482.707 911.522 481.396C907.898 476.292 911.531 464.504 912.745 458.915C907.93 454.12 899.361 449.425 898.333 442.092C898.108 440.486 898.523 438.933 899.533 437.66C903.603 432.532 914.023 432.386 920.069 431.747C923.731 424.663 925.28 417.145 931.533 411.765Z"/><path fill="#FDDB91" transform="scale(0.195312 0.195312)" d="M933.956 417.327C942.154 419.845 940.213 431.47 946.34 435.265C951.477 438.446 960.516 434.368 965.448 437.653C966.348 438.252 966.202 438.642 966.449 439.631C964.596 445.079 956.416 450.964 952.177 455.19C953.618 459.955 957.626 469.055 956.706 473.741C956.46 474.994 956.098 475.055 955.083 475.681C949.447 475.793 942.213 471.075 937.202 468.63C930.409 468.447 924.524 476.215 918.037 477.233L916.93 476.364C915.395 470.66 918.317 462.868 919.535 457.237C915.333 452.256 907.534 448.512 904.877 442.598C905.559 436.791 919.073 438.789 923.509 436.525C928.628 433.912 929.083 421.877 933.956 417.327Z"/><path fill="#23212B" transform="scale(0.195312 0.195312)" d="M683.93 473.735C691.66 474.086 697.85 480.686 703.486 485.372C709.076 483.233 718.84 479.165 724.658 481.19C726.464 481.819 727.895 483.108 728.576 484.905C730.966 491.212 725.839 500.652 723.465 506.474C725.276 508.795 727.105 511.115 728.822 513.506C731.151 516.752 735.087 522.52 734.136 526.705C732.181 535.304 712.898 529.159 707.52 532.808C704.204 537.828 699.56 545.736 693.504 547.54C691.862 548.029 690.258 547.837 688.792 546.941C682.221 542.925 681.302 531.207 679.517 524.452C673.857 521.907 664.078 519.663 660.992 513.837C660.374 512.671 660.238 511.337 660.642 510.076C662.466 504.39 673.348 500.529 678.453 498.204C678.19 492.926 677.265 486.696 678.409 481.523C679.264 477.659 680.647 475.871 683.93 473.735Z"/><path fill="#FDDB91" transform="scale(0.195312 0.195312)" d="M684.281 480.133C691.351 481.587 696.533 487.849 702.298 491.858C707.858 490.564 714.918 486.169 720.565 486.668C721.853 486.781 721.972 487.072 722.732 488.012C723.273 493.575 718.568 501.385 716.421 506.46C719.676 513.3 725.723 518.226 728.594 525.278C721.197 526.003 713.833 525.783 706.412 525.667C701.866 529.34 697.439 538.677 692.807 540.788C691.817 541.239 691.676 540.976 690.704 540.679C686.89 535.973 686.255 526.634 684.903 520.662C678.813 517.043 671.778 515.711 665.757 511.856C671.805 507.403 679.242 505.321 684.59 499.953C684.131 493.447 683.29 486.596 684.281 480.133Z"/><path fill="#23212B" transform="scale(0.195312 0.195312)" d="M954.092 1169.44C954.281 1169.42 954.47 1169.38 954.66 1169.36C957.539 1169.08 960.067 1169.11 962.3 1171.19C966.862 1175.46 966.156 1186.44 966.609 1192.42C972.605 1195.01 981.096 1197.88 985.072 1203.33C985.994 1204.59 986.429 1205.82 986.097 1207.4C984.699 1214.05 971.637 1217.69 966.532 1220.46L965.954 1220.78C965.058 1226.88 965.104 1236.1 960.271 1240.59C958.945 1241.82 957.315 1242.53 955.487 1242.43C950.347 1242.17 946.563 1236.89 943.482 1233.37L938.798 1228C932.706 1228.75 922.364 1231.14 916.694 1228C915.185 1227.17 914.157 1225.93 913.793 1224.23C912.466 1218.04 919.097 1209.45 922.184 1204.42C919.152 1198.99 913.571 1190.92 915.018 1184.44C915.385 1182.8 916.338 1181.43 917.795 1180.58C923.476 1177.23 933.36 1180.73 939.312 1182.17C944.774 1178.52 948.336 1172.92 954.092 1169.44Z"/><path fill="#FDDB91" transform="scale(0.195312 0.195312)" d="M955.64 1174.83C957.057 1175.03 957.358 1175.02 958.443 1175.92C960.928 1181.29 960.235 1189.67 960.399 1195.53C965.564 1198.84 972.705 1200.44 977.234 1204.51C978.375 1205.54 978.344 1205.75 978.374 1207.2C974.885 1211.56 965.117 1214.08 959.979 1216.51C959.48 1221.5 959.75 1229.32 957.26 1233.65C956.527 1234.92 956.164 1234.91 954.828 1235.29C949.77 1233.54 945.387 1226.54 942.07 1222.49C938.039 1219.71 927.021 1224.46 921.516 1223.47C920.719 1222.88 920.191 1222.8 919.988 1221.78C919.277 1218.19 927.484 1207.98 929.629 1204.74C927.176 1199.53 922.528 1194.11 921.168 1188.56C920.828 1187.17 920.979 1186.98 921.679 1185.83C926.771 1184.08 936.383 1187.59 941.692 1188.59C946.806 1184.54 950.38 1178.85 955.64 1174.83Z"/><path fill="#23212B" transform="scale(0.195312 0.195312)" d="M494.826 762.974C496.644 762.889 498.666 762.851 500.204 763.972C505.344 767.718 505.285 781.141 505.939 787C509.533 788.455 513.046 790.005 516.228 792.246C518.919 794.141 522.936 797.184 523.37 800.648C524.471 809.434 510.163 811.463 505.545 815.681C500.75 820.06 503.062 830.06 498.859 835.083C498.045 836.056 497.156 836.504 495.892 836.59C490.262 836.972 481.416 827.343 477.435 823.616C471.224 819.161 459.095 826.418 451.79 822.1C450.621 821.409 449.947 820.594 449.603 819.27C448.376 814.556 457.392 802.365 460.061 797.979C458.218 792.36 452.5 782.576 453.938 776.685C454.262 775.356 454.884 774.463 456.043 773.728C460.532 770.878 473.382 775.295 478.608 776.484C484.314 772.634 489.521 767.409 494.826 762.974Z"/><path fill="#FDDB91" transform="scale(0.195312 0.195312)" d="M497.023 768.526C498.479 775.814 498.968 783.08 499.551 790.473C504.728 792.749 512.446 795.225 515.328 800.359C515.422 802.034 515.456 802.852 514.278 804.158C511.099 807.683 503.349 809.475 498.874 811.02C497.983 817.75 497.274 824.754 494.828 831.129C488.695 826.716 482.593 821.077 477.561 815.441C473.081 816.232 468.608 817.099 464.072 817.494C461.176 818.152 458.12 818.207 455.163 818.421C456.054 816.136 457.17 813.992 458.294 811.817C461.188 807.445 464.14 803.112 467.151 798.82L458.519 778.176C466.076 779.347 473.438 780.896 480.704 783.319C485.803 778.313 491.259 772.714 497.023 768.526Z"/><path fill="#F8E0A9" transform="scale(0.195312 0.195312)" d="M458.294 811.817C459.617 814.686 461.516 815.813 464.072 817.494C461.176 818.152 458.12 818.207 455.163 818.421C456.054 816.136 457.17 813.992 458.294 811.817Z"/><path fill="#23212B" transform="scale(0.195312 0.195312)" d="M322.192 1158.71C330.019 1158.59 336.069 1164.22 341.973 1168.69C347.929 1166.48 357.458 1161.85 363.762 1163.71C365.386 1164.19 366.612 1165.23 367.308 1166.78C369.897 1172.54 365.315 1182.2 363.297 1187.74C366.88 1193.27 375.695 1199.61 375.389 1206.62C374.966 1216.3 357.32 1210.76 352.338 1213.78C351.814 1214.09 351.191 1214.92 350.737 1215.38C347.831 1220.27 342.914 1228.71 337.509 1230.85C336.014 1231.44 334.444 1231.45 332.979 1230.77C327.047 1228.02 324.214 1216.46 322.054 1210.62C316.415 1208.96 306.918 1207.11 303.288 1202.03C302.278 1200.61 301.894 1199.02 302.276 1197.32C303.667 1191.13 312.94 1186.22 317.868 1182.91C317.609 1177.61 316.148 1171.75 316.978 1166.51C317.612 1162.5 319.045 1161.03 322.192 1158.71Z"/><path fill="#FDDB91" transform="scale(0.195312 0.195312)" d="M323.493 1164.54C329.94 1165.82 335.708 1171.42 340.6 1175.52C346.38 1173.99 353.121 1169.55 358.963 1169.34C360.313 1169.29 360.464 1169.53 361.383 1170.4C362.354 1175.82 358.337 1183.69 356.496 1188.8C359.592 1192.74 368.252 1200.8 368.244 1205.34C365.161 1208.48 352.664 1207.98 347.899 1208.36C343.68 1214.4 340.509 1220.58 335.118 1225.76C331.123 1219.83 329.352 1212.68 327.152 1205.94C322.376 1204.63 313.908 1203.5 310.062 1200.33C308.996 1199.46 309.099 1199.07 308.972 1197.78C311.698 1192.78 319.757 1188.93 324.515 1185.94C323.649 1178.89 322.759 1171.62 323.493 1164.54Z"/><path fill="#23212B" transform="scale(0.195312 0.195312)" d="M85.4804 401.959C85.9198 401.887 86.3607 401.823 86.8026 401.769C93.9738 400.922 101.036 407.892 106.334 412.024C112.206 409.618 120.984 404.953 127.373 407.075C128.929 407.592 130.124 408.699 130.757 410.216C133.267 416.231 127.613 426.021 125.169 431.491C128.987 436.269 136.284 443.633 136.405 449.998C136.438 451.763 135.795 453.322 134.482 454.51C129.51 459.01 118.596 457.628 112.355 457.499C109.219 462.703 105.239 470.729 99.4595 473.286C97.7033 474.063 95.8665 474.145 94.1195 473.303C88.0244 470.368 85.6764 459.293 83.7621 453.257C78.1256 451.887 69.234 450.447 65.7236 445.376C64.7586 443.982 64.3858 442.386 64.7286 440.721C66.0897 434.11 75.3232 429.211 80.5115 425.788C80.6511 421.329 80.0661 416.847 80.3981 412.385C80.7327 407.887 82.049 404.881 85.4804 401.959Z"/><path fill="#FDDB91" transform="scale(0.195312 0.195312)" d="M86.8225 427.977C86.8742 422.908 84.9692 414.266 87.3847 409.833C88.0463 408.618 88.4689 408.603 89.7037 408.202C95.1701 409.329 100.883 415.78 105.013 419.391C107.929 418.307 110.793 416.996 113.659 415.78C116.84 414.481 120.124 412.476 123.567 413.701C124.444 415.062 124.604 415.787 124.285 417.414C123.626 420.767 121.272 424.554 119.76 427.634C116.735 437.089 127.106 439.628 129.663 447.256C130.123 448.63 129.898 448.915 129.323 450.151C124.613 452.976 114.81 451.416 109.226 451.692C105.259 456.017 103.23 462.162 98.9962 466.218C97.9651 467.206 97.7376 467.167 96.3936 467.132C92.2965 463.257 90.7268 454.017 88.7926 448.726C86.1249 447.535 83.1322 447.034 80.3401 446.175C77.6076 445.335 72.8784 443.786 71.5048 441.185C73.1233 436.451 82.5558 432.246 86.3333 428.475L86.8225 427.977Z"/><path fill="#F8E0A9" transform="scale(0.195312 0.195312)" d="M113.659 415.78C116.84 414.481 120.124 412.476 123.567 413.701C124.444 415.062 124.604 415.787 124.285 417.414C123.626 420.767 121.272 424.554 119.76 427.634C117.797 424.835 119.228 420.407 116.573 418.028C115.688 417.235 114.608 416.509 113.659 415.78Z"/><path fill="#23212B" transform="scale(0.195312 0.195312)" d="M609.737 1142.51C611.105 1142.46 612.565 1142.36 613.922 1142.56C615.519 1142.8 617.082 1144.11 617.979 1145.39C621.514 1150.47 618.991 1159.76 617.976 1165.42C623.089 1169.19 632.54 1174.71 633.876 1181.45C634.179 1182.97 633.872 1184.53 632.947 1185.79C629.164 1190.94 619.076 1191.51 613.191 1192.42C613.077 1192.99 612.955 1193.55 612.828 1194.12C611.515 1199.92 609.202 1208.81 603.667 1211.99C601.885 1213.01 599.851 1213.28 597.877 1212.7C592.214 1211.04 589.472 1204.48 586.921 1199.68C586.593 1199.05 585.75 1197.39 585.176 1196.97C580.956 1193.91 567.068 1198.06 561.266 1191.78C560.355 1190.81 559.888 1189.5 559.976 1188.17C560.378 1181.4 569.211 1174.47 573.975 1170.32C572.702 1167.4 571.375 1164.47 570.249 1161.49C568.796 1157.65 567.474 1152.31 569.467 1148.46C570.241 1146.96 571.598 1145.83 573.223 1145.36C579.654 1143.45 588.866 1148.76 594.265 1151.68C599.234 1148.2 604.143 1144.9 609.737 1142.51Z"/><path fill="#FDDB91" transform="scale(0.195312 0.195312)" d="M611.274 1148.04C612.003 1148.2 612.41 1148.53 613.023 1148.94C615.046 1153.93 612.359 1162.98 611.873 1168.4C615.964 1172.32 623.754 1175.7 626.495 1180.55C627.056 1181.54 626.802 1181.65 626.568 1182.69C622.413 1186.03 613.273 1186.34 608.062 1187.17C607.012 1192.91 605.546 1201.36 601.847 1205.91C600.74 1206.45 600.332 1206.89 599.094 1206.44C594.757 1204.87 590.522 1193.89 588.542 1189.93C582.872 1190.02 575.586 1190.9 570.134 1189.34C568.511 1188.87 568.027 1188.52 567.245 1187.05C568.233 1182.05 577.64 1174.64 581.308 1170.92C579.004 1166.28 575.001 1159.92 574.776 1154.72C574.71 1153.2 575.081 1152.72 576.127 1151.7C581.593 1150.58 590.241 1156.22 595.158 1158.73C600.365 1154.78 605.314 1150.82 611.274 1148.04Z"/><path fill="#23212B" transform="scale(0.195312 0.195312)" d="M442.284 77.5269C443.919 77.8448 445.521 78.2311 446.823 79.3395C451.777 83.558 451.566 93.5793 452.18 99.6041C457.276 103.314 466.694 106.681 469.257 112.736C469.805 114.031 469.926 115.453 469.372 116.768C467.021 122.354 455.927 125.293 450.584 127.175C450.14 133.507 450.337 142.4 445.368 147.118C443.846 148.563 441.952 149.292 439.845 149.151C434.149 148.771 429.778 142.641 426.513 138.588C425.938 137.965 424.845 136.622 424.141 136.259C419.238 133.736 408.142 139.235 401.71 134.982C400.58 134.235 399.915 133.184 399.691 131.854C398.657 125.708 405.099 117.551 408.32 112.688C405.525 107.202 399.957 98.701 400.805 92.444C401.022 90.8415 401.797 89.4287 403.185 88.5612C408.727 85.0981 420.054 88.753 426.031 89.9912C430.861 85.0687 435.408 79.4203 442.284 77.5269Z"/><path fill="#FDDB91" transform="scale(0.195312 0.195312)" d="M442.032 83.5566C442.65 83.6969 443.158 84.0748 443.703 84.3909C446.664 89.1362 445.73 97.7845 446.1 103.288C452.037 107.334 458.739 109.813 464.111 114.769C458.306 118.453 451.502 120.804 445.136 123.378C444.138 128.824 444.789 135.909 442.37 140.892C441.704 142.264 441.469 142.302 440.106 142.763C434.985 140.855 430.024 133.186 426.389 129.167C420.23 129.089 413.639 131.968 407.513 130.602C406.818 130.041 406.405 129.977 406.253 129.042C405.633 125.218 413.107 116.585 415.499 113.358C413.171 109.101 407.418 100.653 407.174 95.8929C407.103 94.5139 407.389 94.3709 408.283 93.4376C414.045 92.1086 422.155 95.3299 427.801 96.7683C432.688 92.4762 436.824 87.5308 442.032 83.5566Z"/></svg>