<?xml version="1.0" encoding="utf-8" ?><svg xmlns="http://www.w3.org/2000/svg" xmlns:xlink="http://www.w3.org/1999/xlink" width="2496" height="1405" viewBox="0 0 2496 1405"><path fill="#EFF6F5" transform="matrix(1.37143 0 0 1.37207 -0.00012207 -1.52588e-05)" d="M0 0L1820 0L1820 1024L1259.44 1024L1254.05 1024L1224.74 1024L1219.28 1024L550.094 1024L543.431 1024L15.5663 1024L5.89386 1024L0 1024L0 999.662L0 996.962L0 0Z"/><path fill="#223A53" transform="matrix(1.37143 0 0 1.37207 -0.00012207 -1.52588e-05)" d="M747.02 595.047C758.203 611.337 769.576 628.534 779.211 645.776L643.175 726.027C624.396 737.266 603.752 747.363 586.198 760.368L790.743 679.789C802.69 701.081 816.974 721.526 830.067 742.155L901.18 854.745C893.373 858.658 827.675 889.095 825.751 893.08C824.693 893.883 823.617 894.621 822.777 895.662C821.343 895.409 819.838 895.297 818.432 895.754C811.432 898.031 784.913 910.6 778.756 914.67C778.068 915.126 777.438 915.727 776.854 916.308L777.382 919.02C774.275 918.906 771.373 918.87 768.442 920.024C754.263 925.607 740.529 933.433 726.812 940.097C705.76 950.325 684.445 960.022 663.34 970.146C625.781 988.163 586.818 1004.4 550.094 1024L543.431 1024L15.5663 1024L5.89386 1024L0 1024L0 999.662L0 996.962C17.4155 992.628 34.3364 986.39 51.4601 981.046C72.8539 974.37 94.5039 968.351 116.034 962.122C128.988 958.374 142.199 953.832 155.453 951.403C149.041 943.718 143.739 935.486 141.929 925.476C139.791 913.651 142.961 901.307 149.862 891.557C157.26 881.062 168.584 874.003 181.262 871.983C196.998 869.54 209.762 875.303 222.1 884.453L255.965 884.551C264.538 869.635 277.861 860.829 293.583 854.835C289.67 845.075 284.892 835.45 276.917 828.349C256.643 810.296 227.245 817.589 203.614 823.584C197.21 825.208 190.157 827.773 183.573 828.001C181.152 828.085 180.182 827.919 178.415 826.301L178.364 824.003L179.694 822.755C196.627 818.032 226.883 810.402 244.181 810.432C252.055 810.445 259.855 811.961 267.161 814.898C284.665 822.075 293.079 836.724 299.98 853.242C315.603 851.5 330.932 854.376 344.271 862.993C360.121 873.232 367.743 889.778 371.706 907.546C382.966 905.291 395.168 905.077 406.632 904.241C426.733 902.75 446.844 901.388 466.963 900.154L425.694 830.771C418.669 818.931 410.876 807.126 404.926 794.732C413.574 788.958 423.541 784.208 432.561 778.901L507.349 735.31L747.02 595.047Z"/><path fill="#EFF6F5" transform="matrix(1.37143 0 0 1.37207 -0.00012207 -1.52588e-05)" d="M368.054 934.283C379.163 934.575 390.991 932.583 402.113 931.706C428.33 929.428 454.574 927.475 480.839 925.846C482.219 926.676 482.62 926.858 483.447 928.297C491.323 936.422 497.552 949.524 503.593 959.186C516.991 980.616 531.047 1001.97 543.431 1024L15.5663 1024C97.3086 996.514 180.62 973.939 265.055 956.395C265.916 957.101 266.785 957.796 267.662 958.481C281.902 969.676 299.331 975.948 317.632 973.671C331.587 971.934 347.21 964.454 356.296 953.391C360.513 948.257 363.751 942.357 367.863 937.125L368.054 934.283Z"/><path fill="#223A53" transform="matrix(1.37143 0 0 1.37207 -0.00012207 -1.52588e-05)" d="M368.054 934.283C379.163 934.575 390.991 932.583 402.113 931.706C428.33 929.428 454.574 927.475 480.839 925.846C482.219 926.676 482.62 926.858 483.447 928.297C458.706 930.86 433.698 932.066 408.895 934.099C398.067 934.987 377.852 938.153 367.863 937.125L368.054 934.283Z"/><path fill="#EFF6F5" transform="matrix(1.37143 0 0 1.37207 -0.00012207 -1.52588e-05)" d="M231.994 935.661C237.251 934.396 242.562 932.916 247.867 931.898C252.146 939.814 256.43 947.04 262.413 953.819C201.238 966.811 141.249 982.737 81.2732 1000.48C56.0738 1007.93 31.1599 1016.92 5.89386 1024L0 1024L0 999.662L0 996.962C17.4155 992.628 34.3364 986.39 51.4601 981.046C72.8539 974.37 94.5039 968.351 116.034 962.122C128.988 958.374 142.199 953.832 155.453 951.403L157.591 952.95C169.488 961.283 181.469 966.347 196.329 963.732C208.425 961.603 220.165 954.165 227.135 944.013C228.947 941.374 230.468 938.473 231.994 935.661Z"/><path fill="#223A53" transform="matrix(1.37143 0 0 1.37207 -0.00012207 -1.52588e-05)" d="M0 996.962C17.4155 992.628 34.3364 986.39 51.4601 981.046C72.8539 974.37 94.5039 968.351 116.034 962.122C128.988 958.374 142.199 953.832 155.453 951.403L157.591 952.95L0 999.662L0 996.962Z"/><path fill="#223A53" transform="matrix(1.37143 0 0 1.37207 -0.00012207 -1.52588e-05)" d="M241.724 937.172C243.534 937.286 244.627 937.491 246.227 938.366C248.521 940.939 248.66 945.44 249.17 948.76C246.73 949.522 243.662 950.838 241.118 950.903C238.771 950.963 238.466 950.176 236.797 948.628C236.556 947.506 236.342 946.379 236.155 945.248C235.813 943.048 235.97 941.386 237.257 939.59C238.829 941.783 240.059 944.123 241.328 946.496C242.195 943.595 241.594 940.223 241.724 937.172Z"/><path fill="#223A53" transform="matrix(1.37143 0 0 1.37207 -0.00012207 -1.52588e-05)" d="M118.143 969.212C119.022 969.617 119.918 970.039 120.743 970.549C123.582 972.304 125.09 977.811 125.722 980.929L124.778 982.085L123.365 981.554C120.447 982.193 118.186 982.954 115.401 981.439C114.374 979.954 113.698 979.308 113.735 977.427C113.803 973.964 115.809 971.51 118.143 969.212Z"/><path fill="#223A53" transform="matrix(1.37143 0 0 1.37207 -0.00012207 -1.52588e-05)" d="M78.0447 981.313C79.874 981.667 80.9818 982.145 82.4739 983.263C84.3057 986.363 85.2089 988.366 85.2368 991.996C83.995 993.996 82.3405 994.159 80.2092 994.942C78.9134 995.309 78.5678 995.154 77.2427 994.811C75.8057 992.208 73.9843 989.167 74.3588 986.056C74.6723 983.451 76.1184 982.759 78.0447 981.313Z"/><path fill="#223A53" transform="matrix(1.37143 0 0 1.37207 -0.00012207 -1.52588e-05)" d="M156.248 959.58C157.738 959.671 159.433 959.702 160.67 960.647C162.22 961.83 163.517 963.934 163.604 965.905C163.758 969.391 162.196 970.814 160.063 973.137C158.805 972.83 157.622 972.336 156.412 971.878C154.685 970.093 152.966 968.388 152.943 965.711C152.915 962.451 154.152 961.682 156.248 959.58Z"/><path fill="#223A53" transform="matrix(1.37143 0 0 1.37207 -0.00012207 -1.52588e-05)" d="M37.2651 992.649C39.7898 992.615 41.4996 992.428 43.6511 993.975C44.8955 996.605 44.3311 998.803 44.1463 1001.66C45.3251 1001.87 46.4107 1002.2 47.552 1002.55L47.5835 1003.74L43.8306 1005.97C41.7627 1006.5 40.231 1006.66 38.1103 1006.38C37.03 1004.19 39.6359 1000.85 40.1403 998.217L39.4188 997.22L35.4949 997.669L35.0366 996.66L37.2651 992.649Z"/><path fill="#EFF6F5" transform="matrix(1.37143 0 0 1.37207 -0.00012207 -1.52588e-05)" d="M371.469 910.55C384.414 908.544 397.959 908.001 411.044 907.025C430.299 905.588 449.615 903.975 468.922 903.551C473.38 910.008 478.125 917.387 481.436 924.487L480.839 925.846C454.574 927.475 428.33 929.428 402.113 931.706C390.991 932.583 379.163 934.575 368.054 934.283C370.159 926.226 371.675 918.918 371.469 910.55Z"/><path fill="#EFF6F5" transform="matrix(1.37143 0 0 1.37207 -0.00012207 -1.52588e-05)" d="M786.473 724.478C789.592 725.909 859.195 834.524 867.157 847.875C856.276 853.996 844.175 858.965 832.945 864.501C805.711 877.95 778.408 891.26 751.039 904.431C686.168 935.66 621.536 967.623 556.184 997.823C554.406 995.925 552.923 993.629 551.372 991.535C532.073 961.546 512.987 931.42 494.116 901.16C485.429 887.214 476.134 873.451 468.37 858.972C476.158 854.948 484.597 852.102 492.519 848.271C490.85 844.97 489.36 841.581 487.836 838.211C520.272 828.103 552.235 814.309 584.02 802.207L786.473 724.478Z"/><path fill="#223A53" transform="matrix(1.37143 0 0 1.37207 -0.00012207 -1.52588e-05)" d="M763.18 763.478C768.175 764.993 810.459 823.611 816.473 831.757C804.085 838.73 790.792 844.593 778.01 850.817L719.617 879.494C670.893 903.124 622.49 927.322 573.399 950.194C571.354 951.297 569.639 952.113 567.314 952.487C563.394 950.623 525.158 890.415 519.521 881.486C539.899 872.261 559.962 861.804 580.115 852.052C641.097 822.541 701.8 792.119 763.18 763.478Z"/><path fill="#EFF6F5" transform="matrix(1.37143 0 0 1.37207 -0.00012207 -1.52588e-05)" d="M773.913 787.494C777.508 788.301 803.319 824.672 807.004 829.645L667.518 897.94C635.862 913.558 604.179 930.069 571.667 943.797C570.586 944.239 570.014 944.178 568.872 943.991C561.04 936.902 546.842 911.562 540.54 901.397C550.029 896.289 560.008 892.03 569.704 887.323L629.707 858.095L773.913 787.494Z"/><path fill="#EFF6F5" transform="matrix(1.37143 0 0 1.37207 -0.00012207 -1.52588e-05)" d="M761.751 770.526C764.847 771.783 768.783 778.688 770.949 781.55C716.212 810.255 659.895 836.464 604.324 863.548C583.137 873.874 558.11 884.065 538.143 895.77L537.082 895.606C533.776 892.573 531.659 888.104 529.415 884.254C548.85 872.883 570.477 863.915 590.764 854.053C647.668 826.39 706.041 800.492 761.751 770.526Z"/><path fill="#EFF6F5" transform="matrix(1.37143 0 0 1.37207 -0.00012207 -1.52588e-05)" d="M306.042 859.816C315.707 859.056 324.963 860.589 333.732 864.809C347.101 871.242 357.024 882.98 361.847 896.955C366.437 910.313 365.457 924.957 359.129 937.584C352.708 950.303 341.136 960.554 327.481 964.804C301.372 972.93 272.704 960.711 258.445 937.824C254.689 931.796 253.48 918.336 247.013 915.258C242.938 913.318 236.093 912.737 231.953 914.749C226.664 917.32 227.218 927.586 225.458 932.961L225.135 933.927C224.016 936.27 222.662 938.453 221.182 940.584C215.292 949.191 206.186 955.065 195.916 956.879C185.105 958.669 174.025 956.075 165.132 949.67C156.325 943.349 150.457 933.726 148.869 923.001C147.388 912.419 150.472 901.838 157.023 893.442C163.521 885.016 173.158 879.586 183.73 878.396C197.927 876.708 208.347 882.713 218.983 891.244C232.349 891.265 246.102 890.237 259.382 891.821C261.25 888.809 263.117 885.767 265.164 882.872C275.444 868.328 289.146 862.608 306.042 859.816Z"/><path fill="#223A53" transform="matrix(1.37143 0 0 1.37207 -0.00012207 -1.52588e-05)" d="M301.321 877.466C321.567 872.962 341.652 885.647 346.292 905.867C350.932 926.087 338.387 946.263 318.204 951.042C297.825 955.866 277.417 943.171 272.732 922.755C268.047 902.339 280.878 882.012 301.321 877.466Z"/><path fill="#EFF6F5" transform="matrix(1.37143 0 0 1.37207 -0.00012207 -1.52588e-05)" d="M303.506 883.612C320.432 880.286 336.838 891.353 340.097 908.296C343.356 925.239 332.228 941.605 315.276 944.799C298.418 947.974 282.166 936.918 278.925 920.069C275.684 903.219 286.674 886.92 303.506 883.612Z"/><path fill="#223A53" transform="matrix(1.37143 0 0 1.37207 -0.00012207 -1.52588e-05)" d="M185.317 891.85C199.824 890.131 212.978 900.499 214.7 915.009C216.422 929.519 206.061 942.679 191.555 944.406C177.043 946.134 163.879 935.765 162.156 921.249C160.433 906.732 170.804 893.568 185.317 891.85Z"/><path fill="#EFF6F5" transform="matrix(1.37143 0 0 1.37207 -0.00012207 -1.52588e-05)" d="M182.61 899.22C193.047 895.971 204.134 901.834 207.327 912.29C210.52 922.746 204.602 933.805 194.132 936.944C183.739 940.061 172.781 934.193 169.611 923.814C166.441 913.435 172.25 902.445 182.61 899.22Z"/><path fill="#666E7C" transform="matrix(1.37143 0 0 1.37207 -0.00012207 -1.52588e-05)" d="M764.702 697.333C772.291 694.027 780.063 690.913 787.446 687.171C799.521 701.194 808.442 719.395 818.408 735.081C843.214 774.124 867.444 813.943 893.338 852.243L705.447 943.522C652.966 968.585 599.814 992.574 547.744 1018.45C539.327 1006.94 532.648 993.893 525.108 981.771C511.995 960.688 419.985 815.572 419.225 804.967C417.243 802.686 415.665 799.921 414.009 797.387L428.011 789.7C433.837 785.861 439.638 781.982 445.413 778.065C453.648 791.052 461.079 804.375 468.761 817.685C473.775 826.372 479.455 835.043 483.638 844.157C482.663 846.307 482.146 846.407 480.184 847.587L478.48 847.58C473.874 842.57 471.639 832.938 464.858 830.87C460.818 830.847 458.015 833.05 455.27 835.776C453.206 837.825 451.611 839.742 451.685 842.812C451.778 846.618 545.223 994.468 554.213 1005.66L783.845 895.114L848.245 863.864C857.245 859.489 867.365 855.889 875.769 850.511C847.6 805.414 817.93 761.305 789.661 716.28C778.038 721.08 766.425 726.036 754.536 730.141C758.335 719.466 760.414 707.695 764.702 697.333Z"/><path fill="#223A53" transform="matrix(1.37143 0 0 1.37207 -0.00012207 -1.52588e-05)" d="M427.46 793.421C431.413 790.678 435.405 788.411 440.41 789.455C443.588 790.118 446.161 791.971 447.831 794.737C449.689 797.809 450.256 801.491 449.408 804.98C448.645 808.054 446.674 810.703 443.842 812.165C441.15 813.555 436.928 813.826 434.072 812.793C429.694 811.209 426.232 807.293 424.355 803.145L419.225 804.967C417.243 802.686 415.665 799.921 414.009 797.387L428.011 789.7L427.46 793.421Z"/><path fill="#EFF6F5" transform="matrix(1.37143 0 0 1.37207 -0.00012207 -1.52588e-05)" d="M428.011 789.7L427.46 793.421C425.471 796.517 424.984 799.57 424.355 803.145L419.225 804.967C417.243 802.686 415.665 799.921 414.009 797.387L428.011 789.7Z"/><path fill="#EFF6F5" transform="matrix(1.37143 0 0 1.37207 -0.00012207 -1.52588e-05)" d="M434.725 795.972C436.753 794.828 439.246 794.893 441.212 796.141C443.178 797.39 444.297 799.619 444.124 801.941C443.951 804.264 442.514 806.303 440.385 807.246C437.306 808.611 433.697 807.317 432.186 804.306C430.674 801.296 431.792 797.628 434.725 795.972Z"/><path fill="#EFF6F5" transform="matrix(1.37143 0 0 1.37207 -0.00012207 -1.52588e-05)" d="M701.093 629.182C719.188 636.335 736.943 644.832 754.746 652.715C743.449 660.708 730.485 667.129 718.348 673.784C712.841 674.456 674.153 654.189 665.317 650.885C677.211 643.587 689.43 636.861 701.093 629.182Z"/><path fill="#EFF6F5" transform="matrix(1.37143 0 0 1.37207 -0.00012207 -1.52588e-05)" d="M619.938 676.429C628.167 678.003 661.77 695.69 671.906 700.811C660.901 708.211 648.924 714.641 637.514 721.433C633.754 722.311 592.42 700.547 585.25 697.345C596.729 690.238 608.15 683.016 619.938 676.429Z"/><path fill="#EFF6F5" transform="matrix(1.37143 0 0 1.37207 -0.00012207 -1.52588e-05)" d="M540.755 723.45C545.004 724.032 585.586 744.666 592.391 748.506C581.548 754.488 571.022 761.081 560.227 767.164C557.526 767.998 513.982 745.605 508.14 742.81C518.89 736.153 529.763 729.699 540.755 723.45Z"/><path fill="#666E7C" transform="matrix(1.37143 0 0 1.37207 -0.00012207 -1.52588e-05)" d="M578.675 700.533C584.067 703.975 590.701 706.452 596.497 709.212C607.909 714.649 619.145 720.119 630.051 726.545C619.282 731.709 609.234 738.443 599.182 744.858C582.288 735.384 564.214 727.974 546.912 719.266C557.41 712.87 567.998 706.625 578.675 700.533Z"/><path fill="#666E7C" transform="matrix(1.37143 0 0 1.37207 -0.00012207 -1.52588e-05)" d="M657.587 654.922C665.928 655.517 699.575 673.628 711.258 677.618C701.049 684.483 690.178 690.237 679.228 695.808C672.496 696.358 635.645 676.68 626.718 672.575C637.115 666.88 647.406 660.995 657.587 654.922Z"/><path fill="#666E7C" transform="matrix(1.37143 0 0 1.37207 -0.00012207 -1.52588e-05)" d="M501.153 746.498C506.222 748.103 511.522 751.319 516.39 753.607C528.777 759.411 541.125 765.297 553.434 771.264L522.896 785.93C517.082 787.33 479.071 767.595 470.6 764.344L501.153 746.498Z"/><path fill="#666E7C" transform="matrix(1.37143 0 0 1.37207 -0.00012207 -1.52588e-05)" d="M744.547 603.438C747.793 605.074 768.137 638.593 771.422 643.592L760.141 649.525C754.331 645.972 748.535 643.009 742.294 640.286C731.427 634.545 719.352 630.006 708.024 625.179C720.419 618.309 732.599 611.058 744.547 603.438Z"/><path fill="#EFF6F5" transform="matrix(1.37143 0 0 1.37207 -0.00012207 -1.52588e-05)" d="M755.643 700.502L756.15 700.974C757.475 706.796 750.196 724.832 748.82 731.811C735.959 737.153 722.837 741.806 710.053 747.354C708.846 744.287 716.2 721.214 717.599 716.197C729.684 710.124 743.207 706.047 755.643 700.502Z"/><path fill="#EFF6F5" transform="matrix(1.37143 0 0 1.37207 -0.00012207 -1.52588e-05)" d="M463.387 768.843C470.579 768.636 502.371 785.526 511.138 789.462L492.451 797.299C484.883 800.739 477.114 803.714 469.381 806.759C463.348 796.312 457.457 785.784 451.709 775.177C455.729 773.358 459.548 771.016 463.387 768.843Z"/><path fill="#EFF6F5" transform="matrix(1.37143 0 0 1.37207 -0.00012207 -1.52588e-05)" d="M672.795 732.527C674.238 736.019 665.947 759.372 664.388 764.548C652.733 769.546 640.59 773.324 628.999 778.528L628.569 778.103C627.573 772.505 634.802 753.915 636.876 747.303C648.495 741.747 660.927 737.584 672.795 732.527Z"/><path fill="#666E7C" transform="matrix(1.37143 0 0 1.37207 -0.00012207 -1.52588e-05)" d="M543.278 783.92L544.331 783.93L545.273 784.891C544.824 794.05 539.668 803.651 538.252 812.954C526.644 817.144 515.072 821.436 503.539 825.83L502.222 825.964C501.527 822.755 508.89 801.298 509.976 796.93C520.866 792.127 532.176 788.214 543.278 783.92Z"/><path fill="#EFF6F5" transform="matrix(1.37143 0 0 1.37207 -0.00012207 -1.52588e-05)" d="M586.203 767.032L587.36 767.05C588.983 770.55 581.846 791.007 580.501 796.456C569.79 801.539 557.887 805.275 546.777 809.5C546.387 809.604 545.707 809.368 545.305 809.286C545.893 800.046 551.126 788.518 553.903 779.533C564.425 774.965 575.527 771.295 586.203 767.032Z"/><path fill="#666E7C" transform="matrix(1.37143 0 0 1.37207 -0.00012207 -1.52588e-05)" d="M628.258 750.337L628.994 751.518C627.625 761.436 624.076 771.504 621.412 781.165C610.584 785.462 599.482 789.233 588.527 793.205L587.745 791.93C590.3 782.033 593.344 772.248 596.243 762.447L628.258 750.337Z"/><path fill="#666E7C" transform="matrix(1.37143 0 0 1.37207 -0.00012207 -1.52588e-05)" d="M709.277 719.051L710.095 719.178C711.16 721.715 704.388 744.896 703.181 749.803C694.024 754.418 683.538 757.58 673.932 761.244L673.464 761.332L672.592 760.635C672.853 750.859 678.381 738.673 681.498 729.309C690.428 725.319 700.102 722.522 709.277 719.051Z"/><path fill="#EFF6F5" transform="matrix(1.37143 0 0 1.37207 -0.00012207 -1.52588e-05)" d="M500.848 800.902L501.932 800.982L502.523 802.116C500.785 811.222 497.568 820.202 494.457 828.921C491.612 830.419 488.628 832.454 485.329 832.491C482.746 831.048 482.299 829.657 480.837 827.13L472.55 812.8C482.027 808.949 491.423 804.879 500.848 800.902Z"/><path fill="#EFF6F5" transform="matrix(1.37143 0 0 1.37207 -0.00012207 -1.52588e-05)" d="M235.472 919.877C237.911 919.724 240.611 919.327 242.742 920.762C244.949 922.248 246.458 923.951 246.955 926.62C245.827 928.805 245.642 928.639 243.267 929.402L233.108 931.618C233.572 927.531 234.271 923.813 235.472 919.877Z"/><path fill="#EFF6F5" transform="matrix(1.37143 0 0 1.37207 -0.00012207 -1.52588e-05)" d="M462.13 837.78L464.408 838.267C467.299 840.269 469.003 843.989 470.746 846.972L465.413 852.438C465.199 852.525 464.222 852.186 463.982 852.123C461.873 849.377 459.175 845.9 459.121 842.259C459.088 840.061 460.673 839.194 462.13 837.78Z"/><path fill="#EFF6F5" transform="matrix(1.37143 0 0 1.37207 -0.00012207 -1.52588e-05)" d="M776.854 916.308C777.438 915.727 778.068 915.126 778.756 914.67C784.913 910.6 811.432 898.031 818.432 895.754C819.838 895.297 821.343 895.409 822.777 895.662C855.404 900.399 888.16 903.438 920.717 909.006C1037.57 928.065 1150.3 966.956 1254.05 1024L1224.74 1024L1219.28 1024L550.094 1024C586.818 1004.4 625.781 988.163 663.34 970.146C684.445 960.022 705.76 950.325 726.812 940.097C740.529 933.433 754.263 925.607 768.442 920.024C771.373 918.87 774.275 918.906 777.382 919.02L776.854 916.308Z"/><path fill="#EFF6F5" transform="matrix(1.37143 0 0 1.37207 -0.00012207 -1.52588e-05)" d="M776.854 916.308C777.438 915.727 778.068 915.126 778.756 914.67C784.913 910.6 811.432 898.031 818.432 895.754C819.838 895.297 821.343 895.409 822.777 895.662C855.404 900.399 888.16 903.438 920.717 909.006C1037.57 928.065 1150.3 966.956 1254.05 1024L1224.74 1024L1219.28 1024C1185.01 1011.25 1150.93 998.165 1116.15 986.793C1006.96 951.091 892.157 925.93 777.382 919.02L776.854 916.308Z"/><path fill="#223A53" transform="matrix(1.37143 0 0 1.37207 -0.00012207 -1.52588e-05)" d="M776.854 916.308C795.268 916.467 813.932 919.011 832.251 920.891C946.291 932.597 1066.54 963.897 1174.08 1004C1187.68 1009.07 1213.27 1017.03 1224.74 1024L1219.28 1024C1185.01 1011.25 1150.93 998.165 1116.15 986.793C1006.96 951.091 892.157 925.93 777.382 919.02L776.854 916.308Z"/><path fill="#223A53" transform="matrix(1.37143 0 0 1.37207 -0.00012207 -1.52588e-05)" d="M1123.26 970.953C1125.72 970.617 1128.03 972.204 1128.6 974.621C1129.17 977.038 1127.81 979.493 1125.46 980.293C1123.73 980.883 1121.81 980.438 1120.51 979.145C1119.21 977.852 1118.76 975.934 1119.34 974.196C1119.92 972.459 1121.44 971.202 1123.26 970.953Z"/><path fill="#223A53" transform="matrix(1.37143 0 0 1.37207 -0.00012207 -1.52588e-05)" d="M1042.51 946.339C1044.89 945.327 1047.65 946.393 1048.73 948.747C1049.82 951.1 1048.83 953.89 1046.51 955.044C1044.95 955.823 1043.09 955.689 1041.65 954.694C1040.21 953.7 1039.43 952.002 1039.61 950.264C1039.79 948.526 1040.9 947.022 1042.51 946.339Z"/><path fill="#223A53" transform="matrix(1.37143 0 0 1.37207 -0.00012207 -1.52588e-05)" d="M878.345 909.763C880.701 909.394 882.968 910.823 883.651 913.109C884.334 915.395 883.224 917.834 881.052 918.819C879.359 919.587 877.375 919.301 875.968 918.087C874.56 916.873 873.986 914.952 874.497 913.165C875.007 911.378 876.509 910.05 878.345 909.763Z"/><path fill="#223A53" transform="matrix(1.37143 0 0 1.37207 -0.00012207 -1.52588e-05)" d="M919.765 916.766C921.389 916.183 923.2 916.525 924.499 917.659C925.799 918.792 926.383 920.54 926.027 922.228C925.671 923.916 924.43 925.278 922.783 925.79C920.312 926.557 917.681 925.209 916.861 922.755C916.04 920.3 917.33 917.64 919.765 916.766Z"/><path fill="#223A53" transform="matrix(1.37143 0 0 1.37207 -0.00012207 -1.52588e-05)" d="M960.183 925.85C962.312 924.582 965.058 925.164 966.491 927.187C967.923 929.21 967.561 931.994 965.659 933.583C964.286 934.729 962.387 935.008 960.743 934.304C959.099 933.6 957.99 932.033 957.871 930.249C957.753 928.464 958.646 926.764 960.183 925.85Z"/><path fill="#223A53" transform="matrix(1.37143 0 0 1.37207 -0.00012207 -1.52588e-05)" d="M834.38 905.456C836.522 903.927 839.499 904.44 841.006 906.598C842.513 908.755 841.97 911.728 839.798 913.213C837.657 914.678 834.736 914.144 833.25 912.017C831.765 909.89 832.269 906.963 834.38 905.456Z"/><path fill="#223A53" transform="matrix(1.37143 0 0 1.37207 -0.00012207 -1.52588e-05)" d="M1159.16 985.481C1161.24 984.27 1163.89 984.843 1165.28 986.802C1166.67 988.76 1166.34 991.456 1164.51 993.016C1163.18 994.157 1161.31 994.445 1159.69 993.761C1158.08 993.078 1156.98 991.539 1156.87 989.786C1156.76 988.033 1157.65 986.367 1159.16 985.481Z"/><path fill="#223A53" transform="matrix(1.37143 0 0 1.37207 -0.00012207 -1.52588e-05)" d="M1001.7 934.576C1004.18 934.223 1006.49 935.92 1006.89 938.394C1007.3 940.868 1005.65 943.21 1003.18 943.664C1001.54 943.966 999.867 943.358 998.803 942.074C997.74 940.79 997.453 939.03 998.054 937.475C998.655 935.919 1000.05 934.81 1001.7 934.576Z"/><path fill="#223A53" transform="matrix(1.37143 0 0 1.37207 -0.00012207 -1.52588e-05)" d="M1082.11 958.708C1083.56 957.852 1085.36 957.864 1086.8 958.74C1088.23 959.616 1089.07 961.213 1088.97 962.892C1088.87 964.572 1087.86 966.06 1086.33 966.762C1084.13 967.774 1081.52 966.884 1080.4 964.738C1079.27 962.591 1080.03 959.941 1082.11 958.708Z"/><path fill="#223A53" transform="matrix(1.37143 0 0 1.37207 -0.00012207 -1.52588e-05)" d="M825.751 893.08C849.859 894.524 874.249 898.581 898.105 902.241C1009.23 919.288 1117.11 951.03 1217.39 1002.2C1231.11 1009.2 1246.66 1015.5 1259.44 1024L1254.05 1024C1150.3 966.956 1037.57 928.065 920.717 909.006C888.16 903.438 855.404 900.399 822.777 895.662C823.617 894.621 824.693 893.883 825.751 893.08Z"/><path fill="#223A53" transform="matrix(1.37143 0 0 1.37207 -0.00012207 -1.52588e-05)" d="M300.597 257.53C416.19 252.339 514.173 341.714 519.631 457.323C525.088 572.932 435.961 671.145 320.393 676.872C204.447 682.616 105.866 593.112 100.391 477.124C94.9152 361.137 184.625 262.739 300.597 257.53Z"/><path fill="#EFF6F5" transform="matrix(1.37143 0 0 1.37207 -0.00012207 -1.52588e-05)" d="M296.389 264.646C408.384 257.194 505.195 342.006 512.568 454.034C519.942 566.061 435.084 662.838 323.079 670.137C211.182 677.429 114.544 592.65 107.177 480.731C99.8101 368.812 184.502 272.091 296.389 264.646Z"/><path fill="#223A53" transform="matrix(1.37143 0 0 1.37207 -0.00012207 -1.52588e-05)" d="M308.962 290.163C320.512 289.083 332.969 290.843 344.309 292.975C352.491 294.514 380.518 300.266 385.051 306.876C385.408 313.931 377.478 325.415 374.102 331.775C376.829 343.773 376.513 355.275 371.536 366.679C363.844 384.307 349.812 391.668 332.928 398.401C334.289 398.797 335.639 399.231 336.975 399.704C356.357 406.605 370.753 421.617 379.367 439.917C385.734 426.806 396.391 417.258 409.968 411.961C424.839 406.16 439.704 406.734 454.173 413.109C460.088 409.607 466.968 405.744 473.643 404.076C475.191 404.474 475.581 404.396 476.532 405.686C479.655 409.918 480.587 416.133 481.804 421.188C488.432 448.713 488.491 475.729 483.415 503.562C476.2 543.119 452.085 582.993 418.826 605.996C411.879 596.768 373.913 531.053 373.164 522.65C373.988 520.335 374.951 519.446 376.946 518.059C383.187 516.979 449.554 545.398 460.135 549.973C469.061 534.465 473.497 516.335 476.743 498.914C472.708 503.802 467.906 508 462.524 511.345C449.326 519.573 433.375 522.147 418.259 518.489C400.222 514.073 389.44 503.863 380.144 488.47C377.474 494.543 374.878 500.466 371.067 505.933C359.717 522.213 341.82 531.696 322.582 535.043C327.001 537.186 331.392 539.324 335.957 541.145C337.826 540.342 338.915 540.009 340.954 540.202C343.168 541.757 344.393 543.984 345.776 546.249C352.078 556.566 357.33 567.581 363.325 578.087C372.018 593.324 381.626 608.156 391.316 622.777C368.332 637.915 336.067 643.637 309.036 643.611C282.259 643.9 251.043 638.368 228.548 623.091C234.715 615.932 245.671 602.208 246.028 592.6C246.237 586.982 245.277 580.808 246.859 575.368C248.079 571.176 249.401 567.153 251.434 563.271C260.144 546.642 274.663 538.769 291.901 533.531C288.833 532.614 285.817 531.53 282.867 530.285C263.105 521.727 250.814 507.666 242.863 487.905C237.886 497.568 231.525 505.877 222.113 511.599C208.923 519.617 193.106 520.92 178.314 517.276C169.033 520.605 160.174 525.619 151.372 530.047C155.189 539.342 159.694 548.339 164.849 556.963C184.024 548.936 202.433 539.031 220.931 529.587C228.69 525.625 238.106 519.426 246.523 517.277C248.768 516.703 250.21 517.197 252.19 518.279C252.851 519.406 253.363 520.033 253.426 521.372C253.527 523.517 252.886 525.597 252.02 527.539C247.345 538.018 212.793 602.355 207.555 608.122C205.39 608.634 204.538 608.543 202.459 607.627C198.026 605.673 193.883 601.337 190.348 598.088C169.376 578.811 153.918 554.406 143.69 527.884C127.358 484.426 128.81 436.281 147.73 393.887C158.797 398.629 169.106 404.429 179.312 410.796C188 409.562 196.738 409.168 205.323 411.337C222.754 415.739 233.461 427.059 242.463 441.86C245.791 434.165 249.973 426.673 255.364 420.228C266.691 406.688 283.667 397.473 301.277 395.949C297.805 394.193 294.32 392.441 290.919 390.553C286.079 387.867 281.184 384.59 277.756 380.184C270.3 370.602 266.107 358.994 260.385 348.392C253.363 335.381 242.628 321.617 238.566 307.404C238.892 306.87 239.23 306.37 239.655 305.907C248.358 296.43 295.435 291.038 308.962 290.163Z"/><path fill="#EFF6F5" transform="matrix(1.37143 0 0 1.37207 -0.00012207 -1.52588e-05)" d="M301.721 401.281C337.092 395.876 370.152 420.161 375.58 455.537C381.008 490.913 356.751 523.996 321.387 529.449C285.99 534.908 252.876 510.617 247.443 475.207C242.01 439.798 266.317 406.692 301.721 401.281Z"/><path fill="#223A53" transform="matrix(1.37143 0 0 1.37207 -0.00012207 -1.52588e-05)" d="M307.761 447.618C317.788 445.674 327.506 452.182 329.531 462.196C331.556 472.209 325.129 481.983 315.135 484.089C309.706 485.234 304.05 483.895 299.71 480.437C295.371 476.98 292.8 471.766 292.701 466.217C292.539 457.182 298.891 449.336 307.761 447.618Z"/><path fill="#EFF6F5" transform="matrix(1.37143 0 0 1.37207 -0.00012207 -1.52588e-05)" d="M307.448 454.63C313.595 452.52 320.289 455.785 322.413 461.928C324.536 468.071 321.288 474.775 315.151 476.913C308.994 479.059 302.265 475.797 300.134 469.633C298.004 463.469 301.281 456.746 307.448 454.63Z"/><path fill="#EFF6F5" transform="matrix(1.37143 0 0 1.37207 -0.00012207 -1.52588e-05)" d="M294.113 539.138C321.22 533.911 347.432 551.654 352.659 578.768C357.886 605.882 340.149 632.101 313.042 637.331C285.933 642.562 259.717 624.819 254.489 597.702C249.262 570.585 267.002 544.364 294.113 539.138Z"/><path fill="#EFF6F5" transform="matrix(1.37143 0 0 1.37207 -0.00012207 -1.52588e-05)" d="M423.503 415.286C434.605 414.114 445.899 415.895 455.743 421.325C467.368 427.87 475.93 438.753 479.556 451.595C483.132 463.972 481.941 476.927 475.591 488.189C467.81 501.987 455.856 509.047 441.03 513.13C432.327 514.079 424.114 513.598 415.774 510.729C399.679 505.193 390.519 494.392 383.241 479.604C384.28 465.52 380.265 449.655 388.405 437.298C396.567 424.908 409.308 418.157 423.503 415.286Z"/><path fill="#EFF6F5" transform="matrix(1.37143 0 0 1.37207 -0.00012207 -1.52588e-05)" d="M191.81 416.24C218.918 416.327 240.753 438.509 240.42 465.621C240.087 492.734 217.714 514.372 190.612 513.793C163.856 513.221 142.559 491.19 142.887 464.423C143.216 437.656 165.048 416.154 191.81 416.24Z"/><path fill="#EFF6F5" transform="matrix(1.37143 0 0 1.37207 -0.00012207 -1.52588e-05)" d="M309.872 297.615C336.029 291.987 361.795 308.631 367.426 334.793C373.058 360.955 356.422 386.731 330.268 392.368C304.106 398.007 278.329 381.362 272.696 355.194C267.063 329.025 283.709 303.244 309.872 297.615Z"/><path fill="#EFF6F5" transform="matrix(1.37143 0 0 1.37207 -0.00012207 -1.52588e-05)" d="M244.298 525.329L245.163 526.598C232.555 551.929 218.255 576.659 204.811 601.577C198.688 597.107 193.212 591.891 187.829 586.576C180.537 579.511 174.658 571.149 168.57 563.061C178.321 559.076 187.702 553.516 197.137 548.777C212.827 540.898 228.698 533.387 244.298 525.329Z"/><path fill="#EFF6F5" transform="matrix(1.37143 0 0 1.37207 -0.00012207 -1.52588e-05)" d="M380.005 525.089C405.732 534.267 431.146 545.013 456.261 555.746C450.944 564.333 444.544 572.136 438.046 579.841C432.507 586.016 426.664 591.634 420.521 597.204C406.864 573.289 394.212 548.649 380.005 525.089Z"/><path fill="#EFF6F5" transform="matrix(1.37143 0 0 1.37207 -0.00012207 -1.52588e-05)" d="M361.014 588.938C365.362 591.873 378.024 614.142 381.995 619.958C373.341 624.915 364.267 628.172 354.78 631.146C348.63 632.608 342.504 634.166 336.403 635.82C338.289 634.194 340.142 632.531 341.963 630.833C353.988 619.524 360.512 605.381 361.014 588.938Z"/><path fill="#EFF6F5" transform="matrix(1.37143 0 0 1.37207 -0.00012207 -1.52588e-05)" d="M287.611 299.059L287.916 299.05L288.384 299.6C274.859 311.757 267.248 322.385 264.012 340.717C262.101 337.036 259.797 333.565 257.576 330.065L245.108 309.15C259.085 305.256 273.167 300.779 287.611 299.059Z"/><path fill="#EFF6F5" transform="matrix(1.37143 0 0 1.37207 -0.00012207 -1.52588e-05)" d="M151.253 402.309L170.956 413.596C161.978 417.85 154.58 423.29 148.023 430.773C144.81 434.806 142.326 439.061 139.783 443.526C142.49 429.344 146.237 415.85 151.253 402.309Z"/><path fill="#EFF6F5" transform="matrix(1.37143 0 0 1.37207 -0.00012207 -1.52588e-05)" d="M140.38 488.68C144.939 491.991 149.256 501.343 154.026 505.917C157.462 509.212 162.69 511.694 166.788 514.141C165.895 515.963 164.001 516.499 162.233 517.423L149.067 523.569C145.054 512.46 141.585 500.454 140.38 488.68Z"/><path fill="#EFF6F5" transform="matrix(1.37143 0 0 1.37207 -0.00012207 -1.52588e-05)" d="M247.687 605.81C250.444 607.095 256.062 619.293 258.575 622.748C261.038 626.135 264.03 628.756 267.068 631.597C265.063 632.136 261.961 630.847 259.956 630.312C252.509 627.71 245.241 624.957 238.027 621.763C241.508 616.546 244.776 611.37 247.687 605.81Z"/><path fill="#EFF6F5" transform="matrix(1.37143 0 0 1.37207 -0.00012207 -1.52588e-05)" d="M353.644 301.964C361.626 302.457 370.68 306.621 378.118 309.381C376.499 312.503 374.764 315.577 373.086 318.668L371.265 322.176L370.336 322.288C365.532 314.253 360.69 308.064 353.644 301.964Z"/><path fill="#EFF6F5" transform="matrix(1.37143 0 0 1.37207 -0.00012207 -1.52588e-05)" d="M471.58 411.612C472.296 412.661 472.078 412.187 472.472 413.357C473.654 416.862 477.144 426.036 475.596 429.2L473.155 426.707C469.755 422.98 465.764 419.835 461.908 416.598L471.58 411.612Z"/><path fill="#223A53" transform="matrix(1.37143 0 0 1.37207 -0.00012207 -1.52588e-05)" d="M411.375 322.971C412.378 323.385 413.348 323.842 414.28 324.397C422.937 329.56 455.407 361.39 457.846 370.399C456.07 375.169 409.728 395.353 401.908 399.075C393.573 402.851 377.047 413.427 367.908 412.216L366.836 410.711C366.688 406.998 367.587 403.924 368.979 400.503C374.828 386.135 383.865 372.06 391.295 358.401C397.474 347.043 403.404 333.006 411.375 322.971Z"/><path fill="#EFF6F5" transform="matrix(1.37143 0 0 1.37207 -0.00012207 -1.52588e-05)" d="M413.109 332.254C426.841 343.031 438.635 356.28 450.775 368.75C434.716 377.012 417.838 384.481 401.308 391.783L374.497 404.28C386.039 380.048 399.209 355.241 413.109 332.254Z"/><path fill="#223A53" transform="matrix(1.37143 0 0 1.37207 -0.00012207 -1.52588e-05)" d="M205.432 322.361C206.815 322.533 207.902 323.021 209.159 323.578C214.711 330.602 255.253 402.968 255.524 407.36C254.745 409.328 254.581 409.188 252.762 410.046C244.104 410.275 233.567 403.687 225.772 400.013C215.692 395.723 166.495 375.56 163.414 368.298C165.802 355.012 195.201 331.557 205.432 322.361Z"/><path fill="#EFF6F5" transform="matrix(1.37143 0 0 1.37207 -0.00012207 -1.52588e-05)" d="M205.327 331.39C209.977 334.198 241.878 393.818 246.576 402.283C238.33 398.8 230.226 394.812 222.088 391.074C205.097 383.349 187.869 376.128 171.225 367.662C180.458 353.052 192.41 342.611 205.327 331.39Z"/><path fill="#223A53" transform="matrix(1.37143 0 0 1.37207 -0.00012207 -1.52588e-05)" d="M1206.15 583.96C1208.18 571.303 1209.11 550.846 1220.33 542.746C1233.73 533.06 1263.5 540.319 1278.96 543.093C1315.63 549.675 1401.66 572.967 1421.84 602.176C1424.2 605.59 1426.52 610.167 1425.75 614.414C1423.01 629.436 1400.06 677.44 1392.72 694.153L1339.77 817.615C1327.41 845.733 1313.16 873.837 1302.31 902.531C1276.79 915.221 1235.11 903.311 1209.87 894.823C1192.01 888.817 1161.97 878.009 1153.04 859.915C1150.92 855.608 1151.82 850.782 1152.45 846.164C1156.06 819.951 1164.14 790.286 1169.46 763.901C1173.01 745.471 1176.76 727.082 1180.73 708.738C1182.28 701.367 1183.18 692.684 1185.59 685.612C1185.7 685.298 1185.86 685.005 1186 684.701C1188.94 660.965 1195.43 636.745 1200.27 613.28C1202.14 603.492 1203.9 593.67 1206.15 583.96Z"/><defs><linearGradient id="gradient_0" gradientUnits="userSpaceOnUse" x1="1193.2435" y1="630.05676" x2="1206.1705" y2="633.94324"><stop offset="0" stop-color="#283548"/><stop offset="1" stop-color="#355573"/></linearGradient></defs><path fill="url(#gradient_0)" transform="matrix(1.37143 0 0 1.37207 -0.00012207 -1.52588e-05)" d="M1206.15 583.96L1208.08 584.568C1208.57 589.641 1204.08 608.722 1205.22 610.584L1207.23 609.212C1207.57 614.305 1193.18 684.133 1191.8 686.256L1190.6 686.31C1189.23 681.949 1191.77 674.744 1191.96 670.013C1187.82 674.571 1190.05 681.234 1186.65 685.421L1186 684.701C1188.94 660.965 1195.43 636.745 1200.27 613.28C1202.14 603.492 1203.9 593.67 1206.15 583.96Z"/><path fill="#223A53" transform="matrix(1.37143 0 0 1.37207 -0.00012207 -1.52588e-05)" d="M1200.27 613.28C1200.7 613.978 1201.59 615.047 1201.82 615.791C1203.2 620.305 1194.24 662.817 1192.16 669.533C1192.11 669.699 1192.03 669.853 1191.96 670.013C1187.82 674.571 1190.05 681.234 1186.65 685.421L1186 684.701C1188.94 660.965 1195.43 636.745 1200.27 613.28Z"/><path fill="#EFF6F5" transform="matrix(1.37143 0 0 1.37207 -0.00012207 -1.52588e-05)" d="M1232.17 547.89C1268.51 546.004 1333.56 564.282 1367.4 579.109C1377.88 583.7 1407.73 596.761 1411.77 607.909C1412.96 611.188 1410.6 616.774 1409.41 619.99C1405.85 629.63 1401.29 638.996 1397.27 648.454C1388.23 669.761 1379.05 691.009 1369.73 712.196L1303.65 863.166C1298.36 875.175 1292.42 887.76 1288.93 900.42C1247.81 902.55 1193.18 887.907 1161.84 860.409C1175.01 789.522 1190.68 719.024 1204.74 648.296L1217.49 583.231C1219.33 574.033 1220.52 561.446 1224.45 552.991C1225.9 549.87 1229.17 548.908 1232.17 547.89Z"/><path fill="#223A53" transform="matrix(1.37143 0 0 1.37207 -0.00012207 -1.52588e-05)" d="M1233.81 553.116C1255.61 551.847 1285.34 558.939 1306.41 564.63C1325.59 569.811 1397.36 592.757 1404.96 608.417C1406.41 611.401 1405.24 613.677 1404.21 616.609C1399.39 630.243 1392.95 643.638 1387.17 656.893L1359.27 720.498C1339.35 765.266 1319.84 810.214 1300.73 855.337C1295.09 868.747 1289.6 882.257 1283.5 895.463C1283.08 895.504 1282.66 895.537 1282.24 895.562C1251.9 897.43 1190.3 880.45 1167.47 860.049C1169.69 852.342 1170.96 844.192 1172.7 836.348C1177.77 813.489 1182.16 790.521 1186.86 767.589C1199.25 707.968 1211.21 648.256 1222.73 588.46C1224.23 580.489 1225.91 563.411 1229.77 556.772C1230.67 555.221 1232.36 554.106 1233.81 553.116Z"/><path fill="#EFF6F5" transform="matrix(1.37143 0 0 1.37207 -0.00012207 -1.52588e-05)" d="M1234.97 559.191C1271.95 556.449 1370.93 587.102 1399.99 609.898C1393.15 631.259 1382.31 652.325 1373.49 672.999C1348.78 730.941 1322.11 788.031 1297.49 846.05C1291.33 860.718 1285.04 875.334 1278.63 889.895C1243.51 887.293 1204.43 877.715 1175.02 857.617C1190.51 785.636 1205.25 713.496 1219.24 641.208C1224.68 614.202 1227.55 585.656 1234.97 559.191Z"/><path fill="#223A53" transform="matrix(1.37143 0 0 1.37207 -0.00012207 -1.52588e-05)" d="M1236.87 579.899C1237.27 576.324 1237.28 571.942 1239.03 568.765C1241.28 567.891 1243.39 568.525 1245.71 569.099C1266.29 574.191 1286.11 582.069 1306.36 588.229L1360.81 605.012C1369.16 607.673 1378.29 609.919 1386.28 613.489C1387.98 614.248 1389.11 614.53 1389.91 616.269C1386.89 631.212 1378.12 646.745 1371.9 660.712L1347.51 715.966C1308.36 701.126 1267.88 691.003 1228.27 677.777C1225.85 676.968 1222.95 676.342 1221.27 674.335C1219.98 670.882 1221.16 666.988 1221.91 663.502C1222.77 649.669 1227.17 634.611 1229.61 620.867C1231.69 609.141 1233.15 590.56 1236.87 579.899Z"/><path fill="#223A53" transform="matrix(1.37143 0 0 1.37207 -0.00012207 -1.52588e-05)" d="M1236.87 579.899C1239.1 577.234 1238.1 574.122 1240.57 571.504C1238.49 596.748 1234.41 634.059 1227.33 657.583C1227.21 657.75 1227.08 657.912 1226.97 658.083C1224.48 661.762 1225.27 665.923 1223.59 669.797C1222.88 667.704 1222.33 665.671 1221.91 663.502C1222.77 649.669 1227.17 634.611 1229.61 620.867C1231.69 609.141 1233.15 590.56 1236.87 579.899Z"/><path fill="#3F4C5E" transform="matrix(1.37143 0 0 1.37207 -0.00012207 -1.52588e-05)" d="M1240.57 571.504C1243.1 571.768 1247.71 572.958 1249.34 575.068C1249.46 575.217 1249.53 575.395 1249.62 575.559C1248.53 576.564 1247.01 576.085 1246.41 576.619C1243.38 579.33 1230.23 662.843 1229.78 671.786C1229.77 672.006 1229.76 672.227 1229.75 672.447L1228.67 673.703C1226.75 672.99 1226.51 672.69 1225.24 671.05C1225.48 666.491 1226.9 662.111 1227.33 657.583C1234.41 634.059 1238.49 596.748 1240.57 571.504Z"/><path fill="#EFF6F5" transform="matrix(1.37143 0 0 1.37207 -0.00012207 -1.52588e-05)" d="M1248.75 579.281L1329.36 604.198C1345.05 609.119 1360.63 614.466 1376.53 618.688C1366.64 640.912 1356.93 663.218 1347.41 685.602L1339.91 702.87C1327.88 699.953 1316.08 695.687 1304.26 692.005C1280.92 684.869 1257.64 677.537 1234.43 670.011C1238.55 639.761 1243.41 609.338 1248.75 579.281Z"/><path fill="#223A53" transform="matrix(1.37143 0 0 1.37207 -0.00012207 -1.52588e-05)" d="M1211.46 749.129C1219.18 746.474 1227.59 750.599 1230.21 758.329C1232.84 766.059 1228.68 774.45 1220.94 777.044C1213.24 779.623 1204.91 775.493 1202.3 767.807C1199.69 760.12 1203.79 751.77 1211.46 749.129Z"/><path fill="#EFF6F5" transform="matrix(1.37143 0 0 1.37207 -0.00012207 -1.52588e-05)" d="M1214.48 757.012C1217.95 756.129 1221.49 758.198 1222.42 761.659C1223.36 765.12 1221.35 768.691 1217.9 769.68C1215.62 770.333 1213.17 769.709 1211.49 768.046C1209.8 766.384 1209.14 763.942 1209.76 761.656C1210.38 759.37 1212.18 757.595 1214.48 757.012Z"/><path fill="#223A53" transform="matrix(1.37143 0 0 1.37207 -0.00012207 -1.52588e-05)" d="M1252.61 760.539C1260.45 758.897 1268.14 763.893 1269.84 771.724C1271.53 779.555 1266.58 787.282 1258.76 789.023C1250.87 790.78 1243.06 785.778 1241.36 777.877C1239.65 769.976 1244.7 762.195 1252.61 760.539Z"/><path fill="#EFF6F5" transform="matrix(1.37143 0 0 1.37207 -0.00012207 -1.52588e-05)" d="M1254.66 767.864C1258.54 767.258 1262.19 769.895 1262.83 773.775C1263.48 777.656 1260.88 781.33 1257 782.01C1253.08 782.698 1249.34 780.053 1248.69 776.12C1248.04 772.188 1250.72 768.479 1254.66 767.864Z"/><path fill="#223A53" transform="matrix(1.37143 0 0 1.37207 -0.00012207 -1.52588e-05)" d="M1307.67 731.183C1315.64 730.472 1322.69 736.343 1323.43 744.312C1324.17 752.282 1318.32 759.349 1310.36 760.117C1302.35 760.889 1295.24 755.008 1294.5 746.997C1293.76 738.987 1299.66 731.898 1307.67 731.183Z"/><path fill="#EFF6F5" transform="matrix(1.37143 0 0 1.37207 -0.00012207 -1.52588e-05)" d="M1306.56 739.262C1310.08 737.813 1314.11 739.436 1315.65 742.92C1317.18 746.404 1315.66 750.478 1312.22 752.101C1309.91 753.188 1307.2 752.938 1305.13 751.45C1303.06 749.962 1301.96 747.468 1302.26 744.936C1302.55 742.405 1304.2 740.233 1306.56 739.262Z"/><path fill="#223A53" transform="matrix(1.37143 0 0 1.37207 -0.00012207 -1.52588e-05)" d="M1277.74 815.833C1285.55 814.2 1293.2 819.202 1294.83 827.008C1296.47 834.814 1291.47 842.469 1283.67 844.108C1275.86 845.748 1268.2 840.745 1266.57 832.935C1264.93 825.125 1269.93 817.467 1277.74 815.833Z"/><path fill="#EFF6F5" transform="matrix(1.37143 0 0 1.37207 -0.00012207 -1.52588e-05)" d="M1277.7 823.624C1280.05 822.555 1282.79 822.869 1284.83 824.438C1286.88 826.008 1287.89 828.578 1287.46 831.119C1287.03 833.66 1285.24 835.757 1282.79 836.571C1279.28 837.741 1275.47 835.957 1274.11 832.51C1272.76 829.063 1274.34 825.159 1277.7 823.624Z"/><path fill="#223A53" transform="matrix(1.37143 0 0 1.37207 -0.00012207 -1.52588e-05)" d="M1201.56 793.239C1209.33 792.015 1216.63 797.265 1217.95 805.018C1219.27 812.771 1214.12 820.145 1206.38 821.563C1201.29 822.497 1196.1 820.619 1192.78 816.649C1189.46 812.679 1188.53 807.229 1190.35 802.383C1192.16 797.537 1196.45 794.044 1201.56 793.239Z"/><path fill="#EFF6F5" transform="matrix(1.37143 0 0 1.37207 -0.00012207 -1.52588e-05)" d="M1201.02 801.464C1203.23 800.541 1205.77 800.906 1207.62 802.417C1209.48 803.927 1210.36 806.336 1209.91 808.688C1209.46 811.04 1207.75 812.953 1205.46 813.667C1202.15 814.702 1198.61 812.95 1197.42 809.687C1196.23 806.424 1197.82 802.803 1201.02 801.464Z"/><path fill="#223A53" transform="matrix(1.37143 0 0 1.37207 -0.00012207 -1.52588e-05)" d="M1265.04 718.534C1270.04 717.101 1275.44 718.495 1279.12 722.177C1282.81 725.859 1284.21 731.25 1282.78 736.261C1281.36 741.273 1277.33 745.118 1272.26 746.307C1264.67 748.084 1257.06 743.485 1255.1 735.945C1253.14 728.405 1257.55 720.677 1265.04 718.534Z"/><path fill="#EFF6F5" transform="matrix(1.37143 0 0 1.37207 -0.00012207 -1.52588e-05)" d="M1266.96 725.687C1269.42 724.955 1272.09 725.627 1273.91 727.439C1275.73 729.25 1276.41 731.911 1275.69 734.376C1274.97 736.842 1272.97 738.717 1270.46 739.265C1266.77 740.071 1263.11 737.816 1262.17 734.161C1261.23 730.506 1263.35 726.762 1266.96 725.687Z"/><path fill="#223A53" transform="matrix(1.37143 0 0 1.37207 -0.00012207 -1.52588e-05)" d="M1224.05 707.059C1231.44 704.499 1239.51 708.336 1242.2 715.683C1244.89 723.029 1241.19 731.174 1233.89 733.988C1229.06 735.852 1223.6 734.962 1219.6 731.661C1215.61 728.359 1213.71 723.159 1214.63 718.06C1215.55 712.96 1219.15 708.755 1224.05 707.059Z"/><path fill="#EFF6F5" transform="matrix(1.37143 0 0 1.37207 -0.00012207 -1.52588e-05)" d="M1226.86 714.096C1229.2 713.413 1231.73 714.049 1233.47 715.76C1235.21 717.47 1235.89 719.987 1235.25 722.341C1234.6 724.695 1232.74 726.517 1230.37 727.106C1226.81 727.991 1223.2 725.865 1222.24 722.323C1221.28 718.78 1223.34 715.124 1226.86 714.096Z"/><path fill="#223A53" transform="matrix(1.37143 0 0 1.37207 -0.00012207 -1.52588e-05)" d="M1240.13 804.042C1247.89 803.328 1254.79 808.983 1255.61 816.736C1256.43 824.49 1250.88 831.466 1243.14 832.397C1238.03 833.01 1232.99 830.828 1229.95 826.685C1226.91 822.543 1226.33 817.082 1228.43 812.393C1230.54 807.704 1235.01 804.513 1240.13 804.042Z"/><path fill="#EFF6F5" transform="matrix(1.37143 0 0 1.37207 -0.00012207 -1.52588e-05)" d="M1238.1 811.9C1240.33 810.656 1243.07 810.72 1245.24 812.068C1247.42 813.416 1248.69 815.836 1248.57 818.392C1248.45 820.949 1246.96 823.24 1244.67 824.379C1241.24 826.085 1237.07 824.741 1235.29 821.35C1233.5 817.959 1234.75 813.764 1238.1 811.9Z"/><path fill="#223A53" transform="matrix(1.37143 0 0 1.37207 -0.00012207 -1.52588e-05)" d="M1291.34 773.417C1293.69 773.226 1295.92 773.086 1298.23 773.679C1302.14 774.687 1305.49 777.197 1307.55 780.662C1309.45 783.898 1310.03 787.897 1308.98 791.516C1307.5 796.555 1304.38 798.869 1299.97 801.271C1297.44 801.635 1294.96 801.92 1292.41 801.523C1288.96 800.954 1285.91 798.976 1283.98 796.063C1281.84 792.842 1281.42 788.737 1282.23 785.018C1283.5 779.23 1286.53 776.534 1291.34 773.417Z"/><path fill="#EFF6F5" transform="matrix(1.37143 0 0 1.37207 -0.00012207 -1.52588e-05)" d="M1293.36 781.031C1295.74 780.262 1298.34 780.856 1300.15 782.578C1301.96 784.299 1302.68 786.872 1302.03 789.282C1301.38 791.693 1299.46 793.553 1297.03 794.131C1293.48 794.977 1289.89 792.864 1288.9 789.344C1287.92 785.825 1289.89 782.155 1293.36 781.031Z"/><path fill="#EFF6F5" transform="matrix(1.37143 0 0 1.37207 -0.00012207 -1.52588e-05)" d="M1417.69 606.059C1419.24 607.87 1420.25 610.043 1420.43 612.446C1420.64 615.299 1419.46 618.145 1418.43 620.74C1410.59 640.396 1401.65 659.67 1393.21 679.068L1342.4 795.614C1332.02 819.995 1321.42 844.284 1310.6 868.477C1306.31 878.219 1302.37 891.695 1295.83 899.783C1293.66 897.727 1297.87 890.712 1298.95 888.097C1326.24 822.01 1356.67 757.033 1385.09 691.405L1406.22 642.686C1410.14 633.609 1414.73 624.301 1417.63 614.84C1418.53 611.889 1418.15 609.06 1417.69 606.059Z"/><path fill="#223A53" transform="matrix(1.37143 0 0 1.37207 -0.00012207 -1.52588e-05)" d="M1570.3 33.9266C1571.94 34.4989 1573.45 35.332 1574.99 36.1281C1576.46 40.3944 1558.51 90.6117 1555.87 99.3309C1570.41 101.474 1580.66 105.774 1592.8 114.057C1611.07 106.489 1629.38 99.0301 1647.74 91.6813C1658.1 87.5 1669.68 81.538 1680.64 79.4452C1686.03 83.7263 1737.32 205.93 1745.47 224.877C1738.2 228.614 1730.17 231.396 1722.62 234.553C1705.77 241.653 1688.87 248.613 1671.91 255.435L1524.74 316.162C1505.43 324.424 1485.74 332.077 1466.17 339.727C1455.81 312.69 1443.98 286.307 1433 259.534C1423.5 236.379 1414.79 212.304 1404.22 189.661C1432.99 176.091 1464.35 165.404 1493.87 153.106C1495.31 141.983 1498.01 133.342 1503.55 123.679C1488.36 116.79 1462.63 104.265 1448.8 95.6636C1446.71 94.3662 1446.37 93.4567 1445.88 91.2027L1446.97 89.6426C1454.06 88.5949 1497.44 113.488 1507.14 118.133C1519.71 106.82 1531.8 100.099 1549.09 99.2623C1555.26 77.3503 1562.89 55.4587 1570.3 33.9266Z"/><path fill="#EFF6F5" transform="matrix(1.37143 0 0 1.37207 -0.00012207 -1.52588e-05)" d="M1676.9 87.1421C1678.71 88.1227 1679.22 89.5755 1680.13 91.3777C1685.51 102.081 1689.71 113.74 1694.5 124.767C1708.47 156.922 1721.78 189.594 1736.76 221.275C1708.61 234.473 1678.94 245.398 1650.16 257.161C1591 281.34 1531.54 305.179 1472.75 330.203C1471.69 330.656 1471.24 330.514 1470.13 330.386C1462.93 317.344 1458.18 301.704 1452.4 287.86L1413.08 193.641C1422.79 188.695 1433.71 184.995 1443.85 180.878L1504.68 156.38L1676.9 87.1421Z"/><path fill="#223A53" transform="matrix(1.37143 0 0 1.37207 -0.00012207 -1.52588e-05)" d="M1585.73 135.895L1587.6 135.903C1592.85 140.062 1632.24 238.343 1636.96 252.49C1612.08 263.206 1586.83 273.127 1561.84 283.572C1561 283.496 1559.7 283.613 1559.09 283.008C1557.11 281.039 1511.76 171.868 1511.49 167.142C1519.04 160.964 1571.96 141.881 1585.73 135.895Z"/><path fill="#EFF6F5" transform="matrix(1.37143 0 0 1.37207 -0.00012207 -1.52588e-05)" d="M1583.8 144.063C1589.22 148.631 1623.02 235.813 1628.92 248.829C1607.21 256.739 1585.81 266.341 1564.41 275.109L1563.68 275.227C1560.94 272.748 1522.88 179.873 1519.63 170.633C1540.14 160.263 1562.73 153.338 1583.8 144.063Z"/><path fill="#223A53" transform="matrix(1.37143 0 0 1.37207 -0.00012207 -1.52588e-05)" d="M1673.6 100.305C1674.33 100.658 1674.86 101.192 1675.33 101.85C1679.53 107.695 1683.28 120.391 1686.28 127.324C1697.69 153.665 1710.41 180.193 1720.33 207.112C1721.39 209.99 1722.74 213.019 1722.24 216.115C1717.29 221.436 1657.33 243.878 1647 247.654C1645.35 246.799 1644.71 245.955 1643.88 244.315C1638.61 233.916 1634.69 222.231 1630.22 211.413C1619.27 184.887 1608.5 157.845 1596.07 131.984C1605.8 126.729 1616.62 123.137 1626.89 119.066L1673.6 100.305Z"/><path fill="#EFF6F5" transform="matrix(1.37143 0 0 1.37207 -0.00012207 -1.52588e-05)" d="M1669.08 109.269L1670.77 109.809C1676.82 119.153 1680.65 131.766 1685.13 142.03C1695.35 165.464 1706.65 188.978 1715.37 213.007C1693.95 221.298 1672.42 229.999 1651.43 239.313L1649.93 239.548C1646.55 236.33 1611.1 148.775 1605.04 135.308C1626.02 125.883 1647.78 117.985 1669.08 109.269Z"/><path fill="#223A53" transform="matrix(1.37143 0 0 1.37207 -0.00012207 -1.52588e-05)" d="M1499.82 170.672L1502.28 170.502C1503.12 171.037 1503.63 171.377 1504.05 172.313C1508.28 181.666 1511.66 191.66 1515.58 201.174C1527.45 229.969 1539.01 258.934 1551.25 287.565C1527.97 299.647 1501.27 308.05 1476.97 318.308C1476.12 318.249 1475.38 317.905 1474.57 317.619C1467.78 307.107 1462.06 288.874 1457.09 276.783C1446.7 251.445 1436.11 226.187 1425.33 201.011C1432.78 196.742 1441.81 193.868 1449.81 190.633L1499.82 170.672Z"/><path fill="#EFF6F5" transform="matrix(1.37143 0 0 1.37207 -0.00012207 -1.52588e-05)" d="M1497.26 178.668L1498.21 178.767C1501.86 181.803 1537.64 272.21 1542.74 284.166C1521.7 293.099 1500.24 300.976 1479.24 309.987L1478.82 309.924C1475.26 306.326 1440.02 218.976 1434.19 204.454L1497.26 178.668Z"/><path fill="#EFF6F5" transform="matrix(1.37143 0 0 1.37207 -0.00012207 -1.52588e-05)" d="M1544.73 105.968C1560.36 104.697 1572.57 108.931 1585.69 117.119C1566.99 122.907 1548.73 131.308 1530.59 138.698C1521.86 141.865 1511.19 148.412 1502.16 149.401C1501.99 149.059 1501.75 148.66 1501.67 148.273C1500.28 142.232 1506.11 132.281 1509.49 127.354C1518.12 114.802 1530.13 108.77 1544.73 105.968Z"/><path fill="#223A53" transform="matrix(1.37143 0 0 1.37207 -0.00012207 -1.52588e-05)" d="M1662.46 717.622C1672.15 716.335 1682.83 718.045 1690.98 723.617C1700.66 730.234 1729.33 764.169 1736.01 774.687C1738.98 779.369 1741.27 784.582 1742.2 790.072C1745.22 807.881 1735.61 822.128 1725.89 835.935C1685.35 893.534 1622.66 944.892 1551.82 957.229C1531.75 959.433 1512.42 957.216 1495.77 944.487C1483.4 935.025 1474.21 919.764 1472.17 904.314C1468.1 873.513 1485.06 840.121 1503.06 816.348C1514.78 800.677 1528.33 786.472 1543.44 774.042C1572.96 749.993 1625.17 722.82 1662.46 717.622Z"/><path fill="#666E7C" transform="matrix(1.37143 0 0 1.37207 -0.00012207 -1.52588e-05)" d="M1662.33 723.803C1671.64 723.086 1679.95 723.762 1687.85 729.245C1696.12 734.982 1724.38 767.686 1730.42 776.741C1733.13 780.817 1735.28 785.324 1736.13 790.175C1738.69 804.714 1731.69 817.035 1723.78 828.541C1685.62 884.034 1623.11 938.356 1555.22 950.893C1535.71 954.015 1516.4 951.891 1499.99 939.947C1488.38 931.5 1481.44 918.942 1479.29 904.824C1474.63 874.162 1490.82 843.48 1508.38 819.67C1538.14 779.304 1575.94 754.91 1621.89 736.615C1635.12 731.348 1648.17 725.959 1662.33 723.803Z"/><path fill="#223A53" transform="matrix(1.37143 0 0 1.37207 -0.00012207 -1.52588e-05)" d="M1499.96 865.315C1500.67 865.419 1501.28 865.524 1501.96 865.739C1522.23 872.073 1546.17 903.708 1555.28 922.27C1556.48 924.708 1557.36 926.924 1556.44 929.618C1553.78 932.617 1549.48 934.031 1545.87 935.619C1542.07 937.006 1538.43 937.972 1534.37 938.147C1523.36 938.62 1512.82 933.667 1504.93 926.212C1495.95 917.726 1490.23 906.284 1489.91 893.837C1489.65 883.395 1492.67 872.976 1499.96 865.315Z"/><path fill="#EFF6F5" transform="matrix(1.37143 0 0 1.37207 -0.00012207 -1.52588e-05)" d="M1502.3 872.221C1523.5 882.052 1539.89 907.629 1550.86 927.2C1547.99 928.506 1544.98 929.577 1542.04 930.733C1541.46 930.989 1540.87 931.199 1540.26 931.376C1532.67 933.578 1524.25 932.151 1517.42 928.278C1507.79 922.69 1500.77 913.502 1497.92 902.738C1494.98 891.728 1496.66 881.935 1502.3 872.221Z"/><path fill="#223A53" transform="matrix(1.37143 0 0 1.37207 -0.00012207 -1.52588e-05)" d="M1545.46 823.223C1548.92 823.113 1552.02 823.173 1555.29 824.48C1560.75 826.67 1565.45 830.504 1567.75 836.038C1569.53 840.335 1569.55 844.97 1567.65 849.232C1564.96 855.283 1560.04 858.045 1554.15 860.415C1549.88 860.66 1545.82 860.946 1541.79 859.272C1537 857.282 1532.98 853.433 1531.08 848.579C1529.3 844.006 1529.48 838.901 1531.57 834.464C1534.42 828.512 1539.49 825.438 1545.46 823.223Z"/><path fill="#EFF6F5" transform="matrix(1.37143 0 0 1.37207 -0.00012207 -1.52588e-05)" d="M1547.38 829.656C1554.12 828.636 1560.45 833.121 1561.72 839.811C1563 846.5 1558.76 853.001 1552.12 854.528C1547.6 855.569 1542.87 854.053 1539.8 850.578C1536.72 847.103 1535.79 842.224 1537.37 837.862C1538.96 833.499 1542.8 830.351 1547.38 829.656Z"/><path fill="#223A53" transform="matrix(1.37143 0 0 1.37207 -0.00012207 -1.52588e-05)" d="M1636.94 757.792C1647.26 756.359 1656.81 763.481 1658.39 773.78C1659.96 784.078 1652.98 793.732 1642.7 795.451C1635.93 796.584 1629.07 793.982 1624.75 788.641C1620.44 783.3 1619.33 776.047 1621.85 769.659C1624.37 763.271 1630.14 758.737 1636.94 757.792Z"/><path fill="#EFF6F5" transform="matrix(1.37143 0 0 1.37207 -0.00012207 -1.52588e-05)" d="M1636.73 764.59C1643.53 762.956 1650.36 767.137 1652.01 773.935C1653.66 780.733 1649.49 787.581 1642.7 789.24C1635.88 790.903 1629.02 786.721 1627.37 779.906C1625.72 773.09 1629.91 766.229 1636.73 764.59Z"/><path fill="#223A53" transform="matrix(1.37143 0 0 1.37207 -0.00012207 -1.52588e-05)" d="M1670.26 802.96C1676.99 801.737 1683.85 804.232 1688.23 809.489C1692.6 814.747 1693.81 821.953 1691.39 828.35C1688.96 834.746 1683.29 839.343 1676.53 840.38C1666.27 841.952 1656.66 834.994 1654.94 824.761C1653.23 814.527 1660.05 804.815 1670.26 802.96Z"/><path fill="#EFF6F5" transform="matrix(1.37143 0 0 1.37207 -0.00012207 -1.52588e-05)" d="M1672.71 809.11C1679.56 808.51 1685.64 813.486 1686.41 820.323C1687.17 827.161 1682.35 833.362 1675.53 834.297C1670.98 834.923 1666.44 833.027 1663.67 829.345C1660.91 825.663 1660.36 820.773 1662.24 816.57C1664.12 812.367 1668.12 809.512 1672.71 809.11Z"/><path fill="#223A53" transform="matrix(1.37143 0 0 1.37207 -0.00012207 -1.52588e-05)" d="M1628.73 837.686C1635.51 837.002 1642.13 840.018 1646.07 845.582C1650 851.146 1650.63 858.396 1647.73 864.56C1644.82 870.723 1638.83 874.846 1632.03 875.352C1621.72 876.12 1612.71 868.454 1611.8 858.149C1610.9 847.843 1618.44 838.725 1628.73 837.686Z"/><path fill="#EFF6F5" transform="matrix(1.37143 0 0 1.37207 -0.00012207 -1.52588e-05)" d="M1629.75 844.203C1636.62 843.688 1642.63 848.78 1643.25 855.64C1643.88 862.5 1638.88 868.592 1632.04 869.325C1627.51 869.809 1623.07 867.815 1620.43 864.107C1617.78 860.399 1617.34 855.554 1619.28 851.43C1621.21 847.306 1625.21 844.543 1629.75 844.203Z"/><path fill="#223A53" transform="matrix(1.37143 0 0 1.37207 -0.00012207 -1.52588e-05)" d="M1594.96 789.668C1605.23 788.44 1614.53 795.803 1615.71 806.081C1616.88 816.359 1609.46 825.628 1599.18 826.742C1588.98 827.847 1579.8 820.503 1578.64 810.305C1577.48 800.107 1584.77 790.886 1594.96 789.668Z"/><path fill="#EFF6F5" transform="matrix(1.37143 0 0 1.37207 -0.00012207 -1.52588e-05)" d="M1596.39 796.031C1602.94 795.556 1608.71 800.335 1609.46 806.865C1610.2 813.396 1605.67 819.356 1599.18 820.378C1594.73 821.078 1590.26 819.283 1587.53 815.702C1584.8 812.122 1584.25 807.332 1586.1 803.225C1587.95 799.119 1591.9 796.357 1596.39 796.031Z"/><path fill="#223A53" transform="matrix(1.37143 0 0 1.37207 -0.00012207 -1.52588e-05)" d="M1578.15 873.442C1588 870.478 1598.38 876.101 1601.29 885.974C1604.19 895.847 1598.51 906.198 1588.62 909.044C1578.81 911.865 1568.57 906.239 1565.69 896.449C1562.81 886.66 1568.38 876.381 1578.15 873.442Z"/><path fill="#EFF6F5" transform="matrix(1.37143 0 0 1.37207 -0.00012207 -1.52588e-05)" d="M1582.19 878.799C1588.99 878.072 1595.09 882.972 1595.85 889.764C1596.61 896.555 1591.74 902.684 1584.96 903.478C1578.12 904.277 1571.94 899.365 1571.18 892.526C1570.41 885.688 1575.35 879.531 1582.19 878.799Z"/><path fill="#3F4C5E" transform="matrix(1.37143 0 0 1.37207 -0.00012207 -1.52588e-05)" d="M958.589 171.839C975.615 170.48 993.178 172.611 1007.17 183.267C1021.19 193.944 1027.8 211.032 1029.96 228.03C1033.3 254.235 1032.02 289.221 1015.01 310.899C1005.24 323.363 992.315 329.149 976.951 331.091C960.588 332.419 943.358 330.445 929.798 320.311C915.051 309.29 907.759 290.19 905.334 272.506C901.853 247.13 902.275 214.513 918.573 193.332C928.721 180.143 942.419 173.964 958.589 171.839Z"/><path fill="#EFF6F5" transform="matrix(1.37143 0 0 1.37207 -0.00012207 -1.52588e-05)" d="M965.996 201.108C970.566 200.949 975.493 201.885 979.3 204.524C986.59 209.579 989.651 218.585 991.004 226.961C993.606 243.07 994.926 279.986 984.945 293.511C980.806 299.121 975.897 300.756 969.211 301.715C964.176 301.61 958.631 301.354 954.402 298.291C946.934 292.882 943.978 281.649 942.71 273.026C940.169 255.749 938.36 224.637 949.486 210.057C954.032 204.099 958.713 202.137 965.996 201.108Z"/><path fill="#3F4C5E" transform="matrix(1.37143 0 0 1.37207 -0.00012207 -1.52588e-05)" d="M826.315 174.343C841.397 174.864 856.622 174.382 871.718 174.316C871.043 204.446 871.694 234.729 871.74 264.871L893.704 264.695C893.113 275.227 893.419 285.874 893.895 296.404L871.725 296.074L871.718 330.171C860.413 330.163 848.4 330.986 837.204 329.533C835.903 327.28 836.325 324.584 836.275 322L836.266 296.284L758.557 296.062L758.118 265.962L826.315 174.343Z"/><path fill="#EFF6F5" transform="matrix(1.37143 0 0 1.37207 -0.00012207 -1.52588e-05)" d="M835.729 207.747C838.02 215.642 836.272 254.87 836.251 264.907L795.134 264.568L795.036 264.135C796.695 259.096 830.091 215.323 835.729 207.747Z"/><path fill="#3F4C5E" transform="matrix(1.37143 0 0 1.37207 -0.00012207 -1.52588e-05)" d="M1113.38 174.189L1158.65 174.277L1158.2 265.568C1165.01 265.621 1171.88 265.162 1178.68 264.899C1178.47 275.24 1178.6 285.604 1178.59 295.948L1158.15 295.86L1157.95 329.831C1146.52 329.927 1134.7 330.665 1123.33 329.59C1122.02 327.934 1122.38 325.859 1122.29 323.777C1121.98 314.503 1121.78 305.226 1121.67 295.947L1046.86 295.877L1046.87 266.928C1068.58 235.685 1090.75 204.768 1113.38 174.189Z"/><path fill="#EFF6F5" transform="matrix(1.37143 0 0 1.37207 -0.00012207 -1.52588e-05)" d="M1121.86 205.108C1123.5 212.307 1122.23 254.151 1122.29 265.062C1108.16 264.899 1094.02 265.071 1079.89 265.58C1079.18 265.142 1079.26 264.83 1078.99 264.059C1083.24 256.253 1090.01 248.901 1095.28 241.697C1104.18 229.527 1112.5 216.939 1121.86 205.108Z"/><path fill="#223A53" transform="matrix(1.37143 0 0 1.37207 -0.00012207 -1.52588e-05)" d="M1600.33 506.06C1628.98 506.08 1632.58 528.638 1653.29 540.875C1664.81 547.683 1678.62 550.055 1690.93 555.202C1700.89 559.369 1707.67 565.912 1711.69 576.004C1717.69 591.077 1717.74 607.417 1715.07 623.182C1714.57 626.142 1714.23 630.397 1712.89 633.073C1712.17 634.512 1711.08 635.267 1709.6 635.747C1702.93 637.902 1684.98 625.848 1678.37 622.703C1680.59 612.156 1680.42 600.195 1676.1 590.204C1673.91 585.131 1671.36 579.511 1665.81 577.486C1663.32 576.58 1660.69 575.988 1658.21 577.117C1656.03 583.21 1664.29 593.612 1665.93 599.96C1667.56 606.311 1667.04 613.964 1663.49 619.608C1660.54 624.29 1656.14 624.982 1651.12 626.167C1645.09 631.688 1642.93 646.858 1639.7 654.745C1635.32 652.541 1612.06 639.43 1609.38 639.395C1608.36 639.382 1606.64 639.997 1605.59 640.225C1603.31 639.446 1603.16 638.868 1601.75 636.854C1602.21 635.793 1602.7 634.742 1603.21 633.704C1607 626.227 1616.87 604.283 1624.65 601.711C1626.7 602.334 1626.56 602.515 1627.56 604.295C1626.88 608.967 1614.35 627.288 1611.48 632.489C1619.31 637.268 1627.91 641.197 1636.07 645.423C1638.39 640.122 1641.28 623.325 1645.85 620.634C1649.12 618.707 1653.3 618.631 1656.61 616.486C1658.67 615.149 1659.85 613.322 1660.28 610.902C1662.05 600.939 1654.17 590.72 1648.85 583.151C1650.22 578.48 1651.3 574.177 1655.7 571.443C1658.68 569.589 1662.21 569.23 1665.57 570.151C1673.43 572.309 1677.73 578.189 1681.63 584.888C1686.14 596.65 1686.88 606.695 1686.4 619.114C1693.23 622.657 1700.08 626.14 1706.97 629.561C1708.83 621.993 1709.87 614.246 1710.07 606.454C1710.23 597.884 1708.86 589.355 1706.03 581.264C1696.59 554.323 1669.58 558.964 1648.79 546.529C1639.79 541.144 1633.7 531.883 1626.5 524.461C1620 517.769 1611.84 512.796 1602.27 512.739C1582.13 512.619 1567.1 527.009 1553.79 540.172L1573.65 553.613C1579.27 547.402 1585.98 541.426 1593.65 537.906C1599.72 535.123 1606.52 534.094 1612.88 536.541C1618.32 538.634 1622.64 543.012 1624.98 548.321C1626.67 552.17 1627.6 557.221 1625.86 561.21C1625.21 562.697 1624.15 564.123 1622.78 565.017C1620.89 566.249 1594.96 576.014 1591.29 577.318C1587.73 578.579 1582.58 578.946 1579.16 577.259L1579.05 575.918C1587.15 567.385 1611.34 565.786 1618.5 558.48C1619.78 557.177 1620.14 555.507 1620.07 553.706C1619.97 550.983 1617.82 548.079 1615.79 546.359C1612.3 543.4 1607.61 542.252 1603.11 542.669C1591.6 543.736 1582.31 554.229 1575.47 562.659C1564.87 556.021 1553.1 549.55 1544.11 540.817C1558.68 523.199 1576.92 508.498 1600.33 506.06Z"/><path fill="#3F4C5E" transform="matrix(1.37143 0 0 1.37207 -0.00012207 -1.52588e-05)" d="M950.628 372.587C957.937 370.593 965.752 372.739 971.019 378.186C976.286 383.634 978.169 391.518 975.932 398.759C973.695 405.999 967.693 411.446 960.272 412.971C949.29 415.229 938.499 408.359 935.894 397.452C933.29 386.544 939.811 375.538 950.628 372.587Z"/><path fill="#EFF6F5" transform="matrix(1.37143 0 0 1.37207 -0.00012207 -1.52588e-05)" d="M951.915 379.621C954.057 379.502 956.626 379.217 958.717 379.733C962.088 380.584 964.998 382.71 966.834 385.663C968.58 388.49 969.139 391.892 968.389 395.13C967.276 400.088 964.27 402.641 960.183 405.309C958.087 405.736 955.506 406.061 953.379 405.639C950.144 404.998 947.328 402.915 945.562 400.167C943.458 396.892 943.067 392.992 943.941 389.241C945.084 384.333 947.804 382.121 951.915 379.621Z"/><path fill="#3F4C5E" transform="matrix(1.37143 0 0 1.37207 -0.00012207 -1.52588e-05)" d="M1073.29 372.802C1080.39 370.951 1087.94 373.068 1093.04 378.342C1098.14 383.616 1100 391.23 1097.92 398.266C1095.84 405.302 1090.13 410.67 1082.97 412.313C1072.14 414.803 1061.31 408.13 1058.67 397.33C1056.02 386.531 1062.53 375.606 1073.29 372.802Z"/><path fill="#EFF6F5" transform="matrix(1.37143 0 0 1.37207 -0.00012207 -1.52588e-05)" d="M1076.56 379.578C1078.15 379.68 1079.82 379.767 1081.37 380.177C1084.8 381.087 1087.31 383.343 1088.95 386.431C1090.74 389.795 1091 393.628 1089.78 397.23C1088.28 401.698 1085.81 403.602 1081.75 405.599C1079.38 405.675 1076.58 405.76 1074.35 404.823C1071.08 403.457 1068.72 400.471 1067.54 397.206C1066.23 393.573 1066.59 389.628 1068.26 386.171C1070.15 382.248 1072.65 381.002 1076.56 379.578Z"/><path fill="#3F4C5E" transform="matrix(1.37143 0 0 1.37207 -0.00012207 -1.52588e-05)" d="M1190.33 372.613C1200.52 372.396 1210.88 371.639 1219.56 378.055C1223.39 380.885 1226.72 385.117 1227.15 390.015C1227.69 396.112 1224.42 402.707 1220.67 407.271C1210.94 413.595 1201.26 412.316 1190.19 412.068L1190.33 372.613Z"/><path fill="#EFF6F5" transform="matrix(1.37143 0 0 1.37207 -0.00012207 -1.52588e-05)" d="M1198.08 379.521C1203.16 379.516 1207.59 379.341 1212.09 382.068C1215.05 383.861 1217.45 386.294 1218.12 389.822C1218.99 394.477 1217.03 398.432 1214.46 402.127C1209.43 405.55 1204 405.283 1198.17 405.419L1198.08 379.521Z"/><path fill="#223A53" transform="matrix(1.37143 0 0 1.37207 -0.00012207 -1.52588e-05)" d="M1628.47 569.501C1628.9 569.62 1629.07 569.645 1629.51 569.897C1631.44 571.006 1631.71 571.624 1632.16 573.643C1631.27 576.631 1619.97 585.065 1616.88 589.346C1608.42 601.056 1605.67 616.233 1597.43 627.88C1597.21 627.899 1596.99 627.928 1596.78 627.937C1592.28 628.133 1567.78 610.956 1563.47 607.196C1566.57 601.27 1569.72 595.371 1572.93 589.501C1572.51 589.212 1572.09 588.935 1571.69 588.614C1569.7 586.976 1569.52 585.725 1569.22 583.319C1570.08 582.183 1570.22 581.661 1571.65 581.299C1576.17 580.158 1579.07 582.443 1582.78 584.703C1578.97 591.533 1575.59 598.616 1572.09 605.607C1579.48 610.152 1586.94 614.591 1594.45 618.922C1600.39 607.224 1604.52 593.938 1612.5 583.439C1616.82 577.761 1622.81 573.744 1628.47 569.501Z"/><defs><linearGradient id="gradient_1" gradientUnits="userSpaceOnUse" x1="1147.1489" y1="406.74945" x2="1180.7786" y2="376.80911"><stop offset="0" stop-color="#293E57"/><stop offset="1" stop-color="#44586B"/></linearGradient></defs><path fill="url(#gradient_1)" transform="matrix(1.37143 0 0 1.37207 -0.00012207 -1.52588e-05)" d="M1147.28 372.286L1152.62 372.618C1160.35 376.745 1167.99 390.411 1173.37 397.329C1173.25 391.135 1171.53 377.606 1174.75 372.67C1177.44 372.642 1178.92 372.319 1181.29 373.656C1183.11 385.875 1181.69 399.84 1181.67 412.293C1181.09 412.322 1180.5 412.34 1179.91 412.346C1171.71 412.448 1161.81 394.658 1155.88 388.883L1155.34 388.369C1155.31 393.985 1157.12 408.25 1153.61 412.353C1151.56 412.394 1149.78 412.641 1148.03 411.366C1145.94 399.068 1147.3 384.821 1147.28 372.286Z"/><path fill="#223A53" transform="matrix(1.37143 0 0 1.37207 -0.00012207 -1.52588e-05)" d="M729.194 372.993C736.621 372.985 746.008 371.941 752.771 375.34C756.027 376.976 758.825 379.588 759.831 383.198C760.91 387.067 759.821 391.06 757.741 394.385C754.989 398.783 750.845 399.786 746.139 400.775C743.772 400.757 740.804 400.431 738.518 400.988C734.154 402.052 737.89 408.748 735.875 411.846C733.618 412.529 732.127 412.632 729.803 412.227C727.499 407.211 729.172 380.08 729.194 372.993Z"/><path fill="#EFF6F5" transform="matrix(1.37143 0 0 1.37207 -0.00012207 -1.52588e-05)" d="M736.645 379.673C740.079 379.563 744.092 379.16 747.317 380.587C749.392 381.505 750.922 382.678 751.674 384.846C752.662 387.695 751.3 390.421 749.97 392.872C745.358 394.379 741.327 394.704 736.534 394.832L736.645 379.673Z"/><path fill="#3F4C5E" transform="matrix(1.37143 0 0 1.37207 -0.00012207 -1.52588e-05)" d="M894.214 371.894C904.469 373.12 914.999 390.457 921.526 398.01C921.171 391.306 920.315 383.968 921.137 377.293C921.386 375.27 921.575 373.871 923.194 372.556C925.481 372.613 927.026 372.288 928.937 373.691C930.449 386.043 929.437 399.628 928.854 412.053L924.64 412.287C918.159 409.954 907.125 392.908 902.053 387.074C902.104 394.229 902.938 402.368 902.036 409.41C901.79 411.333 901.319 411.347 899.884 412.389C897.406 412.462 896.868 412.504 894.738 411.296C893.15 398.542 894.783 384.84 894.214 371.894Z"/><path fill="#3F4C5E" transform="matrix(1.37143 0 0 1.37207 -0.00012207 -1.52588e-05)" d="M762.877 400.915C765.443 394.682 771.039 376.267 777.158 373.526C778.858 372.765 779.539 373.299 781.197 373.892C788.436 380.82 792.192 396.192 796.977 405.284C797.374 406.031 797.782 406.786 798.112 407.566C799.063 409.81 799.269 410.148 798.36 412.311C796.087 413.031 795.396 412.856 793.065 412.011C789.88 410.855 788.812 407.709 787.469 404.857C781.993 403.702 775.736 404.614 770.093 404.146C769.552 405.888 769.035 407.887 768.175 409.493C766.978 411.731 764.944 412.467 762.659 413.235C760.815 412.625 760.854 412.22 759.893 410.606C759.393 407.347 761.535 403.835 762.877 400.915Z"/><path fill="#223A53" transform="matrix(1.37143 0 0 1.37207 -0.00012207 -1.52588e-05)" d="M762.877 400.915C765.37 401.655 768.351 402.11 770.093 404.146C769.552 405.888 769.035 407.887 768.175 409.493C766.978 411.731 764.944 412.467 762.659 413.235C760.815 412.625 760.854 412.22 759.893 410.606C759.393 407.347 761.535 403.835 762.877 400.915Z"/><path fill="#223A53" transform="matrix(1.37143 0 0 1.37207 -0.00012207 -1.52588e-05)" d="M787.469 404.857C790.925 403.937 793.605 403.869 796.977 405.284C797.374 406.031 797.782 406.786 798.112 407.566C799.063 409.81 799.269 410.148 798.36 412.311C796.087 413.031 795.396 412.856 793.065 412.011C789.88 410.855 788.812 407.709 787.469 404.857Z"/><path fill="#EFF6F5" transform="matrix(1.37143 0 0 1.37207 -0.00012207 -1.52588e-05)" d="M777.95 384.402C778.508 384.757 778.898 384.996 779.316 385.52C781.42 388.161 784.315 394.092 784.091 397.466L782.222 398.111C779.438 398.257 776.663 398.78 774.219 397.217C773.312 393.25 776.425 388.161 777.95 384.402Z"/><path fill="#223A53" transform="matrix(1.37143 0 0 1.37207 -0.00012207 -1.52588e-05)" d="M105.564 685.523C114.128 683.397 122.797 688.608 124.941 697.17C127.084 705.731 121.894 714.413 113.339 716.576C104.758 718.745 96.0459 713.534 93.8957 704.946C91.7455 696.358 96.9736 687.656 105.564 685.523Z"/><path fill="#EFF6F5" transform="matrix(1.37143 0 0 1.37207 -0.00012207 -1.52588e-05)" d="M106.149 687.452C113.507 685.732 120.899 690.174 122.837 697.479C124.775 704.784 120.557 712.307 113.315 714.462C108.434 715.915 103.149 714.598 99.5215 711.023C95.8936 707.449 94.4966 702.183 95.8753 697.28C97.254 692.376 101.19 688.611 106.149 687.452Z"/><path fill="#223A53" transform="matrix(1.37143 0 0 1.37207 -0.00012207 -1.52588e-05)" d="M660.024 480.275C668.481 477.834 677.314 482.716 679.748 491.177C682.183 499.638 677.295 508.47 668.835 510.899C660.383 513.325 651.564 508.443 649.132 499.991C646.7 491.538 651.575 482.714 660.024 480.275Z"/><path fill="#EFF6F5" transform="matrix(1.37143 0 0 1.37207 -0.00012207 -1.52588e-05)" d="M662.064 482.11C669.5 480.786 676.602 485.74 677.93 493.177C679.259 500.615 674.31 507.722 666.875 509.054C659.434 510.388 652.322 505.433 650.993 497.99C649.664 490.546 654.622 483.436 662.064 482.11Z"/><path fill="#223A53" transform="matrix(1.37143 0 0 1.37207 -0.00012207 -1.52588e-05)" d="M146.797 125.567C155.198 123.309 163.847 128.256 166.161 136.644C168.476 145.032 163.589 153.715 155.219 156.088C146.768 158.482 137.984 153.537 135.647 145.068C133.31 136.599 138.315 127.847 146.797 125.567Z"/><path fill="#EFF6F5" transform="matrix(1.37143 0 0 1.37207 -0.00012207 -1.52588e-05)" d="M148.659 127.522C155.779 126.278 162.605 130.897 164.099 137.97C165.593 145.044 161.218 152.03 154.203 153.772C149.44 154.955 144.412 153.443 141.091 149.83C137.77 146.217 136.685 141.079 138.261 136.431C139.838 131.783 143.826 128.367 148.659 127.522Z"/><path fill="#223A53" transform="matrix(1.37143 0 0 1.37207 -0.00012207 -1.52588e-05)" d="M921.096 613.686C929.605 611.694 938.113 616.991 940.085 625.506C942.056 634.022 936.741 642.52 928.223 644.472C919.734 646.418 911.271 641.123 909.307 632.635C907.342 624.148 912.615 615.672 921.096 613.686Z"/><path fill="#EFF6F5" transform="matrix(1.37143 0 0 1.37207 -0.00012207 -1.52588e-05)" d="M920.393 616.145C925.078 614.602 930.23 615.718 933.856 619.062C937.482 622.406 939.012 627.452 937.855 632.247C936.697 637.042 933.034 640.833 928.282 642.154C921.17 644.13 913.781 640.068 911.639 633.003C909.496 625.938 913.383 618.454 920.393 616.145Z"/><path fill="#223A53" transform="matrix(1.37143 0 0 1.37207 -0.00012207 -1.52588e-05)" d="M1310.71 57.9553C1319.19 56.1296 1327.54 61.5679 1329.29 70.0668C1331.05 78.5656 1325.55 86.8683 1317.04 88.5575C1308.62 90.2277 1300.44 84.7981 1298.7 76.3952C1296.96 67.9923 1302.32 59.7603 1310.71 57.9553Z"/><path fill="#EFF6F5" transform="matrix(1.37143 0 0 1.37207 -0.00012207 -1.52588e-05)" d="M1311.12 59.9899C1315.88 58.9164 1320.85 60.4991 1324.12 64.1292C1327.39 67.7594 1328.45 72.8717 1326.88 77.4999C1325.32 82.128 1321.38 85.5513 1316.58 86.4532C1309.34 87.8133 1302.34 83.121 1300.85 75.9047C1299.36 68.6884 1303.93 61.6089 1311.12 59.9899Z"/><path fill="#223A53" transform="matrix(1.37143 0 0 1.37207 -0.00012207 -1.52588e-05)" d="M1751.89 298.018C1760.2 295.757 1768.77 300.669 1771.02 308.984C1773.27 317.3 1768.35 325.863 1760.03 328.103C1751.73 330.339 1743.19 325.427 1740.95 317.127C1738.7 308.827 1743.6 300.276 1751.89 298.018Z"/><path fill="#EFF6F5" transform="matrix(1.37143 0 0 1.37207 -0.00012207 -1.52588e-05)" d="M1751.98 300.748C1758.94 298.519 1766.38 302.366 1768.59 309.33C1770.8 316.294 1766.93 323.727 1759.96 325.914C1753.02 328.092 1745.63 324.244 1743.43 317.309C1741.23 310.374 1745.06 302.967 1751.98 300.748Z"/><path fill="#223A53" transform="matrix(1.37143 0 0 1.37207 -0.00012207 -1.52588e-05)" d="M1729.1 928.269C1734.43 926.538 1740.28 927.803 1744.42 931.581C1748.56 935.36 1750.35 941.07 1749.11 946.536C1747.87 952.001 1743.79 956.381 1738.43 958.004C1730.25 960.48 1721.61 955.907 1719.05 947.753C1716.49 939.6 1720.98 930.908 1729.1 928.269Z"/><path fill="#EFF6F5" transform="matrix(1.37143 0 0 1.37207 -0.00012207 -1.52588e-05)" d="M1730.44 930.02C1737.53 928.074 1744.86 932.191 1746.89 939.254C1748.91 946.317 1744.89 953.698 1737.85 955.811C1733.22 957.2 1728.21 955.993 1724.72 952.652C1721.23 949.312 1719.8 944.352 1720.99 939.668C1722.17 934.984 1725.78 931.299 1730.44 930.02Z"/><path fill="#223A53" transform="matrix(1.37143 0 0 1.37207 -0.00012207 -1.52588e-05)" d="M482.935 169.275C491.097 166.889 499.655 171.532 502.108 179.676C504.56 187.82 499.988 196.418 491.866 198.938C483.65 201.486 474.932 196.849 472.451 188.61C469.97 180.371 474.678 171.689 482.935 169.275Z"/><path fill="#EFF6F5" transform="matrix(1.37143 0 0 1.37207 -0.00012207 -1.52588e-05)" d="M484.531 171.183C491.473 169.712 498.334 173.997 500.06 180.882C501.786 187.766 497.758 194.783 490.943 196.762C486.306 198.109 481.303 196.814 477.901 193.385C474.5 189.957 473.243 184.943 474.625 180.315C476.007 175.687 479.807 172.184 484.531 171.183Z"/><path fill="#223A53" transform="matrix(1.37143 0 0 1.37207 -0.00012207 -1.52588e-05)" d="M1368.19 402.775C1373.62 401.711 1379.21 403.67 1382.79 407.895C1386.37 412.12 1387.39 417.952 1385.45 423.141C1383.51 428.33 1378.92 432.065 1373.44 432.905C1365.22 434.169 1357.49 428.618 1356.06 420.417C1354.63 412.215 1360.02 404.375 1368.19 402.775Z"/><path fill="#EFF6F5" transform="matrix(1.37143 0 0 1.37207 -0.00012207 -1.52588e-05)" d="M1369.66 404.835C1376.59 404.01 1382.91 408.842 1383.93 415.74C1384.96 422.638 1380.31 429.101 1373.45 430.325C1368.83 431.149 1364.13 429.396 1361.17 425.748C1358.22 422.1 1357.48 417.135 1359.25 412.785C1361.01 408.436 1365 405.39 1369.66 404.835Z"/><path fill="#223A53" transform="matrix(1.37143 0 0 1.37207 -0.00012207 -1.52588e-05)" d="M843.452 373.043C849.871 373.27 867.417 371.518 872.238 374.216L872.564 377.069C869.391 383.168 859.515 377.452 853.526 380.454C851.897 382.633 851.784 383.595 851.415 386.208C854.585 391.872 864.913 385.837 869.644 389.453C869.815 392.044 869.856 392.452 868.583 394.687C864.477 396.944 857.177 395.728 852.477 395.593C850.846 397.488 851.158 400.581 851.252 403.011C856.466 408.958 866.766 403.112 873.043 406.986C873.734 409.233 873.409 409.397 872.524 411.476C870.385 413.026 847.287 412.281 843.007 412.333C843.695 399.294 843.405 386.103 843.452 373.043Z"/><path fill="#223A53" transform="matrix(1.37143 0 0 1.37207 -0.00012207 -1.52588e-05)" d="M819.063 371.976C822.723 372.225 826.031 372.655 829.437 374.1C832.178 375.264 833.813 376.698 834.951 379.5C834.691 381.695 834.673 381.643 832.942 383.029C828.825 383.977 824.494 380.854 820.444 379.929C817.738 379.311 814.439 379.299 812.128 381.008C809.594 382.881 808.781 386.085 808.399 389.05C807.81 393.619 808.3 397.789 811.217 401.511C813.208 404.052 815.658 405.624 818.932 405.933C821.677 406.191 824.005 405.94 826.222 404.16C827.371 402.291 828.051 401.005 828.258 398.805C828.403 397.268 828.608 396.138 829.197 394.708C829.257 394.564 829.321 394.422 829.383 394.279C831.583 394.275 833.609 394.11 835.656 395.038C837.932 398.841 836.719 403.501 836.345 407.806C832.212 410.152 827.562 411.788 822.837 412.356C817.021 413.055 811.188 411.864 806.56 408.145C802.394 404.796 799.846 399.692 799.318 394.407C798.774 388.952 800.341 383.318 803.875 379.096C808.028 374.134 812.814 372.624 819.063 371.976Z"/><path fill="#3F4C5E" transform="matrix(1.37143 0 0 1.37207 -0.00012207 -1.52588e-05)" d="M1105.55 372.79C1107.74 372.699 1109.85 372.78 1112.03 372.952C1116.42 377.549 1112.15 393.059 1113.91 399.745C1114.51 402.046 1115.5 403.86 1117.6 405.071C1119.72 406.302 1122.55 405.962 1124.86 405.416C1138.33 402.229 1128.14 381.687 1133.67 372.902C1135.58 372.35 1137.02 372.664 1138.94 373.015C1140.37 375.003 1140.01 376.12 1139.95 378.444C1139.96 385.112 1140.43 392.379 1139.25 398.944C1138.4 403.658 1136.57 408.132 1132.47 410.907C1128.71 413.458 1124.13 414.001 1119.73 413.146C1114.96 412.222 1110.6 409.786 1107.88 405.682C1102.58 397.683 1103.7 381.813 1105.55 372.79Z"/><path fill="#3F4C5E" transform="matrix(1.37143 0 0 1.37207 -0.00012207 -1.52588e-05)" d="M1028.19 372.609C1033.15 372.577 1051.21 371.015 1054.04 373.784C1054.07 376.068 1054.03 377.148 1052.65 379.005C1049.87 380.574 1046.64 379.616 1043.62 379.394C1040.77 379.185 1039.59 379.555 1037.52 381.373C1036.59 383.862 1036.72 385.725 1036.97 388.29C1041.48 392.696 1046.72 387.299 1051.62 389.549C1053.43 392.035 1053.09 393.5 1053.2 396.525L1036.74 396.479C1036.7 400.151 1036.86 404.028 1036.47 407.672C1036.23 409.838 1035.7 410.69 1034.04 412.029C1031.65 412.009 1030.29 412.303 1028.2 410.932C1025.9 400.203 1027.98 383.919 1028.19 372.609Z"/><path fill="#3F4C5E" transform="matrix(1.37143 0 0 1.37207 -0.00012207 -1.52588e-05)" d="M989.755 379.585C993.194 379.185 996.182 378.867 999.601 379.57C994.63 382.904 1000.78 405.948 996.73 412.36C994.297 412.658 993.925 412.55 991.704 411.49C986.93 405.171 989.534 387.774 989.755 379.585Z"/><path fill="#223A53" transform="matrix(1.37143 0 0 1.37207 -0.00012207 -1.52588e-05)" d="M989.755 379.585C986.653 379.768 982.392 380.543 979.63 379.037C978.503 377.173 978.542 376.179 978.768 374.041C983.187 370.866 1001 372.579 1006.78 373.24C1007.84 373.362 1008.85 373.806 1009.8 374.284L1010.58 375.961C1009.35 378.262 1008.9 378.567 1006.65 379.929C1004.25 379.949 1001.98 379.904 999.601 379.57C996.182 378.867 993.194 379.185 989.755 379.585Z"/></svg>